<svg xmlns="http://www.w3.org/2000/svg" viewBox="0 0 614.57 166.51"><defs><style>.cls-1{fill:#00c08b;}</style></defs><title>Cricut®</title><g id="Layer_2" data-name="Layer 2"><g id="Layer_1-2" data-name="Layer 1"><path class="cls-1" d="M550.05,77.81v44.13c.45,13.95,11.46,18.23,26.13,14.63v28.58c-29.93,5.88-56-7.48-56-38.11V77.81H500.09V49.68h20.12V18l29.84-.12V49.68h26.13V77.81Z"/><path class="cls-1" d="M188.71,47.41a26.34,26.34,0,0,1,8.1,1.43V81.57a58.14,58.14,0,0,0-6.54-1.49c-13.92-1.91-35.15,5-35.15,28.81v54.22H125.28V49.68h29.84V69.19C161.13,53.77,174.2,47.41,188.71,47.41Z"/><path class="cls-1" d="M207,18.15a18.39,18.39,0,0,1,36.78,0c0,9.75-8.33,17.92-18.51,17.92C215.32,36.07,207,27.9,207,18.15Zm3.47,31.53H240.3V163.11H210.46Z"/><path class="cls-1" d="M487.36,49.68V163.11H457.53v-12.7c-6.94,10.21-19,15.88-34.46,15.88-24.52,0-43.72-16.79-43.72-47V49.68h29.84v66c0,15.42,9.48,23.36,22.9,23.36,14.57,0,25.44-8.39,25.44-28.13V49.68Z"/><path class="cls-1" d="M89.37,117.91A31.25,31.25,0,1,1,88.71,92l.22.45,26.51-12.89-.22-.45a60.66,60.66,0,1,0,1.24,50.35l.2-.46L89.57,117.45Z"/><path class="cls-1" d="M343.46,117.45l-.2.46A31.25,31.25,0,1,1,342.6,92l.21.45,26.52-12.89-.22-.45a60.66,60.66,0,1,0,1.24,50.35l.2-.46Z"/><path class="cls-1" d="M598.29,147.74h4.76c2.6,0,4.17,1.56,4.17,3.86a3.63,3.63,0,0,1-3.46,3.74l5.39,6.38h-2.3l-5.38-6.36h-1.35v6.36h-1.83Zm4.54,6c1.6,0,2.56-.71,2.56-2.13s-1-2.16-2.56-2.16h-2.71v4.29Z"/><path class="cls-1" d="M602.84,144.59a10.14,10.14,0,1,1-10.15,10.14,10.15,10.15,0,0,1,10.15-10.14m0-1.6a11.74,11.74,0,1,0,11.73,11.74A11.74,11.74,0,0,0,602.84,143Z"/></g></g></svg>