<svg width="185" height="179" xmlns="http://www.w3.org/2000/svg" xmlns:xlink="http://www.w3.org/1999/xlink"><defs><path id="a" d="M0 .8h184.122v17.186H0z"/><path id="c" d="M0 1.423h129.772V139.35H0z"/></defs><g fill="none" fill-rule="evenodd"><g transform="translate(.138 160.697)"><mask id="b" fill="#fff"><use xlink:href="#a"/></mask><path d="M180.198 17.986c-.929 0-1.653-.126-2.172-.369-.518-.245-.898-.58-1.136-1.002a3.57 3.57 0 0 1-.432-1.477 22.017 22.017 0 0 1-.07-1.76v-4.82a7.54 7.54 0 0 1-.811-.083c-.248-.038-.441-.13-.58-.274a1.93 1.93 0 0 1-.315-.42 1.248 1.248 0 0 1-.153-.639c0-.299.076-.562.222-.791.149-.227.315-.38.5-.459a1.64 1.64 0 0 1 .604-.2 2.33 2.33 0 0 1 .533-.016V3.953c0-.295.005-.551.012-.77.006-.22.02-.41.036-.57.015-.164.042-.315.08-.443.039-.133.09-.26.151-.387.124-.263.342-.492.65-.69a1.933 1.933 0 0 1 1.046-.292c.402 0 .755.099 1.057.29.301.198.515.425.638.688.108.218.178.445.21.685.031.241.047.59.047 1.055v2.158h.764c.2 0 .374.011.513.027a2.206 2.206 0 0 1 .672.162c.171.08.326.232.477.452.146.22.22.477.22.778 0 .265-.065.524-.197.766-.13.243-.297.407-.5.484a5.43 5.43 0 0 1-.29.119 1.346 1.346 0 0 1-.323.07 4.136 4.136 0 0 1-.524.024h-.812v4.634c0 .569.038 1.018.114 1.349.08.33.349.494.814.494.356 0 .673-.038.952-.114.279-.079.52-.117.72-.117.341 0 .627.124.86.37.232.248.347.552.347.905 0 .436-.128.764-.382.989a2.877 2.877 0 0 1-.873.521 6.507 6.507 0 0 1-1.45.326c-.473.048-.88.07-1.22.07m-12.702 0a9.312 9.312 0 0 1-2.393-.315 5.17 5.17 0 0 1-2.114-1.126 4.826 4.826 0 0 1-.974-1.16 6.49 6.49 0 0 1-.861-2.543 10.39 10.39 0 0 1-.07-1.124c0-.373.027-.76.084-1.164.054-.4.15-.808.29-1.219.14-.407.323-.814.557-1.219.232-.4.524-.78.882-1.137.216-.2.456-.398.72-.591a4.26 4.26 0 0 1 .953-.51c.371-.147.8-.264 1.288-.35a9.988 9.988 0 0 1 1.707-.13c.992 0 1.788.097 2.393.293a5.999 5.999 0 0 1 1.576.755c.158.108.33.247.524.418.194.171.376.364.547.58.17.218.312.461.427.73.12.273.178.556.178.848 0 .482-.173.88-.513 1.197-.34.317-.758.476-1.255.476-.384 0-.692-.108-.915-.328-.225-.214-.508-.564-.848-1.043-.14-.2-.4-.425-.778-.672-.38-.248-.828-.371-1.336-.371-.697 0-1.297.283-1.799.847-.503.564-.755 1.46-.755 2.682 0 .124.015.364.047.72.03.353.126.724.29 1.101.162.378.42.722.778 1.023.353.3.86.452 1.509.452.587 0 1.06-.14 1.417-.418a5.59 5.59 0 0 0 .906-.881c.184-.232.35-.434.5-.605.145-.169.29-.31.426-.416.142-.11.288-.191.443-.245.156-.054.333-.081.536-.081.416 0 .769.135 1.054.407.288.27.43.645.43 1.124 0 .25-.081.598-.243 1.045-.164.45-.461.89-.895 1.322-.434.437-1.028.814-1.788 1.14-.76.326-1.734.488-2.925.488m-13.958 0c-1.271 0-2.337-.182-3.194-.546-.859-.362-1.55-.839-2.066-1.428a5.294 5.294 0 0 1-1.116-2.007 7.93 7.93 0 0 1-.337-2.287c0-.652.097-1.344.29-2.08a5.643 5.643 0 0 1 1.023-2.043c.488-.627 1.138-1.149 1.95-1.567.814-.418 1.846-.63 3.101-.63 1.147 0 2.103.191 2.87.571.762.38 1.376.835 1.834 1.372.455.533.78 1.09.974 1.67.193.58.29 1.08.29 1.498a2.69 2.69 0 0 1-.22 1.045 1.89 1.89 0 0 1-.383.569c-.17.177-.395.321-.674.43-.232.094-.542.148-.929.175-.387.022-.713.033-.976.033h-5.154c.014.558.12 1.007.313 1.345.193.344.425.613.697.816.27.2.548.335.836.402.286.072.522.108.709.108.323 0 .625-.043.904-.128a4.6 4.6 0 0 0 .755-.301c.225-.117.423-.234.594-.349.169-.117.308-.213.416-.29.247-.17.495-.337.744-.499a1.48 1.48 0 0 1 .837-.245c.432 0 .791.148 1.08.443.285.292.429.61.429.95 0 .34-.12.687-.36 1.046-.24.356-.596.675-1.068.963-.473.287-1.057.519-1.754.697-.697.177-1.502.267-2.415.267m-.488-9.964c-.495 0-.886.115-1.172.34a2.253 2.253 0 0 0-.65.775c-.148.297-.25.591-.306.886-.052.292-.087.51-.101.65h4.552c.031-.79-.176-1.43-.617-1.916-.44-.488-1.01-.735-1.706-.735m-10.59 9.964a1.988 1.988 0 0 1-1.464-.607 1.61 1.61 0 0 1-.463-.996 14.98 14.98 0 0 1-.07-1.648v-3.413c0-.294-.009-.611-.025-.955a3.088 3.088 0 0 0-.184-.94 1.666 1.666 0 0 0-.535-.717c-.247-.193-.598-.29-1.046-.29-.37 0-.758.117-1.16.346-.403.234-.697.645-.882 1.232a3.176 3.176 0 0 0-.083.44 9.114 9.114 0 0 0-.081 1.185v4.088c0 .369-.058.724-.173 1.057a2.05 2.05 0 0 1-.582.858c-.27.239-.677.36-1.22.36-.478 0-.85-.097-1.112-.29a1.708 1.708 0 0 1-.583-.744 3.254 3.254 0 0 1-.22-1.032 20.487 20.487 0 0 1-.034-1.185V8.42c0-.665.016-1.18.059-1.545.038-.364.173-.67.404-.92.171-.152.342-.285.51-.392.172-.106.46-.165.862-.165.06 0 .193.018.394.05.202.031.404.115.616.256.209.14.396.349.557.634.162.29.237.688.22 1.198.543-.694 1.143-1.225 1.8-1.59.659-.366 1.421-.548 2.29-.548.291 0 .613.03.962.084.348.056.697.16 1.045.314.349.153.673.376.974.661.304.288.555.67.756 1.15.092.23.166.487.22.766.054.279.094.557.117.836.022.279.036.537.047.776.007.243.011.44.011.595v4.155c0 .713-.024 1.27-.07 1.673-.049.402-.193.726-.44.971a2.55 2.55 0 0 1-.549.398c-.238.14-.528.21-.868.21m-14.747 0a1.988 1.988 0 0 1-1.464-.608 1.623 1.623 0 0 1-.466-.996c-.045-.405-.07-.95-.07-1.648v-3.413c0-.294-.006-.611-.022-.955a3.088 3.088 0 0 0-.184-.94 1.636 1.636 0 0 0-.538-.717c-.245-.193-.593-.29-1.043-.29-.371 0-.758.117-1.16.346-.403.234-.7.645-.884 1.232a3.226 3.226 0 0 0-.081.44c-.023.187-.043.38-.059.58a7.805 7.805 0 0 0-.022.606v4.087c0 .369-.059.724-.173 1.057a2.07 2.07 0 0 1-.58.858c-.273.239-.68.36-1.222.36-.479 0-.85-.097-1.113-.29a1.692 1.692 0 0 1-.582-.744 3.254 3.254 0 0 1-.22-1.032 20.486 20.486 0 0 1-.034-1.185V8.42c0-.665.018-1.18.058-1.545.038-.364.173-.67.405-.92.17-.152.342-.285.513-.392.168-.106.454-.165.856-.165.063 0 .196.018.396.05.203.031.407.115.616.256.21.14.392.349.558.634.162.29.236.688.22 1.198.542-.694 1.14-1.225 1.8-1.59.658-.366 1.42-.548 2.289-.548.292 0 .614.03.96.084.35.056.7.16 1.048.314.348.153.672.376.976.661.301.288.553.67.753 1.15a3.8 3.8 0 0 1 .218.766c.057.279.095.557.12.836.022.279.038.537.047.776.006.243.01.44.01.595v4.155c0 .713-.024 1.27-.069 1.673-.047.402-.195.726-.44.971a2.529 2.529 0 0 1-.547.398c-.243.14-.53.21-.87.21m-18.768 0c-.99 0-1.887-.152-2.692-.453a5.892 5.892 0 0 1-2.067-1.29 5.714 5.714 0 0 1-1.327-2.008c-.308-.785-.46-1.652-.46-2.612 0-.682.114-1.39.346-2.125a5.7 5.7 0 0 1 1.126-2.008c.52-.604 1.197-1.103 2.033-1.497.837-.396 1.851-.596 3.04-.596 1.163 0 2.16.187 2.987.558.828.373 1.509.854 2.044 1.443a5.567 5.567 0 0 1 1.174 2.008c.245.75.371 1.497.371 2.24 0 .743-.126 1.494-.371 2.252a5.78 5.78 0 0 1-1.174 2.043c-.535.603-1.216 1.095-2.044 1.475-.828.38-1.824.57-2.986.57m.024-9.706c-.463 0-.865.096-1.196.29a2.52 2.52 0 0 0-.823.753 3.195 3.195 0 0 0-.477 1.07c-.101.402-.153.81-.153 1.23 0 .386.04.787.117 1.196.077.411.218.787.419 1.126.202.34.472.618.814.836.337.216.773.324 1.3.324.341 0 .67-.067.987-.195.317-.133.595-.34.836-.619.24-.279.434-.63.58-1.054.149-.425.22-.933.22-1.52 0-.434-.049-.861-.15-1.28a3.564 3.564 0 0 0-.463-1.103 2.397 2.397 0 0 0-.817-.764c-.33-.194-.728-.29-1.194-.29m-14.282 9.705a9.312 9.312 0 0 1-2.392-.315 5.156 5.156 0 0 1-2.114-1.126 4.837 4.837 0 0 1-.976-1.16 6.49 6.49 0 0 1-.859-2.543 8.466 8.466 0 0 1 .013-2.288c.052-.4.151-.808.29-1.219a7.06 7.06 0 0 1 .556-1.219c.234-.4.526-.78.884-1.137.216-.2.456-.398.72-.591a4.29 4.29 0 0 1 .95-.51 6.73 6.73 0 0 1 1.291-.35 9.95 9.95 0 0 1 1.707-.13c.99 0 1.788.097 2.39.293a6.03 6.03 0 0 1 1.582.755c.155.108.328.247.521.418.194.171.376.364.547.58.17.218.312.461.43.73.114.273.172.556.172.848 0 .482-.173.88-.51 1.197-.34.317-.758.476-1.255.476-.387 0-.693-.108-.917-.328-.223-.214-.506-.564-.846-1.043-.14-.2-.4-.425-.778-.672-.38-.248-.828-.371-1.336-.371-.697 0-1.297.283-1.801.847-.504.564-.753 1.46-.753 2.682 0 .124.013.364.045.72.031.353.128.724.292 1.101.162.378.42.722.776 1.023.357.3.861.452 1.51.452.588 0 1.06-.14 1.418-.418a5.44 5.44 0 0 0 .904-.881c.186-.232.353-.434.501-.605.144-.169.29-.31.427-.416.142-.11.286-.191.443-.245a1.61 1.61 0 0 1 .533-.081c.419 0 .772.135 1.057.407.288.27.43.645.43 1.124 0 .25-.081.598-.243 1.045-.162.45-.461.89-.895 1.322-.434.437-1.03.814-1.79 1.14-.758.326-1.732.488-2.924.488m-14.772 0a2.1 2.1 0 0 1-.778-.15 1.766 1.766 0 0 1-.66-.457 1.623 1.623 0 0 1-.466-.996 15.671 15.671 0 0 1-.068-1.648V8.42c0-.665.018-1.18.056-1.545.039-.364.183-.67.432-.92.153-.152.329-.285.522-.392.193-.106.468-.165.823-.165a3.8 3.8 0 0 1 .407.039c.193.022.396.1.605.231.209.133.393.342.555.627.165.286.245.69.245 1.219.432-.82.87-1.378 1.311-1.67a2.685 2.685 0 0 1 1.523-.446c.14 0 .382.034.73.095.35.063.702.17 1.058.326.357.155.67.369.94.638.272.272.407.616.407 1.034a1.564 1.564 0 0 1-.51 1.183c-.156.142-.322.25-.5.326a1.286 1.286 0 0 1-.522.117c-.17 0-.335-.02-.488-.059a2.635 2.635 0 0 1-.348-.105 3.986 3.986 0 0 1-.234-.081 5.392 5.392 0 0 0-.371-.115 5.694 5.694 0 0 0-.418-.105 1.708 1.708 0 0 0-.372-.048c-.047 0-.139.016-.278.048a1.42 1.42 0 0 0-.452.197 1.744 1.744 0 0 0-.477.466c-.155.207-.286.48-.396.823-.076.247-.135.53-.173.847-.038.315-.07.643-.092.974-.025.335-.04.663-.047.989-.007.326-.012.618-.012.879v.908c0 .713-.022 1.27-.07 1.673-.047.402-.193.726-.44.971-.14.142-.33.279-.57.41-.24.132-.53.197-.872.197m-6.71 0c-.063 0-.196-.011-.396-.036a1.473 1.473 0 0 1-.627-.243 1.778 1.778 0 0 1-.569-.65c-.162-.294-.243-.705-.243-1.231-.124.139-.29.33-.5.568a3.823 3.823 0 0 1-.836.697 5.514 5.514 0 0 1-1.254.58c-.488.164-1.057.245-1.707.245-.356 0-.704-.042-1.046-.128a4.185 4.185 0 0 1-.962-.37 3.62 3.62 0 0 1-.814-.594 2.695 2.695 0 0 1-.57-.787c-.231-.53-.375-1.014-.429-1.466a10.662 10.662 0 0 1-.08-1.275V8.674c0-.355.004-.668.01-.942.01-.27.027-.508.059-.717a2.21 2.21 0 0 1 .15-.558c.07-.162.167-.308.29-.43.14-.139.327-.278.558-.417.232-.14.52-.212.86-.212.262 0 .523.059.777.165a2.3 2.3 0 0 1 .686.442c.263.263.419.6.466 1.01.045.411.067.964.067 1.659v3.067c0 .355.014.726.036 1.112.023.39.088.738.198 1.046.108.308.281.566.522.764.24.205.578.304 1.012.304a2.09 2.09 0 0 0 1.124-.313c.333-.209.594-.476.778-.8.155-.263.248-.62.279-1.068a24.38 24.38 0 0 0 .047-1.675v-2.46c0-.696.023-1.24.07-1.636.045-.398.2-.724.465-.987.14-.14.329-.279.567-.418.24-.14.524-.212.848-.212.558 0 1.039.205 1.441.607.263.263.419.596.464.999.047.402.07.95.07 1.648v6.315c0 .652-.02 1.162-.057 1.533a1.5 1.5 0 0 1-.432.929c-.153.155-.34.285-.555.395a1.712 1.712 0 0 1-.767.162m-14.747 0c-.063 0-.196-.011-.396-.036a1.473 1.473 0 0 1-.627-.243c-.216-.141-.405-.355-.57-.65-.161-.294-.242-.705-.242-1.231-.124.139-.29.33-.5.568a3.847 3.847 0 0 1-.836.697 5.514 5.514 0 0 1-1.255.58c-.488.164-1.057.245-1.707.245a4.26 4.26 0 0 1-1.045-.128 4.185 4.185 0 0 1-.963-.37 3.62 3.62 0 0 1-.814-.594 2.737 2.737 0 0 1-.569-.787c-.231-.53-.375-1.014-.43-1.466a10.662 10.662 0 0 1-.08-1.275V8.674c0-.355.004-.668.011-.942.009-.27.027-.508.058-.717a2.21 2.21 0 0 1 .151-.558c.07-.162.167-.308.29-.43.14-.139.326-.278.558-.417.234-.14.52-.212.859-.212.263 0 .524.059.778.165.256.107.483.256.686.442.263.263.418.6.463 1.01.047.411.072.964.072 1.659v3.067c0 .355.011.726.034 1.112.022.39.088.738.198 1.046.108.308.28.566.521.764.241.205.578.304 1.01.304.418 0 .794-.106 1.127-.313.333-.209.593-.476.778-.8.155-.263.247-.62.279-1.068.031-.452.047-1.007.047-1.675v-2.46c0-.696.022-1.24.07-1.636.045-.398.2-.724.463-.987.14-.14.328-.279.569-.418.24-.14.524-.212.848-.212.557 0 1.038.205 1.441.607.263.263.418.596.463.999.047.402.07.95.07 1.648v6.315c0 .652-.02 1.162-.058 1.533a1.488 1.488 0 0 1-.43.929c-.155.155-.34.285-.558.395a1.696 1.696 0 0 1-.764.162m-14.586 0c-.928 0-1.653-.126-2.172-.369-.52-.245-.897-.58-1.138-1.002-.24-.423-.382-.918-.43-1.477a21.013 21.013 0 0 1-.07-1.76v-4.82a7.54 7.54 0 0 1-.81-.083c-.25-.038-.444-.13-.583-.274a2.002 2.002 0 0 1-.313-.42 1.248 1.248 0 0 1-.15-.639c0-.299.071-.562.22-.791.146-.227.315-.38.499-.459.2-.11.403-.178.605-.2a2.3 2.3 0 0 1 .533-.016V3.953c0-.295.004-.551.011-.77.01-.22.02-.41.036-.57.016-.164.043-.315.081-.443.038-.133.09-.26.15-.387.124-.263.343-.492.65-.69.31-.193.66-.292 1.046-.292.403 0 .756.099 1.057.29.302.198.515.425.639.688.108.218.177.445.209.685.031.241.047.59.047 1.055v2.158h.765c.202 0 .373.011.51.027.14.016.261.036.362.059.1.024.205.058.313.103.17.08.328.232.477.452.146.22.22.477.22.778 0 .265-.067.524-.198.766-.133.243-.299.407-.5.484a5.43 5.43 0 0 1-.29.119 1.343 1.343 0 0 1-.325.07c-.13.018-.306.024-.522.024h-.812v4.634c0 .569.036 1.018.115 1.349.076.33.348.494.814.494.355 0 .672-.038.951-.114.279-.079.52-.117.72-.117.342 0 .627.124.859.37.234.248.348.552.348.905 0 .436-.128.764-.382.989a2.893 2.893 0 0 1-.87.521c-.497.169-.98.28-1.453.326-.472.048-.88.07-1.219.07m-9.312 0a2 2 0 0 1-1.441-.607 1.61 1.61 0 0 1-.464-.996c-.047-.405-.07-.95-.07-1.648V4.054c0-.713.023-1.266.07-1.661.045-.394.2-.722.464-.985.155-.142.353-.274.593-.41.239-.127.522-.197.848-.197a2.043 2.043 0 0 1 1.44.607c.247.263.395.596.44.996.047.404.07.953.07 1.65v10.681c0 .713-.023 1.27-.07 1.673-.045.402-.193.726-.44.971a2.357 2.357 0 0 1-.594.42 1.818 1.818 0 0 1-.846.187m-6.805 0c-.063 0-.195-.011-.395-.036a1.473 1.473 0 0 1-.628-.243 1.778 1.778 0 0 1-.569-.65c-.162-.294-.243-.705-.243-1.231l-.499.568a3.871 3.871 0 0 1-.836.697 5.514 5.514 0 0 1-1.255.58c-.488.164-1.057.245-1.707.245-.355 0-.704-.042-1.046-.128a4.185 4.185 0 0 1-.962-.37 3.62 3.62 0 0 1-.814-.594 2.695 2.695 0 0 1-.57-.787c-.23-.53-.375-1.014-.429-1.466a10.662 10.662 0 0 1-.08-1.275V8.674c0-.355.004-.668.01-.942.01-.27.028-.508.06-.717a2.21 2.21 0 0 1 .15-.558c.07-.162.166-.308.29-.43.14-.139.326-.278.558-.417.231-.14.52-.212.859-.212.263 0 .524.059.778.165.256.107.485.256.686.442.263.263.418.6.465 1.01.045.411.068.964.068 1.659v3.067c0 .355.013.726.036 1.112.022.39.087.738.197 1.046.108.308.281.566.522.764.24.205.578.304 1.01.304.418 0 .794-.106 1.126-.313.333-.209.594-.476.779-.8.155-.263.247-.62.278-1.068.032-.452.048-1.007.048-1.675v-2.46c0-.696.022-1.24.07-1.636.044-.398.2-.724.463-.987.139-.14.33-.279.568-.418a1.66 1.66 0 0 1 .848-.212c.558 0 1.04.205 1.442.607.263.263.418.596.463.999.047.402.07.95.07 1.648v6.315c0 .652-.02 1.162-.057 1.533-.04.371-.184.681-.431.929-.155.155-.34.285-.558.395a1.696 1.696 0 0 1-.765.162m-19.672 0c-1.394 0-2.557-.187-3.49-.557A6.394 6.394 0 0 1 2.16 15.71a6.844 6.844 0 0 1-1.102-1.556 9.525 9.525 0 0 1-.654-1.625 8.504 8.504 0 0 1-.322-1.592 14.234 14.234 0 0 1-.08-1.473c0-1.317.186-2.509.561-3.577.376-1.067.909-1.976 1.597-2.727a7.05 7.05 0 0 1 2.502-1.74c.98-.41 2.08-.618 3.303-.618 1.332 0 2.451.19 3.358.569.906.382 1.637.845 2.195 1.393.557.551.955 1.127 1.196 1.734.238.602.36 1.122.36 1.553 0 .218-.043.439-.129.661a1.86 1.86 0 0 1-.37.605c-.165.18-.36.324-.594.44a1.675 1.675 0 0 1-.765.174c-.31 0-.567-.045-.767-.137a1.68 1.68 0 0 1-.524-.371 2.55 2.55 0 0 1-.37-.51 6.608 6.608 0 0 1-.268-.558 4.25 4.25 0 0 0-1.253-1.578c-.526-.405-1.207-.607-2.044-.607-.62 0-1.142.108-1.567.328a3.153 3.153 0 0 0-1.057.847c-.28.347-.497.731-.652 1.15a7.123 7.123 0 0 0-.335 1.229 7.33 7.33 0 0 0-.117 1.093c-.007.321-.012.57-.012.742 0 .541.027 1.018.081 1.427.054.41.124.771.21 1.09.085.32.186.59.3.812a3.4 3.4 0 0 0 .385.594c.308.386.704.685 1.183.894a3.84 3.84 0 0 0 1.534.313c.558 0 1.03-.083 1.417-.254.386-.171.708-.387.962-.65.256-.263.463-.55.616-.86.155-.311.288-.606.396-.884.047-.122.108-.27.187-.439.076-.17.184-.337.323-.501a1.82 1.82 0 0 1 .536-.416c.216-.117.485-.175.811-.175.482 0 .913.17 1.3.51.39.342.583.791.583 1.349 0 .726-.191 1.45-.57 2.17a5.985 5.985 0 0 1-1.452 1.82 6.81 6.81 0 0 1-.895.675 5.166 5.166 0 0 1-1.068.512c-.394.14-.834.248-1.322.324-.488.077-1.05.117-1.685.117" fill="#020303" mask="url(#b)"/></g><g transform="translate(.138 -1.174)"><mask id="d" fill="#fff"><use xlink:href="#c"/></mask><path d="M84.862 101.775c-4.035 4.43-9.996 6.642-17.882 6.642-8.132 0-14.44-2.74-18.93-8.224-4.491-5.484-6.733-15.614-6.733-30.398 0-11.934 1.88-20.686 5.642-26.261 4.974-7.512 12.132-11.268 21.475-11.268 4.127 0 7.858.85 11.195 2.547 3.335 1.7 6.157 4.125 8.464 7.277 1.394 1.882 2.73 4.854 4.003 8.917l36.403-8.096c-4.673-14.072-11.817-24.506-21.43-31.3C97.45 4.82 84.238 1.422 67.433 1.422c-21.476 0-38.085 5.927-49.826 17.775C5.869 31.047 0 48.005 0 70.069c0 16.55 3.335 30.126 10.01 40.733 6.674 10.607 14.607 18.017 23.798 22.23 9.19 4.213 21.037 6.318 35.537 6.318 11.952 0 21.795-1.727 29.53-5.185 7.737-3.457 14.213-8.581 19.43-15.375 5.217-6.794 9.04-15.254 11.467-25.385L93.643 82.488c-1.82 8.43-4.747 14.86-8.781 19.287" fill="#FDDB00" mask="url(#d)"/></g><path d="M69.264 138.178c-.234 0-.465 0-.7-.005.264 0 .53.005.794.005h-.094m-18.377-36.38a22.577 22.577 0 0 1-2.698-2.78c-4.491-5.48-6.735-15.613-6.735-30.395 0-11.936 1.88-20.69 5.642-26.264C52.07 34.85 59.23 31.091 68.574 31.091c4.124 0 7.857.852 11.194 2.545 3.335 1.7 6.157 4.128 8.462 7.28 1.397 1.882 2.73 4.854 4.005 8.919l24.87-5.533c.386 2.913.58 5.132.58 6.663 0 3.894-1.413 7.035-4.24 9.418-2.826 2.388-6.5 3.582-11.02 3.582-9.549 0-14.197-3.96-13.943-11.869v-5.84c.124-4.142-1.563-7.561-5.067-10.266-3.503-2.695-7.942-4.047-13.319-4.047-16.758 0-25.137 13.31-25.137 39.93 0 13.596 1.975 23.569 5.928 29.924m38.348-7.324V90.9c-.128-3.891 1.122-7.034 3.744-9.422 2.62-2.38 5.991-3.577 10.113-3.577 5.242 0 9.393 1.763 12.451 5.277 1.42 1.63 2.51 3.527 3.27 5.699l-25.03-7.563c-1.107 5.124-2.623 9.512-4.548 13.159m28.377-74.065c-3.07-3.914-6.54-7.237-10.407-9.969a45.258 45.258 0 0 0-5.98-3.559c1.332-.37 2.861-.555 4.59-.555 3.515 0 6.373 1.1 8.573 3.296 2.194 2.196 3.296 5.054 3.296 8.57 0 .63-.024 1.365-.072 2.217" fill="#0298D3"/><path d="M69.358 138.178c-.265 0-.53-.005-.793-.005-18.01-.144-32.252-5.982-42.729-17.516C15.22 108.983 9.915 93.034 9.915 72.817c0-20.847 4.751-37.263 14.255-49.257C33.673 11.57 46.677 5.572 63.186 5.572c12.003 0 22.444 4.397 31.325 13.183v-1.884c0-5.418 2.237-8.75 6.715-9.99a45.258 45.258 0 0 1 5.98 3.558c3.867 2.732 7.337 6.055 10.406 9.969a111.47 111.47 0 0 1-.42 4.94c-.553 5.15-.825 8.853-.825 11.112 0 1.634.215 4.054.658 7.253.027.2.052.395.08.589l-24.87 5.533c-1.275-4.065-2.61-7.037-4.005-8.92-2.305-3.151-5.127-5.58-8.464-7.279-3.337-1.693-7.068-2.545-11.192-2.545-9.344 0-16.504 3.76-21.478 11.268-3.762 5.574-5.642 14.328-5.642 26.264 0 14.782 2.244 24.914 6.735 30.395a22.577 22.577 0 0 0 2.698 2.78c.065.103.13.206.196.307 4.079 6.342 10.58 9.515 19.499 9.515 5.527 0 10.047-1.289 13.567-3.863 3.514-2.574 5.21-5.935 5.086-10.078v-3.206c1.925-3.647 3.44-8.035 4.547-13.16l25.031 7.564c.88 2.511 1.32 5.382 1.32 8.613 0 11.933-4.742 21.697-14.223 29.292-9.465 7.583-21.649 11.378-36.552 11.396" fill="#068843"/></g></svg>