<?xml version="1.0" encoding="UTF-8" standalone="no"?>
<svg
   xmlns:dc="http://purl.org/dc/elements/1.1/"
   xmlns:cc="http://creativecommons.org/ns#"
   xmlns:rdf="http://www.w3.org/1999/02/22-rdf-syntax-ns#"
   xmlns:svg="http://www.w3.org/2000/svg"
   xmlns="http://www.w3.org/2000/svg"
   xmlns:xlink="http://www.w3.org/1999/xlink"
   xmlns:sodipodi="http://sodipodi.sourceforge.net/DTD/sodipodi-0.dtd"
   xmlns:inkscape="http://www.inkscape.org/namespaces/inkscape"
   width="285"
   height="66"
   viewBox="0 0 285 66"
   version="1.1"
   id="svg6350"
   sodipodi:docname="logoSTEMAcademie.svg"
   inkscape:export-filename="/home/bennymalengier/git/jekyll/MaakBib/assets/images/sponsors/logoSTEMAcademie.png"
   inkscape:export-xdpi="299.89999"
   inkscape:export-ydpi="299.89999"
   inkscape:version="0.92.1 r15371">
  <metadata
     id="metadata6354">
    <rdf:RDF>
      <cc:Work
         rdf:about="">
        <dc:format>image/svg+xml</dc:format>
        <dc:type
           rdf:resource="http://purl.org/dc/dcmitype/StillImage" />
      </cc:Work>
    </rdf:RDF>
  </metadata>
  <sodipodi:namedview
     pagecolor="#ffffff"
     bordercolor="#666666"
     borderopacity="1"
     objecttolerance="10"
     gridtolerance="10"
     guidetolerance="10"
     inkscape:pageopacity="0"
     inkscape:pageshadow="2"
     inkscape:window-width="754"
     inkscape:window-height="480"
     id="namedview6352"
     showgrid="false"
     inkscape:zoom="1.2842105"
     inkscape:cx="142.5"
     inkscape:cy="33"
     inkscape:window-x="306"
     inkscape:window-y="144"
     inkscape:window-maximized="0"
     inkscape:current-layer="svg6350" />
  <title
     id="title6302">Group 10</title>
  <defs
     id="defs6305">
    <path
       id="a"
       d="M0 0.430732075L0 20.6021472 17.8797909 20.6021472 17.8797909 0.430732075 7.47341004e-21 0.430732075z" />
  </defs>
  <g
     transform="translate(0 1)"
     fill="none"
     fill-rule="evenodd"
     id="g6348">
    <path
       d="M37.06 57.738a19.045 19.045 0 0 1-3.315-.286 18.366 18.366 0 0 1-3.14-.849 19.808 19.808 0 0 1-2.847-1.314 14.254 14.254 0 0 1-2.395-1.682l5.683-6.14c.654.7 1.525 1.32 2.612 1.865 1.084.544 2.204.815 3.355.813.524 0 1-.092 1.432-.274.431-.183.647-.52.647-1.015 0-.26-.074-.48-.217-.662-.145-.183-.4-.37-.767-.565-.366-.194-.87-.408-1.511-.642a72.402 72.402 0 0 0-2.414-.816c-.942-.31-1.844-.681-2.709-1.108a9.583 9.583 0 0 1-2.297-1.578 6.927 6.927 0 0 1-1.591-2.241c-.394-.87-.591-1.916-.592-3.14-.003-1.715.349-3.172 1.054-4.368a9.212 9.212 0 0 1 2.722-2.948 11.204 11.204 0 0 1 3.746-1.662c1.386-.34 2.76-.511 4.12-.513 1.83-.002 3.695.347 5.592 1.045a14.965 14.965 0 0 1 5.006 3.031l-5.8 5.886a6.07 6.07 0 0 0-2.316-1.769c-.917-.4-1.741-.602-2.473-.6-.682 0-1.23.098-1.648.294-.419.195-.627.513-.627.954.001.415.217.727.649.935.431.206 1.132.464 2.1.775.994.31 2.041.672 3.14 1.086 1.1.414 2.113.951 3.043 1.612a8.53 8.53 0 0 1 2.298 2.432c.603.96.905 2.153.906 3.58.003 1.662-.329 3.109-.994 4.342a9.401 9.401 0 0 1-2.626 3.08 11.406 11.406 0 0 1-3.666 1.833 14.58 14.58 0 0 1-4.16.609"
       fill="#006187"
       id="path6307" />
    <path
       fill="#006187"
       d="M65.9385877 57.1650189L56.5999457 57.1754151 56.5767852 37.435717 49.7494025 37.4444717 49.740028 29.6188491 72.7339868 29.5920377 72.7422584 37.4171132 65.9154272 37.4253208z"
       id="path6309" />
    <path
       fill="#006187"
       d="M75.990242 29.5884811L95.0982008 29.5660472 95.1075753 37.2745755 84.7873695 37.2866132 84.7912296 39.6613302 94.4827934 39.6503868 94.4905136 46.8533302 84.7989498 46.8642736 84.8028099 49.433783 95.7886041 49.4211981 95.7974272 57.1302736 76.0222255 57.1538019z"
       id="path6311" />
    <path
       fill="#006187"
       d="M107.6749 41.5423358L108.124876 57.1147887 99.4148757 57.1251849 99.3823407 29.5604113 111.597847 29.5461849 116.644629 44.3733925 116.840942 44.3733925 121.182983 29.5346943 133.79332 29.5204679 133.825304 57.0852415 124.72323 57.0956377 124.978547 41.5997887 124.743633 41.562034 119.5816 57.1022038 112.990234 57.109317 107.871213 41.5417887z"
       id="path6313" />
    <g
       transform="translate(0 36.66)"
       id="g6320">
      <mask
         id="b"
         fill="#fff">
        <use
           xlink:href="#a"
           id="use6315" />
      </mask>
      <path
         fill="#FFEC00"
         mask="url(#b)"
         d="M17.8797909 15.3236L9.21445761 20.6021472 0.274506996 15.7952604 -0.000110288066 5.70982642 8.66577449 0.430732075 17.6051737 5.23816604z"
         id="path6318" />
    </g>
    <path
       fill="#29BCEE"
       d="M20.0228535 36.1166L11.3575202 41.3951472 2.41756955 36.5877132 2.1435037 26.5022792 10.808837 21.2237321 19.7487877 26.0306189z"
       id="path6322" />
    <path
       stroke="#FEFEFE"
       stroke-width=".59"
       d="M20.0228535 36.1166L11.3575202 41.3951472 2.41756955 36.5877132 2.1435037 26.5022792 10.808837 21.2237321 19.7487877 26.0306189z"
       id="path6324" />
    <path
       fill="#57B03E"
       d="M27.7796337 22.7878717L19.1143004 28.0664189 10.1743498 23.2595321 9.90028395 13.1735509 18.5656173 7.89500377 27.5050165 12.7024377z"
       id="path6326" />
    <path
       stroke="#FEFEFE"
       stroke-width="1.18"
       d="M27.7796337 22.7878717L19.1143004 28.0664189 10.1743498 23.2595321 9.90028395 13.1735509 18.5656173 7.89500377 27.5050165 12.7024377z"
       id="path6328" />
    <path
       d="M6.701 44.884v5.039c0 .13-.003.262.004.393.02.392.366.697.656.58.289-.117.403-.348.403-.818l-.001-2.88c0-.707 0-1.413-.002-2.12-.001-.14.023-.258.149-.17.174.119.35.246.497.413.348.398.71.749 1.17.914.33.12.326.135.326.594l.003 3.012c0 .174-.002.35.016.522.042.404.345.578.534.564.282-.021.503-.321.508-.678.004-.327.002-.655.002-.982 0-.895-.004-1.79.003-2.686.001-.088.047-.207.102-.256.075-.063.18-.066.27-.104.426-.171.793-.473 1.095-.894.15-.21.197-.46.081-.736-.109-.26-.265-.39-.5-.393-.203-.002-.324.168-.463.312-.501.521-1.056.677-1.677.415-.334-.142-.58-.438-.835-.727-.434-.493-.945-.774-1.524-.83-.416-.041-.824-.01-1.224.176a2.593 2.593 0 0 0-1.074.91.717.717 0 0 0-.072.72c.107.248.259.383.485.39.181.006.3-.127.429-.26.183-.187.36-.404.64-.42"
       fill="#FEFEFE"
       id="path6330" />
    <path
       d="M6.701 44.884c-.28.016-.456.233-.64.42-.128.133-.247.266-.428.26-.226-.007-.378-.142-.485-.39a.717.717 0 0 1 .072-.72 2.593 2.593 0 0 1 1.074-.91c.4-.186.808-.217 1.224-.176.579.056 1.09.337 1.524.83.255.29.5.585.835.727.62.262 1.176.106 1.677-.415.14-.144.26-.314.464-.312.234.002.39.133.5.393a.722.722 0 0 1-.082.736c-.302.42-.669.723-1.095.894-.09.038-.195.04-.27.104a.397.397 0 0 0-.102.256c-.007.895-.003 1.79-.003 2.686 0 .327.002.655-.002.982-.005.357-.226.657-.508.678-.189.014-.492-.16-.534-.564-.018-.172-.016-.348-.016-.522l-.003-3.012c0-.46.005-.475-.327-.594-.458-.165-.82-.516-1.17-.914a2.58 2.58 0 0 0-.496-.413c-.126-.088-.15.03-.15.17.003.707.002 1.413.003 2.12l.001 2.88c0 .47-.114.7-.403.818-.29.117-.637-.188-.656-.58-.007-.13-.004-.263-.004-.393v-5.039zm14.91-25.815c-.077.142-.13.302-.234.425-.257.299-.609.425-1.023.348-.432-.081-.712-.326-.822-.711-.131-.461.152-.938.644-1.12.036-.012.078-.061.078-.094.005-.577.012-1.155-.005-1.732-.003-.114-.105-.228-.174-.337-.364-.575-.733-1.148-1.1-1.722-.01-.016-.024-.028-.059-.071-.006.068-.013.107-.013.145l-.001 7.592c0 .157-.003.314 0 .47.004.133.014.265.02.397.148.004.296.012.443.013.19.003.381 0 .605 0-.059.101-.103.184-.153.264l-1.09 1.715c-.033.05-.065.089-.146.087-.076-.003-.122-.02-.162-.082-.392-.622-.789-1.243-1.184-1.864-.02-.032-.03-.067-.053-.12h.821c.265 0 .265 0 .265-.242V15.989a.22.22 0 0 0-.032-.011c-.073.111-.148.222-.22.335-.282.443-.565.885-.844 1.33a.302.302 0 0 0-.048.15c-.003.512 0 1.024-.004 1.536 0 .087.03.114.124.11.16-.005.323 0 .484-.002.075-.001.106.023.106.093-.003.57-.002 1.14 0 1.709 0 .056-.016.087-.085.086l-1.897-.009v-1.88c.17 0 .34-.004.509.003.1.004.13-.027.128-.117a57.374 57.374 0 0 1 .002-1.571.675.675 0 0 1 .096-.336c.488-.78.982-1.556 1.484-2.328a1.1 1.1 0 0 0 .203-.655c-.016-.68-.01-1.36-.002-2.04.002-.114-.04-.17-.146-.218-.678-.314-.778-1.15-.18-1.578.137-.098.318-.149.48-.221h.382c.074.026.15.047.22.079.387.17.609.45.63.835.02.356-.133.677-.486.835-.265.118-.295.266-.27.48.004.04-.007.085.002.125.018.08.029.166.07.237.12.205.256.403.384.604.448.703.89 1.408 1.345 2.108.13.2.203.4.196.636-.014.526-.003 1.054-.007 1.581 0 .075.022.114.1.145a.969.969 0 0 1 .513.456c.04.075.071.152.106.228v.345z"
       fill="#1D1D1B"
       id="path6332" />
    <path
       d="M14.671 32.316l-.435-.185c.117-.509.121-1.035.01-1.54l.463-.183a.183.183 0 0 0 .104-.239l-.325-.81a.185.185 0 0 0-.241-.104l-.477.189a3.559 3.559 0 0 0-1.086-1.085l.199-.46a.183.183 0 0 0-.096-.24l-.809-.346a.187.187 0 0 0-.244.096l-.205.473a3.614 3.614 0 0 0-1.5-.015l-.194-.48a.186.186 0 0 0-.24-.103l-.818.323a.182.182 0 0 0-.103.238l.192.481a3.552 3.552 0 0 0-1.088 1.043l-.463-.197a.185.185 0 0 0-.244.096l-.348.801a.183.183 0 0 0 .097.241l.454.195a3.52 3.52 0 0 0-.036 1.516l-.434.172a.184.184 0 0 0-.104.239l.326.81c.038.095.145.141.24.104l.42-.166c.267.44.631.817 1.063 1.107l-.183.422a.183.183 0 0 0 .096.24l.809.347a.188.188 0 0 0 .243-.096l.177-.41a3.601 3.601 0 0 0 1.58.032l.164.41c.037.093.145.14.24.102l.817-.322a.184.184 0 0 0 .104-.24l-.164-.408a3.568 3.568 0 0 0 1.12-1.09l.425.182a.19.19 0 0 0 .243-.096l.348-.802a.184.184 0 0 0-.097-.242m-3.192.785a1.958 1.958 0 0 1-2.537-1.084 1.933 1.933 0 0 1 1.093-2.516 1.958 1.958 0 0 1 2.536 1.083c.399.995-.09 2.12-1.092 2.517m-.034-2.072a.733.733 0 0 1-.414.955.743.743 0 0 1-.963-.412.733.733 0 0 1 .415-.955c.38-.15.811.034.962.412"
       fill="#020203"
       id="path6334" />
    <path
       fill="#E42520"
       d="M41.6175877 15.1814453L32.9522543 20.4605396 24.0123037 15.6531057 23.7376864 5.56712453 32.4035712 0.288577358 41.3429704 5.09601132z"
       id="path6336" />
    <path
       stroke="#FEFEFE"
       stroke-width="1.18"
       d="M42 14.765909L33.2764619 20 24.2764619 15.2335485 24 5.23354853 32.7240933 0 41.7235381 4.76645147z"
       id="path6338" />
    <g
       transform="translate(1 5)"
       id="g6346">
      <path
         d="M36.854 3.195a1.22 1.22 0 0 0-1.2.98l-1.25-.03a2.547 2.547 0 0 0-2.55-2.384c-.565 0-1.087.182-1.51.49l-.212-.246c.173-.209.277-.477.277-.768 0-.67-.547-1.214-1.222-1.214-.675 0-1.223.543-1.223 1.214a1.218 1.218 0 0 0 1.853 1.038l.213.247a2.517 2.517 0 0 0-.732 1.777c0 1.163.789 2.143 1.864 2.443l-.275.89a1.218 1.218 0 0 0-1.59 1.158c.001.67.548 1.214 1.223 1.214s1.223-.543 1.223-1.213c0-.393-.189-.74-.48-.963l.31-1.007a2.55 2.55 0 0 0 2.824-2.263l1.25.03a1.219 1.219 0 0 0 1.207 1.034c.675 0 1.223-.543 1.223-1.213s-.548-1.214-1.223-1.214M30.52 9.734a.948.948 0 0 1-.95-.943c0-.055.044-.1.1-.1a.1.1 0 0 1 .1.1c0 .41.337.745.75.745a.1.1 0 0 1 .1.099.1.1 0 0 1-.1.099M29.087.392a.1.1 0 0 1 .1-.099c.524 0 .95.424.95.944a.1.1 0 0 1-.2 0 .749.749 0 0 0-.75-.746.1.1 0 0 1-.1-.099m1.198 3.907a.208.208 0 0 1-.21.206.208.208 0 0 1-.207-.206c0-1.088.89-1.973 1.985-1.973.115 0 .21.093.21.207a.208.208 0 0 1-.21.207c-.865 0-1.568.7-1.568 1.559m7.42.208a.099.099 0 0 1-.1-.098.75.75 0 0 0-.751-.746.1.1 0 0 1-.1-.099.1.1 0 0 1 .1-.098c.523 0 .95.422.95.943a.1.1 0 0 1-.1.098"
         fill="#020203"
         id="path6340" />
      <path
         d="M.396 58.684l.055.028c0 .033.007.062.022.088a.396.396 0 0 0 .152.129c.075.042.162.08.26.112a2.134 2.134 0 0 0 .594.11c.063 0 .143-.005.243-.014.1-.01.197-.028.293-.057a.814.814 0 0 0 .248-.121.24.24 0 0 0 .106-.203c0-.084-.033-.146-.097-.187a.717.717 0 0 0-.254-.087 2.728 2.728 0 0 0-.36-.036 12.414 12.414 0 0 1-.411-.024 3.888 3.888 0 0 1-.412-.056 1.153 1.153 0 0 1-.36-.128.723.723 0 0 1-.254-.247.771.771 0 0 1-.096-.409c0-.113.027-.226.08-.335a.809.809 0 0 1 .246-.291c.11-.084.25-.152.42-.206.17-.053.368-.079.597-.079.195 0 .365.014.508.044a3.631 3.631 0 0 1 .639.186c.071.03.131.045.179.045.052 0 .088-.012.11-.034l.067.044-.381.686-.055-.022a.31.31 0 0 0-.045-.126.47.47 0 0 0-.146-.129 1.272 1.272 0 0 0-.24-.112 1.938 1.938 0 0 0-.62-.11c-.08 0-.164.007-.251.02a1.208 1.208 0 0 0-.235.056.518.518 0 0 0-.174.102.203.203 0 0 0-.07.156c0 .088.033.154.098.198a.71.71 0 0 0 .254.099c.105.021.225.036.36.044.133.007.27.016.41.027.14.01.278.03.413.057.134.028.254.072.359.132.105.06.19.142.254.245a.737.737 0 0 1 .097.4c0 .19-.051.346-.152.467-.102.12-.228.215-.379.285-.15.07-.314.116-.49.14a3.602 3.602 0 0 1-1.016 0 2.033 2.033 0 0 1-.577-.181.329.329 0 0 0-.144-.041c-.026 0-.05.014-.072.043l-.077-.043.304-.665zm6.537.51c-.011 0-.021 0-.03-.002a.168.168 0 0 0-.03-.003.505.505 0 0 0-.158.066 4.807 4.807 0 0 1-.315.149 2.903 2.903 0 0 1-.434.143c-.162.04-.331.06-.508.06-.233 0-.456-.03-.669-.088a1.694 1.694 0 0 1-.567-.272 1.345 1.345 0 0 1-.389-.458 1.367 1.367 0 0 1-.143-.642c0-.242.047-.455.143-.64.096-.184.226-.339.39-.463a1.73 1.73 0 0 1 .566-.28 2.71 2.71 0 0 1 1.18-.05c.152.03.286.06.4.094.115.033.205.064.272.093.065.03.106.044.12.044.02 0 .035-.009.048-.027l.03-.044.083.065-.43.665-.056-.038c0-.012 0-.023-.003-.034a.348.348 0 0 0-.008-.038c-.007-.04-.044-.082-.11-.124a1.163 1.163 0 0 0-.247-.112c-.097-.033-.2-.06-.31-.082a1.504 1.504 0 0 0-.746.033 1.119 1.119 0 0 0-.37.192.912.912 0 0 0-.346.73.908.908 0 0 0 .347.73c.105.083.228.147.37.19.142.045.29.067.445.067.117 0 .241-.014.37-.041a2.29 2.29 0 0 0 .354-.104c.106-.042.196-.09.268-.143.071-.053.108-.103.108-.15a.102.102 0 0 0-.023-.067l.078-.043.364.581-.044.044zm.906.297c.096 0 .144-.033.144-.099v-2.49c0-.066-.048-.1-.144-.1v-.098h.918v.098c-.096 0-.144.034-.144.1v2.49c0 .066.048.1.144.1v.098h-.918v-.099zm4.587-2.195c0-.04-.016-.07-.046-.09a.321.321 0 0 0-.164-.03h-1.79v.68h1.083c.074 0 .13-.01.171-.03.04-.02.06-.072.06-.157h.1v.856h-.1c0-.083-.02-.138-.06-.161a.34.34 0 0 0-.171-.036h-1.083v.757h1.845c.056 0 .1-.013.136-.038a.123.123 0 0 0 .052-.104h.1v.751h-.1c0-.054-.017-.086-.052-.093a.657.657 0 0 0-.136-.011H9.696v-.099a.107.107 0 0 0 .07-.024c.02-.017.03-.042.03-.074V56.9c0-.033-.01-.057-.03-.074a.104.104 0 0 0-.07-.024v-.1h2.52c.077 0 .132-.011.164-.035a.115.115 0 0 0 .046-.096h.1v.724h-.1zm.984 2.195c.07 0 .105-.033.105-.099v-2.49c0-.066-.035-.1-.105-.1v-.098h.945v.098c-.03 0-.044.019-.044.055 0 .03.037.08.11.154l1.586 1.635v-1.745c0-.065-.048-.099-.143-.099v-.098h.834v.098c-.07 0-.105.034-.105.1v2.49c0 .066.035.1.105.1v.098h-.895v-.099c.047 0 .072-.016.072-.05 0-.025-.03-.067-.089-.125L14.1 57.57v1.821c0 .066.043.1.128.1v.098h-.818v-.099zm7.339-.296c-.012 0-.022 0-.031-.003a.168.168 0 0 0-.03-.003.505.505 0 0 0-.157.066 4.807 4.807 0 0 1-.316.149 2.903 2.903 0 0 1-.434.143c-.162.04-.33.06-.508.06-.232 0-.455-.03-.668-.088a1.694 1.694 0 0 1-.567-.272 1.345 1.345 0 0 1-.39-.458 1.367 1.367 0 0 1-.143-.642c0-.242.048-.455.143-.64.096-.184.226-.339.39-.463a1.73 1.73 0 0 1 .567-.28c.213-.062.436-.093.668-.093.188 0 .358.014.511.044.153.03.287.06.401.093.114.033.204.064.271.093.066.03.107.044.121.044.019 0 .034-.009.047-.027l.03-.044.083.065-.43.665-.056-.038c0-.012 0-.023-.003-.034a.348.348 0 0 0-.008-.038c-.007-.04-.044-.082-.11-.124a1.163 1.163 0 0 0-.246-.112c-.098-.033-.2-.06-.31-.082a1.504 1.504 0 0 0-.746.033 1.119 1.119 0 0 0-.37.192.912.912 0 0 0-.346.73.908.908 0 0 0 .346.73c.105.083.229.147.37.19.142.045.29.067.445.067.118 0 .241-.014.37-.041a2.29 2.29 0 0 0 .354-.104c.107-.042.196-.09.268-.143.072-.053.108-.103.108-.15a.102.102 0 0 0-.023-.067l.078-.043.365.581-.044.044zm3.653-1.899c0-.04-.016-.07-.047-.09a.321.321 0 0 0-.163-.03h-1.79v.68h1.082c.074 0 .131-.01.172-.03.04-.02.06-.072.06-.157h.1v.856h-.1c0-.083-.02-.138-.06-.161a.34.34 0 0 0-.172-.036h-1.083v.757h1.846c.055 0 .1-.013.135-.038a.123.123 0 0 0 .053-.104h.1v.751h-.1c0-.054-.018-.086-.053-.093a.657.657 0 0 0-.135-.011h-2.575v-.099a.107.107 0 0 0 .069-.024c.02-.017.03-.042.03-.074V56.9c0-.033-.01-.057-.03-.074a.104.104 0 0 0-.07-.024v-.1h2.52c.078 0 .132-.011.164-.035a.115.115 0 0 0 .047-.096h.1v.724h-.1zm6.632 2.096c0 .066.04.1.121.1v.098h-.851v-.098a.108.108 0 0 0 .07-.025c.02-.017.03-.041.03-.075v-2.184h-.912a.185.185 0 0 0-.097.028c-.031.018-.047.053-.047.104h-.1v-.768h.1c0 .051.016.086.047.105.031.018.064.026.097.026h2.453a.19.19 0 0 0 .097-.026c.031-.019.047-.054.047-.105h.1v.768h-.1c0-.05-.016-.086-.047-.104a.186.186 0 0 0-.097-.028h-.911v2.184zm4.58-2.096c0-.04-.015-.07-.046-.09a.321.321 0 0 0-.163-.03h-1.79v.68h1.082c.074 0 .131-.01.172-.03.04-.02.06-.072.06-.157h.1v.856h-.1c0-.083-.02-.138-.06-.161a.34.34 0 0 0-.172-.036h-1.083v.757h1.846c.055 0 .1-.013.136-.038a.123.123 0 0 0 .052-.104h.1v.751h-.1c0-.054-.018-.086-.052-.093a.657.657 0 0 0-.136-.011h-2.575v-.099a.107.107 0 0 0 .069-.024c.02-.017.03-.042.03-.074V56.9c0-.033-.01-.057-.03-.074a.104.104 0 0 0-.07-.024v-.1h2.521c.077 0 .131-.011.163-.035a.115.115 0 0 0 .047-.096h.1v.724h-.1zm4.024 1.899c-.012 0-.022 0-.03-.003a.168.168 0 0 0-.031-.003.505.505 0 0 0-.157.066 4.807 4.807 0 0 1-.316.149 2.903 2.903 0 0 1-.433.143c-.163.04-.332.06-.509.06-.232 0-.455-.03-.668-.088a1.694 1.694 0 0 1-.567-.272 1.345 1.345 0 0 1-.39-.458 1.367 1.367 0 0 1-.143-.642c0-.242.048-.455.144-.64.095-.184.225-.339.389-.463a1.73 1.73 0 0 1 .567-.28c.213-.062.436-.093.668-.093.188 0 .359.014.511.044.153.03.287.06.401.093.115.033.205.064.271.093.066.03.107.044.121.044.02 0 .035-.009.047-.027l.031-.044.082.065-.43.665-.056-.038c0-.012 0-.023-.003-.034a.347.347 0 0 0-.008-.038c-.007-.04-.044-.082-.11-.124a1.163 1.163 0 0 0-.246-.112c-.098-.033-.2-.06-.31-.082a1.504 1.504 0 0 0-.746.033 1.119 1.119 0 0 0-.37.192.912.912 0 0 0-.346.73.908.908 0 0 0 .346.73c.105.083.229.147.37.19.142.045.29.067.445.067.118 0 .242-.014.37-.041a2.29 2.29 0 0 0 .354-.104c.107-.042.197-.09.268-.143.072-.053.108-.103.108-.15a.102.102 0 0 0-.022-.067l.078-.043.364.581-.044.044zm3.487-2.294c0-.065-.04-.099-.122-.099v-.098h.851v.098a.107.107 0 0 0-.069.025c-.02.017-.03.04-.03.074v2.491c0 .033.01.058.03.074.02.017.044.025.07.025v.1h-.852v-.1c.081 0 .122-.033.122-.099v-1.031h-1.78v1.031c0 .033.01.058.03.074.021.017.044.025.07.025v.1h-.835v-.1c.07 0 .105-.033.105-.099v-2.49c0-.066-.035-.1-.105-.1v-.098h.834v.098a.107.107 0 0 0-.068.025c-.02.017-.03.04-.03.074v.933h1.779V56.9zm1.763 2.59c.07 0 .105-.033.105-.099v-2.49c0-.066-.035-.1-.105-.1v-.098h.945v.098c-.03 0-.044.019-.044.055 0 .03.037.08.11.154l1.586 1.635v-1.745c0-.065-.048-.099-.143-.099v-.098h.834v.098c-.07 0-.105.034-.105.1v2.49c0 .066.035.1.105.1v.098h-.895v-.099c.047 0 .072-.016.072-.05 0-.025-.03-.067-.089-.125l-1.686-1.745v1.821c0 .066.043.1.128.1v.098h-.818v-.099zm5.946-2.316a1.39 1.39 0 0 0-.799.256.983.983 0 0 0-.273.304.81.81 0 0 0-.105.412c0 .154.035.29.105.411a.98.98 0 0 0 .273.305 1.39 1.39 0 0 0 .799.255 1.39 1.39 0 0 0 .799-.255.993.993 0 0 0 .273-.305.806.806 0 0 0 .105-.411.81.81 0 0 0-.105-.412.997.997 0 0 0-.273-.304 1.39 1.39 0 0 0-.799-.255m0-.505c.203 0 .409.03.619.09.21.061.401.152.575.272.173.12.315.273.425.458.11.185.166.403.166.656 0 .252-.056.471-.166.656-.11.184-.252.337-.425.458a1.785 1.785 0 0 1-.575.263c-.21.055-.416.083-.619.083s-.41-.028-.619-.083a1.782 1.782 0 0 1-.575-.263 1.47 1.47 0 0 1-.425-.458 1.253 1.253 0 0 1-.166-.656c0-.253.055-.47.166-.656.11-.185.252-.337.425-.458.173-.12.365-.211.575-.272.21-.06.416-.09.62-.09m5.32 3.023c0-.055-.017-.086-.051-.093a.662.662 0 0 0-.136-.01h-2.63v-.1c.11 0 .165-.033.165-.099v-2.49c0-.066-.055-.1-.165-.1v-.098h.95v.098c-.103 0-.155.034-.155.1v2.183h1.835c.055 0 .1-.013.136-.038a.124.124 0 0 0 .052-.105h.1v.752h-.1zm2.355-2.519a1.39 1.39 0 0 0-.799.256.983.983 0 0 0-.273.304.81.81 0 0 0-.105.412c0 .154.035.29.105.411a.98.98 0 0 0 .273.305 1.39 1.39 0 0 0 .799.255 1.39 1.39 0 0 0 .799-.255.993.993 0 0 0 .273-.305.806.806 0 0 0 .105-.411.81.81 0 0 0-.105-.412.997.997 0 0 0-.273-.304 1.39 1.39 0 0 0-.799-.255m0-.505c.203 0 .409.03.619.09.21.061.401.152.575.272.173.12.315.273.425.458.11.185.166.403.166.656 0 .252-.056.471-.166.656-.11.184-.252.337-.425.458a1.785 1.785 0 0 1-.575.263c-.21.055-.416.083-.619.083s-.41-.028-.619-.083a1.782 1.782 0 0 1-.575-.263 1.47 1.47 0 0 1-.425-.458 1.253 1.253 0 0 1-.166-.656c0-.253.055-.47.166-.656.11-.185.252-.337.425-.458.174-.12.365-.211.575-.272.21-.06.416-.09.62-.09m5.271.922l-.11-.034a.21.21 0 0 0 .01-.065c0-.055-.033-.104-.101-.148a1.01 1.01 0 0 0-.26-.113 2.015 2.015 0 0 0-.343-.068 2.85 2.85 0 0 0-.351-.022c-.136 0-.271.02-.406.057a1.074 1.074 0 0 0-.36.178.902.902 0 0 0-.254.314 1.028 1.028 0 0 0-.096.466c0 .18.032.333.096.464.065.13.15.234.255.315.105.08.224.14.359.178.135.039.27.058.406.058.21 0 .399-.017.567-.052a3.64 3.64 0 0 0 .428-.112v-.473h-.708c-.05 0-.09.012-.116.033-.026.022-.042.07-.05.143h-.1v-.702h.1c.008.062.024.101.05.118a.215.215 0 0 0 .116.024h1.382v.099a.352.352 0 0 0-.138.039c-.019.014-.028.045-.028.093v.62c0 .036.011.06.033.072l.078.038v.088a2 2 0 0 1-.384.208 2.502 2.502 0 0 1-.824.186c-.138.008-.273.011-.406.011-.258 0-.493-.031-.704-.095a1.52 1.52 0 0 1-.545-.286 1.294 1.294 0 0 1-.35-.46 1.467 1.467 0 0 1-.125-.618c0-.23.041-.436.124-.617.083-.181.2-.336.351-.464.15-.128.333-.226.545-.294.211-.067.446-.1.704-.1.162 0 .317.01.464.031a4.807 4.807 0 0 1 .677.152.741.741 0 0 0 .141.036.121.121 0 0 0 .077-.023.561.561 0 0 1 .056-.038l.066.038-.326.725zm2.078-.89v.1a.294.294 0 0 0-.094.013c-.03.01-.044.033-.044.069 0 .022.026.074.08.156.053.082.115.176.187.28.072.104.147.212.225.321.077.11.14.203.187.28l.647-.884.072-.104a.127.127 0 0 0 .027-.071c0-.026-.017-.042-.052-.05a.493.493 0 0 0-.097-.01v-.1h.967v.1a.442.442 0 0 0-.083.007.22.22 0 0 0-.08.04.493.493 0 0 0-.088.087c-.032.038-.069.09-.113.156l-.94 1.323v.977c0 .066.043.098.127.098v.099h-.873v-.099c.033 0 .06-.008.083-.025.022-.016.033-.04.033-.073v-.977l-1.067-1.482a.296.296 0 0 0-.118-.093.325.325 0 0 0-.135-.038v-.1h1.149zm8.742.593c0-.04-.016-.07-.046-.09a.321.321 0 0 0-.164-.03h-1.79v.68h1.083c.073 0 .13-.01.171-.03.04-.02.06-.072.06-.157h.1v.856h-.1c0-.083-.02-.138-.06-.161a.34.34 0 0 0-.171-.036h-1.083v.757h1.845c.056 0 .1-.013.136-.038a.123.123 0 0 0 .052-.104h.1v.751h-.1c0-.054-.017-.086-.052-.093a.657.657 0 0 0-.136-.011h-2.575v-.099a.107.107 0 0 0 .07-.024c.02-.017.03-.042.03-.074V56.9c0-.033-.01-.057-.03-.074a.104.104 0 0 0-.07-.024v-.1h2.52c.077 0 .132-.011.164-.035a.115.115 0 0 0 .046-.096h.1v.724h-.1zm.984 2.195c.07 0 .105-.033.105-.099v-2.49c0-.066-.035-.1-.105-.1v-.098h.945v.098c-.03 0-.044.019-.044.055 0 .03.036.08.11.154l1.586 1.635v-1.745c0-.065-.048-.099-.143-.099v-.098h.834v.098c-.07 0-.105.034-.105.1v2.49c0 .066.035.1.105.1v.098h-.895v-.099c.047 0 .072-.016.072-.05 0-.025-.03-.067-.089-.125l-1.686-1.745v1.821c0 .066.043.1.128.1v.098h-.818v-.099zm6.919-1.898l-.11-.034a.21.21 0 0 0 .01-.065c0-.055-.034-.104-.102-.148a1.01 1.01 0 0 0-.26-.113 2.015 2.015 0 0 0-.342-.068 2.85 2.85 0 0 0-.351-.022c-.137 0-.272.02-.406.057a1.074 1.074 0 0 0-.36.178.902.902 0 0 0-.254.314 1.028 1.028 0 0 0-.097.466c0 .18.033.333.097.464.065.13.15.234.254.315.105.08.225.14.36.178.134.039.27.058.406.058.21 0 .398-.017.567-.052a3.64 3.64 0 0 0 .428-.112v-.473h-.708c-.051 0-.09.012-.116.033-.026.022-.042.07-.05.143h-.1v-.702h.1c.008.062.024.101.05.118a.215.215 0 0 0 .116.024h1.382v.099a.352.352 0 0 0-.138.039c-.019.014-.028.045-.028.093v.62c0 .036.011.06.033.072l.078.038v.088a2 2 0 0 1-.384.208 2.502 2.502 0 0 1-.824.186c-.138.008-.273.011-.406.011-.258 0-.493-.031-.705-.095a1.52 1.52 0 0 1-.544-.286 1.294 1.294 0 0 1-.35-.46 1.467 1.467 0 0 1-.125-.618c0-.23.041-.436.124-.617.083-.181.2-.336.351-.464.15-.128.332-.226.544-.294.212-.067.447-.1.705-.1.162 0 .317.01.464.031a4.807 4.807 0 0 1 .677.152.741.741 0 0 0 .14.036.121.121 0 0 0 .078-.023.561.561 0 0 1 .056-.038l.066.038-.326.725zm1.326 1.898c.096 0 .144-.033.144-.099v-2.49c0-.066-.048-.1-.144-.1v-.098h.917v.098c-.095 0-.143.034-.143.1v2.49c0 .066.048.1.143.1v.098h-.917v-.099zm1.884 0c.07 0 .105-.033.105-.099v-2.49c0-.066-.035-.1-.105-.1v-.098h.945v.098c-.029 0-.044.019-.044.055 0 .03.037.08.11.154l1.587 1.635v-1.745c0-.065-.048-.099-.144-.099v-.098h.835v.098c-.07 0-.106.034-.106.1v2.49c0 .066.035.1.106.1v.098h-.896v-.099c.048 0 .072-.016.072-.05 0-.025-.03-.067-.088-.125l-1.686-1.745v1.821c0 .066.042.1.127.1v.098h-.818v-.099zm7.002-2.195c0-.04-.016-.07-.046-.09a.321.321 0 0 0-.164-.03h-1.79v.68H91.8c.074 0 .13-.01.171-.03.04-.02.06-.072.06-.157h.1v.856h-.1c0-.083-.02-.138-.06-.161a.34.34 0 0 0-.171-.036h-1.083v.757h1.845c.056 0 .1-.013.136-.038a.123.123 0 0 0 .052-.104h.1v.751h-.1c0-.054-.017-.086-.052-.093a.657.657 0 0 0-.136-.011h-2.575v-.099a.107.107 0 0 0 .07-.024c.02-.017.03-.042.03-.074V56.9c0-.033-.01-.057-.03-.074a.104.104 0 0 0-.07-.024v-.1h2.52c.077 0 .132-.011.164-.035a.115.115 0 0 0 .046-.096h.1v.724h-.1zm3.686 0c0-.04-.016-.07-.046-.09a.321.321 0 0 0-.164-.03h-1.79v.68h1.083c.073 0 .13-.01.171-.03.04-.02.06-.072.06-.157h.1v.856h-.1c0-.083-.02-.138-.06-.161a.34.34 0 0 0-.171-.036h-1.083v.757h1.845c.056 0 .1-.013.136-.038a.123.123 0 0 0 .052-.104h.1v.751h-.1c0-.054-.017-.086-.052-.093a.657.657 0 0 0-.136-.011h-2.575v-.099a.107.107 0 0 0 .07-.024c.02-.017.03-.042.03-.074V56.9c0-.033-.01-.057-.03-.074a.104.104 0 0 0-.07-.024v-.1h2.52c.077 0 .132-.011.164-.035a.115.115 0 0 0 .046-.096h.1v.724h-.1zm2.67.692c.132 0 .242-.01.331-.03a.59.59 0 0 0 .21-.085.318.318 0 0 0 .11-.13.396.396 0 0 0 .034-.161.392.392 0 0 0-.034-.162.31.31 0 0 0-.11-.129.59.59 0 0 0-.21-.085c-.089-.02-.2-.03-.332-.03h-.955v.812h.955zm.143-1.284c.177 0 .337.016.48.046.144.031.268.08.371.148a.678.678 0 0 1 .237.264c.056.108.083.24.083.398 0 .241-.071.426-.215.554a1.161 1.161 0 0 1-.58.258l.735 1.042a.147.147 0 0 0 .091.066.45.45 0 0 0 .096.012v.098h-1.032v-.098a.213.213 0 0 0 .085-.017c.024-.011.036-.025.036-.044a.125.125 0 0 0-.023-.063 1.766 1.766 0 0 0-.065-.096l-.609-.857h-.79v.977c0 .034.012.058.036.074.024.017.067.026.13.026v.098h-.956v-.098c.107 0 .16-.034.16-.1v-2.49c0-.066-.053-.1-.16-.1v-.098h1.89zm2.116 2.787c.096 0 .144-.033.144-.099v-2.49c0-.066-.048-.1-.144-.1v-.098h.918v.098c-.096 0-.144.034-.144.1v2.49c0 .066.048.1.144.1v.098h-.918v-.099zm1.885 0c.07 0 .105-.033.105-.099v-2.49c0-.066-.035-.1-.105-.1v-.098h.945v.098c-.03 0-.044.019-.044.055 0 .03.037.08.11.154l1.586 1.635v-1.745c0-.065-.048-.099-.143-.099v-.098h.834v.098c-.07 0-.105.034-.105.1v2.49c0 .066.035.1.105.1v.098h-.895v-.099c.048 0 .072-.016.072-.05 0-.025-.03-.067-.089-.125l-1.686-1.745v1.821c0 .066.043.1.128.1v.098h-.818v-.099zm6.919-1.898l-.11-.034a.21.21 0 0 0 .01-.065c0-.055-.034-.104-.102-.148a1.01 1.01 0 0 0-.26-.113 2.015 2.015 0 0 0-.342-.068 2.85 2.85 0 0 0-.351-.022c-.137 0-.272.02-.406.057a1.074 1.074 0 0 0-.36.178.902.902 0 0 0-.254.314 1.028 1.028 0 0 0-.097.466c0 .18.033.333.097.464.065.13.15.234.254.315.105.08.225.14.36.178.134.039.27.058.406.058.21 0 .398-.017.566-.052a3.64 3.64 0 0 0 .428-.112v-.473h-.707c-.051 0-.09.012-.116.033-.026.022-.042.07-.05.143h-.1v-.702h.1c.008.062.024.101.05.118a.215.215 0 0 0 .116.024h1.382v.099a.352.352 0 0 0-.138.039c-.02.014-.028.045-.028.093v.62c0 .036.011.06.033.072l.077.038v.088a2 2 0 0 1-.383.208 2.502 2.502 0 0 1-.824.186c-.138.008-.273.011-.406.011-.258 0-.493-.031-.705-.095a1.52 1.52 0 0 1-.544-.286 1.294 1.294 0 0 1-.351-.46 1.467 1.467 0 0 1-.124-.618c0-.23.041-.436.124-.617.083-.181.2-.336.351-.464.15-.128.332-.226.544-.294.212-.067.447-.1.705-.1.162 0 .317.01.464.031a4.807 4.807 0 0 1 .677.152.741.741 0 0 0 .14.036.121.121 0 0 0 .078-.023.561.561 0 0 1 .056-.038l.066.038-.326.725zm4.725 1.898c.03 0 .055-.008.077-.025.022-.016.033-.04.033-.074V56.89c0-.033-.011-.055-.033-.069a.154.154 0 0 0-.077-.019v-.098h1.033v.098a.116.116 0 0 0-.058.017.052.052 0 0 0-.03.049c0 .019.007.042.022.071.014.03.03.061.05.094l.79 1.426.795-1.41c.026-.047.045-.085.058-.112a.169.169 0 0 0 .02-.074c0-.04-.024-.06-.072-.06v-.1h1.022v.1a.153.153 0 0 0-.077.018c-.022.014-.033.036-.033.07v2.501c0 .033.011.058.033.074a.126.126 0 0 0 .077.025v.1h-.867v-.1c.1 0 .149-.033.149-.099v-1.821h-.01l-1.112 2.02h-.017l-1.088-2.026h-.01v1.827c0 .066.05.1.153.1v.098h-.828v-.099zm6.316-1.02l-.464-1.021-.52 1.02h.984zm-2.083 1.02a.166.166 0 0 0 .113-.071c.028-.04.054-.086.08-.137l1.022-2.135.07-.131c.02-.04.03-.076.03-.104 0-.038-.013-.063-.039-.077a.334.334 0 0 0-.083-.034v-.098h.934v.098a.509.509 0 0 0-.078.03c-.025.013-.038.04-.038.08 0 .03.007.059.02.088.012.03.032.068.057.115l1.15 2.234c.018.04.043.069.074.087.032.019.068.037.109.055v.1h-.973v-.1a.14.14 0 0 0 .055-.016c.022-.011.033-.028.033-.05a.347.347 0 0 0-.044-.142l-.21-.406h-1.348l-.2.39a.456.456 0 0 0-.055.164c0 .04.035.06.105.06v.1h-.784v-.1zm5.57-.099c0 .066.04.1.122.1v.098h-.852v-.098a.108.108 0 0 0 .07-.025c.02-.017.03-.041.03-.075v-2.184h-.912a.185.185 0 0 0-.096.028c-.032.018-.047.053-.047.104h-.1v-.768h.1c0 .051.015.086.047.105.03.018.063.026.096.026h2.454a.19.19 0 0 0 .096-.026c.032-.019.048-.054.048-.105h.1v.768h-.1c0-.05-.016-.086-.048-.104a.186.186 0 0 0-.096-.028h-.912v2.184zm4.416-2.49c0-.066-.041-.1-.122-.1v-.098h.851v.098a.107.107 0 0 0-.07.025c-.02.017-.03.04-.03.074v2.491c0 .033.01.058.03.074.021.017.044.025.07.025v.1h-.85v-.1c.08 0 .12-.033.12-.099v-1.031H127.3v1.031c0 .033.01.058.03.074.02.017.044.025.07.025v.1h-.835v-.1c.07 0 .105-.033.105-.099v-2.49c0-.066-.035-.1-.105-.1v-.098h.834v.098a.107.107 0 0 0-.068.025c-.02.017-.03.04-.03.074v.933h1.779V56.9zm1.95 1.782l.056.028c0 .033.007.062.022.088a.396.396 0 0 0 .151.129c.076.042.163.08.26.112a2.134 2.134 0 0 0 .594.11c.063 0 .144-.005.244-.014.1-.01.196-.028.293-.057a.814.814 0 0 0 .248-.121.24.24 0 0 0 .105-.203c0-.084-.032-.146-.096-.187a.717.717 0 0 0-.255-.087 2.728 2.728 0 0 0-.359-.036 12.414 12.414 0 0 1-.412-.024 3.888 3.888 0 0 1-.411-.056 1.153 1.153 0 0 1-.36-.128.723.723 0 0 1-.254-.247.771.771 0 0 1-.097-.409c0-.113.027-.226.08-.335a.809.809 0 0 1 .247-.291c.11-.084.25-.152.42-.206.17-.053.368-.079.596-.079.195 0 .365.014.509.044a3.631 3.631 0 0 1 .638.186c.072.03.132.045.18.045.051 0 .088-.012.11-.034l.066.044-.38.686-.056-.022a.31.31 0 0 0-.044-.126.47.47 0 0 0-.147-.129 1.272 1.272 0 0 0-.24-.112 1.938 1.938 0 0 0-.62-.11c-.08 0-.164.007-.25.02a1.208 1.208 0 0 0-.235.056.518.518 0 0 0-.174.102.203.203 0 0 0-.07.156c0 .088.033.154.097.198a.71.71 0 0 0 .254.099c.105.021.225.036.36.044.134.007.271.016.411.027.14.01.278.03.412.057.134.028.254.072.36.132.104.06.189.142.253.245a.737.737 0 0 1 .097.4c0 .19-.05.346-.152.467-.101.12-.227.215-.378.285-.151.07-.314.116-.49.14a3.602 3.602 0 0 1-1.016 0 2.033 2.033 0 0 1-.578-.181.329.329 0 0 0-.143-.041c-.027 0-.05.014-.072.043l-.078-.043.304-.665z"
         fill="#1D1D1B"
         id="path6342" />
      <path
         d="M273.294 41.856c.23-1.666 1.25-3.234 3.093-3.234 1.777 0 2.83 1.6 3.06 3.234h-6.153zm10.497 2.842v-.555c0-4.835-2.37-8.723-7.667-8.723-5.232 0-7.831 3.823-7.831 8.69 0 4.869 3.06 8.397 8.061 8.397 3.39 0 6.22-1.797 7.338-4.999l-4.245-.686c-.625 1.274-1.58 2.19-3.093 2.19-2.402 0-3.19-2.287-3.19-4.314h10.627zm-20.137-18.197c-1.513 0-2.731 1.241-2.731 2.711a2.715 2.715 0 0 0 2.731 2.712c1.513 0 2.73-1.21 2.73-2.712 0-1.47-1.217-2.711-2.73-2.711zm-2.303 25.483h4.607V35.943h-4.607v16.041zM239.34 35.943h-4.606v16.041h4.606v-7.873c0-1.7-.132-5.032 2.435-5.032 2.402 0 2.205 3.202 2.205 4.77v8.135h4.607v-7.873c0-1.667-.034-5.032 2.467-5.032 2.27 0 2.171 2.908 2.171 4.476v8.43h4.607v-9.998c0-3.496-1.02-6.567-5.133-6.567-1.875 0-3.719.947-4.706 2.516-1.052-1.7-2.632-2.516-4.639-2.516-1.48 0-3.06.686-3.948 1.96h-.066v-1.437zm-17.24 5.913c.23-1.666 1.25-3.234 3.093-3.234 1.776 0 2.829 1.6 3.06 3.234h-6.153zm10.495 2.842v-.555c0-4.835-2.368-8.723-7.666-8.723-5.231 0-7.831 3.823-7.831 8.69 0 4.869 3.06 8.397 8.061 8.397 3.39 0 6.219-1.797 7.337-4.999l-4.244-.686c-.625 1.274-1.58 2.19-3.093 2.19-2.402 0-3.192-2.287-3.192-4.314h10.628zm-25.597 3.758c-2.37 0-3.818-2.353-3.818-4.509s1.448-4.476 3.818-4.476c2.368 0 3.817 2.32 3.817 4.476s-1.449 4.51-3.817 4.51zm3.355 3.528h4.607V24.28h-4.607v13.134h-.065c-1.02-1.274-2.732-1.993-4.41-1.993-4.639 0-7.37 4.215-7.37 8.462 0 4.345 2.699 8.625 7.437 8.625 1.677 0 3.388-.719 4.343-2.025h.065v1.502zm-21.945-3.528c-2.37 0-3.817-2.353-3.817-4.509s1.447-4.476 3.817-4.476c2.368 0 3.85 2.32 3.85 4.476s-1.482 4.51-3.85 4.51zm7.93-12.513h-4.541v1.502c-1.119-1.306-2.83-2.025-4.508-2.025-4.64 0-7.37 4.215-7.37 8.462 0 4.345 2.698 8.625 7.436 8.625 1.677 0 3.389-.719 4.376-1.993h.066v1.47h4.54V35.943zm-18.13.49c-1.12-.686-2.468-1.013-3.752-1.013-4.869 0-8.389 3.823-8.389 8.593 0 4.606 3.389 8.494 8.16 8.494 1.414 0 2.73-.294 3.98-.98v-4.41c-.822.914-1.973 1.535-3.224 1.535-2.632 0-4.244-2.091-4.244-4.607 0-2.352 1.48-4.77 4.08-4.77 1.415 0 2.402.588 3.389 1.568v-4.41zm-22.242 12.023c-2.369 0-3.817-2.353-3.817-4.509s1.448-4.476 3.817-4.476 3.85 2.32 3.85 4.476-1.481 4.51-3.85 4.51zm7.93-12.513h-4.542v1.502c-1.118-1.306-2.829-2.025-4.507-2.025-4.639 0-7.37 4.215-7.37 8.462 0 4.345 2.698 8.625 7.436 8.625 1.678 0 3.389-.719 4.376-1.993h.065v1.47h4.542V35.943zm-26.356 7.448h8.029v-3.757h-8.029v3.757z"
         fill="#006187"
         id="path6344" />
    </g>
  </g>
</svg>
