<?xml version="1.0" encoding="UTF-8" standalone="no"?>
<!-- Created with Inkscape (http://www.inkscape.org/) -->

<svg
   xmlns:dc="http://purl.org/dc/elements/1.1/"
   xmlns:cc="http://creativecommons.org/ns#"
   xmlns:rdf="http://www.w3.org/1999/02/22-rdf-syntax-ns#"
   xmlns:svg="http://www.w3.org/2000/svg"
   xmlns="http://www.w3.org/2000/svg"
   xmlns:sodipodi="http://sodipodi.sourceforge.net/DTD/sodipodi-0.dtd"
   xmlns:inkscape="http://www.inkscape.org/namespaces/inkscape"
   width="85mm"
   height="15.000199mm"
   viewBox="0 0 85.000004 15.0002"
   version="1.1"
   id="svg8"
   inkscape:version="0.92.2 5c3e80d, 2017-08-06"
   sodipodi:docname="BirdPistonShort.svg">
  <defs
     id="defs2" />
  <sodipodi:namedview
     id="base"
     pagecolor="#ffffff"
     bordercolor="#666666"
     borderopacity="1.0"
     inkscape:pageopacity="0.0"
     inkscape:pageshadow="2"
     inkscape:zoom="1.0298782"
     inkscape:cx="290.74732"
     inkscape:cy="-60.42557"
     inkscape:document-units="mm"
     inkscape:current-layer="layer1"
     showgrid="false"
     inkscape:window-width="1280"
     inkscape:window-height="755"
     inkscape:window-x="-1"
     inkscape:window-y="280"
     inkscape:window-maximized="0"
     fit-margin-top="0"
     fit-margin-left="0"
     fit-margin-right="0"
     fit-margin-bottom="0"
     showguides="true"
     inkscape:guide-bbox="true">
    <sodipodi:guide
       position="59.112092,-29.174427"
       orientation="0,1"
       id="guide877"
       inkscape:locked="false" />
    <sodipodi:guide
       position="104.98838,-11.215384"
       orientation="1,0"
       id="guide1348"
       inkscape:locked="false" />
    <sodipodi:guide
       position="99.336425,-10.830023"
       orientation="1,0"
       id="guide1350"
       inkscape:locked="false" />
  </sodipodi:namedview>
  <metadata
     id="metadata5">
    <rdf:RDF>
      <cc:Work
         rdf:about="">
        <dc:format>image/svg+xml</dc:format>
        <dc:type
           rdf:resource="http://purl.org/dc/dcmitype/StillImage" />
        <dc:title></dc:title>
      </cc:Work>
    </rdf:RDF>
  </metadata>
  <g
     inkscape:label="Layer 1"
     inkscape:groupmode="layer"
     id="layer1"
     transform="translate(-9.783045,-44.725233)"
     style="display:inline">
    <path
       style="opacity:1;fill:none;fill-opacity:1;stroke:#000000;stroke-width:0.2;stroke-miterlimit:4;stroke-dasharray:none;stroke-dashoffset:0.57139313;stroke-opacity:1"
       d="m 15.133046,52.225443 a 2.1499999,2.1499999 0 0 1 2.15,-2.150011 2.1499999,2.1499999 0 0 1 2.15,2.150011 2.1499999,2.1499999 0 0 1 -2.15,2.149989 2.1499999,2.1499999 0 0 1 -2.15,-2.149989 z"
       id="path1314"
       inkscape:connector-curvature="0" />
    <path
       inkscape:connector-curvature="0"
       id="path1322"
       d="m 85.512045,52.225442 a 1.9,1.9 0 0 1 1.9,-1.90001 1.9,1.9 0 0 1 1.9,1.90001 1.9,1.9 0 0 1 -1.9,1.89999 1.9,1.9 0 0 1 -1.9,-1.89999 z"
       style="opacity:1;fill:none;fill-opacity:1;stroke:#000000;stroke-width:0.2;stroke-miterlimit:4;stroke-dasharray:none;stroke-dashoffset:0.57139313;stroke-opacity:1" />
    <path
       inkscape:connector-curvature="0"
       id="path1324"
       d="m 94.683042,52.22547 c -1.7e-5,4.086892 -2.680836,7.399962 -5.987784,7.399962 0,0 -24.11457,-1.899216 -36.18822,-1.903116 -12.222846,-0.0039 -36.636191,1.903116 -36.636191,1.903116 -3.306951,10e-7 -5.987785,-3.313069 -5.987802,-7.399962 -1.7e-5,-4.086923 2.680827,-7.400237 5.987801,-7.400237 0,0 24.408362,2.099969 36.632844,2.134626 12.073623,0.03423 36.18821,-1.903116 36.18821,-1.903116 3.306973,0 5.991158,3.081805 5.991142,7.168727 z"
       style="opacity:1;fill:none;fill-opacity:1;stroke:#000000;stroke-width:0.19999997;stroke-miterlimit:4;stroke-dasharray:none;stroke-dashoffset:0.57139313;stroke-opacity:1"
       sodipodi:nodetypes="scccscacs" />
  </g>
  <g
     inkscape:groupmode="layer"
     id="layer2"
     inkscape:label="Layer 2"
     style="display:inline"
     transform="translate(-5.4817988,-5.762291)" />
</svg>
