  0
SECTION
  2
HEADER
  9
$ACADVER
  1
AC1014
  9
$HANDSEED
  5
FFFF
  9
$MEASUREMENT
 70
     1
  0
ENDSEC
  0
SECTION
  2
TABLES
  0
TABLE
  2
VPORT
  5
8
330
0
100
AcDbSymbolTable
 70
     4
  0
VPORT
  5
2E
330
8
100
AcDbSymbolTableRecord
100
AcDbViewportTableRecord
  2
*ACTIVE
 70
     0
 10
0.0
 20
0.0
 11
1.0
 21
1.0
 12
210.0
 22
148.5
 13
0.0
 23
0.0
 14
10.0
 24
10.0
 15
10.0
 25
10.0
 16
0.0
 26
0.0
 36
1.0
 17
0.0
 27
0.0
 37
0.0
 40
341.0
 41
1.24
 42
50.0
 43
0.0
 44
0.0
 50
0.0
 51
0.0
 71
     0
 72
   100
 73
     1
 74
     3
 75
     0
 76
     0
 77
     0
 78
     0
  0
ENDTAB
  0
TABLE
  2
LTYPE
  5
5
330
0
100
AcDbSymbolTable
 70
     1
  0
LTYPE
  5
14
330
5
100
AcDbSymbolTableRecord
100
AcDbLinetypeTableRecord
  2
BYBLOCK
 70
     0
  3

 72
    65
 73
     0
 40
0.0
  0
LTYPE
  5
15
330
5
100
AcDbSymbolTableRecord
100
AcDbLinetypeTableRecord
  2
BYLAYER
 70
     0
  3

 72
    65
 73
     0
 40
0.0
  0
LTYPE
  5
16
330
5
100
AcDbSymbolTableRecord
100
AcDbLinetypeTableRecord
  2
CONTINUOUS
 70
     0
  3
Solid line
 72
    65
 73
     0
 40
0.0
  0
ENDTAB
  0
TABLE
  2
LAYER
  5
2
100
AcDbSymbolTable
 70
7
  0
LAYER
  5
50
100
AcDbSymbolTableRecord
100
AcDbLayerTableRecord
  2
0
 70
0
  6
CONTINUOUS
  0
LAYER
  5
51
100
AcDbSymbolTableRecord
100
AcDbLayerTableRecord
  2
Head
 70
0
  6
CONTINUOUS
  0
LAYER
  5
52
100
AcDbSymbolTableRecord
100
AcDbLayerTableRecord
  2
Head_2
 70
0
  6
CONTINUOUS
  0
LAYER
  5
53
100
AcDbSymbolTableRecord
100
AcDbLayerTableRecord
  2
Wing
 70
0
  6
CONTINUOUS
  0
LAYER
  5
54
100
AcDbSymbolTableRecord
100
AcDbLayerTableRecord
  2
Body
 70
0
  6
CONTINUOUS
  0
LAYER
  5
55
100
AcDbSymbolTableRecord
100
AcDbLayerTableRecord
  2
Tail
 70
0
  6
CONTINUOUS
  0
LAYER
  5
56
100
AcDbSymbolTableRecord
100
AcDbLayerTableRecord
  2
Draw
 70
0
  6
CONTINUOUS
  0
ENDTAB
  0
TABLE
  2
STYLE
  5
3
330
0
100
AcDbSymbolTable
 70
     1
  0
STYLE
  5
11
330
3
100
AcDbSymbolTableRecord
100
AcDbTextStyleTableRecord
  2
STANDARD
 70
     0
 40
0.0
 41
1.0
 50
0.0
 71
     0
 42
2.5
  3
txt
  4

  0
ENDTAB
  0
TABLE
  2
VIEW
  5
6
330
0
100
AcDbSymbolTable
 70
     0
  0
ENDTAB
  0
TABLE
  2
UCS
  5
7
330
0
100
AcDbSymbolTable
 70
     0
  0
ENDTAB
  0
TABLE
  2
APPID
  5
9
330
0
100
AcDbSymbolTable
 70
     2
  0
APPID
  5
12
330
9
100
AcDbSymbolTableRecord
100
AcDbRegAppTableRecord
  2
ACAD
 70
     0
  0
ENDTAB
  0
TABLE
  2
DIMSTYLE
  5
A
330
0
100
AcDbSymbolTable
 70
     1
  0
DIMSTYLE
105
27
330
A
100
AcDbSymbolTableRecord
100
AcDbDimStyleTableRecord
  2
ISO-25
 70
     0
  3

  4

  5

  6

  7

 40
1.0
 41
2.5
 42
0.625
 43
3.75
 44
1.25
 45
0.0
 46
0.0
 47
0.0
 48
0.0
140
2.5
141
2.5
142
0.0
143
0.03937007874016
144
1.0
145
0.0
146
1.0
147
0.625
 71
     0
 72
     0
 73
     0
 74
     0
 75
     0
 76
     0
 77
     1
 78
     8
170
     0
171
     3
172
     1
173
     0
174
     0
175
     0
176
     0
177
     0
178
     0
270
     2
271
     2
272
     2
273
     2
274
     3
340
11
275
     0
280
     0
281
     0
282
     0
283
     0
284
     8
285
     0
286
     0
287
     3
288
     0
  0
ENDTAB
  0
TABLE
  2
BLOCK_RECORD
  5
1
330
0
100
AcDbSymbolTable
 70
     1
  0
BLOCK_RECORD
  5
1F
330
1
100
AcDbSymbolTableRecord
100
AcDbBlockTableRecord
  2
*MODEL_SPACE
  0
BLOCK_RECORD
  5
1B
330
1
100
AcDbSymbolTableRecord
100
AcDbBlockTableRecord
  2
*PAPER_SPACE
  0
ENDTAB
  0
ENDSEC
  0
SECTION
  2
BLOCKS
  0
BLOCK
  5
20
330
1F
100
AcDbEntity
  8
0
100
AcDbBlockBegin
  2
*MODEL_SPACE
 70
     0
 10
0.0
 20
0.0
 30
0.0
  3
*MODEL_SPACE
  1

  0
ENDBLK
  5
21
330
1F
100
AcDbEntity
  8
0
100
AcDbBlockEnd
  0
BLOCK
  5
1C
330
1B
100
AcDbEntity
 67
     1
  8
0
100
AcDbBlockBegin
  2
*PAPER_SPACE
  1

  0
ENDBLK
  5
1D
330
1B
100
AcDbEntity
 67
     1
  8
0
100
AcDbBlockEnd
  0
ENDSEC
  0
SECTION
  2
ENTITIES
  0
SPLINE
  5
100
100
AcDbEntity
  8
Body
 62
7
100
AcDbSpline
 70
8
 71
3
 72
8
 73
4
 74
0
 40
0
 40
0
 40
0
 40
0
 40
1
 40
1
 40
1
 40
1
 10
0.028726
 20
66.326666
 30
0.0
 10
0.028726
 20
66.326666
 30
0.0
 10
2.216452
 20
76.412316
 30
0.0
 10
5.349677
 20
79.258907
 30
0.0
  0
SPLINE
  5
101
100
AcDbEntity
  8
Body
 62
7
100
AcDbSpline
 70
8
 71
3
 72
8
 73
4
 74
0
 40
0
 40
0
 40
0
 40
0
 40
1
 40
1
 40
1
 40
1
 10
5.349677
 20
79.258907
 30
0.0
 10
7.807981
 20
81.492316
 30
0.0
 10
16.803309
 20
81.566666
 30
0.0
 10
16.803309
 20
81.566666
 30
0.0
  0
SPLINE
  5
102
100
AcDbEntity
  8
Body
 62
7
100
AcDbSpline
 70
8
 71
3
 72
8
 73
4
 74
0
 40
0
 40
0
 40
0
 40
0
 40
1
 40
1
 40
1
 40
1
 10
16.803309
 20
81.566666
 30
0.0
 10
16.803309
 20
81.566666
 30
0.0
 10
25.719582
 20
83.618973
 30
0.0
 10
30.256157
 20
83.703881
 30
0.0
  0
SPLINE
  5
103
100
AcDbEntity
  8
Body
 62
7
100
AcDbSpline
 70
8
 71
3
 72
8
 73
4
 74
0
 40
0
 40
0
 40
0
 40
0
 40
1
 40
1
 40
1
 40
1
 10
30.256157
 20
83.703881
 30
0.0
 10
35.614999
 20
83.804182
 30
0.0
 10
46.489559
 20
82.122291
 30
0.0
 10
46.489559
 20
82.122291
 30
0.0
  0
SPLINE
  5
104
100
AcDbEntity
  8
Body
 62
7
100
AcDbSpline
 70
8
 71
3
 72
8
 73
4
 74
0
 40
0
 40
0
 40
0
 40
0
 40
1
 40
1
 40
1
 40
1
 10
46.489559
 20
82.122291
 30
0.0
 10
46.489559
 20
82.122291
 30
0.0
 10
57.952513
 20
78.920696
 30
0.0
 10
62.821185
 20
76.457091
 30
0.0
  0
SPLINE
  5
105
100
AcDbEntity
  8
Body
 62
7
100
AcDbSpline
 70
8
 71
3
 72
8
 73
4
 74
0
 40
0
 40
0
 40
0
 40
0
 40
1
 40
1
 40
1
 40
1
 10
62.821185
 20
76.457091
 30
0.0
 10
66.242988
 20
74.725618
 30
0.0
 10
71.360980
 20
69.537060
 30
0.0
 10
71.360980
 20
69.537060
 30
0.0
  0
SPLINE
  5
106
100
AcDbEntity
  8
Body
 62
7
100
AcDbSpline
 70
8
 71
3
 72
8
 73
4
 74
0
 40
0
 40
0
 40
0
 40
0
 40
1
 40
1
 40
1
 40
1
 10
71.360980
 20
69.537060
 30
0.0
 10
71.360980
 20
69.537060
 30
0.0
 10
77.329250
 20
61.483053
 30
0.0
 10
77.411215
 20
58.240418
 30
0.0
  0
SPLINE
  5
107
100
AcDbEntity
  8
Body
 62
7
100
AcDbSpline
 70
8
 71
3
 72
8
 73
4
 74
0
 40
0
 40
0
 40
0
 40
0
 40
1
 40
1
 40
1
 40
1
 10
77.411215
 20
58.240418
 30
0.0
 10
77.505441
 20
54.512714
 30
0.0
 10
71.889559
 20
48.626041
 30
0.0
 10
71.889559
 20
48.626041
 30
0.0
  0
SPLINE
  5
108
100
AcDbEntity
  8
Body
 62
7
100
AcDbSpline
 70
8
 71
3
 72
8
 73
4
 74
0
 40
0
 40
0
 40
0
 40
0
 40
1
 40
1
 40
1
 40
1
 10
71.889559
 20
48.626041
 30
0.0
 10
71.889559
 20
48.626041
 30
0.0
 10
55.843868
 20
43.631938
 30
0.0
 10
50.331008
 20
42.938936
 30
0.0
  0
SPLINE
  5
109
100
AcDbEntity
  8
Body
 62
7
100
AcDbSpline
 70
8
 71
3
 72
8
 73
4
 74
0
 40
0
 40
0
 40
0
 40
0
 40
1
 40
1
 40
1
 40
1
 10
50.331008
 20
42.938936
 30
0.0
 10
44.320457
 20
42.183374
 30
0.0
 10
37.319323
 20
44.280348
 30
0.0
 10
37.319323
 20
44.280348
 30
0.0
  0
SPLINE
  5
10a
100
AcDbEntity
  8
Body
 62
7
100
AcDbSpline
 70
8
 71
3
 72
8
 73
4
 74
0
 40
0
 40
0
 40
0
 40
0
 40
1
 40
1
 40
1
 40
1
 10
37.319323
 20
44.280348
 30
0.0
 10
37.319323
 20
44.280348
 30
0.0
 10
23.816924
 20
47.239712
 30
0.0
 10
18.556028
 20
49.895952
 30
0.0
  0
SPLINE
  5
10b
100
AcDbEntity
  8
Body
 62
7
100
AcDbSpline
 70
8
 71
3
 72
8
 73
4
 74
0
 40
0
 40
0
 40
0
 40
0
 40
1
 40
1
 40
1
 40
1
 10
18.556028
 20
49.895952
 30
0.0
 10
13.149493
 20
52.625721
 30
0.0
 10
5.317032
 20
60.438370
 30
0.0
 10
5.317032
 20
60.438370
 30
0.0
  0
LINE
  5
10c
100
AcDbEntity
  8
Body
 62
7
100
AcDbLine
 10
5.317032
 20
60.438370
 30
0.0
 11
0.028726
 21
66.326666
 31
0.0
  0
SPLINE
  5
10d
100
AcDbEntity
  8
Body
 62
7
100
AcDbSpline
 70
8
 71
3
 72
8
 73
4
 74
0
 40
0
 40
0
 40
0
 40
0
 40
1
 40
1
 40
1
 40
1
 10
0.273002
 20
23.578485
 30
0.0
 10
0.273002
 20
23.578485
 30
0.0
 10
2.460728
 20
33.664134
 30
0.0
 10
5.593953
 20
36.510726
 30
0.0
  0
SPLINE
  5
10e
100
AcDbEntity
  8
Body
 62
7
100
AcDbSpline
 70
8
 71
3
 72
8
 73
4
 74
0
 40
0
 40
0
 40
0
 40
0
 40
1
 40
1
 40
1
 40
1
 10
5.593953
 20
36.510726
 30
0.0
 10
8.052258
 20
38.744134
 30
0.0
 10
17.047586
 20
38.818485
 30
0.0
 10
17.047586
 20
38.818485
 30
0.0
  0
SPLINE
  5
10f
100
AcDbEntity
  8
Body
 62
7
100
AcDbSpline
 70
8
 71
3
 72
8
 73
4
 74
0
 40
0
 40
0
 40
0
 40
0
 40
1
 40
1
 40
1
 40
1
 10
17.047586
 20
38.818485
 30
0.0
 10
17.047586
 20
38.818485
 30
0.0
 10
25.963859
 20
40.870792
 30
0.0
 10
30.500434
 20
40.955699
 30
0.0
  0
SPLINE
  5
110
100
AcDbEntity
  8
Body
 62
7
100
AcDbSpline
 70
8
 71
3
 72
8
 73
4
 74
0
 40
0
 40
0
 40
0
 40
0
 40
1
 40
1
 40
1
 40
1
 10
30.500434
 20
40.955699
 30
0.0
 10
35.859276
 20
41.056000
 30
0.0
 10
46.733836
 20
39.374110
 30
0.0
 10
46.733836
 20
39.374110
 30
0.0
  0
SPLINE
  5
111
100
AcDbEntity
  8
Body
 62
7
100
AcDbSpline
 70
8
 71
3
 72
8
 73
4
 74
0
 40
0
 40
0
 40
0
 40
0
 40
1
 40
1
 40
1
 40
1
 10
46.733836
 20
39.374110
 30
0.0
 10
46.733836
 20
39.374110
 30
0.0
 10
58.196790
 20
36.172514
 30
0.0
 10
63.065462
 20
33.708910
 30
0.0
  0
SPLINE
  5
112
100
AcDbEntity
  8
Body
 62
7
100
AcDbSpline
 70
8
 71
3
 72
8
 73
4
 74
0
 40
0
 40
0
 40
0
 40
0
 40
1
 40
1
 40
1
 40
1
 10
63.065462
 20
33.708910
 30
0.0
 10
66.487265
 20
31.977437
 30
0.0
 10
71.605256
 20
26.788878
 30
0.0
 10
71.605256
 20
26.788878
 30
0.0
  0
SPLINE
  5
113
100
AcDbEntity
  8
Body
 62
7
100
AcDbSpline
 70
8
 71
3
 72
8
 73
4
 74
0
 40
0
 40
0
 40
0
 40
0
 40
1
 40
1
 40
1
 40
1
 10
71.605256
 20
26.788878
 30
0.0
 10
71.605256
 20
26.788878
 30
0.0
 10
77.573526
 20
18.734872
 30
0.0
 10
77.655491
 20
15.492236
 30
0.0
  0
SPLINE
  5
114
100
AcDbEntity
  8
Body
 62
7
100
AcDbSpline
 70
8
 71
3
 72
8
 73
4
 74
0
 40
0
 40
0
 40
0
 40
0
 40
1
 40
1
 40
1
 40
1
 10
77.655491
 20
15.492236
 30
0.0
 10
77.749718
 20
11.764532
 30
0.0
 10
72.133836
 20
5.877860
 30
0.0
 10
72.133836
 20
5.877860
 30
0.0
  0
SPLINE
  5
115
100
AcDbEntity
  8
Body
 62
7
100
AcDbSpline
 70
8
 71
3
 72
8
 73
4
 74
0
 40
0
 40
0
 40
0
 40
0
 40
1
 40
1
 40
1
 40
1
 10
72.133836
 20
5.877860
 30
0.0
 10
72.133836
 20
5.877860
 30
0.0
 10
56.088145
 20
0.883757
 30
0.0
 10
50.575284
 20
0.190755
 30
0.0
  0
SPLINE
  5
116
100
AcDbEntity
  8
Body
 62
7
100
AcDbSpline
 70
8
 71
3
 72
8
 73
4
 74
0
 40
0
 40
0
 40
0
 40
0
 40
1
 40
1
 40
1
 40
1
 10
50.575284
 20
0.190755
 30
0.0
 10
44.564734
 20
-0.564808
 30
0.0
 10
37.563600
 20
1.532166
 30
0.0
 10
37.563600
 20
1.532166
 30
0.0
  0
SPLINE
  5
117
100
AcDbEntity
  8
Body
 62
7
100
AcDbSpline
 70
8
 71
3
 72
8
 73
4
 74
0
 40
0
 40
0
 40
0
 40
0
 40
1
 40
1
 40
1
 40
1
 10
37.563600
 20
1.532166
 30
0.0
 10
37.563600
 20
1.532166
 30
0.0
 10
24.061200
 20
4.491531
 30
0.0
 10
18.800305
 20
7.147770
 30
0.0
  0
SPLINE
  5
118
100
AcDbEntity
  8
Body
 62
7
100
AcDbSpline
 70
8
 71
3
 72
8
 73
4
 74
0
 40
0
 40
0
 40
0
 40
0
 40
1
 40
1
 40
1
 40
1
 10
18.800305
 20
7.147770
 30
0.0
 10
13.393769
 20
9.877540
 30
0.0
 10
5.561309
 20
17.690188
 30
0.0
 10
5.561309
 20
17.690188
 30
0.0
  0
LINE
  5
119
100
AcDbEntity
  8
Body
 62
7
100
AcDbLine
 10
5.561309
 20
17.690188
 30
0.0
 11
0.273002
 21
23.578485
 31
0.0
  0
ENDSEC
  0
SECTION
  2
OBJECTS
  0
DICTIONARY
  5
C
330
0
100
AcDbDictionary
  3
ACAD_GROUP
350
D
  3
ACAD_MLINESTYLE
350
17
  0
DICTIONARY
  5
D
330
C
100
AcDbDictionary
  0
DICTIONARY
  5
1A
330
C
100
AcDbDictionary
  0
DICTIONARY
  5
17
330
C
100
AcDbDictionary
  3
STANDARD
350
18
  0
DICTIONARY
  5
19
330
C
100
AcDbDictionary
  0
ENDSEC
  0
EOF
