  0
SECTION
  2
HEADER
  9
$ACADVER
  1
AC1014
  9
$HANDSEED
  5
FFFF
  9
$MEASUREMENT
 70
     1
  0
ENDSEC
  0
SECTION
  2
TABLES
  0
TABLE
  2
VPORT
  5
8
330
0
100
AcDbSymbolTable
 70
     4
  0
VPORT
  5
2E
330
8
100
AcDbSymbolTableRecord
100
AcDbViewportTableRecord
  2
*ACTIVE
 70
     0
 10
0.0
 20
0.0
 11
1.0
 21
1.0
 12
210.0
 22
148.5
 13
0.0
 23
0.0
 14
10.0
 24
10.0
 15
10.0
 25
10.0
 16
0.0
 26
0.0
 36
1.0
 17
0.0
 27
0.0
 37
0.0
 40
341.0
 41
1.24
 42
50.0
 43
0.0
 44
0.0
 50
0.0
 51
0.0
 71
     0
 72
   100
 73
     1
 74
     3
 75
     0
 76
     0
 77
     0
 78
     0
  0
ENDTAB
  0
TABLE
  2
LTYPE
  5
5
330
0
100
AcDbSymbolTable
 70
     1
  0
LTYPE
  5
14
330
5
100
AcDbSymbolTableRecord
100
AcDbLinetypeTableRecord
  2
BYBLOCK
 70
     0
  3

 72
    65
 73
     0
 40
0.0
  0
LTYPE
  5
15
330
5
100
AcDbSymbolTableRecord
100
AcDbLinetypeTableRecord
  2
BYLAYER
 70
     0
  3

 72
    65
 73
     0
 40
0.0
  0
LTYPE
  5
16
330
5
100
AcDbSymbolTableRecord
100
AcDbLinetypeTableRecord
  2
CONTINUOUS
 70
     0
  3
Solid line
 72
    65
 73
     0
 40
0.0
  0
ENDTAB
  0
TABLE
  2
LAYER
  5
2
100
AcDbSymbolTable
 70
7
  0
LAYER
  5
50
100
AcDbSymbolTableRecord
100
AcDbLayerTableRecord
  2
0
 70
0
  6
CONTINUOUS
  0
LAYER
  5
51
100
AcDbSymbolTableRecord
100
AcDbLayerTableRecord
  2
Head
 70
0
  6
CONTINUOUS
  0
LAYER
  5
52
100
AcDbSymbolTableRecord
100
AcDbLayerTableRecord
  2
Head_2
 70
0
  6
CONTINUOUS
  0
LAYER
  5
53
100
AcDbSymbolTableRecord
100
AcDbLayerTableRecord
  2
Wing
 70
0
  6
CONTINUOUS
  0
LAYER
  5
54
100
AcDbSymbolTableRecord
100
AcDbLayerTableRecord
  2
Body
 70
0
  6
CONTINUOUS
  0
LAYER
  5
55
100
AcDbSymbolTableRecord
100
AcDbLayerTableRecord
  2
Tail
 70
0
  6
CONTINUOUS
  0
LAYER
  5
56
100
AcDbSymbolTableRecord
100
AcDbLayerTableRecord
  2
Draw
 70
0
  6
CONTINUOUS
  0
ENDTAB
  0
TABLE
  2
STYLE
  5
3
330
0
100
AcDbSymbolTable
 70
     1
  0
STYLE
  5
11
330
3
100
AcDbSymbolTableRecord
100
AcDbTextStyleTableRecord
  2
STANDARD
 70
     0
 40
0.0
 41
1.0
 50
0.0
 71
     0
 42
2.5
  3
txt
  4

  0
ENDTAB
  0
TABLE
  2
VIEW
  5
6
330
0
100
AcDbSymbolTable
 70
     0
  0
ENDTAB
  0
TABLE
  2
UCS
  5
7
330
0
100
AcDbSymbolTable
 70
     0
  0
ENDTAB
  0
TABLE
  2
APPID
  5
9
330
0
100
AcDbSymbolTable
 70
     2
  0
APPID
  5
12
330
9
100
AcDbSymbolTableRecord
100
AcDbRegAppTableRecord
  2
ACAD
 70
     0
  0
ENDTAB
  0
TABLE
  2
DIMSTYLE
  5
A
330
0
100
AcDbSymbolTable
 70
     1
  0
DIMSTYLE
105
27
330
A
100
AcDbSymbolTableRecord
100
AcDbDimStyleTableRecord
  2
ISO-25
 70
     0
  3

  4

  5

  6

  7

 40
1.0
 41
2.5
 42
0.625
 43
3.75
 44
1.25
 45
0.0
 46
0.0
 47
0.0
 48
0.0
140
2.5
141
2.5
142
0.0
143
0.03937007874016
144
1.0
145
0.0
146
1.0
147
0.625
 71
     0
 72
     0
 73
     0
 74
     0
 75
     0
 76
     0
 77
     1
 78
     8
170
     0
171
     3
172
     1
173
     0
174
     0
175
     0
176
     0
177
     0
178
     0
270
     2
271
     2
272
     2
273
     2
274
     3
340
11
275
     0
280
     0
281
     0
282
     0
283
     0
284
     8
285
     0
286
     0
287
     3
288
     0
  0
ENDTAB
  0
TABLE
  2
BLOCK_RECORD
  5
1
330
0
100
AcDbSymbolTable
 70
     1
  0
BLOCK_RECORD
  5
1F
330
1
100
AcDbSymbolTableRecord
100
AcDbBlockTableRecord
  2
*MODEL_SPACE
  0
BLOCK_RECORD
  5
1B
330
1
100
AcDbSymbolTableRecord
100
AcDbBlockTableRecord
  2
*PAPER_SPACE
  0
ENDTAB
  0
ENDSEC
  0
SECTION
  2
BLOCKS
  0
BLOCK
  5
20
330
1F
100
AcDbEntity
  8
0
100
AcDbBlockBegin
  2
*MODEL_SPACE
 70
     0
 10
0.0
 20
0.0
 30
0.0
  3
*MODEL_SPACE
  1

  0
ENDBLK
  5
21
330
1F
100
AcDbEntity
  8
0
100
AcDbBlockEnd
  0
BLOCK
  5
1C
330
1B
100
AcDbEntity
 67
     1
  8
0
100
AcDbBlockBegin
  2
*PAPER_SPACE
  1

  0
ENDBLK
  5
1D
330
1B
100
AcDbEntity
 67
     1
  8
0
100
AcDbBlockEnd
  0
ENDSEC
  0
SECTION
  2
ENTITIES
  0
SPLINE
  5
100
100
AcDbEntity
  8
Head
 62
7
100
AcDbSpline
 70
8
 71
3
 72
8
 73
4
 74
0
 40
0
 40
0
 40
0
 40
0
 40
1
 40
1
 40
1
 40
1
 10
87.433042
 20
25.737681
 30
0.0
 10
87.433042
 20
25.737681
 30
0.0
 10
89.707977
 20
21.804014
 30
0.0
 10
90.373454
 20
19.672078
 30
0.0
  0
SPLINE
  5
101
100
AcDbEntity
  8
Head
 62
7
100
AcDbSpline
 70
8
 71
3
 72
8
 73
4
 74
0
 40
0
 40
0
 40
0
 40
0
 40
1
 40
1
 40
1
 40
1
 10
90.373454
 20
19.672078
 30
0.0
 10
91.296040
 20
16.716471
 30
0.0
 10
92.197235
 20
10.475051
 30
0.0
 10
92.197235
 20
10.475051
 30
0.0
  0
SPLINE
  5
102
100
AcDbEntity
  8
Head
 62
7
100
AcDbSpline
 70
8
 71
3
 72
8
 73
4
 74
0
 40
0
 40
0
 40
0
 40
0
 40
1
 40
1
 40
1
 40
1
 10
92.197235
 20
10.475051
 30
0.0
 10
101.817128
 20
-2.419278
 30
0.0
 10
68.633784
 20
-3.983886
 30
0.0
 10
80.659391
 20
9.181360
 30
0.0
  0
SPLINE
  5
103
100
AcDbEntity
  8
Head
 62
7
100
AcDbSpline
 70
8
 71
3
 72
8
 73
4
 74
0
 40
0
 40
0
 40
0
 40
0
 40
1
 40
1
 40
1
 40
1
 10
80.659391
 20
9.181360
 30
0.0
 10
80.659391
 20
9.181360
 30
0.0
 10
81.303704
 20
16.030578
 30
0.0
 10
82.462211
 20
18.771950
 30
0.0
  0
SPLINE
  5
104
100
AcDbEntity
  8
Head
 62
7
100
AcDbSpline
 70
8
 71
3
 72
8
 73
4
 74
0
 40
0
 40
0
 40
0
 40
0
 40
1
 40
1
 40
1
 40
1
 10
82.462211
 20
18.771950
 30
0.0
 10
83.579433
 20
21.415624
 30
0.0
 10
87.433042
 20
25.737681
 30
0.0
 10
87.433042
 20
25.737681
 30
0.0
  0
SPLINE
  5
105
100
AcDbEntity
  8
Head_2
 62
7
100
AcDbSpline
 70
8
 71
3
 72
8
 73
4
 74
0
 40
0
 40
0
 40
0
 40
0
 40
1
 40
1
 40
1
 40
1
 10
0.046215
 20
27.228981
 30
0.0
 10
0.046215
 20
27.228981
 30
0.0
 10
2.701682
 20
31.756039
 30
0.0
 10
4.305594
 20
33.546117
 30
0.0
  0
SPLINE
  5
106
100
AcDbEntity
  8
Head_2
 62
7
100
AcDbSpline
 70
8
 71
3
 72
8
 73
4
 74
0
 40
0
 40
0
 40
0
 40
0
 40
1
 40
1
 40
1
 40
1
 10
4.305594
 20
33.546117
 30
0.0
 10
5.665015
 20
35.063330
 30
0.0
 10
8.936215
 20
37.150856
 30
0.0
 10
8.936215
 20
37.150856
 30
0.0
  0
SPLINE
  5
107
100
AcDbEntity
  8
Head_2
 62
7
100
AcDbSpline
 70
8
 71
3
 72
8
 73
4
 74
0
 40
0
 40
0
 40
0
 40
0
 40
1
 40
1
 40
1
 40
1
 10
8.936215
 20
37.150856
 30
0.0
 10
8.936215
 20
37.150856
 30
0.0
 10
13.130755
 20
39.490405
 30
0.0
 10
15.504202
 20
40.107820
 30
0.0
  0
SPLINE
  5
108
100
AcDbEntity
  8
Head_2
 62
7
100
AcDbSpline
 70
8
 71
3
 72
8
 73
4
 74
0
 40
0
 40
0
 40
0
 40
0
 40
1
 40
1
 40
1
 40
1
 10
15.504202
 20
40.107820
 30
0.0
 10
18.351865
 20
40.848598
 30
0.0
 10
24.599548
 20
41.225439
 30
0.0
 10
24.599548
 20
41.225439
 30
0.0
  0
LINE
  5
109
100
AcDbEntity
  8
Head_2
 62
7
100
AcDbLine
 10
24.599548
 20
41.225439
 30
0.0
 11
37.326006
 21
41.410647
 31
0.0
  0
LINE
  5
10a
100
AcDbEntity
  8
Head_2
 62
7
100
AcDbLine
 10
37.326006
 20
41.410647
 30
0.0
 11
30.632048
 21
38.235647
 31
0.0
  0
LINE
  5
10b
100
AcDbEntity
  8
Head_2
 62
7
100
AcDbLine
 10
30.632048
 20
38.235647
 30
0.0
 11
39.707256
 21
36.886272
 31
0.0
  0
SPLINE
  5
10c
100
AcDbEntity
  8
Head_2
 62
7
100
AcDbSpline
 70
8
 71
3
 72
8
 73
4
 74
0
 40
0
 40
0
 40
0
 40
0
 40
1
 40
1
 40
1
 40
1
 10
39.707256
 20
36.886272
 30
0.0
 10
39.707256
 20
36.886272
 30
0.0
 10
36.032564
 20
34.379829
 30
0.0
 10
34.964571
 20
33.225243
 30
0.0
  0
SPLINE
  5
10d
100
AcDbEntity
  8
Head_2
 62
7
100
AcDbSpline
 70
8
 71
3
 72
8
 73
4
 74
0
 40
0
 40
0
 40
0
 40
0
 40
1
 40
1
 40
1
 40
1
 10
34.964571
 20
33.225243
 30
0.0
 10
34.400966
 20
32.615940
 30
0.0
 10
34.812465
 20
31.594606
 30
0.0
 10
34.812465
 20
31.594606
 30
0.0
  0
SPLINE
  5
10e
100
AcDbEntity
  8
Head_2
 62
7
100
AcDbSpline
 70
8
 71
3
 72
8
 73
4
 74
0
 40
0
 40
0
 40
0
 40
0
 40
1
 40
1
 40
1
 40
1
 10
34.812465
 20
31.594606
 30
0.0
 10
34.812465
 20
31.594606
 30
0.0
 10
36.719354
 20
30.183913
 30
0.0
 10
36.173545
 20
29.182661
 30
0.0
  0
SPLINE
  5
10f
100
AcDbEntity
  8
Head_2
 62
7
100
AcDbSpline
 70
8
 71
3
 72
8
 73
4
 74
0
 40
0
 40
0
 40
0
 40
0
 40
1
 40
1
 40
1
 40
1
 10
36.173545
 20
29.182661
 30
0.0
 10
35.387619
 20
27.740926
 30
0.0
 10
30.817256
 20
24.265647
 30
0.0
 10
30.817256
 20
24.265647
 30
0.0
  0
SPLINE
  5
110
100
AcDbEntity
  8
Head_2
 62
7
100
AcDbSpline
 70
8
 71
3
 72
8
 73
4
 74
0
 40
0
 40
0
 40
0
 40
0
 40
1
 40
1
 40
1
 40
1
 10
30.817256
 20
24.265647
 30
0.0
 10
30.817256
 20
24.265647
 30
0.0
 10
30.211329
 20
23.390824
 30
0.0
 10
30.204270
 20
22.716689
 30
0.0
  0
SPLINE
  5
111
100
AcDbEntity
  8
Head_2
 62
7
100
AcDbSpline
 70
8
 71
3
 72
8
 73
4
 74
0
 40
0
 40
0
 40
0
 40
0
 40
1
 40
1
 40
1
 40
1
 10
30.204270
 20
22.716689
 30
0.0
 10
30.193686
 20
21.706312
 30
0.0
 10
30.764340
 20
19.212106
 30
0.0
 10
30.764340
 20
19.212106
 30
0.0
  0
SPLINE
  5
112
100
AcDbEntity
  8
Head_2
 62
7
100
AcDbSpline
 70
8
 71
3
 72
8
 73
4
 74
0
 40
0
 40
0
 40
0
 40
0
 40
1
 40
1
 40
1
 40
1
 10
30.764340
 20
19.212106
 30
0.0
 10
30.764340
 20
19.212106
 30
0.0
 10
32.887105
 20
16.098060
 30
0.0
 10
33.396132
 20
14.876397
 30
0.0
  0
SPLINE
  5
113
100
AcDbEntity
  8
Head_2
 62
7
100
AcDbSpline
 70
8
 71
3
 72
8
 73
4
 74
0
 40
0
 40
0
 40
0
 40
0
 40
1
 40
1
 40
1
 40
1
 10
33.396132
 20
14.876397
 30
0.0
 10
33.769051
 20
13.981394
 30
0.0
 10
33.410181
 20
12.862106
 30
0.0
 10
33.410181
 20
12.862106
 30
0.0
  0
SPLINE
  5
114
100
AcDbEntity
  8
Head_2
 62
7
100
AcDbSpline
 70
8
 71
3
 72
8
 73
4
 74
0
 40
0
 40
0
 40
0
 40
0
 40
1
 40
1
 40
1
 40
1
 10
33.410181
 20
12.862106
 30
0.0
 10
33.410181
 20
12.862106
 30
0.0
 10
32.905121
 20
13.068266
 30
0.0
 10
31.955134
 20
13.617716
 30
0.0
  0
SPLINE
  5
115
100
AcDbEntity
  8
Head_2
 62
7
100
AcDbSpline
 70
8
 71
3
 72
8
 73
4
 74
0
 40
0
 40
0
 40
0
 40
0
 40
1
 40
1
 40
1
 40
1
 10
31.955134
 20
13.617716
 30
0.0
 10
31.273515
 20
14.011945
 30
0.0
 10
28.515381
 20
15.693147
 30
0.0
 10
28.515381
 20
15.693147
 30
0.0
  0
SPLINE
  5
116
100
AcDbEntity
  8
Head_2
 62
7
100
AcDbSpline
 70
8
 71
3
 72
8
 73
4
 74
0
 40
0
 40
0
 40
0
 40
0
 40
1
 40
1
 40
1
 40
1
 10
28.515381
 20
15.693147
 30
0.0
 10
28.515381
 20
15.693147
 30
0.0
 10
29.148461
 20
13.662274
 30
0.0
 10
29.130223
 20
12.339958
 30
0.0
  0
SPLINE
  5
117
100
AcDbEntity
  8
Head_2
 62
7
100
AcDbSpline
 70
8
 71
3
 72
8
 73
4
 74
0
 40
0
 40
0
 40
0
 40
0
 40
1
 40
1
 40
1
 40
1
 10
29.130223
 20
12.339958
 30
0.0
 10
29.113184
 20
11.104635
 30
0.0
 10
28.409548
 20
8.020231
 30
0.0
 10
28.409548
 20
8.020231
 30
0.0
  0
SPLINE
  5
118
100
AcDbEntity
  8
Head_2
 62
7
100
AcDbSpline
 70
8
 71
3
 72
8
 73
4
 74
0
 40
0
 40
0
 40
0
 40
0
 40
1
 40
1
 40
1
 40
1
 10
28.409548
 20
8.020231
 30
0.0
 10
28.409548
 20
8.020231
 30
0.0
 10
27.828171
 20
9.981738
 30
0.0
 10
27.314295
 20
10.822999
 30
0.0
  0
SPLINE
  5
119
100
AcDbEntity
  8
Head_2
 62
7
100
AcDbSpline
 70
8
 71
3
 72
8
 73
4
 74
0
 40
0
 40
0
 40
0
 40
0
 40
1
 40
1
 40
1
 40
1
 10
27.314295
 20
10.822999
 30
0.0
 10
26.734558
 20
11.772086
 30
0.0
 10
25.128715
 20
13.391272
 30
0.0
 10
25.128715
 20
13.391272
 30
0.0
  0
SPLINE
  5
11a
100
AcDbEntity
  8
Head_2
 62
7
100
AcDbSpline
 70
8
 71
3
 72
8
 73
4
 74
0
 40
0
 40
0
 40
0
 40
0
 40
1
 40
1
 40
1
 40
1
 10
25.128715
 20
13.391272
 30
0.0
 10
25.128715
 20
13.391272
 30
0.0
 10
24.862959
 20
10.829418
 30
0.0
 10
24.506896
 20
9.827472
 30
0.0
  0
SPLINE
  5
11b
100
AcDbEntity
  8
Head_2
 62
7
100
AcDbSpline
 70
8
 71
3
 72
8
 73
4
 74
0
 40
0
 40
0
 40
0
 40
0
 40
1
 40
1
 40
1
 40
1
 10
24.506896
 20
9.827472
 30
0.0
 10
24.104489
 20
8.695111
 30
0.0
 10
22.853298
 20
6.988356
 30
0.0
 10
22.853298
 20
6.988356
 30
0.0
  0
SPLINE
  5
11c
100
AcDbEntity
  8
Head_2
 62
7
100
AcDbSpline
 70
8
 71
3
 72
8
 73
4
 74
0
 40
0
 40
0
 40
0
 40
0
 40
1
 40
1
 40
1
 40
1
 10
22.853298
 20
6.988356
 30
0.0
 10
22.853298
 20
6.988356
 30
0.0
 10
22.759620
 20
8.296289
 30
0.0
 10
22.350103
 20
8.894459
 30
0.0
  0
SPLINE
  5
11d
100
AcDbEntity
  8
Head_2
 62
7
100
AcDbSpline
 70
8
 71
3
 72
8
 73
4
 74
0
 40
0
 40
0
 40
0
 40
0
 40
1
 40
1
 40
1
 40
1
 10
22.350103
 20
8.894459
 30
0.0
 10
21.974688
 20
9.442816
 30
0.0
 10
20.498506
 20
10.427939
 30
0.0
 10
20.498506
 20
10.427939
 30
0.0
  0
SPLINE
  5
11e
100
AcDbEntity
  8
Head_2
 62
7
100
AcDbSpline
 70
8
 71
3
 72
8
 73
4
 74
0
 40
0
 40
0
 40
0
 40
0
 40
1
 40
1
 40
1
 40
1
 10
20.498506
 20
10.427939
 30
0.0
 10
20.498506
 20
10.427939
 30
0.0
 10
19.337811
 20
11.496493
 30
0.0
 10
18.255295
 20
11.612299
 30
0.0
  0
SPLINE
  5
11f
100
AcDbEntity
  8
Head_2
 62
7
100
AcDbSpline
 70
8
 71
3
 72
8
 73
4
 74
0
 40
0
 40
0
 40
0
 40
0
 40
1
 40
1
 40
1
 40
1
 10
18.255295
 20
11.612299
 30
0.0
 10
17.441630
 20
11.699341
 30
0.0
 10
14.809965
 20
11.036481
 30
0.0
 10
14.809965
 20
11.036481
 30
0.0
  0
SPLINE
  5
120
100
AcDbEntity
  8
Head_2
 62
7
100
AcDbSpline
 70
8
 71
3
 72
8
 73
4
 74
0
 40
0
 40
0
 40
0
 40
0
 40
1
 40
1
 40
1
 40
1
 10
14.809965
 20
11.036481
 30
0.0
 10
14.809965
 20
11.036481
 30
0.0
 10
8.334015
 20
10.742010
 30
0.0
 10
6.490954
 20
11.431723
 30
0.0
  0
SPLINE
  5
121
100
AcDbEntity
  8
Head_2
 62
7
100
AcDbSpline
 70
8
 71
3
 72
8
 73
4
 74
0
 40
0
 40
0
 40
0
 40
0
 40
1
 40
1
 40
1
 40
1
 10
6.490954
 20
11.431723
 30
0.0
 10
4.091863
 20
12.329510
 30
0.0
 10
2.083506
 20
15.798981
 30
0.0
 10
2.083506
 20
15.798981
 30
0.0
  0
SPLINE
  5
122
100
AcDbEntity
  8
Head_2
 62
7
100
AcDbSpline
 70
8
 71
3
 72
8
 73
4
 74
0
 40
0
 40
0
 40
0
 40
0
 40
1
 40
1
 40
1
 40
1
 10
17.139520
 20
31.086719
 30
0.0
 10
17.139520
 20
30.389024
 30
0.0
 10
16.490801
 20
29.744327
 30
0.0
 10
15.437728
 20
29.395479
 30
0.0
  0
SPLINE
  5
123
100
AcDbEntity
  8
Head_2
 62
7
100
AcDbSpline
 70
8
 71
3
 72
8
 73
4
 74
0
 40
0
 40
0
 40
0
 40
0
 40
1
 40
1
 40
1
 40
1
 10
15.437728
 20
29.395479
 30
0.0
 10
14.384656
 20
29.046632
 30
0.0
 10
13.087217
 20
29.046632
 30
0.0
 10
12.034145
 20
29.395479
 30
0.0
  0
SPLINE
  5
124
100
AcDbEntity
  8
Head_2
 62
7
100
AcDbSpline
 70
8
 71
3
 72
8
 73
4
 74
0
 40
0
 40
0
 40
0
 40
0
 40
1
 40
1
 40
1
 40
1
 10
12.034145
 20
29.395479
 30
0.0
 10
10.981072
 20
29.744327
 30
0.0
 10
10.332353
 20
30.389024
 30
0.0
 10
10.332353
 20
31.086719
 30
0.0
  0
SPLINE
  5
125
100
AcDbEntity
  8
Head_2
 62
7
100
AcDbSpline
 70
8
 71
3
 72
8
 73
4
 74
0
 40
0
 40
0
 40
0
 40
0
 40
1
 40
1
 40
1
 40
1
 10
10.332353
 20
31.086719
 30
0.0
 10
10.332353
 20
31.784415
 30
0.0
 10
10.981072
 20
32.429112
 30
0.0
 10
12.034145
 20
32.777960
 30
0.0
  0
SPLINE
  5
126
100
AcDbEntity
  8
Head_2
 62
7
100
AcDbSpline
 70
8
 71
3
 72
8
 73
4
 74
0
 40
0
 40
0
 40
0
 40
0
 40
1
 40
1
 40
1
 40
1
 10
12.034145
 20
32.777960
 30
0.0
 10
13.087217
 20
33.126807
 30
0.0
 10
14.384656
 20
33.126807
 30
0.0
 10
15.437728
 20
32.777960
 30
0.0
  0
SPLINE
  5
127
100
AcDbEntity
  8
Head_2
 62
7
100
AcDbSpline
 70
8
 71
3
 72
8
 73
4
 74
0
 40
0
 40
0
 40
0
 40
0
 40
1
 40
1
 40
1
 40
1
 10
15.437728
 20
32.777960
 30
0.0
 10
16.490801
 20
32.429112
 30
0.0
 10
17.139520
 20
31.784415
 30
0.0
 10
17.139520
 20
31.086719
 30
0.0
  0
LINE
  5
128
100
AcDbEntity
  8
Head_2
 62
7
100
AcDbLine
 10
17.139520
 20
31.086719
 30
0.0
 11
17.139520
 21
31.086719
 31
0.0
  0
SPLINE
  5
129
100
AcDbEntity
  8
Head_2
 62
7
100
AcDbSpline
 70
8
 71
3
 72
8
 73
4
 74
0
 40
0
 40
0
 40
0
 40
0
 40
1
 40
1
 40
1
 40
1
 10
0.046215
 20
27.228981
 30
0.0
 10
-0.286232
 20
24.290592
 30
0.0
 10
3.646710
 20
26.507666
 30
0.0
 10
3.775255
 20
24.223486
 30
0.0
  0
SPLINE
  5
12a
100
AcDbEntity
  8
Head_2
 62
7
100
AcDbSpline
 70
8
 71
3
 72
8
 73
4
 74
0
 40
0
 40
0
 40
0
 40
0
 40
1
 40
1
 40
1
 40
1
 10
3.775255
 20
24.223486
 30
0.0
 10
3.876011
 20
22.433082
 30
0.0
 10
2.083506
 20
15.798981
 30
0.0
 10
2.083506
 20
15.798981
 30
0.0
  0
SPLINE
  5
12b
100
AcDbEntity
  8
Head_2
 62
7
100
AcDbSpline
 70
8
 71
3
 72
8
 73
4
 74
0
 40
0
 40
0
 40
0
 40
0
 40
1
 40
1
 40
1
 40
1
 10
42.061572
 20
26.496154
 30
0.0
 10
42.061572
 20
26.496154
 30
0.0
 10
44.717039
 20
31.023211
 30
0.0
 10
46.320951
 20
32.813290
 30
0.0
  0
SPLINE
  5
12c
100
AcDbEntity
  8
Head_2
 62
7
100
AcDbSpline
 70
8
 71
3
 72
8
 73
4
 74
0
 40
0
 40
0
 40
0
 40
0
 40
1
 40
1
 40
1
 40
1
 10
46.320951
 20
32.813290
 30
0.0
 10
47.680372
 20
34.330503
 30
0.0
 10
50.951572
 20
36.418029
 30
0.0
 10
50.951572
 20
36.418029
 30
0.0
  0
SPLINE
  5
12d
100
AcDbEntity
  8
Head_2
 62
7
100
AcDbSpline
 70
8
 71
3
 72
8
 73
4
 74
0
 40
0
 40
0
 40
0
 40
0
 40
1
 40
1
 40
1
 40
1
 10
50.951572
 20
36.418029
 30
0.0
 10
50.951572
 20
36.418029
 30
0.0
 10
55.146112
 20
38.757578
 30
0.0
 10
57.519559
 20
39.374993
 30
0.0
  0
SPLINE
  5
12e
100
AcDbEntity
  8
Head_2
 62
7
100
AcDbSpline
 70
8
 71
3
 72
8
 73
4
 74
0
 40
0
 40
0
 40
0
 40
0
 40
1
 40
1
 40
1
 40
1
 10
57.519559
 20
39.374993
 30
0.0
 10
60.367222
 20
40.115771
 30
0.0
 10
66.614905
 20
40.492612
 30
0.0
 10
66.614905
 20
40.492612
 30
0.0
  0
LINE
  5
12f
100
AcDbEntity
  8
Head_2
 62
7
100
AcDbLine
 10
66.614905
 20
40.492612
 30
0.0
 11
79.341364
 21
40.677820
 31
0.0
  0
LINE
  5
130
100
AcDbEntity
  8
Head_2
 62
7
100
AcDbLine
 10
79.341364
 20
40.677820
 30
0.0
 11
72.647405
 21
37.502820
 31
0.0
  0
LINE
  5
131
100
AcDbEntity
  8
Head_2
 62
7
100
AcDbLine
 10
72.647405
 20
37.502820
 30
0.0
 11
81.722614
 21
36.153445
 31
0.0
  0
SPLINE
  5
132
100
AcDbEntity
  8
Head_2
 62
7
100
AcDbSpline
 70
8
 71
3
 72
8
 73
4
 74
0
 40
0
 40
0
 40
0
 40
0
 40
1
 40
1
 40
1
 40
1
 10
81.722614
 20
36.153445
 30
0.0
 10
81.722614
 20
36.153445
 30
0.0
 10
78.047921
 20
33.647002
 30
0.0
 10
76.979928
 20
32.492416
 30
0.0
  0
SPLINE
  5
133
100
AcDbEntity
  8
Head_2
 62
7
100
AcDbSpline
 70
8
 71
3
 72
8
 73
4
 74
0
 40
0
 40
0
 40
0
 40
0
 40
1
 40
1
 40
1
 40
1
 10
76.979928
 20
32.492416
 30
0.0
 10
76.416323
 20
31.883113
 30
0.0
 10
76.827822
 20
30.861779
 30
0.0
 10
76.827822
 20
30.861779
 30
0.0
  0
SPLINE
  5
134
100
AcDbEntity
  8
Head_2
 62
7
100
AcDbSpline
 70
8
 71
3
 72
8
 73
4
 74
0
 40
0
 40
0
 40
0
 40
0
 40
1
 40
1
 40
1
 40
1
 10
76.827822
 20
30.861779
 30
0.0
 10
76.827822
 20
30.861779
 30
0.0
 10
78.734711
 20
29.451086
 30
0.0
 10
78.188902
 20
28.449834
 30
0.0
  0
SPLINE
  5
135
100
AcDbEntity
  8
Head_2
 62
7
100
AcDbSpline
 70
8
 71
3
 72
8
 73
4
 74
0
 40
0
 40
0
 40
0
 40
0
 40
1
 40
1
 40
1
 40
1
 10
78.188902
 20
28.449834
 30
0.0
 10
77.402976
 20
27.008099
 30
0.0
 10
72.832614
 20
23.532820
 30
0.0
 10
72.832614
 20
23.532820
 30
0.0
  0
SPLINE
  5
136
100
AcDbEntity
  8
Head_2
 62
7
100
AcDbSpline
 70
8
 71
3
 72
8
 73
4
 74
0
 40
0
 40
0
 40
0
 40
0
 40
1
 40
1
 40
1
 40
1
 10
72.832614
 20
23.532820
 30
0.0
 10
72.832614
 20
23.532820
 30
0.0
 10
72.226686
 20
22.657997
 30
0.0
 10
72.219627
 20
21.983862
 30
0.0
  0
SPLINE
  5
137
100
AcDbEntity
  8
Head_2
 62
7
100
AcDbSpline
 70
8
 71
3
 72
8
 73
4
 74
0
 40
0
 40
0
 40
0
 40
0
 40
1
 40
1
 40
1
 40
1
 10
72.219627
 20
21.983862
 30
0.0
 10
72.209044
 20
20.973485
 30
0.0
 10
72.779697
 20
18.479279
 30
0.0
 10
72.779697
 20
18.479279
 30
0.0
  0
SPLINE
  5
138
100
AcDbEntity
  8
Head_2
 62
7
100
AcDbSpline
 70
8
 71
3
 72
8
 73
4
 74
0
 40
0
 40
0
 40
0
 40
0
 40
1
 40
1
 40
1
 40
1
 10
72.779697
 20
18.479279
 30
0.0
 10
72.779697
 20
18.479279
 30
0.0
 10
74.902462
 20
15.365233
 30
0.0
 10
75.411489
 20
14.143570
 30
0.0
  0
SPLINE
  5
139
100
AcDbEntity
  8
Head_2
 62
7
100
AcDbSpline
 70
8
 71
3
 72
8
 73
4
 74
0
 40
0
 40
0
 40
0
 40
0
 40
1
 40
1
 40
1
 40
1
 10
75.411489
 20
14.143570
 30
0.0
 10
75.784408
 20
13.248567
 30
0.0
 10
75.425538
 20
12.129279
 30
0.0
 10
75.425538
 20
12.129279
 30
0.0
  0
SPLINE
  5
13a
100
AcDbEntity
  8
Head_2
 62
7
100
AcDbSpline
 70
8
 71
3
 72
8
 73
4
 74
0
 40
0
 40
0
 40
0
 40
0
 40
1
 40
1
 40
1
 40
1
 10
75.425538
 20
12.129279
 30
0.0
 10
75.425538
 20
12.129279
 30
0.0
 10
74.920478
 20
12.335439
 30
0.0
 10
73.970491
 20
12.884889
 30
0.0
  0
SPLINE
  5
13b
100
AcDbEntity
  8
Head_2
 62
7
100
AcDbSpline
 70
8
 71
3
 72
8
 73
4
 74
0
 40
0
 40
0
 40
0
 40
0
 40
1
 40
1
 40
1
 40
1
 10
73.970491
 20
12.884889
 30
0.0
 10
73.288872
 20
13.279118
 30
0.0
 10
70.530739
 20
14.960320
 30
0.0
 10
70.530739
 20
14.960320
 30
0.0
  0
SPLINE
  5
13c
100
AcDbEntity
  8
Head_2
 62
7
100
AcDbSpline
 70
8
 71
3
 72
8
 73
4
 74
0
 40
0
 40
0
 40
0
 40
0
 40
1
 40
1
 40
1
 40
1
 10
70.530739
 20
14.960320
 30
0.0
 10
70.530739
 20
14.960320
 30
0.0
 10
71.163818
 20
12.929447
 30
0.0
 10
71.145580
 20
11.607131
 30
0.0
  0
SPLINE
  5
13d
100
AcDbEntity
  8
Head_2
 62
7
100
AcDbSpline
 70
8
 71
3
 72
8
 73
4
 74
0
 40
0
 40
0
 40
0
 40
0
 40
1
 40
1
 40
1
 40
1
 10
71.145580
 20
11.607131
 30
0.0
 10
71.128541
 20
10.371808
 30
0.0
 10
70.424905
 20
7.287404
 30
0.0
 10
70.424905
 20
7.287404
 30
0.0
  0
SPLINE
  5
13e
100
AcDbEntity
  8
Head_2
 62
7
100
AcDbSpline
 70
8
 71
3
 72
8
 73
4
 74
0
 40
0
 40
0
 40
0
 40
0
 40
1
 40
1
 40
1
 40
1
 10
70.424905
 20
7.287404
 30
0.0
 10
70.424905
 20
7.287404
 30
0.0
 10
69.843528
 20
9.248911
 30
0.0
 10
69.329652
 20
10.090172
 30
0.0
  0
SPLINE
  5
13f
100
AcDbEntity
  8
Head_2
 62
7
100
AcDbSpline
 70
8
 71
3
 72
8
 73
4
 74
0
 40
0
 40
0
 40
0
 40
0
 40
1
 40
1
 40
1
 40
1
 10
69.329652
 20
10.090172
 30
0.0
 10
68.749915
 20
11.039259
 30
0.0
 10
67.144072
 20
12.658445
 30
0.0
 10
67.144072
 20
12.658445
 30
0.0
  0
SPLINE
  5
140
100
AcDbEntity
  8
Head_2
 62
7
100
AcDbSpline
 70
8
 71
3
 72
8
 73
4
 74
0
 40
0
 40
0
 40
0
 40
0
 40
1
 40
1
 40
1
 40
1
 10
67.144072
 20
12.658445
 30
0.0
 10
67.144072
 20
12.658445
 30
0.0
 10
66.878316
 20
10.096591
 30
0.0
 10
66.522253
 20
9.094645
 30
0.0
  0
SPLINE
  5
141
100
AcDbEntity
  8
Head_2
 62
7
100
AcDbSpline
 70
8
 71
3
 72
8
 73
4
 74
0
 40
0
 40
0
 40
0
 40
0
 40
1
 40
1
 40
1
 40
1
 10
66.522253
 20
9.094645
 30
0.0
 10
66.119846
 20
7.962284
 30
0.0
 10
64.868655
 20
6.255529
 30
0.0
 10
64.868655
 20
6.255529
 30
0.0
  0
SPLINE
  5
142
100
AcDbEntity
  8
Head_2
 62
7
100
AcDbSpline
 70
8
 71
3
 72
8
 73
4
 74
0
 40
0
 40
0
 40
0
 40
0
 40
1
 40
1
 40
1
 40
1
 10
64.868655
 20
6.255529
 30
0.0
 10
64.868655
 20
6.255529
 30
0.0
 10
64.774977
 20
7.563462
 30
0.0
 10
64.365460
 20
8.161632
 30
0.0
  0
SPLINE
  5
143
100
AcDbEntity
  8
Head_2
 62
7
100
AcDbSpline
 70
8
 71
3
 72
8
 73
4
 74
0
 40
0
 40
0
 40
0
 40
0
 40
1
 40
1
 40
1
 40
1
 10
64.365460
 20
8.161632
 30
0.0
 10
63.990045
 20
8.709989
 30
0.0
 10
62.513864
 20
9.695112
 30
0.0
 10
62.513864
 20
9.695112
 30
0.0
  0
SPLINE
  5
144
100
AcDbEntity
  8
Head_2
 62
7
100
AcDbSpline
 70
8
 71
3
 72
8
 73
4
 74
0
 40
0
 40
0
 40
0
 40
0
 40
1
 40
1
 40
1
 40
1
 10
62.513864
 20
9.695112
 30
0.0
 10
62.513864
 20
9.695112
 30
0.0
 10
61.353168
 20
10.763666
 30
0.0
 10
60.270652
 20
10.879472
 30
0.0
  0
SPLINE
  5
145
100
AcDbEntity
  8
Head_2
 62
7
100
AcDbSpline
 70
8
 71
3
 72
8
 73
4
 74
0
 40
0
 40
0
 40
0
 40
0
 40
1
 40
1
 40
1
 40
1
 10
60.270652
 20
10.879472
 30
0.0
 10
59.456987
 20
10.966514
 30
0.0
 10
56.825322
 20
10.303654
 30
0.0
 10
56.825322
 20
10.303654
 30
0.0
  0
SPLINE
  5
146
100
AcDbEntity
  8
Head_2
 62
7
100
AcDbSpline
 70
8
 71
3
 72
8
 73
4
 74
0
 40
0
 40
0
 40
0
 40
0
 40
1
 40
1
 40
1
 40
1
 10
56.825322
 20
10.303654
 30
0.0
 10
56.825322
 20
10.303654
 30
0.0
 10
50.349372
 20
10.009183
 30
0.0
 10
48.506311
 20
10.698896
 30
0.0
  0
SPLINE
  5
147
100
AcDbEntity
  8
Head_2
 62
7
100
AcDbSpline
 70
8
 71
3
 72
8
 73
4
 74
0
 40
0
 40
0
 40
0
 40
0
 40
1
 40
1
 40
1
 40
1
 10
48.506311
 20
10.698896
 30
0.0
 10
46.107220
 20
11.596683
 30
0.0
 10
44.098864
 20
15.066154
 30
0.0
 10
44.098864
 20
15.066154
 30
0.0
  0
SPLINE
  5
148
100
AcDbEntity
  8
Head_2
 62
7
100
AcDbSpline
 70
8
 71
3
 72
8
 73
4
 74
0
 40
0
 40
0
 40
0
 40
0
 40
1
 40
1
 40
1
 40
1
 10
59.154874
 20
30.353892
 30
0.0
 10
59.154874
 20
29.275349
 30
0.0
 10
57.631038
 20
28.401017
 30
0.0
 10
55.751291
 20
28.401017
 30
0.0
  0
SPLINE
  5
149
100
AcDbEntity
  8
Head_2
 62
7
100
AcDbSpline
 70
8
 71
3
 72
8
 73
4
 74
0
 40
0
 40
0
 40
0
 40
0
 40
1
 40
1
 40
1
 40
1
 10
55.751291
 20
28.401017
 30
0.0
 10
53.871544
 20
28.401017
 30
0.0
 10
52.347707
 20
29.275349
 30
0.0
 10
52.347707
 20
30.353892
 30
0.0
  0
SPLINE
  5
14a
100
AcDbEntity
  8
Head_2
 62
7
100
AcDbSpline
 70
8
 71
3
 72
8
 73
4
 74
0
 40
0
 40
0
 40
0
 40
0
 40
1
 40
1
 40
1
 40
1
 10
52.347707
 20
30.353892
 30
0.0
 10
52.347707
 20
31.051588
 30
0.0
 10
52.996427
 20
31.696285
 30
0.0
 10
54.049499
 20
32.045132
 30
0.0
  0
SPLINE
  5
14b
100
AcDbEntity
  8
Head_2
 62
7
100
AcDbSpline
 70
8
 71
3
 72
8
 73
4
 74
0
 40
0
 40
0
 40
0
 40
0
 40
1
 40
1
 40
1
 40
1
 10
54.049499
 20
32.045132
 30
0.0
 10
55.102571
 20
32.393980
 30
0.0
 10
56.400010
 20
32.393980
 30
0.0
 10
57.453083
 20
32.045132
 30
0.0
  0
SPLINE
  5
14c
100
AcDbEntity
  8
Head_2
 62
7
100
AcDbSpline
 70
8
 71
3
 72
8
 73
4
 74
0
 40
0
 40
0
 40
0
 40
0
 40
1
 40
1
 40
1
 40
1
 10
57.453083
 20
32.045132
 30
0.0
 10
58.506155
 20
31.696285
 30
0.0
 10
59.154874
 20
31.051588
 30
0.0
 10
59.154874
 20
30.353892
 30
0.0
  0
LINE
  5
14d
100
AcDbEntity
  8
Head_2
 62
7
100
AcDbLine
 10
59.154874
 20
30.353892
 30
0.0
 11
59.154874
 21
30.353892
 31
0.0
  0
SPLINE
  5
14e
100
AcDbEntity
  8
Head_2
 62
7
100
AcDbSpline
 70
8
 71
3
 72
8
 73
4
 74
0
 40
0
 40
0
 40
0
 40
0
 40
1
 40
1
 40
1
 40
1
 10
42.061572
 20
26.496154
 30
0.0
 10
41.729126
 20
23.557765
 30
0.0
 10
45.662067
 20
25.774839
 30
0.0
 10
45.790612
 20
23.490659
 30
0.0
  0
SPLINE
  5
14f
100
AcDbEntity
  8
Head_2
 62
7
100
AcDbSpline
 70
8
 71
3
 72
8
 73
4
 74
0
 40
0
 40
0
 40
0
 40
0
 40
1
 40
1
 40
1
 40
1
 10
45.790612
 20
23.490659
 30
0.0
 10
45.891368
 20
21.700255
 30
0.0
 10
44.098864
 20
15.066154
 30
0.0
 10
44.098864
 20
15.066154
 30
0.0
  0
ENDSEC
  0
SECTION
  2
OBJECTS
  0
DICTIONARY
  5
C
330
0
100
AcDbDictionary
  3
ACAD_GROUP
350
D
  3
ACAD_MLINESTYLE
350
17
  0
DICTIONARY
  5
D
330
C
100
AcDbDictionary
  0
DICTIONARY
  5
1A
330
C
100
AcDbDictionary
  0
DICTIONARY
  5
17
330
C
100
AcDbDictionary
  3
STANDARD
350
18
  0
DICTIONARY
  5
19
330
C
100
AcDbDictionary
  0
ENDSEC
  0
EOF
