  0
SECTION
  2
HEADER
  9
$ACADVER
  1
AC1014
  9
$HANDSEED
  5
FFFF
  9
$MEASUREMENT
 70
     1
  0
ENDSEC
  0
SECTION
  2
TABLES
  0
TABLE
  2
VPORT
  5
8
330
0
100
AcDbSymbolTable
 70
     4
  0
VPORT
  5
2E
330
8
100
AcDbSymbolTableRecord
100
AcDbViewportTableRecord
  2
*ACTIVE
 70
     0
 10
0.0
 20
0.0
 11
1.0
 21
1.0
 12
210.0
 22
148.5
 13
0.0
 23
0.0
 14
10.0
 24
10.0
 15
10.0
 25
10.0
 16
0.0
 26
0.0
 36
1.0
 17
0.0
 27
0.0
 37
0.0
 40
341.0
 41
1.24
 42
50.0
 43
0.0
 44
0.0
 50
0.0
 51
0.0
 71
     0
 72
   100
 73
     1
 74
     3
 75
     0
 76
     0
 77
     0
 78
     0
  0
ENDTAB
  0
TABLE
  2
LTYPE
  5
5
330
0
100
AcDbSymbolTable
 70
     1
  0
LTYPE
  5
14
330
5
100
AcDbSymbolTableRecord
100
AcDbLinetypeTableRecord
  2
BYBLOCK
 70
     0
  3

 72
    65
 73
     0
 40
0.0
  0
LTYPE
  5
15
330
5
100
AcDbSymbolTableRecord
100
AcDbLinetypeTableRecord
  2
BYLAYER
 70
     0
  3

 72
    65
 73
     0
 40
0.0
  0
LTYPE
  5
16
330
5
100
AcDbSymbolTableRecord
100
AcDbLinetypeTableRecord
  2
CONTINUOUS
 70
     0
  3
Solid line
 72
    65
 73
     0
 40
0.0
  0
ENDTAB
  0
TABLE
  2
LAYER
  5
2
100
AcDbSymbolTable
 70
7
  0
LAYER
  5
50
100
AcDbSymbolTableRecord
100
AcDbLayerTableRecord
  2
0
 70
0
  6
CONTINUOUS
  0
LAYER
  5
51
100
AcDbSymbolTableRecord
100
AcDbLayerTableRecord
  2
Head
 70
0
  6
CONTINUOUS
  0
LAYER
  5
52
100
AcDbSymbolTableRecord
100
AcDbLayerTableRecord
  2
Head_2
 70
0
  6
CONTINUOUS
  0
LAYER
  5
53
100
AcDbSymbolTableRecord
100
AcDbLayerTableRecord
  2
Wing
 70
0
  6
CONTINUOUS
  0
LAYER
  5
54
100
AcDbSymbolTableRecord
100
AcDbLayerTableRecord
  2
Body
 70
0
  6
CONTINUOUS
  0
LAYER
  5
55
100
AcDbSymbolTableRecord
100
AcDbLayerTableRecord
  2
Tail
 70
0
  6
CONTINUOUS
  0
LAYER
  5
56
100
AcDbSymbolTableRecord
100
AcDbLayerTableRecord
  2
Draw
 70
0
  6
CONTINUOUS
  0
ENDTAB
  0
TABLE
  2
STYLE
  5
3
330
0
100
AcDbSymbolTable
 70
     1
  0
STYLE
  5
11
330
3
100
AcDbSymbolTableRecord
100
AcDbTextStyleTableRecord
  2
STANDARD
 70
     0
 40
0.0
 41
1.0
 50
0.0
 71
     0
 42
2.5
  3
txt
  4

  0
ENDTAB
  0
TABLE
  2
VIEW
  5
6
330
0
100
AcDbSymbolTable
 70
     0
  0
ENDTAB
  0
TABLE
  2
UCS
  5
7
330
0
100
AcDbSymbolTable
 70
     0
  0
ENDTAB
  0
TABLE
  2
APPID
  5
9
330
0
100
AcDbSymbolTable
 70
     2
  0
APPID
  5
12
330
9
100
AcDbSymbolTableRecord
100
AcDbRegAppTableRecord
  2
ACAD
 70
     0
  0
ENDTAB
  0
TABLE
  2
DIMSTYLE
  5
A
330
0
100
AcDbSymbolTable
 70
     1
  0
DIMSTYLE
105
27
330
A
100
AcDbSymbolTableRecord
100
AcDbDimStyleTableRecord
  2
ISO-25
 70
     0
  3

  4

  5

  6

  7

 40
1.0
 41
2.5
 42
0.625
 43
3.75
 44
1.25
 45
0.0
 46
0.0
 47
0.0
 48
0.0
140
2.5
141
2.5
142
0.0
143
0.03937007874016
144
1.0
145
0.0
146
1.0
147
0.625
 71
     0
 72
     0
 73
     0
 74
     0
 75
     0
 76
     0
 77
     1
 78
     8
170
     0
171
     3
172
     1
173
     0
174
     0
175
     0
176
     0
177
     0
178
     0
270
     2
271
     2
272
     2
273
     2
274
     3
340
11
275
     0
280
     0
281
     0
282
     0
283
     0
284
     8
285
     0
286
     0
287
     3
288
     0
  0
ENDTAB
  0
TABLE
  2
BLOCK_RECORD
  5
1
330
0
100
AcDbSymbolTable
 70
     1
  0
BLOCK_RECORD
  5
1F
330
1
100
AcDbSymbolTableRecord
100
AcDbBlockTableRecord
  2
*MODEL_SPACE
  0
BLOCK_RECORD
  5
1B
330
1
100
AcDbSymbolTableRecord
100
AcDbBlockTableRecord
  2
*PAPER_SPACE
  0
ENDTAB
  0
ENDSEC
  0
SECTION
  2
BLOCKS
  0
BLOCK
  5
20
330
1F
100
AcDbEntity
  8
0
100
AcDbBlockBegin
  2
*MODEL_SPACE
 70
     0
 10
0.0
 20
0.0
 30
0.0
  3
*MODEL_SPACE
  1

  0
ENDBLK
  5
21
330
1F
100
AcDbEntity
  8
0
100
AcDbBlockEnd
  0
BLOCK
  5
1C
330
1B
100
AcDbEntity
 67
     1
  8
0
100
AcDbBlockBegin
  2
*PAPER_SPACE
  1

  0
ENDBLK
  5
1D
330
1B
100
AcDbEntity
 67
     1
  8
0
100
AcDbBlockEnd
  0
ENDSEC
  0
SECTION
  2
ENTITIES
  0
SPLINE
  5
100
100
AcDbEntity
  8
Body
 62
7
100
AcDbSpline
 70
8
 71
3
 72
8
 73
4
 74
0
 40
0
 40
0
 40
0
 40
0
 40
1
 40
1
 40
1
 40
1
 10
0.231667
 20
86.117757
 30
0.0
 10
0.231667
 20
86.117757
 30
0.0
 10
2.419392
 20
96.203406
 30
0.0
 10
5.552617
 20
99.049997
 30
0.0
  0
SPLINE
  5
101
100
AcDbEntity
  8
Body
 62
7
100
AcDbSpline
 70
8
 71
3
 72
8
 73
4
 74
0
 40
0
 40
0
 40
0
 40
0
 40
1
 40
1
 40
1
 40
1
 10
5.552617
 20
99.049997
 30
0.0
 10
8.010922
 20
101.283406
 30
0.0
 10
17.006250
 20
101.357757
 30
0.0
 10
17.006250
 20
101.357757
 30
0.0
  0
SPLINE
  5
102
100
AcDbEntity
  8
Body
 62
7
100
AcDbSpline
 70
8
 71
3
 72
8
 73
4
 74
0
 40
0
 40
0
 40
0
 40
0
 40
1
 40
1
 40
1
 40
1
 10
17.006250
 20
101.357757
 30
0.0
 10
17.006250
 20
101.357757
 30
0.0
 10
25.922523
 20
103.410064
 30
0.0
 10
30.459098
 20
103.494971
 30
0.0
  0
SPLINE
  5
103
100
AcDbEntity
  8
Body
 62
7
100
AcDbSpline
 70
8
 71
3
 72
8
 73
4
 74
0
 40
0
 40
0
 40
0
 40
0
 40
1
 40
1
 40
1
 40
1
 10
30.459098
 20
103.494971
 30
0.0
 10
35.817940
 20
103.595272
 30
0.0
 10
46.692500
 20
101.913382
 30
0.0
 10
46.692500
 20
101.913382
 30
0.0
  0
SPLINE
  5
104
100
AcDbEntity
  8
Body
 62
7
100
AcDbSpline
 70
8
 71
3
 72
8
 73
4
 74
0
 40
0
 40
0
 40
0
 40
0
 40
1
 40
1
 40
1
 40
1
 10
46.692500
 20
101.913382
 30
0.0
 10
46.692500
 20
101.913382
 30
0.0
 10
58.155454
 20
98.711786
 30
0.0
 10
63.024126
 20
96.248182
 30
0.0
  0
SPLINE
  5
105
100
AcDbEntity
  8
Body
 62
7
100
AcDbSpline
 70
8
 71
3
 72
8
 73
4
 74
0
 40
0
 40
0
 40
0
 40
0
 40
1
 40
1
 40
1
 40
1
 10
63.024126
 20
96.248182
 30
0.0
 10
66.445929
 20
94.516709
 30
0.0
 10
71.563921
 20
89.328150
 30
0.0
 10
71.563921
 20
89.328150
 30
0.0
  0
SPLINE
  5
106
100
AcDbEntity
  8
Body
 62
7
100
AcDbSpline
 70
8
 71
3
 72
8
 73
4
 74
0
 40
0
 40
0
 40
0
 40
0
 40
1
 40
1
 40
1
 40
1
 10
71.563921
 20
89.328150
 30
0.0
 10
71.563921
 20
89.328150
 30
0.0
 10
77.532190
 20
81.274143
 30
0.0
 10
77.614156
 20
78.031508
 30
0.0
  0
SPLINE
  5
107
100
AcDbEntity
  8
Body
 62
7
100
AcDbSpline
 70
8
 71
3
 72
8
 73
4
 74
0
 40
0
 40
0
 40
0
 40
0
 40
1
 40
1
 40
1
 40
1
 10
77.614156
 20
78.031508
 30
0.0
 10
77.708382
 20
74.303804
 30
0.0
 10
72.092500
 20
68.417132
 30
0.0
 10
72.092500
 20
68.417132
 30
0.0
  0
SPLINE
  5
108
100
AcDbEntity
  8
Body
 62
7
100
AcDbSpline
 70
8
 71
3
 72
8
 73
4
 74
0
 40
0
 40
0
 40
0
 40
0
 40
1
 40
1
 40
1
 40
1
 10
72.092500
 20
68.417132
 30
0.0
 10
72.092500
 20
68.417132
 30
0.0
 10
56.046809
 20
63.423029
 30
0.0
 10
50.533948
 20
62.730027
 30
0.0
  0
SPLINE
  5
109
100
AcDbEntity
  8
Body
 62
7
100
AcDbSpline
 70
8
 71
3
 72
8
 73
4
 74
0
 40
0
 40
0
 40
0
 40
0
 40
1
 40
1
 40
1
 40
1
 10
50.533948
 20
62.730027
 30
0.0
 10
44.523398
 20
61.974464
 30
0.0
 10
37.522264
 20
64.071438
 30
0.0
 10
37.522264
 20
64.071438
 30
0.0
  0
SPLINE
  5
10a
100
AcDbEntity
  8
Body
 62
7
100
AcDbSpline
 70
8
 71
3
 72
8
 73
4
 74
0
 40
0
 40
0
 40
0
 40
0
 40
1
 40
1
 40
1
 40
1
 10
37.522264
 20
64.071438
 30
0.0
 10
37.522264
 20
64.071438
 30
0.0
 10
24.019865
 20
67.030802
 30
0.0
 10
18.758969
 20
69.687042
 30
0.0
  0
SPLINE
  5
10b
100
AcDbEntity
  8
Body
 62
7
100
AcDbSpline
 70
8
 71
3
 72
8
 73
4
 74
0
 40
0
 40
0
 40
0
 40
0
 40
1
 40
1
 40
1
 40
1
 10
18.758969
 20
69.687042
 30
0.0
 10
13.352433
 20
72.416812
 30
0.0
 10
5.519973
 20
80.229460
 30
0.0
 10
5.519973
 20
80.229460
 30
0.0
  0
LINE
  5
10c
100
AcDbEntity
  8
Body
 62
7
100
AcDbLine
 10
5.519973
 20
80.229460
 30
0.0
 11
0.231667
 21
86.117757
 31
0.0
  0
SPLINE
  5
10d
100
AcDbEntity
  8
Body
 62
7
100
AcDbSpline
 70
8
 71
3
 72
8
 73
4
 74
0
 40
0
 40
0
 40
0
 40
0
 40
1
 40
1
 40
1
 40
1
 10
0.028726
 20
42.891225
 30
0.0
 10
0.028726
 20
42.891225
 30
0.0
 10
2.216452
 20
52.976874
 30
0.0
 10
5.349677
 20
55.823465
 30
0.0
  0
SPLINE
  5
10e
100
AcDbEntity
  8
Body
 62
7
100
AcDbSpline
 70
8
 71
3
 72
8
 73
4
 74
0
 40
0
 40
0
 40
0
 40
0
 40
1
 40
1
 40
1
 40
1
 10
5.349677
 20
55.823465
 30
0.0
 10
7.807981
 20
58.056874
 30
0.0
 10
16.803309
 20
58.131225
 30
0.0
 10
16.803309
 20
58.131225
 30
0.0
  0
SPLINE
  5
10f
100
AcDbEntity
  8
Body
 62
7
100
AcDbSpline
 70
8
 71
3
 72
8
 73
4
 74
0
 40
0
 40
0
 40
0
 40
0
 40
1
 40
1
 40
1
 40
1
 10
16.803309
 20
58.131225
 30
0.0
 10
16.803309
 20
58.131225
 30
0.0
 10
25.719582
 20
60.183531
 30
0.0
 10
30.256157
 20
60.268439
 30
0.0
  0
SPLINE
  5
110
100
AcDbEntity
  8
Body
 62
7
100
AcDbSpline
 70
8
 71
3
 72
8
 73
4
 74
0
 40
0
 40
0
 40
0
 40
0
 40
1
 40
1
 40
1
 40
1
 10
30.256157
 20
60.268439
 30
0.0
 10
35.614999
 20
60.368740
 30
0.0
 10
46.489559
 20
58.686850
 30
0.0
 10
46.489559
 20
58.686850
 30
0.0
  0
SPLINE
  5
111
100
AcDbEntity
  8
Body
 62
7
100
AcDbSpline
 70
8
 71
3
 72
8
 73
4
 74
0
 40
0
 40
0
 40
0
 40
0
 40
1
 40
1
 40
1
 40
1
 10
46.489559
 20
58.686850
 30
0.0
 10
46.489559
 20
58.686850
 30
0.0
 10
57.952513
 20
55.485254
 30
0.0
 10
62.821185
 20
53.021649
 30
0.0
  0
SPLINE
  5
112
100
AcDbEntity
  8
Body
 62
7
100
AcDbSpline
 70
8
 71
3
 72
8
 73
4
 74
0
 40
0
 40
0
 40
0
 40
0
 40
1
 40
1
 40
1
 40
1
 10
62.821185
 20
53.021649
 30
0.0
 10
66.242988
 20
51.290176
 30
0.0
 10
71.360980
 20
46.101618
 30
0.0
 10
71.360980
 20
46.101618
 30
0.0
  0
SPLINE
  5
113
100
AcDbEntity
  8
Body
 62
7
100
AcDbSpline
 70
8
 71
3
 72
8
 73
4
 74
0
 40
0
 40
0
 40
0
 40
0
 40
1
 40
1
 40
1
 40
1
 10
71.360980
 20
46.101618
 30
0.0
 10
71.360980
 20
46.101618
 30
0.0
 10
77.329250
 20
38.047611
 30
0.0
 10
77.411215
 20
34.804976
 30
0.0
  0
SPLINE
  5
114
100
AcDbEntity
  8
Body
 62
7
100
AcDbSpline
 70
8
 71
3
 72
8
 73
4
 74
0
 40
0
 40
0
 40
0
 40
0
 40
1
 40
1
 40
1
 40
1
 10
77.411215
 20
34.804976
 30
0.0
 10
77.505441
 20
31.077272
 30
0.0
 10
71.889559
 20
25.190600
 30
0.0
 10
71.889559
 20
25.190600
 30
0.0
  0
SPLINE
  5
115
100
AcDbEntity
  8
Body
 62
7
100
AcDbSpline
 70
8
 71
3
 72
8
 73
4
 74
0
 40
0
 40
0
 40
0
 40
0
 40
1
 40
1
 40
1
 40
1
 10
71.889559
 20
25.190600
 30
0.0
 10
71.889559
 20
25.190600
 30
0.0
 10
55.843868
 20
20.196497
 30
0.0
 10
50.331008
 20
19.503495
 30
0.0
  0
SPLINE
  5
116
100
AcDbEntity
  8
Body
 62
7
100
AcDbSpline
 70
8
 71
3
 72
8
 73
4
 74
0
 40
0
 40
0
 40
0
 40
0
 40
1
 40
1
 40
1
 40
1
 10
50.331008
 20
19.503495
 30
0.0
 10
44.320457
 20
18.747932
 30
0.0
 10
37.319323
 20
20.844906
 30
0.0
 10
37.319323
 20
20.844906
 30
0.0
  0
SPLINE
  5
117
100
AcDbEntity
  8
Body
 62
7
100
AcDbSpline
 70
8
 71
3
 72
8
 73
4
 74
0
 40
0
 40
0
 40
0
 40
0
 40
1
 40
1
 40
1
 40
1
 10
37.319323
 20
20.844906
 30
0.0
 10
37.319323
 20
20.844906
 30
0.0
 10
23.816924
 20
23.804270
 30
0.0
 10
18.556028
 20
26.460510
 30
0.0
  0
SPLINE
  5
118
100
AcDbEntity
  8
Body
 62
7
100
AcDbSpline
 70
8
 71
3
 72
8
 73
4
 74
0
 40
0
 40
0
 40
0
 40
0
 40
1
 40
1
 40
1
 40
1
 10
18.556028
 20
26.460510
 30
0.0
 10
13.149493
 20
29.190279
 30
0.0
 10
5.317032
 20
37.002928
 30
0.0
 10
5.317032
 20
37.002928
 30
0.0
  0
LINE
  5
119
100
AcDbEntity
  8
Body
 62
7
100
AcDbLine
 10
5.317032
 20
37.002928
 30
0.0
 11
0.028726
 21
42.891225
 31
0.0
  0
LINE
  5
11a
100
AcDbEntity
  8
Tail
 62
7
100
AcDbLine
 10
94.089069
 20
8.009158
 30
0.0
 11
85.927883
 21
9.409312
 31
0.0
  0
SPLINE
  5
11b
100
AcDbEntity
  8
Tail
 62
7
100
AcDbSpline
 70
8
 71
3
 72
8
 73
4
 74
0
 40
0
 40
0
 40
0
 40
0
 40
1
 40
1
 40
1
 40
1
 10
85.927883
 20
9.409312
 30
0.0
 10
85.927883
 20
9.409312
 30
0.0
 10
82.329330
 20
14.202353
 30
0.0
 10
81.529949
 20
16.380475
 30
0.0
  0
SPLINE
  5
11c
100
AcDbEntity
  8
Tail
 62
7
100
AcDbSpline
 70
8
 71
3
 72
8
 73
4
 74
0
 40
0
 40
0
 40
0
 40
0
 40
1
 40
1
 40
1
 40
1
 10
81.529949
 20
16.380475
 30
0.0
 10
80.444319
 20
19.338559
 30
0.0
 10
80.983802
 20
24.586135
 30
0.0
 10
80.983802
 20
24.586135
 30
0.0
  0
SPLINE
  5
11d
100
AcDbEntity
  8
Tail
 62
7
100
AcDbSpline
 70
8
 71
3
 72
8
 73
4
 74
0
 40
0
 40
0
 40
0
 40
0
 40
1
 40
1
 40
1
 40
1
 10
80.983802
 20
24.586135
 30
0.0
 10
80.983802
 20
24.586135
 30
0.0
 10
84.636298
 20
37.537066
 30
0.0
 10
85.572854
 20
43.617249
 30
0.0
  0
SPLINE
  5
11e
100
AcDbEntity
  8
Tail
 62
7
100
AcDbSpline
 70
8
 71
3
 72
8
 73
4
 74
0
 40
0
 40
0
 40
0
 40
0
 40
1
 40
1
 40
1
 40
1
 10
85.572854
 20
43.617249
 30
0.0
 10
86.066529
 20
46.822216
 30
0.0
 10
88.081993
 20
50.325786
 30
0.0
 10
87.930297
 20
53.809642
 30
0.0
  0
SPLINE
  5
11f
100
AcDbEntity
  8
Tail
 62
7
100
AcDbSpline
 70
8
 71
3
 72
8
 73
4
 74
0
 40
0
 40
0
 40
0
 40
0
 40
1
 40
1
 40
1
 40
1
 10
87.930297
 20
53.809642
 30
0.0
 10
87.788684
 20
57.061853
 30
0.0
 10
85.823216
 20
62.027323
 30
0.0
 10
85.823216
 20
62.027323
 30
0.0
  0
SPLINE
  5
120
100
AcDbEntity
  8
Tail
 62
7
100
AcDbSpline
 70
8
 71
3
 72
8
 73
4
 74
0
 40
0
 40
0
 40
0
 40
0
 40
1
 40
1
 40
1
 40
1
 10
85.823216
 20
62.027323
 30
0.0
 10
85.823216
 20
62.027323
 30
0.0
 10
82.864150
 20
65.601568
 30
0.0
 10
82.717852
 20
67.707874
 30
0.0
  0
SPLINE
  5
121
100
AcDbEntity
  8
Tail
 62
7
100
AcDbSpline
 70
8
 71
3
 72
8
 73
4
 74
0
 40
0
 40
0
 40
0
 40
0
 40
1
 40
1
 40
1
 40
1
 10
82.717852
 20
67.707874
 30
0.0
 10
82.458851
 20
71.436771
 30
0.0
 10
83.695003
 20
80.602650
 30
0.0
 10
83.695003
 20
80.602650
 30
0.0
  0
SPLINE
  5
122
100
AcDbEntity
  8
Tail
 62
7
100
AcDbSpline
 70
8
 71
3
 72
8
 73
4
 74
0
 40
0
 40
0
 40
0
 40
0
 40
1
 40
1
 40
1
 40
1
 10
83.695003
 20
80.602650
 30
0.0
 10
83.695003
 20
80.602650
 30
0.0
 10
85.050694
 20
87.717729
 30
0.0
 10
84.086898
 20
91.364458
 30
0.0
  0
SPLINE
  5
123
100
AcDbEntity
  8
Tail
 62
7
100
AcDbSpline
 70
8
 71
3
 72
8
 73
4
 74
0
 40
0
 40
0
 40
0
 40
0
 40
1
 40
1
 40
1
 40
1
 10
84.086898
 20
91.364458
 30
0.0
 10
83.343647
 20
94.176724
 30
0.0
 10
79.188247
 20
99.710903
 30
0.0
 10
79.188247
 20
99.710903
 30
0.0
  0
SPLINE
  5
124
100
AcDbEntity
  8
Tail
 62
7
100
AcDbSpline
 70
8
 71
3
 72
8
 73
4
 74
0
 40
0
 40
0
 40
0
 40
0
 40
1
 40
1
 40
1
 40
1
 10
79.188247
 20
99.710903
 30
0.0
 10
79.188247
 20
99.710903
 30
0.0
 10
83.389425
 20
105.179809
 30
0.0
 10
85.347829
 20
106.020943
 30
0.0
  0
SPLINE
  5
125
100
AcDbEntity
  8
Tail
 62
7
100
AcDbSpline
 70
8
 71
3
 72
8
 73
4
 74
0
 40
0
 40
0
 40
0
 40
0
 40
1
 40
1
 40
1
 40
1
 10
85.347829
 20
106.020943
 30
0.0
 10
86.828426
 20
106.656861
 30
0.0
 10
89.505250
 20
104.142062
 30
0.0
 10
89.505250
 20
104.142062
 30
0.0
  0
LINE
  5
126
100
AcDbEntity
  8
Tail
 62
7
100
AcDbLine
 10
89.505250
 20
104.142062
 30
0.0
 11
90.947229
 21
94.552650
 31
0.0
  0
LINE
  5
127
100
AcDbEntity
  8
Tail
 62
7
100
AcDbLine
 10
90.947229
 20
94.552650
 30
0.0
 11
93.013861
 21
115.674009
 31
0.0
  0
SPLINE
  5
128
100
AcDbEntity
  8
Tail
 62
7
100
AcDbSpline
 70
8
 71
3
 72
8
 73
4
 74
0
 40
0
 40
0
 40
0
 40
0
 40
1
 40
1
 40
1
 40
1
 10
93.013861
 20
115.674009
 30
0.0
 10
93.013861
 20
115.674009
 30
0.0
 10
96.952271
 20
118.699234
 30
0.0
 10
98.424458
 20
118.379408
 30
0.0
  0
SPLINE
  5
129
100
AcDbEntity
  8
Tail
 62
7
100
AcDbSpline
 70
8
 71
3
 72
8
 73
4
 74
0
 40
0
 40
0
 40
0
 40
0
 40
1
 40
1
 40
1
 40
1
 10
98.424458
 20
118.379408
 30
0.0
 10
100.282203
 20
117.975823
 30
0.0
 10
103.003657
 20
113.503767
 30
0.0
 10
103.003657
 20
113.503767
 30
0.0
  0
LINE
  5
12a
100
AcDbEntity
  8
Tail
 62
7
100
AcDbLine
 10
103.003657
 20
113.503767
 30
0.0
 11
101.368574
 21
93.489546
 31
0.0
  0
LINE
  5
12b
100
AcDbEntity
  8
Tail
 62
7
100
AcDbLine
 10
101.368574
 20
93.489546
 30
0.0
 11
104.859103
 21
114.930361
 31
0.0
  0
SPLINE
  5
12c
100
AcDbEntity
  8
Tail
 62
7
100
AcDbSpline
 70
8
 71
3
 72
8
 73
4
 74
0
 40
0
 40
0
 40
0
 40
0
 40
1
 40
1
 40
1
 40
1
 10
104.859103
 20
114.930361
 30
0.0
 10
104.859103
 20
114.930361
 30
0.0
 10
108.327894
 20
117.427316
 30
0.0
 10
110.262329
 20
117.180361
 30
0.0
  0
SPLINE
  5
12d
100
AcDbEntity
  8
Tail
 62
7
100
AcDbSpline
 70
8
 71
3
 72
8
 73
4
 74
0
 40
0
 40
0
 40
0
 40
0
 40
1
 40
1
 40
1
 40
1
 10
110.262329
 20
117.180361
 30
0.0
 10
111.996874
 20
116.958924
 30
0.0
 10
115.866040
 20
113.525188
 30
0.0
 10
115.866040
 20
113.525188
 30
0.0
  0
LINE
  5
12e
100
AcDbEntity
  8
Tail
 62
7
100
AcDbLine
 10
115.866040
 20
113.525188
 30
0.0
 11
110.346577
 21
91.060340
 31
0.0
  0
LINE
  5
12f
100
AcDbEntity
  8
Tail
 62
7
100
AcDbLine
 10
110.346577
 20
91.060340
 30
0.0
 11
116.882164
 21
112.250219
 31
0.0
  0
SPLINE
  5
130
100
AcDbEntity
  8
Tail
 62
7
100
AcDbSpline
 70
8
 71
3
 72
8
 73
4
 74
0
 40
0
 40
0
 40
0
 40
0
 40
1
 40
1
 40
1
 40
1
 10
116.882164
 20
112.250219
 30
0.0
 10
116.882164
 20
112.250219
 30
0.0
 10
119.670970
 20
111.567168
 30
0.0
 10
120.897965
 20
110.249852
 30
0.0
  0
SPLINE
  5
131
100
AcDbEntity
  8
Tail
 62
7
100
AcDbSpline
 70
8
 71
3
 72
8
 73
4
 74
0
 40
0
 40
0
 40
0
 40
0
 40
1
 40
1
 40
1
 40
1
 10
120.897965
 20
110.249852
 30
0.0
 10
121.922797
 20
109.149575
 30
0.0
 10
123.637638
 20
104.997442
 30
0.0
 10
123.637638
 20
104.997442
 30
0.0
  0
SPLINE
  5
132
100
AcDbEntity
  8
Tail
 62
7
100
AcDbSpline
 70
8
 71
3
 72
8
 73
4
 74
0
 40
0
 40
0
 40
0
 40
0
 40
1
 40
1
 40
1
 40
1
 10
123.637638
 20
104.997442
 30
0.0
 10
123.637638
 20
104.997442
 30
0.0
 10
123.771620
 20
98.726282
 30
0.0
 10
122.670186
 20
95.699841
 30
0.0
  0
SPLINE
  5
133
100
AcDbEntity
  8
Tail
 62
7
100
AcDbSpline
 70
8
 71
3
 72
8
 73
4
 74
0
 40
0
 40
0
 40
0
 40
0
 40
1
 40
1
 40
1
 40
1
 10
122.670186
 20
95.699841
 30
0.0
 10
121.537061
 20
92.586340
 30
0.0
 10
116.933956
 20
86.577616
 30
0.0
 10
116.933956
 20
86.577616
 30
0.0
  0
LINE
  5
134
100
AcDbEntity
  8
Tail
 62
7
100
AcDbLine
 10
116.933956
 20
86.577616
 30
0.0
 11
124.502304
 21
94.859516
 31
0.0
  0
LINE
  5
135
100
AcDbEntity
  8
Tail
 62
7
100
AcDbLine
 10
124.502304
 20
94.859516
 30
0.0
 11
127.300011
 21
94.609450
 31
0.0
  0
SPLINE
  5
136
100
AcDbEntity
  8
Tail
 62
7
100
AcDbSpline
 70
8
 71
3
 72
8
 73
4
 74
0
 40
0
 40
0
 40
0
 40
0
 40
1
 40
1
 40
1
 40
1
 10
127.300011
 20
94.609450
 30
0.0
 10
127.947775
 20
94.551557
 30
0.0
 10
127.882057
 20
91.088415
 30
0.0
 10
127.882057
 20
91.088415
 30
0.0
  0
SPLINE
  5
137
100
AcDbEntity
  8
Tail
 62
7
100
AcDbSpline
 70
8
 71
3
 72
8
 73
4
 74
0
 40
0
 40
0
 40
0
 40
0
 40
1
 40
1
 40
1
 40
1
 10
127.882057
 20
91.088415
 30
0.0
 10
127.882057
 20
91.088415
 30
0.0
 10
125.033704
 20
78.792204
 30
0.0
 10
122.948121
 20
73.579444
 30
0.0
  0
SPLINE
  5
138
100
AcDbEntity
  8
Tail
 62
7
100
AcDbSpline
 70
8
 71
3
 72
8
 73
4
 74
0
 40
0
 40
0
 40
0
 40
0
 40
1
 40
1
 40
1
 40
1
 10
122.948121
 20
73.579444
 30
0.0
 10
120.985092
 20
68.672994
 30
0.0
 10
115.736224
 20
60.730788
 30
0.0
 10
115.736224
 20
60.730788
 30
0.0
  0
SPLINE
  5
139
100
AcDbEntity
  8
Tail
 62
7
100
AcDbSpline
 70
8
 71
3
 72
8
 73
4
 74
0
 40
0
 40
0
 40
0
 40
0
 40
1
 40
1
 40
1
 40
1
 10
115.736224
 20
60.730788
 30
0.0
 10
115.736224
 20
60.730788
 30
0.0
 10
112.538925
 20
58.313840
 30
0.0
 10
111.753872
 20
57.057104
 30
0.0
  0
SPLINE
  5
13a
100
AcDbEntity
  8
Tail
 62
7
100
AcDbSpline
 70
8
 71
3
 72
8
 73
4
 74
0
 40
0
 40
0
 40
0
 40
0
 40
1
 40
1
 40
1
 40
1
 10
111.753872
 20
57.057104
 30
0.0
 10
110.052313
 20
54.333194
 30
0.0
 10
108.276382
 20
48.788853
 30
0.0
 10
108.276382
 20
48.788853
 30
0.0
  0
SPLINE
  5
13b
100
AcDbEntity
  8
Tail
 62
7
100
AcDbSpline
 70
8
 71
3
 72
8
 73
4
 74
0
 40
0
 40
0
 40
0
 40
0
 40
1
 40
1
 40
1
 40
1
 10
108.276382
 20
48.788853
 30
0.0
 10
108.276382
 20
48.788853
 30
0.0
 10
104.763615
 20
41.919034
 30
0.0
 10
104.016069
 20
39.041606
 30
0.0
  0
SPLINE
  5
13c
100
AcDbEntity
  8
Tail
 62
7
100
AcDbSpline
 70
8
 71
3
 72
8
 73
4
 74
0
 40
0
 40
0
 40
0
 40
0
 40
1
 40
1
 40
1
 40
1
 10
104.016069
 20
39.041606
 30
0.0
 10
102.313296
 20
32.487345
 30
0.0
 10
100.925426
 20
20.493774
 30
0.0
 10
100.925426
 20
20.493774
 30
0.0
  0
SPLINE
  5
13d
100
AcDbEntity
  8
Tail
 62
7
100
AcDbSpline
 70
8
 71
3
 72
8
 73
4
 74
0
 40
0
 40
0
 40
0
 40
0
 40
1
 40
1
 40
1
 40
1
 10
100.925426
 20
20.493774
 30
0.0
 10
100.925426
 20
20.493774
 30
0.0
 10
99.256903
 20
16.006841
 30
0.0
 10
98.336537
 20
14.326062
 30
0.0
  0
SPLINE
  5
13e
100
AcDbEntity
  8
Tail
 62
7
100
AcDbSpline
 70
8
 71
3
 72
8
 73
4
 74
0
 40
0
 40
0
 40
0
 40
0
 40
1
 40
1
 40
1
 40
1
 10
98.336537
 20
14.326062
 30
0.0
 10
96.978118
 20
11.845302
 30
0.0
 10
94.089069
 20
8.009158
 30
0.0
 10
94.089069
 20
8.009158
 30
0.0
  0
LINE
  5
13f
100
AcDbEntity
  8
Tail
 62
7
100
AcDbLine
 10
94.089069
 20
8.009158
 30
0.0
 11
94.089069
 21
8.009158
 31
0.0
  0
LINE
  5
140
100
AcDbEntity
  8
Tail
 62
7
100
AcDbLine
 10
149.562357
 20
109.744445
 30
0.0
 11
157.585405
 21
107.695999
 31
0.0
  0
SPLINE
  5
141
100
AcDbEntity
  8
Tail
 62
7
100
AcDbSpline
 70
8
 71
3
 72
8
 73
4
 74
0
 40
0
 40
0
 40
0
 40
0
 40
1
 40
1
 40
1
 40
1
 10
157.585405
 20
107.695999
 30
0.0
 10
157.585405
 20
107.695999
 30
0.0
 10
160.789051
 20
102.630482
 30
0.0
 10
161.411653
 20
100.395401
 30
0.0
  0
SPLINE
  5
142
100
AcDbEntity
  8
Tail
 62
7
100
AcDbSpline
 70
8
 71
3
 72
8
 73
4
 74
0
 40
0
 40
0
 40
0
 40
0
 40
1
 40
1
 40
1
 40
1
 10
161.411653
 20
100.395401
 30
0.0
 10
162.257200
 20
97.359961
 30
0.0
 10
161.299713
 20
92.172347
 30
0.0
 10
161.299713
 20
92.172347
 30
0.0
  0
SPLINE
  5
143
100
AcDbEntity
  8
Tail
 62
7
100
AcDbSpline
 70
8
 71
3
 72
8
 73
4
 74
0
 40
0
 40
0
 40
0
 40
0
 40
1
 40
1
 40
1
 40
1
 10
161.299713
 20
92.172347
 30
0.0
 10
161.299713
 20
92.172347
 30
0.0
 10
156.623030
 20
79.555058
 30
0.0
 10
155.203147
 20
73.569268
 30
0.0
  0
SPLINE
  5
144
100
AcDbEntity
  8
Tail
 62
7
100
AcDbSpline
 70
8
 71
3
 72
8
 73
4
 74
0
 40
0
 40
0
 40
0
 40
0
 40
1
 40
1
 40
1
 40
1
 10
155.203147
 20
73.569268
 30
0.0
 10
154.454701
 20
70.414056
 30
0.0
 10
152.165460
 20
67.082920
 30
0.0
 10
152.038010
 20
63.598093
 30
0.0
  0
SPLINE
  5
145
100
AcDbEntity
  8
Tail
 62
7
100
AcDbSpline
 70
8
 71
3
 72
8
 73
4
 74
0
 40
0
 40
0
 40
0
 40
0
 40
1
 40
1
 40
1
 40
1
 10
152.038010
 20
63.598093
 30
0.0
 10
151.919040
 20
60.344975
 30
0.0
 10
153.481043
 20
55.238207
 30
0.0
 10
153.481043
 20
55.238207
 30
0.0
  0
SPLINE
  5
146
100
AcDbEntity
  8
Tail
 62
7
100
AcDbSpline
 70
8
 71
3
 72
8
 73
4
 74
0
 40
0
 40
0
 40
0
 40
0
 40
1
 40
1
 40
1
 40
1
 10
153.481043
 20
55.238207
 30
0.0
 10
153.481043
 20
55.238207
 30
0.0
 10
156.144741
 20
51.438729
 30
0.0
 10
156.122095
 20
49.327471
 30
0.0
  0
SPLINE
  5
147
100
AcDbEntity
  8
Tail
 62
7
100
AcDbSpline
 70
8
 71
3
 72
8
 73
4
 74
0
 40
0
 40
0
 40
0
 40
0
 40
1
 40
1
 40
1
 40
1
 10
156.122095
 20
49.327471
 30
0.0
 10
156.082008
 20
45.589803
 30
0.0
 10
154.116675
 20
36.552165
 30
0.0
 10
154.116675
 20
36.552165
 30
0.0
  0
SPLINE
  5
148
100
AcDbEntity
  8
Tail
 62
7
100
AcDbSpline
 70
8
 71
3
 72
8
 73
4
 74
0
 40
0
 40
0
 40
0
 40
0
 40
1
 40
1
 40
1
 40
1
 10
154.116675
 20
36.552165
 30
0.0
 10
154.116675
 20
36.552165
 30
0.0
 10
152.196223
 20
29.568319
 30
0.0
 10
152.865243
 20
25.856188
 30
0.0
  0
SPLINE
  5
149
100
AcDbEntity
  8
Tail
 62
7
100
AcDbSpline
 70
8
 71
3
 72
8
 73
4
 74
0
 40
0
 40
0
 40
0
 40
0
 40
1
 40
1
 40
1
 40
1
 10
152.865243
 20
25.856188
 30
0.0
 10
153.381173
 20
22.993481
 30
0.0
 10
157.080604
 20
17.144660
 30
0.0
 10
157.080604
 20
17.144660
 30
0.0
  0
SPLINE
  5
14a
100
AcDbEntity
  8
Tail
 62
7
100
AcDbSpline
 70
8
 71
3
 72
8
 73
4
 74
0
 40
0
 40
0
 40
0
 40
0
 40
1
 40
1
 40
1
 40
1
 10
157.080604
 20
17.144660
 30
0.0
 10
157.080604
 20
17.144660
 30
0.0
 10
152.455451
 20
12.029312
 30
0.0
 10
150.436046
 20
11.347515
 30
0.0
  0
SPLINE
  5
14b
100
AcDbEntity
  8
Tail
 62
7
100
AcDbSpline
 70
8
 71
3
 72
8
 73
4
 74
0
 40
0
 40
0
 40
0
 40
0
 40
1
 40
1
 40
1
 40
1
 10
150.436046
 20
11.347515
 30
0.0
 10
148.909326
 20
10.832064
 30
0.0
 10
146.442226
 20
13.552912
 30
0.0
 10
146.442226
 20
13.552912
 30
0.0
  0
LINE
  5
14c
100
AcDbEntity
  8
Tail
 62
7
100
AcDbLine
 10
146.442226
 20
13.552912
 30
0.0
 11
145.771883
 21
23.226936
 31
0.0
  0
LINE
  5
14d
100
AcDbEntity
  8
Tail
 62
7
100
AcDbLine
 10
145.771883
 20
23.226936
 30
0.0
 11
142.022465
 21
2.338550
 31
0.0
  0
SPLINE
  5
14e
100
AcDbEntity
  8
Tail
 62
7
100
AcDbSpline
 70
8
 71
3
 72
8
 73
4
 74
0
 40
0
 40
0
 40
0
 40
0
 40
1
 40
1
 40
1
 40
1
 10
142.022465
 20
2.338550
 30
0.0
 10
142.022465
 20
2.338550
 30
0.0
 10
137.854701
 20
-0.361962
 30
0.0
 10
136.412811
 20
0.074593
 30
0.0
  0
SPLINE
  5
14f
100
AcDbEntity
  8
Tail
 62
7
100
AcDbSpline
 70
8
 71
3
 72
8
 73
4
 74
0
 40
0
 40
0
 40
0
 40
0
 40
1
 40
1
 40
1
 40
1
 10
136.412811
 20
0.074593
 30
0.0
 10
134.593298
 20
0.625476
 30
0.0
 10
132.238266
 20
5.300883
 30
0.0
 10
132.238266
 20
5.300883
 30
0.0
  0
LINE
  5
150
100
AcDbEntity
  8
Tail
 62
7
100
AcDbLine
 10
132.238266
 20
5.300883
 30
0.0
 11
135.468963
 21
25.120194
 31
0.0
  0
LINE
  5
151
100
AcDbEntity
  8
Tail
 62
7
100
AcDbLine
 10
135.468963
 20
25.120194
 30
0.0
 11
130.274658
 21
4.027269
 31
0.0
  0
SPLINE
  5
152
100
AcDbEntity
  8
Tail
 62
7
100
AcDbSpline
 70
8
 71
3
 72
8
 73
4
 74
0
 40
0
 40
0
 40
0
 40
0
 40
1
 40
1
 40
1
 40
1
 10
130.274658
 20
4.027269
 30
0.0
 10
130.274658
 20
4.027269
 30
0.0
 10
126.617259
 20
1.815768
 30
0.0
 10
124.708774
 20
2.216657
 30
0.0
  0
SPLINE
  5
153
100
AcDbEntity
  8
Tail
 62
7
100
AcDbSpline
 70
8
 71
3
 72
8
 73
4
 74
0
 40
0
 40
0
 40
0
 40
0
 40
1
 40
1
 40
1
 40
1
 10
124.708774
 20
2.216657
 30
0.0
 10
122.997500
 20
2.576125
 30
0.0
 10
119.415380
 20
6.308337
 30
0.0
 10
119.415380
 20
6.308337
 30
0.0
  0
LINE
  5
154
100
AcDbEntity
  8
Tail
 62
7
100
AcDbLine
 10
119.415380
 20
6.308337
 30
0.0
 11
126.714028
 21
28.259729
 31
0.0
  0
LINE
  5
155
100
AcDbEntity
  8
Tail
 62
7
100
AcDbLine
 10
126.714028
 20
28.259729
 30
0.0
 11
118.504491
 21
7.660496
 31
0.0
  0
SPLINE
  5
156
100
AcDbEntity
  8
Tail
 62
7
100
AcDbSpline
 70
8
 71
3
 72
8
 73
4
 74
0
 40
0
 40
0
 40
0
 40
0
 40
1
 40
1
 40
1
 40
1
 10
118.504491
 20
7.660496
 30
0.0
 10
118.504491
 20
7.660496
 30
0.0
 10
115.779256
 20
8.564424
 30
0.0
 10
114.661556
 20
9.975661
 30
0.0
  0
SPLINE
  5
157
100
AcDbEntity
  8
Tail
 62
7
100
AcDbSpline
 70
8
 71
3
 72
8
 73
4
 74
0
 40
0
 40
0
 40
0
 40
0
 40
1
 40
1
 40
1
 40
1
 10
114.661556
 20
9.975661
 30
0.0
 10
113.728016
 20
11.154385
 30
0.0
 10
112.350780
 20
15.430377
 30
0.0
 10
112.350780
 20
15.430377
 30
0.0
  0
SPLINE
  5
158
100
AcDbEntity
  8
Tail
 62
7
100
AcDbSpline
 70
8
 71
3
 72
8
 73
4
 74
0
 40
0
 40
0
 40
0
 40
0
 40
1
 40
1
 40
1
 40
1
 10
112.350780
 20
15.430377
 30
0.0
 10
112.350780
 20
15.430377
 30
0.0
 10
112.718829
 20
21.692160
 30
0.0
 10
114.058808
 20
24.620809
 30
0.0
  0
SPLINE
  5
159
100
AcDbEntity
  8
Tail
 62
7
100
AcDbSpline
 70
8
 71
3
 72
8
 73
4
 74
0
 40
0
 40
0
 40
0
 40
0
 40
1
 40
1
 40
1
 40
1
 10
114.058808
 20
24.620809
 30
0.0
 10
115.437341
 20
27.633696
 30
0.0
 10
120.506307
 20
33.254988
 30
0.0
 10
120.506307
 20
33.254988
 30
0.0
  0
LINE
  5
15a
100
AcDbEntity
  8
Tail
 62
7
100
AcDbLine
 10
120.506307
 20
33.254988
 30
0.0
 11
112.299774
 21
25.604982
 31
0.0
  0
LINE
  5
15b
100
AcDbEntity
  8
Tail
 62
7
100
AcDbLine
 10
112.299774
 20
25.604982
 30
0.0
 11
109.531031
 21
26.078023
 31
0.0
  0
SPLINE
  5
15c
100
AcDbEntity
  8
Tail
 62
7
100
AcDbSpline
 70
8
 71
3
 72
8
 73
4
 74
0
 40
0
 40
0
 40
0
 40
0
 40
1
 40
1
 40
1
 40
1
 10
109.531031
 20
26.078023
 30
0.0
 10
108.889975
 20
26.187544
 30
0.0
 10
109.232486
 20
29.634335
 30
0.0
 10
109.232486
 20
29.634335
 30
0.0
  0
SPLINE
  5
15d
100
AcDbEntity
  8
Tail
 62
7
100
AcDbSpline
 70
8
 71
3
 72
8
 73
4
 74
0
 40
0
 40
0
 40
0
 40
0
 40
1
 40
1
 40
1
 40
1
 10
109.232486
 20
29.634335
 30
0.0
 10
109.232486
 20
29.634335
 30
0.0
 10
113.055233
 20
41.663320
 30
0.0
 10
115.551080
 20
46.692562
 30
0.0
  0
SPLINE
  5
15e
100
AcDbEntity
  8
Tail
 62
7
100
AcDbSpline
 70
8
 71
3
 72
8
 73
4
 74
0
 40
0
 40
0
 40
0
 40
0
 40
1
 40
1
 40
1
 40
1
 10
115.551080
 20
46.692562
 30
0.0
 10
117.900267
 20
51.426278
 30
0.0
 10
123.767580
 20
58.923202
 30
0.0
 10
123.767580
 20
58.923202
 30
0.0
  0
SPLINE
  5
15f
100
AcDbEntity
  8
Tail
 62
7
100
AcDbSpline
 70
8
 71
3
 72
8
 73
4
 74
0
 40
0
 40
0
 40
0
 40
0
 40
1
 40
1
 40
1
 40
1
 10
123.767580
 20
58.923202
 30
0.0
 10
123.767580
 20
58.923202
 30
0.0
 10
127.147955
 20
61.076667
 30
0.0
 10
128.031015
 20
62.266583
 30
0.0
  0
SPLINE
  5
160
100
AcDbEntity
  8
Tail
 62
7
100
AcDbSpline
 70
8
 71
3
 72
8
 73
4
 74
0
 40
0
 40
0
 40
0
 40
0
 40
1
 40
1
 40
1
 40
1
 10
128.031015
 20
62.266583
 30
0.0
 10
129.944998
 20
64.845664
 30
0.0
 10
132.158706
 20
70.230192
 30
0.0
 10
132.158706
 20
70.230192
 30
0.0
  0
SPLINE
  5
161
100
AcDbEntity
  8
Tail
 62
7
100
AcDbSpline
 70
8
 71
3
 72
8
 73
4
 74
0
 40
0
 40
0
 40
0
 40
0
 40
1
 40
1
 40
1
 40
1
 10
132.158706
 20
70.230192
 30
0.0
 10
132.158706
 20
70.230192
 30
0.0
 10
136.209704
 20
76.797028
 30
0.0
 10
137.185011
 20
79.605446
 30
0.0
  0
SPLINE
  5
162
100
AcDbEntity
  8
Tail
 62
7
100
AcDbSpline
 70
8
 71
3
 72
8
 73
4
 74
0
 40
0
 40
0
 40
0
 40
0
 40
1
 40
1
 40
1
 40
1
 10
137.185011
 20
79.605446
 30
0.0
 10
139.406574
 20
86.002510
 30
0.0
 10
141.749312
 20
97.846643
 30
0.0
 10
141.749312
 20
97.846643
 30
0.0
  0
SPLINE
  5
163
100
AcDbEntity
  8
Tail
 62
7
100
AcDbSpline
 70
8
 71
3
 72
8
 73
4
 74
0
 40
0
 40
0
 40
0
 40
0
 40
1
 40
1
 40
1
 40
1
 10
141.749312
 20
97.846643
 30
0.0
 10
141.749312
 20
97.846643
 30
0.0
 10
143.771382
 20
102.185744
 30
0.0
 10
144.823236
 20
103.787521
 30
0.0
  0
SPLINE
  5
164
100
AcDbEntity
  8
Tail
 62
7
100
AcDbSpline
 70
8
 71
3
 72
8
 73
4
 74
0
 40
0
 40
0
 40
0
 40
0
 40
1
 40
1
 40
1
 40
1
 10
144.823236
 20
103.787521
 30
0.0
 10
146.375729
 20
106.151676
 30
0.0
 10
149.562357
 20
109.744445
 30
0.0
 10
149.562357
 20
109.744445
 30
0.0
  0
LINE
  5
165
100
AcDbEntity
  8
Tail
 62
7
100
AcDbLine
 10
149.562357
 20
109.744445
 30
0.0
 11
149.562357
 21
109.744445
 31
0.0
  0
ENDSEC
  0
SECTION
  2
OBJECTS
  0
DICTIONARY
  5
C
330
0
100
AcDbDictionary
  3
ACAD_GROUP
350
D
  3
ACAD_MLINESTYLE
350
17
  0
DICTIONARY
  5
D
330
C
100
AcDbDictionary
  0
DICTIONARY
  5
1A
330
C
100
AcDbDictionary
  0
DICTIONARY
  5
17
330
C
100
AcDbDictionary
  3
STANDARD
350
18
  0
DICTIONARY
  5
19
330
C
100
AcDbDictionary
  0
ENDSEC
  0
EOF
