<?xml version="1.0" encoding="UTF-8" standalone="no"?>
<svg
   xmlns:dc="http://purl.org/dc/elements/1.1/"
   xmlns:cc="http://creativecommons.org/ns#"
   xmlns:rdf="http://www.w3.org/1999/02/22-rdf-syntax-ns#"
   xmlns:svg="http://www.w3.org/2000/svg"
   xmlns="http://www.w3.org/2000/svg"
   xmlns:sodipodi="http://sodipodi.sourceforge.net/DTD/sodipodi-0.dtd"
   xmlns:inkscape="http://www.inkscape.org/namespaces/inkscape"
   width="110.38838mm"
   height="49.509975mm"
   version="1.1"
   id="svg174"
   sodipodi:docname="BirdDraw.svg"
   inkscape:version="0.92.2 5c3e80d, 2017-08-06">
  <metadata
     id="metadata180">
    <rdf:RDF>
      <cc:Work
         rdf:about="">
        <dc:format>image/svg+xml</dc:format>
        <dc:type
           rdf:resource="http://purl.org/dc/dcmitype/StillImage" />
        <dc:title></dc:title>
      </cc:Work>
    </rdf:RDF>
  </metadata>
  <defs
     id="defs178" />
  <sodipodi:namedview
     pagecolor="#ffffff"
     bordercolor="#666666"
     borderopacity="1"
     objecttolerance="10"
     gridtolerance="10"
     guidetolerance="10"
     inkscape:pageopacity="0"
     inkscape:pageshadow="2"
     inkscape:window-width="1271"
     inkscape:window-height="734"
     id="namedview176"
     showgrid="false"
     inkscape:zoom="1.0831357"
     inkscape:cx="95.464934"
     inkscape:cy="205.95021"
     inkscape:window-x="0"
     inkscape:window-y="280"
     inkscape:window-maximized="0"
     inkscape:current-layer="layer5"
     inkscape:document-units="mm"
     units="mm"
     fit-margin-top="0"
     fit-margin-left="0"
     fit-margin-right="0"
     fit-margin-bottom="0" />
  <g
     inkscape:groupmode="layer"
     id="layer1"
     inkscape:label="Head"
     style="display:none"
     transform="translate(-359.12448,-436.27612)">
    <path
       style="fill:none;fill-rule:evenodd;stroke:#000000;stroke-width:0.2;stroke-linecap:butt;stroke-linejoin:miter;stroke-miterlimit:4;stroke-dasharray:none;stroke-opacity:1"
       d="m 132.9,286.9 c 0,0 14.2801,-9.54185 22.15824,-12.57298 C 165.9801,270.12482 189.3,265.2 189.3,265.2 c 46.2806,-39.43483 60.29415,85.33738 7.7,43.2 0,0 -25.99012,-0.75564 -36.61273,-4.45489 C 150.14322,300.37769 132.9,286.9 132.9,286.9"
       id="path1237"
       inkscape:connector-curvature="0"
       sodipodi:nodetypes="csccsc" />
  </g>
  <g
     inkscape:label="Head 2"
     id="g1253"
     inkscape:groupmode="layer"
     style="display:none"
     transform="translate(-359.12448,-436.27612)">
    <path
       sodipodi:nodetypes="cscsccccscscscscscscscscscscsc"
       inkscape:connector-curvature="0"
       id="path1247"
       d="m 189.3,265.2 c 0,0 10.03641,-17.11014 16.09844,-23.87579 C 210.53641,235.58986 222.9,227.7 222.9,227.7 c 0,0 15.85338,-8.84239 24.82389,-11.17593 C 258.48671,213.72428 282.1,212.3 282.1,212.3 l 48.1,-0.7 -25.3,12 34.3,5.1 c 0,0 -13.8886,9.47317 -17.92511,13.83696 C 319.14473,244.83984 320.7,248.7 320.7,248.7 c 0,0 7.20714,5.33175 5.14424,9.11601 C 322.87381,263.26509 305.6,276.4 305.6,276.4 c 0,0 -2.29012,3.30642 -2.3168,5.85433 -0.04,3.81875 2.1168,13.24567 2.1168,13.24567 0,0 8.02305,11.76962 9.94693,16.38693 1.40946,3.38269 0.0531,7.61307 0.0531,7.61307 0,0 -1.90889,-0.77919 -5.49939,-2.85585 C 307.32444,315.15415 296.9,308.8 296.9,308.8 c 0,0 2.39274,7.67574 2.32381,12.67347 C 299.15941,326.14241 296.5,337.8 296.5,337.8 c 0,0 -2.19733,-7.41357 -4.13954,-10.59314 C 290.16933,323.61976 284.1,317.5 284.1,317.5 c 0,0 -1.00443,9.6826 -2.35018,13.46948 C 280.22891,335.24927 275.5,341.7 275.5,341.7 c 0,0 -0.35406,-4.94337 -1.90184,-7.20417 C 272.17927,332.4233 266.6,328.7 266.6,328.7 c 0,0 -4.38688,-4.03863 -8.47828,-4.47632 C 255.04645,323.8947 245.1,326.4 245.1,326.4 c 0,0 -24.47603,1.11296 -31.44193,-1.49383 C 204.59064,321.51296 197,308.4 197,308.4"
       style="fill:none;fill-rule:evenodd;stroke:#000000;stroke-width:0.2;stroke-linecap:butt;stroke-linejoin:miter;stroke-miterlimit:4;stroke-dasharray:none;stroke-opacity:1" />
    <ellipse
       ry="7.3809481"
       rx="12.863938"
       cy="250.61957"
       cx="241.04068"
       id="ellipse1249"
       style="opacity:1;fill:none;fill-opacity:1;stroke:#000000;stroke-width:0.2;stroke-miterlimit:4;stroke-dasharray:none;stroke-dashoffset:0.57139313;stroke-opacity:1" />
    <path
       sodipodi:nodetypes="csc"
       inkscape:connector-curvature="0"
       id="path1251"
       d="m 189.3,265.2 c -1.25649,11.10572 13.60817,2.72623 14.09401,11.35935 C 203.77482,283.32623 197,308.4 197,308.4"
       style="fill:none;fill-rule:evenodd;stroke:#000000;stroke-width:0.2;stroke-linecap:butt;stroke-linejoin:miter;stroke-miterlimit:4;stroke-dasharray:none;stroke-opacity:1" />
  </g>
  <g
     inkscape:groupmode="layer"
     id="layer3"
     inkscape:label="Wing"
     style="display:none"
     transform="translate(-359.12448,-436.27612)">
    <path
       style="fill:none;fill-rule:evenodd;stroke:#000000;stroke-width:0.2;stroke-linecap:butt;stroke-linejoin:miter;stroke-miterlimit:4;stroke-dasharray:none;stroke-opacity:1"
       d="m 371.4,356.5 c 0,0 -11.2664,-9.68729 -15.18706,-20.40595 -3.16404,-8.65012 0.66223,-18.11902 1.95777,-22.57037 C 360.46982,305.62418 387,302.9 387,302.9 c 0,0 35.92688,5.43619 50.22974,10.88598 C 447.94853,317.87014 462.1,331.4 462.1,331.4 l -43.9,5.6 c 0,0 30.5,2.2 52.5,-3.6 5.82996,-1.53699 13.22314,5.05251 15.40613,9.47672 C 488.92314,348.58584 485.7,363.8 485.7,363.8 l -51.1,-3.7 c 0,0 16.31942,8.37225 24.47913,10.23865 C 468.55276,372.50558 487.5,372.2 487.5,372.2 c 0,0 9.1196,7.30182 9.88348,10.95272 C 498.88626,390.33515 494.3,404.7 494.3,404.7 l -40.1,-8 43.2,18.7 c 0,0 2.94729,19.4175 -0.85117,24.06503 C 491.84729,445.2175 471.9,446.6 471.9,446.6 c 0,0 -16.34614,-0.47973 -22.41037,-5.78082 C 440.72053,433.1536 427.4,407.7 427.4,407.7 Z"
       id="path1242"
       inkscape:connector-curvature="0"
       sodipodi:nodetypes="csscsccssccscscccscscc" />
  </g>
  <g
     inkscape:groupmode="layer"
     id="layer4"
     inkscape:label="Body"
     style="display:none"
     transform="translate(-359.12448,-436.27612)">
    <path
       style="fill:none;fill-rule:evenodd;stroke:#000000;stroke-width:0.2;stroke-linecap:butt;stroke-linejoin:miter;stroke-miterlimit:4;stroke-dasharray:none;stroke-opacity:1"
       d="m 240.3,333.3 c 0,0 8.26857,-38.11899 20.11068,-48.87776 C 269.70191,275.98101 303.7,275.7 303.7,275.7 c 0,0 33.6993,-7.75675 50.84541,-8.07766 C 374.7993,267.24325 415.9,273.6 415.9,273.6 c 0,0 43.32455,12.10052 61.72583,21.41178 12.9328,6.54415 32.27639,26.15445 32.27639,26.15445 0,0 22.55724,30.44034 22.86703,42.69597 C 533.12538,377.95116 511.9,400.2 511.9,400.2 c 0,0 -60.64513,18.87535 -81.48114,21.49457 -22.71704,2.85567 -49.17802,-5.0699 -49.17802,-5.0699 0,0 -51.03269,-11.185 -70.91639,-21.22433 C 289.8903,385.0831 260.2873,355.55498 260.2873,355.55498 Z"
       id="path1279"
       inkscape:connector-curvature="0"
       sodipodi:nodetypes="cscscscscscscc" />
  </g>
  <g
     inkscape:groupmode="layer"
     id="layer5"
     inkscape:label="Tail"
     transform="translate(-359.12448,-436.27612)">
    <path
       style="display:inline;fill:none;fill-rule:evenodd;stroke:#000000;stroke-width:0.2;stroke-linecap:butt;stroke-linejoin:miter;stroke-miterlimit:4;stroke-dasharray:none;stroke-opacity:1"
       d="m 359.22448,550.51263 v -31.29608 c 0,0 15.55477,-16.46816 23.15762,-20.83795 C 392.70746,492.44404 412.6,491.1 412.6,491.1 c 0,0 50.57782,5.32913 73.82568,4.93213 12.25433,-0.20927 26.59355,5.05945 39.47432,2.26787 12.02432,-2.60597 29.2651,-13.10091 29.2651,-13.10091 0,0 11.42333,-13.30709 19.17604,-15.19818 C 588.06615,466.65301 623,465.4 623,465.4 c 0,0 27.37081,0.50291 40.3393,-5.4179 C 673.34028,455.41612 691.3,436.4 691.3,436.4 c 0,0 23.05716,12.1547 27.44207,18.9124 C 722.05716,460.42137 714.4,472 714.4,472 l -34.8,11.5 80,-5.8 c 0,0 13.78628,12.73759 13.53575,18.42604 C 772.81962,503.30426 757.9,516.3 757.9,516.3 l -75.6,6.7 82.1,-0.7 c 0,0 11.51828,11.32583 11.83462,18.68963 C 776.51828,547.5925 766.2,564.2 766.2,564.2 L 678.98869,557.99647 762.1,568.8 c 0,0 -0.76214,10.82512 -4.88513,16.23768 C 753.77119,589.55846 739.4,598.6 739.4,598.6 c 0,0 -23.27509,4.50693 -35.25281,2.33813 C 691.82491,598.70693 666.5,585.4 666.5,585.4 l 35.68777,22.9 0.85648,10.58157 C 703.24256,621.33155 690.3,623.3 690.3,623.3 c 0,0 -47.62501,-2.75204 -68.37595,-7.18963 -19.53158,-4.17683 -52.47161,-18.65364 -52.47161,-18.65364 0,0 -11.04674,-10.36562 -16.22993,-12.48686 C 541.98822,580.3722 520.2,577.3 520.2,577.3 c 0,0 -27.83575,-8.695 -39.03223,-9.64075 C 455.66425,565.505 410.1,568 410.1,568 c 0,0 -17.78063,-3.34788 -24.6299,-5.70217 -10.10924,-3.47483 -26.24562,-11.7852 -26.24562,-11.7852 z"
       id="path1281"
       inkscape:connector-curvature="0"
       sodipodi:nodetypes="ccscsscscscscccscccscccscsccscscscscsc" />
  </g>
  <g
     inkscape:groupmode="layer"
     id="layer2"
     inkscape:label="Draw"
     style="display:none"
     transform="translate(-359.12448,-436.27612)">
    <path
       d="m 267.2,212.7 c 0,0 0.2,0 0.4,0.1 0.1,0.2 0.3,0.5 0.2,0.8 -0.2,0.8 -1.5,1.5 -2.2,1.8 -1.5,0.5 -3.1,0.4 -4.6,0.5 -1.2,0.1 -2.4,0.3 -3.6,0.5 -4.1,0.6 -8.2,1.1 -12.2,2.1 -4.6,1.1 -8.9,2.8 -13.3,4.6 0,0 -2.5,1.2 -3.8,1.8 -1.8,0.9 -3.5,1.8 -5.2,2.8 0,0 -0.1,0.2 -0.2,0.3 -0.2,0.1 -0.4,0.2 -0.6,0.3 0,0.1 -1.7,1 -2.5,1.4 -1,0.6 -1.9,1.4 -2.9,2.1 -3.8,3 -7.2,6 -10.5,9.6 0,0 -0.8,1 -1.2,1.5 -1.4,1.6 -2.6,2.9 -3.8,4.5 0,0 -0.7,1 -1,1.5 -0.7,1 -1.4,2.3 -1.9,3.1 -1.7,2.8 -3.3,5.7 -4.9,8.4 0,0.1 -0.1,0.5 -0.3,0.6 0,0 0,0 0,0 0,0.1 -0.1,0.1 -0.1,0.2 0,0 -0.5,0.9 -0.7,1.3 -0.2,0.3 -0.5,0.6 -0.9,0.6 -1.2,-0.2 -0.4,-1.7 -0.2,-2.3 0.1,0 0.1,-0.4 0.1,-0.6 0,0 -0.3,0.1 -0.5,0 -0.3,0 -0.6,-0.3 -0.7,-0.6 -0.4,-0.9 0.7,-2.1 1.1,-2.8 0,0 0.1,-0.2 0.1,-0.3 0.3,-0.4 0.5,-0.9 0.8,-1.4 0.5,-0.9 1.1,-1.6 1.7,-2.5 0.8,-1.4 1.3,-2.4 2.4,-3.7 1.6,-1.9 3.6,-3.5 5.3,-5.3 0.1,0 0.3,-0.4 0.5,-0.6 1.3,-1.7 1.7,-2.4 2.9,-3.7 0,0 0.1,-0.1 0.2,-0.2 0.3,-0.3 0.6,-0.7 0.9,-1 0.6,-0.6 1.1,-1.2 1.8,-1.7 3.3,-2.9 6.6,-5.6 10.3,-8 0,0 0.4,-0.3 0.6,-0.4 0.4,-0.3 0.8,-0.6 1.3,-0.9 2,-1.2 3.5,-1.9 5.7,-3.1 0,0 0.5,-0.3 0.7,-0.4 0,0 0.6,-0.3 1,-0.5 0.6,-0.3 1.2,-0.6 1.8,-0.8 0,0 0.6,-0.3 0.9,-0.5 1.2,-0.5 2.3,-1 3.5,-1.5 1.5,-0.7 3.1,-1.3 4.7,-1.9 0,0 0.4,-0.1 0.5,-0.2 0.9,-0.4 1.8,-0.7 2.6,-1.1 0.8,-0.3 2.4,-0.9 3.2,-0.4 0,0 0.3,-0.1 0.4,-0.1 0.8,-0.2 1.6,-0.3 2.4,-0.5 1.7,-0.4 3.6,-0.7 5.2,-0.9 4,-0.8 8.1,-1.2 12.3,-1.6 1,-0.1 2.1,-1.6 2.9,-0.5"
       id="path2"
       inkscape:connector-curvature="0"
       style="stroke:#000000" />
    <path
       d="m 329.6,210 c 0,0 0.6,0.2 0.8,0.5 0.2,0.3 0.1,0.9 -0.2,1.1 -1,0.9 -3.4,1.3 -3.9,1.5 0,0 -1.1,0.5 -1.7,0.8 -1.8,1 -3.6,2 -5.5,3 -2.8,1.6 -5.6,3.3 -8.4,4.9 -1.1,0.7 -2.2,1.1 -3.2,1.8 0,0 0.4,0.3 0.4,0.6 0,0.2 -0.2,0.5 -0.4,0.6 -1.1,0.4 -2.7,0.2 -2.6,-1.2 0,-0.1 -0.3,0 -0.4,0 -0.3,0 -0.6,-0.1 -0.8,-0.3 -0.4,-0.5 -0.2,-1.2 0.3,-1.6 1.4,-1.1 3.2,-1.6 4.8,-2.3 1.2,-0.6 2.4,-1.2 3.6,-1.7 3.1,-1.5 6.3,-3.6 9.6,-5 0,0 -2.7,0.1 -4.1,0.2 -1.7,0.1 -3.4,0.1 -5.1,0.2 0,0 -0.5,0.1 -0.8,0.1 0,0 -0.1,0 -0.1,0 -2.4,0.1 -4.7,0.2 -7.1,0.3 0,0 -1.9,0.1 -2.9,0.1 -0.5,0.1 -1,0.1 -1.4,0.1 0,0 -1.5,0 -2.2,0 -2.3,0.1 -4.6,0.3 -6.9,0.3 0,0.1 -0.5,0.3 -0.7,0.3 -1.7,0.1 -3.4,0.1 -5.1,0.2 -3.4,0.1 -6.8,0.6 -10.2,0.1 0,0 -0.6,0 -0.9,0 0,0 -2.7,0.1 -4,0.2 -3.8,0.3 -7.6,0.8 -11.4,1 0,0 0.2,0.6 0,0.9 -0.1,0.2 -0.5,0.3 -0.7,0.1 -0.3,-0.1 -0.3,-0.6 -0.4,-0.9 -0.3,-0.7 -0.6,-1.4 0.3,-1.9 0.8,-0.5 2.1,-0.3 3,-0.3 3.8,-0.4 7.6,-0.8 11.4,-1 0.1,0 0.3,-0.1 0.4,-0.1 0.3,0 0.5,0 0.7,0 0,0 0.1,0 0.2,0 1.9,-0.1 3.9,-0.2 5.9,-0.2 0.5,-0.1 1.1,-0.1 1.7,-0.1 0,0 0.4,0 0.5,0 0.8,-0.1 1.5,-0.1 2.2,-0.1 1.3,0 2.7,0 3.9,0 2.5,0 5.4,-0.2 7.9,-0.4 0,0 0.5,-0.2 0.8,-0.2 0.8,0 1.6,0.1 2.3,0.1 0.1,0 3.4,-0.1 5.2,-0.2 2.4,-0.1 5,-0.9 7.4,-0.3 0,0 0.1,0 0.2,0 2,-0.1 3.9,-0.2 5.9,-0.3 2,-0.1 4.1,-0.2 6.1,-0.3 0.6,-0.1 1.7,-0.4 2.3,0.1 0,0 0.4,-0.1 0.6,-0.1 0.3,-0.1 0.7,-0.1 1,-0.2 0.1,0 0.6,-0.2 0.9,-0.3 0.7,-0.2 1,-0.1 1.5,0.3"
       id="path4"
       inkscape:connector-curvature="0"
       style="stroke:#000000" />
    <path
       d="m 314.6,223.4 c 0,0 2.7,0.1 4.1,0.1 1.3,0.1 2.6,0.2 3.9,0.3 3.8,0.2 7.4,1.1 11.2,1.6 0,0 1.6,0.3 2.4,0.4 0.7,0.1 2.2,0.3 3.1,0.6 1.2,0.3 2.6,0.9 3.8,1 0,0 0.6,0 0.9,0 0.6,0 1.2,0.3 1.3,0.9 0.1,1.3 -1.3,1.2 -2.1,1.1 0,0 -0.3,0.1 -0.4,0.2 -0.7,0.2 -1.4,0.4 -2,0.7 -1.3,0.5 -2.7,1.3 -3.8,1.9 0,0 0.2,-0.1 0.3,-0.1 1.2,-0.6 2.3,-1.7 3.6,-1.5 0.9,0.1 1.1,1.4 0.3,1.8 -0.1,0 -0.1,0.1 -0.2,0.1 -2.4,1.3 -4.9,2.5 -7.3,3.8 -2,1 -3.9,2.1 -5.9,3.2 0,0 -2.4,1.4 -3.5,2.2 -1.1,0.6 -2.3,1.2 -3.4,1.8 0,0.1 -0.1,0.2 -0.2,0.3 -0.5,0.3 -1.2,1 -1.9,0.8 -1.2,-0.5 -0.5,-1.7 0.1,-2.2 0.1,0 0.2,-0.4 0.4,-0.6 0.3,-0.4 0.6,-0.8 1,-1.2 1.5,-1.4 3.1,-2.7 4.8,-3.9 1.9,-1.4 4.3,-2.7 6.3,-3.7 3.3,-1.8 5.1,-3 8,-4.2 0,0 -0.1,-0.1 -0.2,-0.1 0,0 -2.4,-0.6 -3.6,-0.8 0,0 -0.9,-0.1 -1.3,-0.2 -1.9,-0.2 -3.3,-0.4 -5,-0.4 0,0 -0.8,0 -1.2,0 -1.6,0.2 -3.2,0.7 -4.8,0.4 -0.9,-0.2 -1.1,-1.8 0,-1.8 0,0 -1.4,-0.2 -2.1,-0.3 -2.3,-0.1 -5.7,-0.4 -8.1,-0.2 0,0 -0.4,0.1 -0.6,0.1 -0.1,0 -0.2,0 -0.3,-0.1 -0.1,0 -1.9,0.1 -2.8,0.1 -0.1,0 -0.2,0 -0.3,0 -0.5,0 -4,0.6 -3.5,-1.1 0.2,-0.7 1,-0.7 1.5,-0.8 1.4,0 2.8,-0.1 4.2,-0.1 3.8,-0.2 7.6,0 11.4,0.3"
       id="path6"
       inkscape:connector-curvature="0"
       style="stroke:#000000" />
    <path
       d="m 321.8,247.6 c 0,0 0.3,0 0.4,0.1 0.3,0.1 0.6,0.3 0.9,0.4 0.9,0.7 1.7,1.3 2.3,2.2 0,0.1 0.4,0.1 0.5,0.2 0.2,0.1 0.4,0.2 0.6,0.3 0.6,0.4 1.1,1.1 1.3,1.9 0.4,1.8 -0.3,3.7 -1.4,5.2 0,0 0,0.2 0,0.2 0,0.3 0,0.6 0,0.9 0,0.3 -0.1,0.7 -0.1,1.1 -0.2,1.3 -0.9,2.8 -1.7,3.9 -1.8,2.4 -4.4,4 -7.1,5.4 -1.1,0.5 -2.4,1.4 -3.7,1.9 0,0 -0.4,0.3 -0.6,0.4 -0.4,0.2 -1.1,0.5 -1.3,0.7 -0.9,0.4 -2.4,1.3 -3.4,0.6 0,0 -0.3,-0.1 -0.4,-0.3 -0.1,-0.3 -0.2,-0.6 0,-0.9 0.2,-0.7 2.1,-1.1 2.4,-1.2 0,0 0.9,-0.5 1.3,-0.8 0.5,-0.2 1,-0.6 1.4,-0.8 1.3,-0.8 2.4,-1.9 3.5,-2.8 0,0 -0.4,0 -0.5,-0.1 -0.4,-0.2 -0.6,-0.4 -0.6,-1 0,-0.8 1.8,-1.8 2.2,-2.1 0,0 0.5,-0.3 0.7,-0.6 1,-1.1 1.3,-1.4 2.4,-2.7 0.4,-0.5 0.7,-1.1 1.1,-1.6 1.3,-1.8 3.2,-5.9 0.9,-7.7 0,0 -0.1,0.2 -0.2,0.3 -0.2,0.1 -0.5,0.1 -0.7,0 -0.2,-0.2 -0.1,-0.5 -0.2,-0.7 -0.3,-0.5 -1.1,-0.6 -1.1,-1.3 -0.2,-1.6 1.6,-1 2.3,-0.6 m 1.1,12.3 c 0,0 -0.4,0.5 -0.5,0.8 -0.3,0.5 -1.1,1.4 -1.1,1.5 -0.7,0.9 -1.4,1.8 -2.2,2.7 0,0 0.3,-0.2 0.5,-0.4 0.3,-0.2 0.8,-0.5 1.1,-0.9 1.1,-1.1 1.8,-2.4 2.3,-3.9 m 1.7,-5.5 c 0,0 0,-0.2 0,-0.2 m 0.1,-0.6 c 0,0 0,-0.2 0,-0.3"
       id="path8"
       inkscape:connector-curvature="0"
       style="stroke:#000000" />
    <path
       d="m 297.2,306.3 c 0,0 0,0 0.1,0 0,0.1 0,0.1 0,0.1 0,0 0,-0.1 0,-0.1 m 0,0 c 0,0 0.2,0.2 0.4,0.2 0.3,0.2 0.5,0.4 0.7,0.6 0,0 0.4,0.3 0.6,0.5 0.5,0.3 0.9,0.7 1.3,1.1 1.3,1 2.4,2.2 3.6,3.3 0.1,0 0.6,0.4 0.8,0.6 0.5,0.4 1.1,0.9 1.7,1.3 2.6,1.5 5.2,2.9 7,5.4 0,0 0.3,-0.8 0.4,-1.2 0,0 0,-0.3 0,-0.4 0.1,-0.4 0.3,-0.8 0.4,-1.2 0,0 0.1,-0.6 0.1,-0.9 0.1,-0.5 0.2,-1 0.2,-1.5 0,0 -0.2,-0.9 -0.2,-1.4 -0.2,-0.7 -0.4,-1.3 -0.5,-1.9 0,0 -1,-1.9 -1.4,-2.8 0,0 -0.1,-0.1 -0.1,-0.1 -1.2,-2.2 -2.4,-4.4 -3.6,-6.6 -1.1,-2 -2.3,-3.7 -3.3,-5.8 0,0 -0.3,0.1 -0.4,0 -0.3,-0.2 -0.6,-0.3 -0.7,-0.7 -0.5,-0.8 -0.6,-1.8 -0.9,-2.7 -0.5,-1.5 -1,-3.2 -1.2,-4.7 0,-0.1 -0.2,-0.4 -0.2,-0.6 -0.1,-0.4 -0.3,-0.8 -0.4,-1.2 -0.2,-1.7 -0.1,-3.1 0.3,-4.7 0,0 0,-0.6 0,-0.9 0.1,-0.6 0,-1.3 0,-1.8 0,-0.8 -0.7,-2.7 -0.2,-3.6 0.2,-0.5 0.9,-0.7 1.4,-0.4 0.4,0.3 0.5,1 0.6,1.5 0,0.1 0.4,-0.8 0.5,-1.3 0.1,-0.2 0.2,-0.4 0.4,-0.6 0.5,-1 1.9,-1.5 2.9,-1.1 1.4,0.6 1.9,3.1 2.2,4.2 0.2,0.8 0.9,1.7 0.5,2.4 -0.3,0.5 -0.9,0.2 -1,-0.2 -0.2,-1 -0.6,-2.7 -1.1,-3.7 -0.2,-0.3 -0.5,-0.9 -1,-1 -1,-0.1 -1.3,1.3 -1.5,2 -0.7,1.6 -1.2,3.2 -1.7,4.9 0,0 -0.1,1.3 -0.1,2 0,0 0,0.2 0,0.2 0.1,0.6 0.2,1.1 0.3,1.7 0.1,0.7 0.2,1.4 0.4,2.1 0.2,0.9 0.6,1.5 1,2.3 0.2,0.3 0.3,0.9 0,1.1 0,0.1 0,0.1 0,0.1 0,0.1 0.9,2.2 1.4,3.3 0,0 0.3,-0.3 0.5,-0.4 0.3,-0.1 0.8,0.1 1,0.3 0.7,0.6 1.5,2.1 1.9,2.8 2,3.8 3.6,7.6 4.9,11.7 0,0 0.5,1.1 0.8,1.7 0,0 0.4,0.4 0.5,0.7 0.2,0.4 0.2,1 0.2,1.6 0.1,0 0.5,1.2 0.7,1.8 0.2,0.8 -0.1,1.4 -0.9,1.6 0,0 0,0.3 -0.1,0.4 0,0.3 -0.1,0.6 -0.2,0.9 -0.1,0.4 -0.2,0.9 -0.5,1.3 0,0 -0.2,0.7 -0.3,1 -0.4,1.7 -0.5,1.9 -0.7,3.3 0,0.1 0,0.3 -0.1,0.5 -0.1,0.3 -0.2,0.6 -0.6,0.7 -0.7,0.2 -1.2,-0.4 -1.3,-1 0,0 -0.1,-0.5 -0.2,-0.8 -0.1,-0.6 -0.3,-1.1 -0.6,-1.6 -0.7,-1.1 -1.6,-2 -2.7,-2.7 -0.6,-0.4 -1.2,-1 -1.9,-1.2 0,0 -0.4,0 -0.5,0 -0.3,-0.1 -0.6,-0.3 -0.8,-0.5 -0.9,-0.5 -1.6,-1.2 -2.4,-1.8 0,0 -0.3,-0.3 -0.5,-0.4 -0.3,-0.3 -0.6,-0.6 -0.9,-0.8 0,-0.1 -0.4,-0.4 -0.6,-0.5 -0.8,-0.8 -1.7,-1.5 -2.5,-2.2 -0.1,0 -0.1,-0.1 -0.2,-0.2 -0.7,-0.5 -1.4,-1 -2,-1.5 -0.3,-0.3 -0.8,-0.7 -0.8,-1.1 0,-0.1 -0.1,-0.5 0,-0.7 0.3,-0.5 0.5,-0.7 1.1,-0.7 0,0 0,0 0,0"
       id="path10"
       inkscape:connector-curvature="0"
       style="stroke:#000000" />
    <path
       d="m 296.9,306.8 c 0,0 0.4,0.1 0.5,0.2 0.3,0.4 0.5,0.7 1,0.9 0.9,0.4 2.3,0.4 2.9,1.4 0.4,0.5 -0.2,1 -0.7,0.7 0,-0.1 -0.5,-0.4 -0.7,-0.5 -0.4,-0.3 -1,-0.4 -1.5,-0.5 0,0 0,0.5 0.1,0.7 0,0 0.1,0.2 0.1,0.3 0,0.3 0,0.6 0,0.9 0.2,1.3 0.5,2.7 0.7,4 0.2,1.3 0.3,2.7 0.4,4 0,0 0.2,0.7 0.2,1.1 0.2,1 0.2,1.3 -0.5,1.9 0,0 -0.1,0.9 -0.1,1.4 -0.2,1 -0.3,2 -0.5,3 -0.2,1.5 -0.4,3.1 -0.6,4.7 -0.2,1.9 -0.5,3.9 -0.7,5.8 0,0.6 -0.4,1.1 -1,1 0,0 -0.5,0.2 -0.7,0.2 -0.4,-0.1 -0.7,-0.4 -0.8,-0.8 -0.3,-1.1 -0.4,-2.6 -0.8,-3.7 -0.3,-1 -0.8,-1.8 -1.2,-2.6 -1.4,-2.2 -2.7,-4.2 -4.8,-5.8 -1.2,-0.9 -3,-1.6 -4,-3 0,0 0,0.5 0,0.8 -0.1,0.5 -0.2,1.1 -0.3,1.6 -0.1,1.1 -0.4,2.1 -0.7,3.1 -1.1,3.8 -2.5,7.3 -4.1,10.9 -0.4,0.8 -0.8,2.1 -1.5,2.8 -0.6,0.5 -1.6,0.3 -1.8,-0.5 0,0 -0.2,0.6 -0.3,0.9 0,0 0,0.5 -0.1,0.8 -0.2,0.5 -0.7,0.8 -1.3,0.7 -1,-0.3 -0.7,-1.6 -0.5,-2.3 0,0 0,-0.6 0,-0.9 0,-0.1 -0.1,-0.4 -0.2,-0.5 -0.3,-0.5 -1,-1.7 -1.1,-2.3 0,-0.1 -0.4,-0.6 -0.6,-0.8 0,-0.1 0,-0.1 0,-0.1 -0.5,-0.5 -0.9,-0.9 -1.3,-1.4 -0.7,-0.8 -1.3,-1.5 -2.1,-2.1 -3.6,-3.3 -8.1,-5.9 -12.9,-7 0,0 -1.1,-0.2 -1.7,-0.3 -0.5,0 -0.9,0.1 -1.4,0.1 0,0 -0.4,0 -0.7,0 -0.2,-0.1 -0.5,-0.3 -0.6,-0.6 0,0 -1.5,0.3 -2.3,0.5 0,0 -0.1,0 -0.2,0 0,0 -0.5,0.2 -0.7,0.3 -0.4,0.2 -0.9,0.3 -1.3,0.3 0,0 -0.9,0.2 -1.4,0.3 -0.7,0.2 -1.8,1.2 -2.6,0.5 -1.2,-1.1 1.1,-2.1 1.8,-2.3 0.2,-0.1 0.4,-0.1 0.6,-0.2 0,0 0.2,-0.1 0.3,-0.2 0.1,0 0.1,0 0.1,0 0,0 1.1,-0.3 1.6,-0.5 0.8,-0.2 1.5,-0.5 2.3,-0.7 1.2,-0.4 2.6,-0.6 3.9,-1 1.1,-0.3 2.9,-1.3 3.4,0.3 0.1,0 0.2,0 0.3,0 0.5,0 1.2,-0.1 1.8,0 1.7,0.1 4.2,0 5.9,0.7 0.9,0.4 0.7,1.5 -0.1,1.9 0,0 0.6,0.1 0.9,0.2 0.6,0.1 1.4,0.4 1.7,1 0.6,1.3 -1.1,1.6 -1.9,1.6 0,0.1 1,0.7 1.5,1 0.5,0.4 1.1,0.9 1.6,1.3 2,1.5 4.1,3.6 5.5,5.7 0,0 0.3,0.1 0.4,0.3 0.3,0.3 0.8,0.7 0.9,1.1 0,0 0.4,-1.2 0.6,-1.8 1.1,-3.2 1.2,-3.3 1.9,-6.3 0.1,-0.4 0.3,-0.8 0.6,-0.9 1.5,-0.9 1.7,1.3 1.6,2.2 -0.1,0.8 -0.2,1.6 -0.2,2.4 0,0.1 0.5,-1.5 0.8,-2.3 0.3,-1 0.6,-2.1 0.9,-3.1 0.8,-2.8 1,-5.5 1.3,-8.4 0,0 -0.4,-0.1 -0.6,-0.3 -0.4,-0.2 -0.8,-0.8 -0.5,-1.3 0.6,-1 2.1,-0.5 2.7,0.2 0,0 0.8,0.3 1.2,0.5 0.9,0.5 1.7,0.9 2.5,1.4 1.4,0.8 3.5,1.9 4.8,3.2 0.2,0.2 0.8,0.6 0.9,1 0.1,0.2 0.1,0.5 0,0.6 -0.6,1.3 -2,0.5 -3,0.2 0,0 0.6,0.6 0.9,0.9 0.4,0.4 0.7,0.8 1.1,1.2 1.1,1.6 2.2,3.3 3.1,5 0,0.1 0,-0.2 0,-0.3 0.1,-0.6 0.1,-1.2 0.2,-1.8 0,-0.1 0,-0.2 0,-0.3 0,-0.6 -0.6,-4.5 1.3,-4.4 0,0 0.1,-0.9 0.2,-1.3 0.1,-0.6 0.1,-1.3 0.1,-1.9 0.1,-2 -0.3,-4.7 -0.4,-6.5 0,0 -0.3,-2.2 -0.5,-3.3 -0.1,-1 -0.9,-2.8 -0.6,-4 0.3,-1.3 1.4,-0.8 2,-0.1 m -13.5,12.7 c 0,0 0.3,-0.2 0.5,-0.2 0,0 -0.3,-0.2 -0.5,-0.3"
       id="path12"
       inkscape:connector-curvature="0"
       style="stroke:#000000" />
    <path
       d="m 191.8,305.1 c 0,0 0.3,0.1 0.4,0.1 0.2,0.1 0.4,0.3 0.5,0.5 0.4,0.7 0.9,1.4 1.3,2.1 1.2,1.9 2.7,4.1 4.2,5.9 2.8,3.2 5.8,6.3 9.4,8.6 3.2,2 6.8,3.1 10.4,4.1 0.1,0.1 0,-0.1 0,-0.2 0.2,-0.2 0.3,-0.5 0.6,-0.4 0.8,0 1.4,1 2.1,1.4 0,0 0.5,0.1 0.8,0.2 0.6,0.2 1.6,0.5 1.5,1.3 -0.1,1.2 -1.3,0.9 -2.1,0.7 0,0 -2.1,-0.6 -3.1,-0.9 -2,-0.6 -4.2,-1.2 -6.1,-2 -6,-2.6 -10.8,-6.6 -15.1,-11.6 -1.9,-2.3 -3.9,-5.1 -5.4,-7.7 -0.2,-0.3 -0.4,-0.7 -0.4,-1.1 0.1,-1 1.1,-1.2 1.7,-0.6 m -0.6,1.2 c 0,0 0,0.1 0,0.1 0,-0.1 0,-0.1 0,-0.1"
       id="path14"
       inkscape:connector-curvature="0"
       style="stroke:#000000" />
    <path
       d="m 194.6,304.4 c 0,0 0.2,0 0.3,0 0.2,0 0.5,0.1 0.7,0.2 0.5,0.3 0.7,0.8 1.1,1.3 0,0 0.1,0.2 0.1,0.3 0,0.2 -0.1,0.5 -0.3,0.5 -0.4,0.2 -0.8,-0.4 -1,-0.6 0,0 1,1.5 1.5,2.3 0.4,0.5 0.7,1 1,1.5 1.3,2 3.7,3.7 5.4,5.2 2.3,2 4.9,4.1 7.7,5.7 3,1.6 6.3,2.8 9.6,3.6 2.9,0.8 5.8,1.4 8.8,1.7 2,0.2 5.9,0.1 7.7,0.5 1.7,0.3 3.4,0.7 5.1,1 0.4,0.1 0.7,0.5 0.6,0.9 -0.1,0.3 -0.4,0.4 -0.7,0.4 -0.8,0 -1.5,0.1 -2.3,0.1 -0.8,0 -1.9,-0.4 -2.8,-0.4 -1.9,-0.2 -4.8,-0.3 -6.6,-0.4 -3,-0.2 -6.1,-0.8 -9,-1.5 -4.3,-1.2 -8.5,-2.4 -12.2,-4.7 -2.9,-1.8 -5.4,-3.9 -7.9,-6.1 -1.7,-1.3 -3.6,-3 -4.9,-4.8 -0.8,-1.1 -2,-3.2 -2.7,-4.1 -1,-1.5 0,-3.1 1.7,-2.4"
       id="path16"
       inkscape:connector-curvature="0"
       style="stroke:#000000" />
    <path
       d="m 255.4,321 c 0,0 1.5,-0.3 2,0.2 0.5,0.4 0.4,1.1 0,1.6 -0.4,0.4 -1.3,0.6 -1.9,0.7 -2.1,0.6 -4.2,1.2 -6.3,1.8 -2.7,0.8 -5.3,1.8 -8,2.4 -3.4,0.7 -6.9,0.7 -10.4,0.6 -1,0 -2,0 -3.1,-0.2 0,0 0,0.2 0,0.4 -0.1,0.2 -0.4,0.3 -0.6,0.2 -0.8,-0.2 -2.3,-1.4 -1.5,-2.3 0.5,-0.5 1.4,-0.3 2,-0.3 1.7,0.2 3.2,0.3 4.8,0.3 2.7,0 5.2,-0.1 7.8,-0.6 4.9,-0.9 9.7,-2.8 14.5,-4.2 0.1,0 0.1,-0.2 0.2,-0.3 0.1,-0.2 0.2,-0.3 0.5,-0.3 0.8,-0.2 1.4,-0.2 2,0.2"
       id="path18"
       inkscape:connector-curvature="0"
       style="stroke:#000000" />
    <path
       d="m 241.7,241.4 c 0,0 1,0 1.4,0.1 1,0.1 2,0.2 2.9,0.6 0,0 0.5,0.2 0.8,0.3 0.3,0.1 0.7,0.2 1,0.4 1,0.4 1.9,1.2 2.4,2.1 0.1,0 0.4,0.4 0.6,0.5 0.2,0.4 0.6,0.8 0.9,1.2 0.9,1.6 1.9,3.4 1.7,5.3 -0.3,3 -3.6,5.1 -6.1,6.2 0,0 -0.5,0.4 -0.8,0.6 -0.7,0.4 -0.9,0.5 -1.7,0.8 -1.6,0.6 -3.6,0.6 -5.3,0.5 0,0 -0.5,0 -0.8,0 -0.5,0.1 -1,0 -1.5,0 -1.6,-0.2 -4.1,-0.7 -5.1,-2.2 0,0 -0.1,-0.1 -0.2,-0.2 -0.2,-0.1 -0.4,-0.4 -0.5,-0.5 -0.3,-0.4 -0.6,-1.1 -0.7,-1.7 -0.4,-1.7 -0.2,-3.5 0.5,-5.1 0,0 0.2,-0.6 0.3,-0.8 0.3,-0.6 0.5,-0.9 0.9,-1.4 0,0 0.3,-0.8 0.5,-1.2 0.7,-1.2 1.3,-2.7 2.4,-3.6 0.9,-0.8 2,-1 3,-1.3 2,-0.6 3.9,-0.7 5.9,-0.4 m -0.8,2.4 c 0,0 -0.4,0 -0.6,0 -0.4,0 -0.8,0.1 -1.1,0.2 -1.2,0.5 -2.3,1 -3.3,1.6 0,0.1 -0.7,0.5 -1,0.8 -1,1 -2,1.9 -3,2.9 -0.1,0.1 -0.3,0.3 -0.4,0.3 -0.1,0 -0.3,0.5 -0.4,0.8 -0.2,0.5 -0.3,1 -0.4,1.5 -0.2,1 -0.1,2.1 0,3.2 0.1,0 0.3,0.3 0.4,0.5 0.2,0.2 0.5,0.4 0.7,0.6 0.9,0.6 1.8,1 2.8,1.3 0.1,0 0.4,0 0.5,0 0.4,0 0.7,0.1 1.1,0.1 0.6,0 1.3,-0.1 2,-0.2 2.3,-0.2 4.4,-0.9 6.6,-1.9 0,0 0.2,-0.3 0.3,-0.4 0.2,-0.2 0.4,-0.6 0.5,-0.8 0.5,-0.7 0.8,-1.7 1,-2.5 0.6,-2.4 -0.2,-6.1 -2.6,-7.2 0,0 -0.1,0.3 -0.2,0.5 -0.1,0.2 -0.2,0.3 -0.3,0.5 -0.4,0.4 -1.4,1 -1.9,1.1 -0.7,0.1 -0.8,-0.6 -0.4,-1 0,0 0.5,-0.3 0.7,-0.5 0.3,-0.3 0.6,-0.8 0.2,-1.2 0,0 -0.7,-0.1 -1,-0.2 -0.6,-0.1 -1.1,0 -1.7,0.1"
       id="path20"
       inkscape:connector-curvature="0"
       style="stroke:#000000" />
    <path
       d="m 187.1,264.3 c 0,0 0.7,0 1.1,0 0.5,0.1 0.9,0.4 1.1,0.9 0,0.1 0.6,-0.1 1,-0.1 0.3,0 1.9,-0.3 2.4,-0.1 0.7,0.1 1.1,1 0.6,1.5 -0.2,0.2 -0.6,0.4 -0.8,0.4 -6.2,1.2 -5.8,1.1 -12.7,2.1 -2.2,0.4 -4.4,0.5 -6.6,0.9 -6.5,1.3 -13,3.2 -19.2,5.5 0,0 -0.9,0.4 -1.3,0.7 -1.1,0.6 -2.2,1.2 -3.3,1.9 -2.7,1.5 -5.8,3.3 -8.4,5.2 -0.6,0.5 -1.6,1.6 -2.6,1.9 -0.7,0.3 -1.5,-0.4 -1.3,-1.1 0,-0.4 0.4,-0.9 0.6,-1.2 0,0 -1.9,0.9 -2.9,1.4 -0.3,0.1 -1,0.7 -1.1,0.6 0,0 -0.6,0.2 -0.8,0.1 -0.5,-0.2 -0.7,-0.8 -0.5,-1.3 0.3,-0.4 0.9,-0.7 1.3,-0.9 1,-0.5 2.1,-1 3.2,-1.6 2.2,-1.1 4.4,-2.2 6.7,-3.4 0,0 0.6,-0.4 1,-0.6 1,-0.6 2,-1.3 3,-1.9 1.6,-1 3.3,-1.7 5,-2.6 5.2,-2.4 11,-4.1 16.6,-5.1 0.1,0 1,-0.3 1.5,-0.4 2.5,-0.7 2.9,-0.8 5.5,-1.3 2.2,-0.5 4.7,-0.8 6.7,-1.2 1.7,-0.3 4.1,-0.7 5.9,-0.1 m -55.5,19.4 c 0,0 0,0 0,0 0,0 0,0 0,0"
       id="path22"
       inkscape:connector-curvature="0"
       style="stroke:#000000" />
    <path
       d="m 132.1,284.6 c 0,0 0.3,0 0.4,0 0.2,0 0.5,0.2 0.7,0.3 0.5,0.6 0.5,1.2 1.2,1.7 0,0 0.4,0.4 0.4,0.7 -0.1,0.2 -0.4,0.3 -0.7,0.3 -0.5,-0.1 -2,-1.7 -1.6,-1.2 0,0 0.3,0.3 0.4,0.5 0.4,0.2 1.1,0.7 1.1,0.8 0.6,0.4 1.2,0.8 1.7,1.3 2.2,1.7 4,3.2 6.3,4.7 7,4.5 14.1,8.1 22,10.3 5.5,1.6 11,2.9 16.6,3.9 0.6,0.2 3.6,0.5 2.8,2 -0.1,0.3 -0.5,0.6 -0.9,0.5 -0.1,-0.1 -0.4,0 -0.4,-0.1 0,-0.2 0.6,-0.1 0.6,0.1 0,0.1 -0.1,0 -0.2,0 -0.3,-0.1 -0.6,-0.1 -0.9,-0.2 -2,-0.4 -3.8,-0.8 -5.8,-1.2 -3.2,-0.6 -7.6,-1.8 -9.5,-2.3 -9.7,-2.4 -18.3,-6.7 -26.5,-12.2 -2.1,-1.4 -3.9,-2.9 -5.8,-4.5 -0.9,-0.7 -2.1,-1.4 -2.9,-2.3 -1.1,-1.4 0.1,-3.7 1.9,-2.9"
       id="path24"
       inkscape:connector-curvature="0"
       style="stroke:#000000" />
    <path
       d="m 135.4,290.1 c 0,0 0.3,0 0.5,0.1 0.3,0.1 0.5,0.3 0.8,0.4 1.8,1 3.5,2 5.3,3 1.7,1.1 3.4,2.1 5.1,3.1 8.1,4.4 16.4,7.7 25.5,9.6 5.8,1.2 11.5,2.1 17.4,2.2 0.6,0 3.6,-0.2 3.1,1.4 -0.1,0.3 -0.5,0.5 -0.8,0.5 -1.1,0 -2.2,0.1 -3.4,0.1 -3.2,0.1 -6.6,-0.3 -9.8,-0.9 -7.8,-1.4 -15.6,-3.2 -23,-6.2 -6.9,-3 -13.2,-7 -19.7,-10.7 0,0 0.4,0.7 0.7,1 1,1.2 1.8,2 2.9,3.1 0.1,0 0.3,0.5 0.2,0.7 -0.2,0.2 -0.5,0.2 -0.8,0.1 -0.7,-0.4 -1.2,-1.1 -1.8,-1.7 -0.9,-0.8 -1.9,-1.8 -2.6,-2.8 -0.6,-0.8 -1.3,-2.9 0.4,-3 0.4,0 0.8,0.2 1.1,0.4"
       id="path26"
       inkscape:connector-curvature="0"
       style="stroke:#000000" />
    <path
       d="m 361,266.2 c 0,0 3.3,0.1 5,0.1 0.9,0 1.8,0.1 2.7,0.1 0.7,0 2.3,0.2 1.9,1.4 -0.2,0.3 -0.6,0.6 -1,0.6 -1.9,-0.1 -3.8,-0.2 -5.7,-0.2 -4.3,-0.2 -8.4,-0.1 -12.7,0 -11.1,0.1 -22.1,2.2 -33,4.3 -4.9,0.9 -10.7,1.9 -15,4.7 0,0 -0.2,0.2 -0.3,0.3 -0.2,0.2 -0.6,0.3 -0.9,0.4 0,0 -0.4,0.3 -0.6,0.3 0,0.1 -0.5,0.1 -0.7,-0.1 0,0 -0.1,0 -0.1,0 0,0 0,-0.1 0,-0.1 0,0 -0.2,-0.2 -0.1,-0.3 0,0 0,0 0,-0.1 0,0 0,-0.3 0.1,-0.4 0.2,-0.3 0.3,-0.5 0.6,-0.8 0.7,-0.6 1.7,-1.2 2.5,-1.6 3.5,-1.5 7.2,-2.6 11,-3.4 13.4,-2.9 26.8,-5.1 40.4,-5.1 0,0 1.2,-0.1 1.8,-0.1 1.3,0 2.6,0 4,0 2.6,0 5.2,0.1 7.9,0.2"
       id="path28"
       inkscape:connector-curvature="0"
       style="stroke:#000000" />
    <path
       d="m 345.1,267.8 c 0,0 6,0 9,0 2.1,0 4.3,0.1 6.3,0.1 5.2,0.1 10.6,0.6 15.7,1 9.3,0.8 18.6,1.6 27.9,2.5 3.5,0.3 7.5,0.7 10.9,1.7 0.3,0.1 0.8,0.2 1,0.5 0.3,0.6 0,1.4 -0.7,1.6 -1.5,0.3 -4.1,-0.8 -4.8,-1 0,0 -1.2,-0.2 -1.8,-0.3 -1.1,-0.2 -2.4,-0.3 -3.5,-0.4 -2.1,-0.3 -4.6,-0.4 -6.5,-0.6 -6.1,-0.6 -12.2,-1.1 -18.3,-1.6 -21.4,-1.7 -43,-3.1 -64.1,1.7 0,0 -0.4,0.1 -0.6,0.2 -0.2,0 -0.6,0 -0.7,-0.1 -0.4,-0.1 -0.6,-0.7 -0.5,-1.1 0.2,-0.6 1.4,-0.8 1.9,-0.9 2.5,-0.6 3.7,-0.9 5.8,-1.2 0,0 0.1,-0.1 0.2,-0.1 1.1,-0.2 2.3,-0.9 3.5,-0.5 0,0 2.9,-0.4 4.4,-0.6 1.7,-0.2 3.5,-0.4 5.2,-0.5 8.4,-0.5 16.7,-0.5 25.1,-0.3"
       id="path30"
       inkscape:connector-curvature="0"
       style="stroke:#000000" />
    <path
       d="m 368,266.3 c 0,0 4.8,0.2 7.2,0.2 4.3,0.2 8.5,0.8 12.8,1.5 12.7,2 25.6,4.2 37.9,7.9 6.9,2 12.1,3.6 19.1,5.7 1.6,0.5 3.4,1.2 4.8,1.7 0.6,0.1 1.4,0.2 1.8,0.7 0.8,1 -0.9,2.4 -1.6,1.4 0,0 -2.9,-1 -4.3,-1.5 -1.6,-0.5 -3.2,-1 -4.8,-1.5 -7.3,-2.2 -11.3,-3.4 -18.4,-5.4 -6,-1.8 -12.3,-3.1 -18.5,-4.2 -10.8,-1.9 -21.4,-4.2 -32.4,-4.6 0,0 0.1,0.3 0.1,0.4 0,0.2 -0.3,0.4 -0.6,0.4 -1.3,0.2 -2.6,-0.3 -3.9,-0.4 -0.5,-0.1 -2.4,-0.1 -2.3,-1.2 0.2,-1.3 2.5,-1.1 3.2,-1.1 5.6,0.2 6.4,0.2 11.1,0.5"
       id="path32"
       inkscape:connector-curvature="0"
       style="stroke:#000000" />
    <path
       d="m 425.8,274.7 c 0,0 0.5,0.1 0.7,0.2 0.5,0.1 1,0.3 1.5,0.5 5.3,1.9 10.6,3.8 15.9,5.7 5,1.8 10.5,4 15.5,6 6.3,2.7 12.8,5.2 19,8.3 6.7,3.3 13,7.4 19.3,11.5 1.9,1.2 4,2.7 5.4,4.4 0.3,0.3 1.7,1.9 1.9,2.3 0.3,0.9 -0.4,1.7 -1.2,1.4 -1.5,-0.4 -2.4,-1.9 -3.6,-2.9 -0.3,-0.2 -0.5,-0.6 -0.1,-1 0,0 -0.3,-0.2 -0.4,-0.3 -0.5,-0.4 -1.1,-0.8 -1.6,-1.2 -0.9,-0.7 -1.8,-1.4 -2.8,-2 -3.6,-2.3 -7.5,-4.8 -11.3,-6.9 -11.2,-6.4 -23.3,-11.2 -35.3,-15.7 -8.3,-3.1 -12.4,-4.6 -21,-7.7 -0.6,-0.3 -1.3,-0.5 -2,-0.7 -0.4,-0.1 -3.1,0 -1.9,-1.1 0,0 0.4,-0.3 0.6,-0.4 0.2,-0.2 0.5,-0.3 0.7,-0.3 0.9,-0.2 1.9,0.2 2.7,0.5"
       id="path34"
       inkscape:connector-curvature="0"
       style="stroke:#000000" />
    <path
       d="m 445.6,281.8 c 0,0 0.6,0.2 0.9,0.4 0.8,0.3 1.6,0.6 2.4,0.9 2.5,0.9 4.9,1.8 7.3,2.7 3.9,1.5 8,3.3 11.8,5 6.9,3 13.7,6.5 19.9,10.8 4.5,3.1 8.5,6.7 12.8,10.2 4.2,3.3 8.3,6.4 12.2,10.1 2.9,2.7 5.7,5.7 7.8,9.1 1.2,1.8 1.8,2.2 1.9,4.1 0,0.3 0.1,0.6 0,0.9 -0.3,0.8 -1.3,0.1 -1.6,-0.4 -1.3,-2.6 -2.8,-5.1 -4.7,-7.2 -5.1,-5.8 -10.7,-10.3 -16.7,-15 -3.6,-2.8 -7,-5.9 -10.7,-8.6 -3.1,-2.3 -6.3,-4.4 -9.7,-6.2 -7.9,-4.5 -16.3,-8 -24.7,-11.4 -2.8,-1.1 -5.6,-2 -8.3,-3.1 0,0 -0.4,0.3 -0.6,0.2 -0.2,-0.1 -0.3,-0.4 -0.3,-0.6 0,0 -0.2,-0.1 -0.3,-0.2 0,0 -0.2,-0.2 -0.3,-0.3 -0.1,-0.2 -0.2,-0.5 -0.2,-0.7 0.1,-0.3 0.4,-0.6 0.7,-0.6 0.8,-0.3 3.3,1.1 3.5,1.1"
       id="path36"
       inkscape:connector-curvature="0"
       style="stroke:#000000" />
    <path
       d="m 497.5,309.3 c 0,0 0.3,0.1 0.5,0.2 0.3,0.1 0.5,0.3 0.8,0.5 0.7,0.6 1.4,1.3 2.2,1.8 3.9,2.7 7.7,5.3 11.4,8.3 1.6,1.3 3.2,2.7 4.6,4.3 2.4,3 4.3,6.6 6.2,9.8 3.1,5.1 6,9.9 8.8,15.1 2,3.9 4.9,8.5 6.3,12.9 0.2,0.6 1,3 1,3.8 0,0.9 -1,1.4 -1.8,0.8 -0.6,-0.7 -0.8,-2.4 -0.9,-3.2 0,0 0,-0.4 -0.1,-0.5 -0.2,-0.5 -0.4,-1 -0.5,-1.6 -0.4,-0.8 -0.8,-1.6 -1.2,-2.4 -3,-5.8 -5.9,-11.6 -9.2,-17.2 -1.2,-2.2 -2.7,-4.3 -4,-6.5 -2.1,-3.6 -4.2,-7.9 -7.3,-11 -5,-5.1 -11.5,-8.4 -16.8,-13 0,0 -0.3,0.2 -0.4,0.2 -0.2,-0.1 -0.4,-0.3 -0.5,-0.4 0,0 0,0 0,0 0,0 0,0 0,0 0,-0.1 -0.1,-0.5 -0.2,-0.7 -0.1,-0.3 0,-0.8 0.2,-1 0.7,-0.6 1.6,0.1 2.1,0.5"
       id="path38"
       inkscape:connector-curvature="0"
       style="stroke:#000000" />
    <path
       d="m 515.5,328.9 c 0,0 0.3,0.1 0.4,0.1 0.2,0 0.5,0.2 0.7,0.3 0.7,0.5 1.4,1 2.1,1.5 1.7,1.2 3.4,2.2 4.6,3.8 3.1,3.8 5.2,8.2 7.3,12.5 1.1,2.4 2.3,4.9 2.8,7.5 1.4,6.5 -0.7,13.6 -2.6,19.7 -0.4,1.2 -1,2.5 -1.4,3.5 -0.2,0.7 -0.4,1.6 -0.9,2.2 -1.5,1.5 -2.3,-1.3 -2.1,-2.3 0.1,-0.6 0.7,-0.7 1,-0.1 0,0 0.7,-1.9 1.1,-2.9 0.3,-0.8 0.6,-1.7 0.9,-2.5 1.1,-3.7 2.1,-7.6 2.3,-11.4 0.1,-1.9 0.2,-3.8 -0.2,-5.6 -0.7,-3.7 -2.6,-7.1 -4.2,-10.4 -1.5,-3.1 -3.3,-6.6 -5.7,-9.2 -1.3,-1.4 -2.9,-2.4 -4.5,-3.5 0,0 0.2,0.8 0.3,1.2 0.2,1 0.9,2 1,3.1 0.1,0.3 -0.3,0.7 -0.6,0.6 -0.8,-0.3 -0.8,-1.3 -1.1,-2 -0.5,-1 -0.5,-2 -1,-2.9 -0.3,-0.5 -1.2,-1.4 -1.2,-2.2 0.1,-1.2 1.3,-0.9 2,-0.6"
       id="path40"
       inkscape:connector-curvature="0"
       style="stroke:#000000" />
    <path
       d="m 529.4,353.8 c 0,0 0.2,0 0.4,0 0.2,0.1 0.4,0.3 0.5,0.5 0,0 0,0.1 0,0.1 0.1,0 0.2,0.3 0.3,0.4 0.1,0.2 0.2,0.4 0.3,0.6 0,0.1 0.1,0.2 0.1,0.3 0,0 0.2,0.4 0.3,0.6 0.2,0.4 0.3,0.9 0.5,1.4 0.8,2.8 1.4,5.1 1.3,8 -0.1,2.8 -1,5.9 -2.2,8.4 -1.3,3.2 -2.7,6.3 -4.8,9 -2.9,3.8 -6.9,6.5 -10.6,9.3 -1,0.8 -2.5,-0.2 -1.5,-1.3 0,0 0,0 0,0 0,0 0.2,-0.2 0.4,-0.3 0,0 0.1,-0.1 0.1,-0.1 1.5,-1.1 2.9,-2.3 4.4,-3.4 0.8,-0.7 1.6,-1.3 2.4,-2 4.5,-4.2 7.5,-9.8 9.1,-15.7 0.6,-2.1 0.9,-4.3 0.7,-6.4 -0.2,-1.5 -0.6,-2.8 -1.1,-4.4 -0.2,-0.7 -0.4,-1.4 -0.7,-2 -0.3,-0.7 -0.8,-1.3 -0.8,-2 -0.1,-1 1,-1.2 1.6,-0.7 m -16.1,37 c 0,0 -0.1,0.2 -0.2,0.2 -0.1,-0.1 0.2,-0.3 0.2,-0.2 0.1,0 -0.1,0.1 -0.1,0.1"
       id="path42"
       inkscape:connector-curvature="0"
       style="stroke:#000000" />
    <path
       d="m 534.7,369.3 c 0,0 0.3,0.1 0.5,0.2 0.2,0.1 0.3,0.4 0.4,0.6 0.2,0.6 0,1.7 -0.1,2.2 -0.6,2.3 -1.9,3.4 -3.6,5.1 -0.4,0.5 -0.7,1.1 -1.3,1.2 0,0 -0.5,0.9 -0.7,1.4 -0.7,1.2 -1.5,2.9 -2.4,4.3 -0.9,1.6 -1.9,3.2 -3.2,4.6 -2,2.1 -4.6,3.7 -7.1,5.3 -0.6,0.3 -1.2,0.6 -1.7,0.9 -0.7,0.3 -3.6,2.1 -4.4,0.7 -0.2,-0.5 0.2,-1 0.5,-1.2 0.5,-0.3 2.9,-1.3 3.4,-1.5 3.7,-1.7 7.1,-4.5 9.6,-7.8 2.8,-3.7 4.3,-8.3 6.7,-12.3 0.5,-0.8 2.4,-5.1 4.1,-3.2 m -1.4,2.6 c 0,0 -0.5,0.7 -0.8,1.1 -0.4,0.8 -0.9,1.6 -1.3,2.4 0,0.1 0.7,-0.8 1.1,-1.2 0.6,-0.7 0.8,-1.4 1,-2.3"
       id="path44"
       inkscape:connector-curvature="0"
       style="stroke:#000000" />
    <path
       d="m 512.1,396.2 c 0,0 0.2,-0.4 0.1,-0.4 -0.1,0 -0.1,0.3 -0.1,0.4 m 0,0 c 0,0 -0.1,0.2 -0.1,0.2 -0.1,0 0,-0.1 0.1,-0.2 m 0,0 c 0,0 -0.1,0.2 -0.2,0.3 -0.2,0.1 -0.6,0.1 -0.9,0 -0.4,-0.1 -0.6,-0.8 -0.5,-1.2 0.2,-0.4 0.5,-0.9 0.9,-1.2 1.9,-1.8 3.7,-3 5.9,-4.8 0.2,-0.1 1.1,-0.9 1.6,-1.3 0.3,-0.2 0.7,-0.9 0.9,-0.9 0,0.1 0.4,-0.3 0.7,-0.2 0.1,0 0.4,0.2 0.5,0.3 0.5,0.7 -0.5,1.7 -0.8,2.1 -1.6,1.6 -4,3.1 -5.4,4.3 -0.9,0.8 -2.3,2.2 -2.6,2.5 -0.1,0.1 -0.1,0.2 -0.1,0.1 0,0 0,0 0,0 0,0 0.1,-0.1 0.1,-0.1 -0.1,0 -0.1,0 -0.1,0 0,0 0,0.1 0,0.1"
       id="path46"
       inkscape:connector-curvature="0"
       style="stroke:#000000" />
    <path
       d="m 240.3,333.3 c 0,0 0.8,0 1,0.3 0.4,0.8 0.6,1.7 1.2,2.5 2,2.9 1.9,2.9 4.3,5.9 1,1.4 2.3,2.6 3.5,3.9 3,3.3 5.9,6.4 9.2,9.4 5.6,5 11.2,10.1 17.1,14.8 5.9,4.8 12.1,9.4 18.5,13.7 4,2.7 8.4,4.8 12.4,7.5 0,0 0.1,-0.6 0.3,-0.8 0.2,-0.4 0.7,-0.5 1,-0.3 0.6,0.5 -0.2,1.4 0.1,2 0,0 0.1,0 0.1,0.1 0,0 1,0.6 1.5,1 0,0 0.1,0 0.1,0.1 0,0 0.3,0.1 0.4,0.3 0.1,0.2 0.1,0.6 0.1,0.8 -0.1,0.3 -0.5,0.7 -0.8,0.7 -0.2,0 -0.6,-0.1 -0.7,-0.2 -1.8,-1.2 -3.7,-2.6 -5.6,-3.6 -3.4,-1.9 -6.8,-3.7 -10,-5.9 -2.6,-1.8 -6.9,-4.9 -7.9,-5.6 -6.5,-4.6 -12.6,-9.7 -18.6,-15 -6.5,-5.7 -12.9,-11.1 -18.5,-17.5 -2.3,-2.6 -4.5,-4.8 -6.4,-7.6 -0.7,-1 -2.6,-3.1 -2.8,-4.6 0,0 -0.3,-0.3 -0.4,-0.4 0,-0.1 0.2,-0.4 0.2,-0.4 0.1,0 0,-0.6 0.2,-0.8 0.4,-0.5 1,-0.4 1.4,-0.1"
       id="path48"
       inkscape:connector-curvature="0"
       style="stroke:#000000" />
    <path
       d="m 250.9,344.7 c 0,0 0.4,0.4 0.4,0.6 0.1,0.9 0.2,1.2 0.8,2 2.2,2.6 4.4,4.8 6.9,7.1 6.3,5.8 13,10.9 19.5,16.5 6,5.2 12.4,10.1 19.2,14.2 3.7,2.3 7.7,4.3 11.4,6.7 5.1,3.2 10.1,6.9 15.5,9.8 3.6,1.8 7.3,3 11.2,4.4 3.1,1.2 6.4,2.5 9.7,3.4 0,0 0.2,-0.2 0.3,-0.2 0.3,0 0.7,0.3 0.8,0.6 0.3,0.5 -0.1,1.3 -0.6,1.5 -0.4,0.1 -1,0 -1.4,-0.1 -2.9,-0.9 -3.5,-1.1 -7.1,-2.4 -5.7,-2.1 -11.2,-4 -16.5,-7 -4.2,-2.4 -9.2,-6 -12.9,-8.3 -4.5,-2.9 -9.4,-5.2 -13.8,-8.1 -2.2,-1.5 -8.5,-5.9 -11.1,-7.9 -3.1,-2.3 -5.9,-5 -8.7,-7.5 -2.9,-2.5 -5.9,-4.7 -8.8,-7.1 -3.2,-2.7 -6.2,-5.4 -9.3,-8.4 -2.2,-2 -4.5,-4.2 -6,-6.7 -0.6,-0.9 -0.5,-1.6 -0.1,-2.6 0.2,-0.6 0.8,-0.6 1,0.1 m 94,64.3 c 0,0 -0.1,0.3 -0.1,0.2 0,0 0,-0.1 0.1,-0.1"
       id="path50"
       inkscape:connector-curvature="0"
       style="stroke:#000000" />
    <path
       d="m 309,394.6 c 0,0 0.5,0 0.7,0 0.5,0.2 0.9,0.3 1.4,0.5 3.1,1.2 5.7,2.2 8.7,3.7 2.9,1.4 5.8,2.9 8.8,4.2 5.2,2.2 10.6,3.9 15.9,5.7 9,3 18.6,4 28,5.4 12,1.6 24,2.4 35.9,5.1 0.1,0 0,-0.5 0.2,-0.6 0.1,-0.1 0.4,-0.2 0.5,-0.1 1.1,0.1 2.1,0.2 3.2,0.4 0.4,0 0.8,0.2 1.2,0.3 0.9,0.2 3.1,1.4 2.4,2.7 -0.5,0.9 -1.7,0.6 -2.4,0.5 -1.1,-0.3 -2.2,-0.5 -3.2,-0.8 -5.4,-1.2 -10.8,-2.4 -16.2,-3 -5.9,-0.7 -15.7,-1.7 -21.9,-2.5 -9.4,-1.4 -18.8,-2.5 -27.9,-5.4 -6.6,-2.1 -13.3,-4.3 -19.5,-7.2 -5.2,-2.5 -10.5,-5.9 -16.3,-7.1 0,0 0.1,0.4 0.1,0.6 0,0.2 -0.3,0.4 -0.5,0.4 -0.3,-0.1 -0.5,-0.6 -0.5,-0.6 0,0 0,0.1 0,0.1 -0.3,0.1 -0.1,-0.5 -0.2,-0.8 -0.1,-0.3 0,-0.7 0.2,-1 0.7,-1 2.3,-0.4 3.3,-0.1"
       id="path52"
       inkscape:connector-curvature="0"
       style="stroke:#000000" />
    <path
       d="m 371.5,411 c 0,0 0.5,0.1 0.8,0.1 0.6,0.2 1.2,0.4 1.8,0.6 0.9,0.2 1.8,0.5 2.8,0.8 3,0.8 6.2,2.2 9.4,2.8 6.8,1.5 13.9,2.3 20.7,3.3 3.7,0.6 7.2,1.2 10.9,1.5 4.5,0.5 9.1,0.6 13.6,0.8 1.7,0.1 3.4,0.2 5.2,0.2 0.7,0.1 2.2,0 2.1,1.2 -0.1,1.1 -1.6,0.9 -2.3,0.8 -1.7,0 -3.4,-0.1 -5.1,-0.2 -3.2,-0.2 -6.4,-0.3 -9.6,-0.5 -5.4,-0.2 -10.5,-1.1 -15.8,-1.9 -6.5,-1 -13.9,-1.7 -20.4,-3.4 -3.8,-0.9 -7.4,-2.4 -11.2,-3.4 0,0 0.2,0.3 0.2,0.5 -0.1,0.2 -0.5,0.4 -0.7,0.3 -0.9,-0.1 -1.6,-0.7 -2.4,-1 -0.5,-0.3 -1.6,-0.6 -1.7,-1.3 -0.3,-1.3 1.8,-1.3 2.5,-1.1 0.6,0.2 1.3,0.4 1.9,0.6"
       id="path54"
       inkscape:connector-curvature="0"
       style="stroke:#000000" />
    <path
       d="m 418.5,420.1 c 0,0 0.6,0.1 0.8,0.3 0.4,0.3 0.5,0.8 0.6,1.2 0.1,0 0,0.5 -0.2,0.6 -0.4,0.3 -0.6,-0.1 -0.8,-0.4 0,0 -0.3,-0.1 -0.4,-0.2 -0.5,-0.1 -1.5,-0.3 -1.2,-1 0.4,-0.8 1.5,-0.6 2.1,-0.2"
       id="path56"
       inkscape:connector-curvature="0"
       style="stroke:#000000" />
    <path
       d="m 437.1,417.5 c 0,0 0.5,0.4 0.4,0.6 -0.2,0.6 -1.4,1 -2,1.1 -0.2,0 -0.6,0.1 -0.8,-0.1 -0.3,-0.4 0.1,-0.9 0.5,-0.9 0,0 1.3,-0.9 1.9,-0.7 0.3,0.1 0.4,0.3 0.4,0.6"
       id="path58"
       inkscape:connector-curvature="0"
       style="stroke:#000000" />
    <path
       d="m 451.2,418.4 c 0,0 0.2,0 0.3,0.1 0.2,0.2 0.2,0.6 0,0.8 -0.4,0.4 -2.6,0.6 -2.5,-0.4 0,-0.2 0.5,-0.4 0.5,-0.4 0,-0.1 1.8,-0.4 2.2,0.4"
       id="path60"
       inkscape:connector-curvature="0"
       style="stroke:#000000" />
    <path
       d="m 445,418.5 c 0,0 0.6,0.1 0.9,0.1 0.3,0 0.6,0.1 0.9,0.2 0.7,0 2.6,-0.2 3.2,-0.2 0.3,-0.1 0.6,0.1 0.6,0.5 0,0.8 -2.3,0.5 -2.3,0.5 -1.5,0.2 -2.5,0.2 -3.9,0.3 -0.4,0 -1.1,0.3 -1.5,0.1 -0.6,-0.4 -0.4,-1.2 0.2,-1.4 0.4,-0.2 1.4,-0.1 1.8,-0.1 0.6,0 1.2,0.1 1.8,0.2"
       id="path62"
       inkscape:connector-curvature="0"
       style="stroke:#000000" />
    <path
       d="m 523.7,386.2 c 0,0 0.4,0 0.6,0.1 0.5,0.1 0.7,0.7 0.6,1.2 -0.3,0.9 -1.5,1.7 -2.2,2.3 0,0 -1.1,1 -1.6,1.5 -1.5,1.6 -3.1,3.4 -4.8,4.8 0,0 0.6,0.1 0.8,0.3 0.5,0.4 1,0.9 1.2,1.6 0.3,1.2 -0.8,2.1 -1.7,2.6 -2,1.1 -4.5,1.6 -6.6,2.4 -8.2,3.2 -16.3,6 -24.9,7.8 0,0 -2.9,0.9 -4.4,1.4 -2.5,0.9 -5.1,1.5 -7.7,2.2 -3.9,1 -11.2,2.3 -14.5,3 -3.1,0.6 -6.2,1.3 -9.4,1.9 -1.6,0.3 -3.3,0.4 -5,0.5 -0.4,0.1 -1.1,0.2 -1.4,-0.2 -0.7,-0.7 1.1,-1.5 1.5,-1.6 1.3,-0.5 2.9,-0.4 4.1,-0.6 0.7,-0.1 1.5,-0.2 2.2,-0.4 6.1,-1.3 12.2,-2.4 18.2,-3.7 0.1,0 -1.7,0.2 -2.5,0.3 -0.1,0 -0.9,0.2 -1.3,0.3 -1.3,0.3 -2.7,0.6 -4.1,0.9 -2.4,0.5 -4.8,1 -7.2,1.3 -0.8,0.1 -1.5,0.2 -2.2,0.3 -0.7,0.1 -3.3,0.9 -3.3,-0.5 0,-1.3 2.6,-1.7 3.4,-1.8 6.5,-1.1 12.9,-2.2 19.4,-3.1 0.1,0 2.9,-0.7 4.3,-1.1 4.8,-1.3 9.3,-2.6 14.1,-3.9 1.6,-0.4 3.3,-0.9 5,-1.3 0.6,-0.2 2.1,-1.2 2.6,-0.2 0.1,0 1.1,-0.6 1.6,-0.9 1.1,-0.6 2.1,-1.1 3.2,-1.6 3.8,-1.8 5.5,-2.5 9.8,-4.3 0.1,0 0.4,-0.3 0.6,-0.5 0.1,-0.1 2.3,-1.9 3.4,-2.9 2.3,-2.2 4.4,-4.7 6.7,-6.9 0.8,-0.7 1.4,-1.6 2.5,-0.9 m -18.1,14.6 c 0,0 -0.2,0 -0.2,0.1 -1,0.3 -1.9,0.7 -2.8,1.1 -0.6,0.2 -1.2,0.5 -1.8,0.8 0,0 0.5,-0.2 0.8,-0.3 0.5,-0.2 1,-0.3 1.6,-0.5 0.8,-0.4 1.6,-0.8 2.4,-1.2 m 9.2,-3.1 c 0,0 -0.5,0.1 -0.7,0.2 -0.6,0.2 -1.3,0.5 -2,0.7 0,0 -1.2,1 -1.9,1.5 0,0 0.5,-0.1 0.7,-0.2 1.5,-0.5 3,-0.9 4.4,-1.8 0,0 -0.2,-0.2 -0.3,-0.3 -0.2,-0.1 -0.4,0 -0.6,0 -0.8,0.2 -1.5,0.5 -2.2,0.8"
       id="path64"
       inkscape:connector-curvature="0"
       style="stroke:#000000" />
    <path
       d="m 391.3,301.2 c 0,0 2,0 3,0 3.2,0.2 2.7,0.2 6.5,0.7 2.5,0.4 4.8,1.3 7.2,1.8 2.2,0.5 5.4,0.8 7.4,2.1 0,0 0.7,0.3 1,0.4 0.1,0.1 0.9,0.3 1.3,0.4 1.5,0.5 3,1 4.5,1.5 2.4,0.8 4.9,1.3 7.3,2.2 0,0 0.4,0.1 0.6,0.2 0.7,0.2 1.1,0.4 1.8,0.8 0.1,0 1.3,0.5 1.9,0.8 0,0 0.7,0.3 1.1,0.5 0.8,0.3 1.5,0.6 2.3,0.9 1.9,0.8 4.2,1.5 6.2,2.2 3.1,1.2 6,2.9 8.8,4.6 0.9,0.6 2,1.1 2.9,1.7 1.4,0.9 2.1,1.7 3.4,2.9 1.8,1.8 4.1,2.8 5.8,4.7 0.5,0.6 1.7,2.4 0.1,2.5 -0.8,0.1 -1.6,-0.5 -2.3,-0.7 0,0 -0.1,0.3 -0.2,0.4 -0.2,0.1 -0.5,0.1 -0.7,0 -0.7,-0.7 -0.2,-1.7 0.7,-1.7 0,0 -0.4,-0.4 -0.6,-0.6 -0.3,-0.2 -0.6,-0.5 -0.9,-0.7 -1.3,-0.9 -2.1,-1.3 -3.2,-2.4 -3.9,-3.5 -8.6,-6.2 -13.4,-8.3 0,0 0.1,0.4 0.1,0.6 -0.1,0.4 -0.6,0.8 -1.1,0.8 -0.2,0 -0.5,-0.1 -0.7,-0.2 -1.7,-0.7 -3.5,-1.5 -5.2,-2.2 -5.6,-2.3 -11.2,-4.5 -16.7,-6.9 0,-0.1 -0.6,-0.2 -0.9,-0.3 -0.3,-0.2 -0.7,-0.4 -1,-0.5 -0.9,-0.5 -1.9,-0.9 -2.8,-1.3 0,0 -0.3,-0.1 -0.4,-0.2 0,0 -1.3,-0.4 -1.9,-0.6 -0.4,-0.1 -0.9,-0.2 -1.3,-0.3 0,0 -0.9,-0.2 -1.3,-0.3 -1.4,0 -2.7,-0.1 -4,-0.2 -1.5,-0.1 -2.9,-0.2 -4.3,-0.4 -5,-0.5 -7.9,-1 -13.1,-1.6 -2,-0.3 -4.1,-0.4 -6.1,-0.8 0,0 -2,0 -2.9,0 -2.3,0.2 -4.4,0.5 -6.6,0.9 -4.1,0.7 -8,1.5 -11.4,4 -1,0.8 -1.9,1.8 -2.9,2.6 -0.9,0.8 -3.4,2.4 -4.2,3.9 -0.3,0.5 -0.5,1.3 -0.7,1.8 0,0 0.6,0.1 0.7,0.3 0.1,0.2 -0.1,0.5 -0.2,0.7 -0.8,0.5 -2.2,0.7 -2.4,-0.4 -0.1,-0.6 0.3,-1.9 0.4,-2.2 0.3,-1.6 1.5,-2.5 2.6,-3.5 1,-0.8 2,-1.7 2.9,-2.5 1.1,-0.9 2,-1.8 3.1,-2.6 3.9,-2.8 8.4,-3.5 13.1,-4.3 2.2,-0.4 4.4,-0.6 6.7,-0.7 0,0 0.5,-0.3 0.7,-0.3 0.7,0.1 1.4,0.1 2.1,0.2 0,0 0.2,0 0.3,0 2.3,-0.1 4.5,-0.3 6.7,-0.4 1.8,-0.1 3.8,0 5.6,0.1 M 462,331 c 0,0 0,0 0,0 0,0 0,0 0,0"
       id="path66"
       inkscape:connector-curvature="0"
       style="stroke:#000000" />
    <path
       d="m 381.2,300.7 c 0,0 1.8,0 2.6,0 1.3,0 4.7,-0.2 5.7,1.4 1.2,2 -3.9,2.2 -4.1,2.2 -0.6,0 -0.7,-0.8 -0.1,-0.9 0,0 1.1,-0.3 1.7,-0.5 0,0 -0.7,-0.1 -1.1,-0.1 -0.8,-0.1 -1.6,-0.2 -2.3,-0.1 -3.2,0 -6.2,0.1 -9.3,0.8 -1.7,0.4 -5.2,2.3 -5.8,2.6 -3.4,1.6 -6.6,4.2 -8.9,7.1 -1.5,1.7 -2.8,3.3 -3.8,5.2 -1.5,2.8 -1.1,5.6 -0.8,8.7 0.3,3.4 0.6,6.6 1.8,9.8 0.7,2.1 1.4,4.4 2.4,6.4 0.3,0.4 0.7,0.8 1,1.3 0.3,0.6 -0.2,1.3 -0.9,1 -1.8,-0.9 -2.2,-2.5 -3,-4.2 -1.4,-3.2 -2.6,-6.7 -2.9,-10.2 -0.4,-3.5 -1.4,-7.8 -0.4,-11.3 1,-3.3 3.3,-5.9 5.4,-8.4 2.4,-2.9 5.8,-5.6 9.2,-7.2 2.2,-1 4.4,-2.3 6.8,-2.8 3.9,-1 7.9,-0.9 11.9,-0.6"
       id="path68"
       inkscape:connector-curvature="0"
       style="stroke:#000000" />
    <path
       d="m 354.9,332.2 c 0,0 0.3,0.1 0.5,0.2 0.2,0.2 0.3,0.6 0.4,0.9 0.3,0.8 0.4,1.6 0.6,2.4 0,0.1 0.3,0.4 0.5,0.5 0.2,0.2 0.3,0.7 0,0.9 0,0 0.7,1.6 1,2.4 0.4,0.7 0.8,1.5 1.2,2.2 1.3,2.6 3.9,5.1 5.7,7.1 4.1,4.8 8.8,9.3 13.4,13.6 1.5,1.3 3.2,2.5 4.7,3.8 4,3.6 7.8,7.3 12.1,10.5 1.4,0.9 1.5,1.3 2.6,2.8 0.2,0.3 0.3,0.7 0,1 -0.6,0.8 -1.8,-0.5 -2.3,-0.9 -2.3,-2.2 -4.9,-3.9 -7.2,-6 -0.9,-0.8 -1.8,-1.6 -2.7,-2.4 -2.8,-2.6 -5.8,-4.8 -8.5,-7.4 -3.1,-2.9 -6.3,-5.9 -9.3,-8.9 -2.5,-2.5 -5.9,-6.6 -8.3,-9.3 -2.2,-2.6 -3.8,-6.1 -4.8,-9.3 -0.1,-0.4 -1,-2.8 -0.5,-3.7 0.4,-0.6 1.2,-0.4 1.6,0.1"
       id="path70"
       inkscape:connector-curvature="0"
       style="stroke:#000000" />
    <path
       d="m 371.4,354.9 c 0,0 0.2,0 0.4,0 0.2,0 0.4,0.1 0.6,0.2 0,0 0.4,0.4 0.4,0.6 -0.1,0.5 -0.5,0.3 -0.7,0.4 0,0 -0.5,0.3 -0.7,0.4 -0.2,0.2 -0.4,0.3 -0.6,0.3 -0.4,0 -1.1,-0.3 -1,-0.8 0.2,-1 1.7,-1.2 2.6,-0.9 m 0,0 c 0,0 0,0 0,0 0,0 0,0 0,0 m 0,0 c 0,0 0,0 0,0"
       id="path72"
       inkscape:connector-curvature="0"
       style="stroke:#000000" />
    <path
       d="m 367.5,355.4 c 0,0 0.3,0.2 0.3,0.3 0,0 0.6,0.3 0.9,0.4 0.5,0.2 1,0.4 1.5,0.6 1.6,0.7 3,1 4.5,1.9 1.6,1 2.8,2.5 4.2,3.8 2,1.7 6,5 6.2,5.1 1.9,1.7 3.9,2.9 6,4.5 2.5,1.9 4.3,3.6 6.9,5.4 2.2,1.6 3.8,2.4 5.9,4.1 4.9,3.9 9.6,8.1 13.9,12.6 3.8,3.9 7.3,8.1 10.9,12.1 0.6,0.6 2.7,2.9 1.1,3.8 -0.3,0.1 -0.7,0 -0.9,-0.2 -0.5,-0.5 -1.2,-1.7 -1.5,-2.1 -0.7,-0.8 -1.8,-2 -2,-2.2 -3.6,-3.9 -7,-8 -10.7,-11.8 -3.1,-3.1 -8.5,-7.9 -12,-10.6 -2.6,-2.1 -5.5,-3.7 -8.2,-5.8 -1.6,-1.2 -3.1,-2.5 -4.6,-3.7 -2.1,-1.6 -4,-2.9 -5.9,-4.4 -2.3,-1.7 -4.5,-3.6 -6.6,-5.5 -1.5,-1.3 -2.8,-2.9 -4.6,-3.9 -1.1,-0.6 -2.4,-0.9 -3.6,-1.3 -0.9,-0.2 -3.3,-1.3 -2.6,-2.6 0.2,-0.4 1,-0.8 1.2,-0.2"
       id="path74"
       inkscape:connector-curvature="0"
       style="stroke:#000000" />
    <path
       d="m 405.9,384.2 c 0,0 0.4,0 0.6,0.1 0.6,0.2 1.1,0.5 1.6,0.9 2.2,1.7 4.3,3.4 6.5,5.2 2.4,1.9 4.5,4.2 6.7,6.3 2.8,2.7 5.2,4.8 7.3,8.1 3.5,5.7 5.7,12.5 10.4,17.4 1.9,2 4,3.8 5.7,6 1.3,1.6 3,4.1 4.1,5.8 0.5,0.6 1.5,2 1.5,3 0,0.7 -0.8,1.2 -1.5,0.9 0,0 0,0 0,0 0,-0.1 -0.3,-0.4 -0.3,-0.5 0,0 -0.2,-0.2 -0.2,-0.3 -0.2,-0.4 -0.4,-0.8 -0.7,-1.2 -0.3,-0.6 -0.7,-1.2 -1.1,-1.8 -1.3,-1.7 -2.9,-4.2 -4.5,-6 -1.4,-1.5 -3.1,-3.1 -4.5,-4.6 -4.7,-4.9 -6.8,-11.6 -10.4,-17.3 -1.1,-1.7 -2.3,-3.4 -3.7,-4.9 -1.1,-1.1 -2.4,-2 -3.5,-3.2 -2.5,-2.4 -4.8,-4.8 -7.5,-7 -1.9,-1.4 -3.7,-2.9 -5.5,-4.4 -0.5,-0.4 -1.9,-1.6 -1.5,-1.3 0.1,0 -0.2,-0.1 -0.3,-0.2 -0.1,-0.2 -0.1,-0.5 0.1,-0.7 0.4,-0.6 1.3,-0.2 1.8,0 m 41.5,52.4 c 0,0 0,0 0,0.1 0,-0.1 0,-0.1 0,-0.1"
       id="path76"
       inkscape:connector-curvature="0"
       style="stroke:#000000" />
    <path
       d="m 427,410.4 c 0,0 0.4,0 0.4,0.1 0.1,0.1 0.2,0.2 0.2,0.2 0,0.1 0.1,0.1 0.2,0.2 0,0 0.1,0.5 0.2,0.8 0.2,0.3 0.3,0.7 0.4,1.1 0.5,1.1 1.2,2.4 1.6,3.2 1,2.1 2.5,3.9 3.9,5.7 2.1,2.6 5.8,6.6 7.8,8.7 2.6,3 5.2,5.5 8.4,7.8 3.3,2.3 6.7,5.1 10.6,6.3 1.9,0.6 3.8,1.4 5.7,2.2 0.5,0.2 0.8,0.7 0.3,1.1 -0.7,0.6 -2.4,0.1 -3.2,-0.2 -1.7,-0.6 -3.4,-1.1 -5,-1.8 -2.4,-1 -4.5,-2.7 -6.7,-4.1 -2.5,-1.6 -5.2,-3.4 -7.4,-5.4 -2.1,-2 -6.8,-7.5 -7.4,-8.1 -2.5,-2.8 -5.3,-5.7 -7.4,-8.9 -1.1,-1.7 -1.9,-3.5 -2.8,-5.4 0,0 -0.6,0 -0.7,-0.2 -0.1,-0.2 0.1,-0.8 0.1,-1 0.1,-0.1 -0.1,-0.4 -0.1,-0.6 -0.1,-0.3 -0.2,-0.9 0,-1.2 0,0 0.1,-0.1 0.2,-0.1 0,0 0,-0.2 0.1,-0.2 0.1,0 0.8,-0.3 1,-0.1"
       id="path78"
       inkscape:connector-curvature="0"
       style="stroke:#000000" />
    <path
       d="m 445.2,435.8 c 0,0 0.3,0 0.4,0 0.3,0 0.6,0.1 0.8,0.2 0.9,0.5 1.6,1.2 2.5,1.8 3.2,1.9 4.6,2.6 8.8,4.9 4.7,2.6 10,4 15.2,5.4 2.1,0.5 4.5,0.7 6.7,0.3 1.5,-0.3 2.8,-1.3 4.3,-1.6 0.6,-0.1 1.5,0.3 1.5,1 -0.1,0.4 -0.3,0.7 -0.7,0.8 -3.2,1.3 -5.2,2.2 -8.6,2 -2.5,-0.2 -4.8,-0.8 -7.2,-1.5 -7.5,-2.2 -14.3,-5.4 -20.9,-9.5 0,0 0.4,0.3 0.4,0.5 0,0.3 -0.3,0.5 -0.5,0.5 -0.2,0 -0.4,-0.1 -0.5,-0.2 -0.9,-0.8 -2.5,-1.8 -3,-2.9 -0.8,-1.4 0.7,-1.9 1.8,-1.6"
       id="path80"
       inkscape:connector-curvature="0"
       style="stroke:#000000" />
    <path
       d="m 452.7,392.5 c 0,0 0.3,0 0.5,0 0.3,0.1 0.6,0.2 0.8,0.3 1,0.6 2.2,1.2 3.3,1.9 3,1.9 6,3.9 9,5.7 2.1,1.2 4.7,2.3 6.8,3.3 3.4,1.5 6.9,3 10.3,4.5 4.1,1.9 8.7,3.6 13.3,4.1 0,0 0.3,-0.2 0.5,-0.1 0.5,0.1 1.1,0.1 1.6,0.4 0.6,0.4 0.6,1.4 -0.1,1.8 -0.8,0.4 -2.6,-0.1 -3.3,-0.2 -3.2,-0.5 -6.3,-1.8 -9.4,-2.8 -3.4,-1.1 -11.6,-5 -12.9,-5.5 -2.4,-1.1 -4.9,-2.2 -7.3,-3.5 -3.7,-2 -7,-4.5 -10.7,-6.6 0,0 0.1,0.5 0.2,0.7 0.1,0.4 0.1,1 -0.5,1 -0.1,0 -0.3,-0.1 -0.3,-0.3 0,-0.1 0,-0.3 -0.1,-0.3 0,0 0,0.2 0,0.2 -0.2,0 -0.1,-0.3 -0.2,-0.4 -0.1,-0.2 -0.2,-0.4 -0.4,-0.5 -0.6,-0.8 -1.6,-1.3 -2,-2.3 -0.5,-1.5 1.2,-1.5 2.1,-1.1"
       id="path82"
       inkscape:connector-curvature="0"
       style="stroke:#000000" />
    <path
       d="m 477.7,404.1 c 0,0 0.4,0 0.6,0 0.5,0.2 1.1,0.3 1.6,0.4 1.6,0.4 3.1,0.8 4.6,1.4 4.1,1.6 8.1,3.2 11.6,5.8 0.9,0.6 2,1.4 2.7,2.3 0.9,1.1 1.4,2.4 1.8,3.7 0,0.1 0,0.2 0,0.3 0,0 0.6,1.5 0.8,2.3 0.4,1.2 0.6,2.3 0.7,3.5 0.4,4.2 -0.4,8.2 -2.9,11.6 -0.8,1.1 -2.7,2.5 -4.1,1.3 0,0 -1.1,1.6 -1.7,2.3 -0.7,1 -1.6,2 -2.4,2.9 -3,2.7 -6.8,4.9 -10.4,6.8 -1.4,0.8 -3.9,2.6 -5.7,1.9 -1.8,-0.6 -1.1,-2.5 -0.1,-3.4 1.9,-1.7 6,-3.4 7.5,-4.3 0.8,-0.4 1.3,0.5 0.6,1 -1.7,1.1 -3.3,2.2 -5,3.3 -0.7,0.4 -1.3,0.9 -1.8,1.5 0,0 0.6,-0.2 0.9,-0.4 0.5,-0.2 1.5,-0.7 1.7,-0.8 1.4,-0.7 3.1,-1.7 4.2,-2.4 2.7,-1.5 5.5,-3.4 7.7,-5.7 1.2,-1.4 2.3,-3 3.4,-4.5 0,0 -0.2,-0.4 -0.2,-0.6 0,-0.4 -0.1,-0.8 -0.2,-1.3 0,-1.6 0,-3 0.2,-4.6 0.3,-1.9 1.3,-3.6 2.1,-5.3 0.3,-0.7 0.5,-1.5 0.9,-2.2 0.4,-1.1 1.2,-2 1.7,-3.1 0,0 -0.1,-0.5 -0.2,-0.7 -0.3,-0.6 -0.6,-1.1 -0.9,-1.7 -0.7,-1.1 -2.5,-2.2 -3.5,-2.9 -1.1,-0.8 -2.3,-1.4 -3.5,-1.9 -3.2,-1.5 -6.3,-2.9 -9.8,-3.8 0,0 0.3,0.2 0.5,0.3 0.8,0.4 1.7,0.9 2.5,1.3 0,0 0.4,0.4 0.4,0.6 0,0.2 -0.2,0.4 -0.4,0.4 -1.1,0.3 -2.1,-0.8 -3.2,-1.3 -1,-0.5 -1.8,-1 -2.7,-1.7 -0.3,-0.2 -0.9,-0.6 -1,-1 -0.6,-2 2.4,-1.1 3,-0.9 m 20.2,24.1 c 0,0 -0.3,0.8 -0.5,1.1 -0.3,0.6 -0.6,1.3 -0.9,1.8 -0.7,1.4 -1.6,2.7 -2.5,3.9 0,0.1 0.6,-0.1 0.8,-0.3 0.5,-0.4 0.8,-0.8 1.2,-1.4 1.1,-1.6 1.6,-3.2 1.9,-5.1 m -0.9,-8.7 c 0,0 -0.2,0.3 -0.3,0.4 -0.2,0.3 -0.4,0.5 -0.6,0.8 -0.5,0.8 -0.7,1.8 -1.1,2.6 -0.8,1.6 -1.7,3.2 -2,4.9 -0.3,1.6 -0.3,3.3 -0.1,4.9 0,0 0.5,-0.7 0.7,-1.1 0.9,-1.4 1.2,-2 2,-3.4 1.4,-2.8 1.9,-6 1.4,-9.1"
       id="path84"
       inkscape:connector-curvature="0"
       style="stroke:#000000" />
    <path
       d="m 499.8,418.8 c 0,0 0.3,-0.1 0.4,0 0.3,0 0.5,0.2 0.7,0.4 0.4,0.5 0.5,1.5 0.6,1.9 0.2,2.8 -0.4,5.2 -1.6,7.6 -1.1,2.2 -2,4.3 -3.3,6.3 -3.7,5.4 -8.8,8.7 -15,10.7 0,0.1 -0.2,0.2 -0.4,0.2 -0.5,0.2 -1.2,0.4 -1.8,0.6 -1.8,0.4 -3.8,1 -5.7,0.9 -0.7,0 -1.6,0.1 -1.8,-0.8 -0.3,-1 1,-1.2 1.7,-1.3 3,-0.3 5.7,-0.9 8.6,-1.8 0,0 0.5,-0.2 0.7,-0.3 0.2,-0.1 1.3,-0.6 1.9,-0.9 1.7,-1 3.4,-2 4.8,-3.4 0.6,-0.5 1.2,-1.1 1.6,-1.7 0.2,-0.4 0.3,-0.9 0.7,-1.2 0.3,-0.5 1.1,-0.5 1.3,0.1 0,0 0.4,-0.5 0.6,-0.7 0.4,-0.6 1,-1.3 1.4,-2 1.4,-2.4 2.8,-4.9 3.8,-7.5 0.4,-1.3 0.5,-2.7 0.5,-4 0,-0.2 0,-1.6 -0.2,-1.6 -0.2,-0.1 -0.3,0.3 -0.4,0.4 -0.2,0.3 -0.7,0.1 -0.8,-0.2 -0.2,-0.3 0,-0.7 0.3,-0.9 1,-0.6 1.2,-1.1 2.2,-0.6"
       id="path86"
       inkscape:connector-curvature="0"
       style="stroke:#000000" />
    <path
       d="m 433.1,357.5 c 0,0 0.3,0 0.5,0 0.3,0 0.7,0.3 0.9,0.3 0.6,0.3 1.3,0.6 1.9,0.9 2.5,1.5 4.9,3.3 7.6,4.5 3.9,1.9 7.9,3.9 12,5.1 4.3,1.2 8.6,1.7 13.1,2.1 1.3,0.2 2.6,0.3 3.9,0.3 2.7,0.2 5.4,0.4 8,0.2 1.8,-0.2 2.6,-0.3 4.3,-0.4 0.4,0 0.9,0.1 1.1,0.1 0.5,0 2.2,0.3 1.8,1.2 -0.1,0.3 -0.5,0.3 -0.7,0.4 -1,0 -2,0.1 -2.9,0.2 -1.2,0.1 -2.3,0.4 -3.5,0.5 -2.7,0.2 -5.6,-0.1 -8.3,-0.2 -5.8,-0.2 -11.9,-0.8 -17.5,-2.5 -4,-1.2 -7.9,-3 -11.5,-4.8 -3.2,-1.6 -6,-3.8 -9.2,-5.3 0,0 0.3,0.6 0.4,1 0.4,0.8 0.8,1.9 1.6,2.5 0.2,0.2 0.5,0.3 0.7,0.4 1.5,0.4 2.6,0.7 3.8,1.5 0.3,0.1 0.5,0.5 0.3,0.8 -0.2,0.3 -0.6,0.1 -0.8,0 -0.7,-0.4 -1.1,-0.6 -1.8,-0.8 -0.7,-0.2 -1.4,-0.3 -2,-0.5 -1.4,-0.6 -2.7,-2.2 -3.4,-3.5 -0.4,-0.8 -2.6,-3.7 -0.4,-4 0.2,-0.1 0.4,0 0.6,0 0.3,0.1 0.6,0.2 1,0.4"
       id="path88"
       inkscape:connector-curvature="0"
       style="stroke:#000000" />
    <path
       d="m 465.8,368.1 c 0,0 0.8,0 1.2,0.1 1,0.1 2,0.2 3,0.3 3.9,0.3 6.1,0.5 9.7,0.7 1.9,0.1 4,0 5.8,0.7 1.1,0.4 2.3,1.3 3.4,1.9 0.9,0.5 2.4,0.9 3.4,1.6 2.2,1.6 2.4,3.9 2.8,6.4 0.3,2.2 0.5,4.1 0.8,6.2 0.5,2.9 1.9,5.7 0.3,8.5 0,0.1 -0.1,0.4 -0.1,0.6 0,0 0.2,0.3 0.2,0.5 0,0.5 -0.1,0.9 -0.3,1.3 -0.9,1.9 -1.2,2 -2.7,4.4 -0.6,0.9 -0.9,1.9 -1.4,2.9 -0.9,1.8 -2.7,4.2 -3.6,5.5 -0.2,0.3 -0.4,0.6 -0.7,0.8 -0.3,0.2 -0.5,0.4 -0.8,0.4 -1.2,0.2 -2,-1.7 -1,-2.4 0.3,-0.3 0.5,-0.1 0.8,0 0,0 1.7,-2.5 2.6,-3.7 0.7,-1 1.1,-1.9 1.6,-3 0,0 0,-0.6 0.1,-0.9 0,0 0,0 0,0 0,0 0.2,-0.4 0.3,-0.6 0.2,-0.3 0.3,-0.6 0.5,-1 0.1,0 -0.2,-0.4 -0.3,-0.7 -0.4,-1.1 -1,-2.4 -0.9,-3.7 0.2,-1.7 0.9,-3.1 1.4,-4.8 0.4,-1.4 0.5,-2.8 0.5,-4.2 0,-0.1 -0.3,-1 -0.4,-1.5 -0.5,-2.2 -0.6,-2.9 -1.2,-4.8 0,0 0,0 0,0 0,0 0,-0.1 0,-0.1 0,0 -0.1,-0.3 0,-0.5 0.1,-0.5 0.6,-0.8 1.1,-0.7 0.8,0.1 1,1.4 1.2,1.9 0,0 -0.1,-0.3 -0.1,-0.4 0,-0.6 -0.1,-1.1 -0.1,-1.7 -0.1,-1.1 -0.8,-2.2 -1.6,-3 -0.9,-0.7 -2.2,-1 -3.1,-1.4 -1,-0.5 -2.2,-1.4 -3.3,-1.9 -1.4,-0.6 -3.3,-0.5 -4.9,-0.6 0,0 0.1,0.3 0.1,0.4 -0.1,0.2 -0.4,0.4 -0.6,0.4 -1.2,0 -2.5,-0.5 -3.7,-0.6 -3.3,-0.5 -6.6,-0.9 -9.9,-1.3 0,0 -0.4,-0.1 -0.6,-0.1 -0.2,-0.1 -0.4,-0.1 -0.5,-0.2 -0.5,-0.2 -0.6,-1.1 -0.2,-1.4 0.3,-0.2 0.7,-0.3 1,-0.3 1.1,-0.1 3.5,0.3 4.2,0.4 m 23.8,20.6 c 0,0 -0.1,0.7 -0.2,1 -0.2,0.7 -0.5,1.6 -0.6,2 -0.6,1.9 -0.9,3.1 -0.1,5 0,0 1.1,-2.1 1.6,-3.2 0,0 0.1,-0.4 0.1,-0.5 0.1,-0.4 0.1,-0.7 0.1,-1.1 -0.1,-1.1 -0.5,-2.1 -0.9,-3.2"
       id="path90"
       inkscape:connector-curvature="0"
       style="stroke:#000000" />
    <path
       d="m 470.5,332 c 0,0 0.4,0 0.6,0.1 0.2,0.1 0.3,0.6 0.2,0.8 -0.1,0.2 -0.4,0.3 -0.6,0.5 -0.7,0.4 -2,1.4 -2.9,1.9 -1,0.6 -2.4,1 -3.4,1.3 -2.3,0.8 -4.6,1.4 -6.9,2 -8.7,2.4 -18.2,2.1 -27.1,1.4 -3.2,-0.3 -8.8,-0.6 -11.8,-0.9 -0.7,-0.1 -3.6,-0.2 -3.7,-1.5 -0.1,-1.7 2.6,-0.6 3.3,-0.6 0.6,0.1 1.3,0.2 1.9,0.2 3.9,0.3 7.7,0.6 11.5,0.8 3,0.2 6.5,0.6 9.7,0.5 7.8,-0.4 15.3,-1.1 22.7,-3.9 1.9,-0.7 3.6,-1.7 5.5,-2.4 0.6,-0.3 1.4,-0.4 1.8,0.2"
       id="path92"
       inkscape:connector-curvature="0"
       style="stroke:#000000" />
    <path
       d="m 471.5,331.7 c 0,0 0.5,0 0.8,0.1 1.4,0.5 2.1,0.6 3.6,1 0,0 0.6,-0.3 1,-0.2 0.6,0.1 1.5,0.8 1.9,1.1 0,0 0.5,0.1 0.7,0.3 0.5,0.3 0.8,0.6 1.2,1 2.1,2.8 1.6,2.2 4.6,5.5 1.4,1.5 2.8,3.5 3.3,5.5 0.5,2.1 0.2,4.5 0.4,6.7 0,1.1 0.2,2.2 0.3,3.3 0.1,1 0.7,3.6 -1.2,3.2 -0.2,0 -0.4,-0.2 -0.6,-0.3 0,0 0.1,0.9 0.1,1.3 0.1,1 0.5,3.2 -0.1,4.4 -0.6,1.3 -2.3,0.5 -1.8,-0.8 0,-0.1 0.1,-0.5 0.1,-0.7 -0.1,-0.9 -0.1,-1.7 -0.1,-2.6 -0.1,-1.8 -0.6,-3.6 -1,-5.3 0,-0.1 -0.4,-0.8 -0.5,-1.2 -0.4,-0.7 -0.6,-1.4 -0.8,-2.1 -0.9,-3 -1.5,-5.8 -2.1,-8.8 0,0 -0.3,-1 -0.5,-1.5 -0.3,-0.6 -0.7,-1.3 -0.9,-1.9 -0.9,-1.8 -2.2,-3.3 -3.6,-4.7 0,0 -0.4,-0.2 -0.7,-0.2 -0.7,-0.2 -1.4,-0.4 -2.1,-0.5 -1,-0.3 -1.8,-0.9 -2.8,-0.4 -5.6,2.9 -11.5,4.3 -17.8,5.1 -0.8,0.1 -1.7,0.2 -2.5,0.2 -0.6,0 -1.2,0 -1.7,0 -0.4,-0.1 -0.8,-0.1 -1.1,-0.2 -0.3,-0.1 -0.6,-0.1 -0.9,-0.3 -0.2,-0.1 -0.3,-0.2 -0.4,-0.4 -0.8,-1 0.6,-1.3 1.3,-1.3 0.2,0 0.5,0 0.5,0.2 0,0 1.1,0 1.6,0 0.7,0.1 1.3,0 2,-0.1 2.3,-0.1 4.6,-0.6 6.9,-1 2.6,-0.5 5.3,-1.3 7.7,-2.2 1.6,-0.7 3.3,-2.2 5.1,-2.2 0.9,0 1.6,0.4 2.4,0.6 m 8.7,8.4 c 0,0 0.4,0.9 0.6,1.4 0.3,0.8 0.7,1.8 0.9,2.8 1,3.4 1.9,6.9 2.7,10.4 0.1,0 0.4,0.4 0.6,0.6 0,0 -0.2,-1.8 -0.3,-2.8 -0.1,-0.9 -0.2,-1.8 -0.2,-2.7 0,-1.2 0.1,-2.5 -0.1,-3.7 -0.5,-2.4 -2.6,-4.5 -4.2,-6.3"
       id="path94"
       inkscape:connector-curvature="0"
       style="stroke:#000000" />
    <path
       d="m 428.4,305.9 c 0,0 0.3,0 0.5,0.1 0.8,0.5 1.7,0.9 2.5,1.4 3.2,1.5 3.5,1.6 7.5,3.4 3.1,1.3 6.8,3.2 9.7,4.8 3.6,2.1 7.4,4.1 10.7,6.6 0.1,0.1 1.4,0.8 2,1.2 1.9,1.3 3.7,2.5 5.1,4.3 0.5,0.5 1.1,1.4 1.1,2.2 0,0.8 -1,1.2 -1.6,0.7 -0.4,-0.4 -0.5,-0.9 -0.8,-1.2 -0.3,-0.2 -0.6,-0.3 -0.9,-0.4 -0.6,-0.2 -1.3,-0.3 -2,-0.4 -0.2,-0.1 -0.6,-0.4 -0.4,-0.7 0,0 -0.7,-0.4 -1,-0.6 -2.2,-1.3 -4.2,-2.7 -6.4,-3.9 -5.1,-2.8 -10.4,-4.9 -15.7,-7.3 -0.1,0 -0.6,-0.2 -0.9,-0.3 -0.7,-0.3 -2.9,-0.7 -2.3,-2.1 0.4,-1.2 2.5,-0.1 3.1,0.2 0,0 2.7,1 4,1.4 1.6,0.6 3.1,1.3 4.7,1.9 0,0 -0.1,0 -0.1,0 -1.4,-0.8 -2.9,-1.6 -4.4,-2.3 -1.6,-0.8 -3.5,-1.8 -5.3,-2.6 -1.5,-0.7 -4.3,-1.8 -5.8,-2.8 -1.2,-0.8 -2.5,-1.4 -3.6,-2.4 -0.4,-0.4 -0.4,-1.1 0.3,-1.2 1,-0.2 1.9,0.9 2.9,1.4"
       id="path96"
       inkscape:connector-curvature="0"
       style="stroke:#000000" />
    <path
       d="m 327.2,490 c 0,0 3.1,0 4.6,0 1,0 2.2,0 3.2,0.3 0.5,0.1 1.1,0.4 1.3,0.9 0.2,0.4 0.1,2.3 -0.7,1.6 -0.2,-0.2 -0.2,-0.4 -0.3,-0.6 0,0 -0.4,-0.1 -0.6,-0.1 -0.7,-0.1 -1.6,-0.2 -2.4,-0.2 -2.9,0 -6.8,-0.6 -9.6,0.6 0,0 -0.1,0.4 -0.2,0.6 -0.1,0.4 -0.2,0.8 -0.3,1.2 -0.3,1 -0.8,2.2 -1.1,3 -0.7,2 -0.8,4.2 -1.1,6.3 -0.7,6.6 0.1,13.4 0.4,20 0.1,2.7 0.5,5.5 0.9,8.2 0,0.3 0.2,0.7 0.2,1.1 0,0.2 -0.2,0.6 -0.2,0.5 0,0 -0.2,0.3 -0.4,0.4 -0.2,0.1 -0.6,0 -0.8,-0.1 -0.3,-0.1 -0.5,-0.6 -0.6,-0.8 -0.4,-1.3 -0.6,-4.6 -0.7,-5 -0.2,-1.6 -0.3,-3.2 -0.4,-4.8 -0.4,-8 -1.4,-16.7 0.4,-24.7 0.4,-1.7 0.9,-3 1.6,-4.8 0.2,-0.6 0.2,-1.3 0.5,-1.9 0.7,-1.4 2.5,-1.6 3.9,-1.6 0.7,-0.1 1.7,-0.2 2.5,-0.1 1.5,0 3,0 4.5,0 0.8,0 1.6,0.1 2.3,0.1"
       id="path98"
       inkscape:connector-curvature="0"
       style="stroke:#000000" />
    <path
       d="m 321.8,494.3 c 0,0 0.4,0.1 0.6,0.2 0.4,0.2 1.2,0.8 1.2,1.4 0,0.8 -1,0.3 -1.3,0 0,0 -0.1,0.3 -0.1,0.4 -0.2,0.9 -0.4,2 -0.5,3 -0.2,2.4 -0.5,4.6 -0.5,7.1 -0.4,13.7 -0.7,27.4 -1,41.1 -0.1,4.3 -0.1,8.6 0.3,12.9 0.1,0.9 0.7,2 0.5,3 -0.2,0.8 -1.1,1.1 -1.7,0.6 -0.3,-0.3 -0.4,-0.8 -0.4,-1.2 0,0 -0.2,-1.3 -0.3,-1.9 -0.1,-0.8 -0.2,-1.6 -0.2,-2.4 -0.2,-3.6 -0.2,-7.1 -0.1,-10.7 0.3,-11.8 0.5,-23.6 0.9,-35.4 0.1,-4.7 0.2,-9.4 0.9,-14 0.1,-1 0.3,-5 2.4,-3.8"
       id="path100"
       inkscape:connector-curvature="0"
       style="stroke:#000000" />
    <path
       d="m 321.9,508.6 c 0,0 0.4,0.1 0.6,0.2 0.2,0.1 0.8,0.5 1,0.8 0.2,0.5 -0.4,1 -0.9,0.7 0,-0.1 -0.5,-0.4 -0.7,-0.5 0,0 -0.3,0.4 -0.3,0.6 -0.2,0.3 -0.2,0.8 -0.3,1.2 -0.1,0.7 -0.1,1.6 -0.1,2.4 0,4.7 -0.2,9.9 0,14.8 0.2,8.1 0.8,16.3 0.7,24.4 -0.1,5.6 -0.8,11.1 -0.9,16.7 0,0 0.4,0.2 0.5,0.4 0.1,0.2 -0.1,0.6 -0.3,0.7 -0.5,0.3 -1.3,0.3 -1.7,-0.2 -0.6,-0.9 -0.4,-2.6 -0.4,-3.5 0.2,-3.7 0.5,-7.3 0.8,-11 0.7,-9.3 -0.4,-18.7 -0.3,-28 0,-2.2 0,-4.4 0,-6.6 0,-3.2 0.1,-6.3 0.3,-9.5 0,-1.1 0.3,-3.9 2,-3.6 0.4,0 0.7,0.3 1.1,0.5"
       id="path102"
       inkscape:connector-curvature="0"
       style="stroke:#000000" />
    <path
       d="m 319.2,569.2 c 0,0 0,0 0.1,0 0,0 0,0 0,0 0,0 0.4,0.2 0.5,0.3 0,0.2 -0.1,0.4 -0.2,0.5 0,0 0.2,0.1 0.2,0.2 0.3,0.2 0.6,0.4 0.8,0.6 0.5,0.3 0.9,0.5 1.4,0.7 2.2,1 4.6,2.4 7.1,2.7 0,0.1 0.2,-0.3 0.4,-0.4 0.2,-0.2 0.6,-0.2 0.8,-0.2 0.1,0 1.4,-0.1 2.1,-0.1 0.1,0 0.4,0.1 0.5,0 0.6,0 1.1,-0.1 1.7,-0.2 0.6,0 1.3,-0.2 1.9,-0.4 0.8,-0.1 4.3,-1.1 3.4,1.1 0,0 2.4,0 3.5,0.1 2.8,0.3 5.7,0.9 8.5,1.1 3.3,0.3 6.6,0.4 10,0.7 5.6,0.4 11.2,1.2 16.7,1.6 8,0.6 15.9,1.7 23.9,2.3 7.3,0.5 14.7,0.5 21.9,1.4 9.4,1.1 14.9,1.8 24.4,3 4.6,0.5 9.2,0.9 13.9,0.7 0,0 -0.6,-0.2 -0.9,-0.2 -1.3,-0.1 -2.6,-0.3 -3.8,-0.4 -0.4,-0.1 -0.8,-0.4 -0.6,-0.8 0.1,-0.3 0.4,-0.3 0.6,-0.3 2.2,0.1 5,-0.1 7.1,0.7 0.8,0.3 2.3,0.8 1.9,2 -0.3,0.6 -1,0.8 -1.6,0.9 -2.6,0.2 -5.3,0.3 -7.9,0.1 -7.4,-0.5 -14.6,-1.5 -22,-2.4 -4.4,-0.5 -10.6,-1.3 -15.5,-1.7 -9,-0.7 -17.9,-1 -26.8,-1.9 -12.9,-1.3 -25.8,-2.5 -38.6,-3.4 -3.8,-0.3 -7.6,-1.1 -11.4,-1.4 -2.2,-0.1 -4.6,-0.2 -6.9,-0.3 0,0 -0.9,0.2 -1.3,0.2 -1.4,0.1 -2.8,0.3 -4.1,0.2 -3.8,-0.3 -6.5,-1.6 -10,-3.3 -0.9,-0.5 -2.1,-1.1 -2.7,-2 -0.6,-1 -0.1,-1.8 1,-1.7"
       id="path104"
       inkscape:connector-curvature="0"
       style="stroke:#000000" />
    <path
       d="m 508.8,577.3 c 0,0 0.4,0 0.6,0 0.4,0.1 0.8,0.6 0.8,1 0,1.3 -2.1,1.1 -2.9,1.1 0,0.1 -1,0.2 -1.5,0.2 -0.1,0 -1.4,0.1 -2,0.2 -1.7,0.1 -3.3,0.3 -4.9,0.4 -0.3,0 -0.5,0 -0.6,-0.3 0,0 -0.1,0 -0.2,0 -2.5,0.3 -5,0.5 -7.5,0.8 -4.7,0.4 -9.5,0.9 -14.3,1.4 -5.6,0.6 -11.2,1 -16.8,0.9 -8.6,0 -17.2,-0.6 -25.7,-0.9 -2.7,-0.1 -5.4,0.2 -8,0.3 -2.2,0.1 -3.9,0 -6.1,-0.1 -1.1,0 -2.1,0.3 -3.3,0.6 -0.2,0 -0.6,-0.1 -0.6,-0.4 -0.1,-0.8 1.2,-0.7 1.5,-0.9 0.5,-0.2 0.5,-0.7 1.1,-0.9 1,-0.7 3.4,-0.1 4.2,-0.1 0.8,0 1.8,0 2.7,0 1.7,-0.1 3.5,-0.3 5.2,-0.4 3.1,-0.2 6.9,0.1 9.8,0.2 5,0.2 10.3,0.4 15.3,0.6 12.3,0.5 24.6,-1.4 36.8,-2.5 4.6,-0.5 9,-0.8 13.6,-0.9 1.2,-0.1 2.7,-0.7 3.8,0"
       id="path106"
       inkscape:connector-curvature="0"
       style="stroke:#000000" />
    <path
       d="m 530.3,574.9 c 0,0 0.2,0 0.4,0 0.2,0 0.5,0.2 0.6,0.4 0,0.1 0.5,0.1 0.7,0.1 0.7,0 1.5,0.1 2.2,0.1 1.3,0.1 3,0.4 4.1,0.6 3,0.3 6.2,0.9 8.9,1.3 1.8,0.3 3.5,0.6 5.3,0.9 0.3,0 0.6,0.3 0.7,0.6 0,0.5 -0.6,0.7 -0.9,1 -0.7,0.5 -1.8,0.1 -2.6,0 -0.9,-0.2 -1.9,-0.4 -2.8,-0.5 -2.2,-0.3 -9.6,-1.6 -13.2,-1.9 -2.5,-0.3 -4.9,0 -7.4,-0.2 0,0 -0.1,0 -0.2,0 -2.6,0.3 -5.2,0.6 -7.8,0.9 -2.3,0.3 -4.8,0.5 -7,0.7 -9,0.8 -18.2,0.2 -27,2.1 0,0 0.4,0.3 0.4,0.5 0,0.4 -0.5,0.5 -0.5,0.5 0,0 -0.2,0 -0.2,0 -0.5,0.1 -1.1,0.1 -1.6,0.1 -0.2,0.1 -0.5,0 -0.6,-0.1 -0.6,-0.2 -0.6,-0.9 -0.3,-1.4 0.8,-1.7 3.8,-1.9 5.3,-2.1 0.8,-0.1 1.7,-0.2 2.5,-0.3 8.2,-0.8 16.5,-0.8 24.7,-1.6 0,0 -0.2,-0.2 -0.2,-0.4 -0.1,-0.2 0,-0.5 0.2,-0.7 0.4,-0.5 1.3,-0.6 1.9,-0.6 3.4,0.1 6.7,0.5 10.1,0.5 0,0 1.8,-0.2 2.6,-0.3 1.1,-0.1 1.8,-0.5 2.6,0.1"
       id="path108"
       inkscape:connector-curvature="0"
       style="stroke:#000000" />
    <path
       d="m 336.5,494.1 c 0,0 5.8,0 8.7,0.1 7.2,0.2 14.6,0.7 21.8,0.8 9,0.2 18,-0.2 27,0 13,0.3 26,1.2 39,2.2 0.1,0 0.2,0 0.3,0 1,0 2,0 3,0 0.6,0 1.4,0 2,0.3 0.5,0.3 0.7,1.1 0.2,1.6 -0.8,0.8 -3.1,0.3 -3.7,0.2 -2.4,-0.2 -4.9,-0.4 -7.3,-0.6 -11.1,-0.7 -22.3,-1.3 -33.4,-1.7 -9.5,-0.3 -18.9,0.3 -28.4,0 -13.1,-0.5 -26.1,-1.6 -39.2,-0.4 -3.9,0.3 -7.9,0.5 -11.8,1.2 0,0 -0.3,0.7 -0.7,0.8 -0.4,0 -0.5,-0.4 -0.5,-0.7 0.1,0 -0.2,-0.4 -0.3,-0.6 0,-0.3 0,-0.6 0.2,-0.8 0.4,-0.6 1.1,-0.7 1.7,-0.8 6.4,-0.7 6,-0.7 13,-1.2 7.3,-0.6 14.7,-0.4 22,-0.2"
       id="path110"
       inkscape:connector-curvature="0"
       style="stroke:#000000" />
    <path
       d="m 412.6,491.1 c 0,0 3.6,0 5.4,0.1 4.8,0.2 9,0.4 13.9,0.7 9.1,0.5 18.5,1 27.5,1.6 8.2,0.6 16.5,1 24.7,2.1 6.3,0.8 12.6,2 18.9,2.5 2.8,0.2 3.2,0.2 5.8,0.2 0.8,0.1 1.7,0.6 1.2,1.6 -0.2,0.5 -1,0.5 -1.5,0.4 -2,0 -3.9,0 -5.9,-0.3 -8.3,-0.9 -16.6,-2.4 -24.9,-3.1 -10.9,-0.9 -21.8,-1.6 -32.7,-2.3 -10.7,-0.6 -21.3,-1.5 -32,-1.5 -6.2,-0.1 -12.4,0.3 -18.5,0.8 -4,0.3 -7.9,0.7 -11.9,1 -2.6,0.2 -5.6,0.6 -8.2,0.3 -0.1,0 0.3,0.6 0.2,0.8 -0.2,0.2 -0.5,0.3 -0.7,0.2 -0.8,-0.3 -1.8,-1.4 -1.2,-2.2 0.6,-0.9 2.3,-0.4 3.2,-0.5 0.7,0 1.5,-0.1 2.3,-0.1 4.6,-0.2 12.2,-1 16.2,-1.4 10,-0.9 20.1,-0.9 30.2,-0.6"
       id="path112"
       inkscape:connector-curvature="0"
       style="stroke:#000000" />
    <path
       d="m 534.8,494.1 c 0,0 0.3,0 0.4,0.1 0.2,0.1 0.3,0.5 0.3,0.7 -0.3,0.7 -2.2,1.2 -2.4,1.3 -0.8,0.2 -1.6,0.3 -2.3,0.5 -2.6,0.6 -4,0.9 -6.5,1.6 0,0 1,0 1.6,0 0,0.1 0.2,0 0.3,0 0.3,0 0.8,0 1.1,0.1 0.5,0.3 0.6,1.1 0.2,1.6 -0.2,0.3 -0.7,0.4 -1.1,0.3 -1.6,0 -3,0 -4.6,0 0,0 -2.3,0.4 -3.4,0.6 -0.7,0.2 -4.2,1.2 -4.2,-0.6 0,-0.1 -0.4,-0.1 -0.6,-0.1 -2.4,-0.1 -4.8,-0.2 -7.1,-0.3 -4.5,-0.3 -9,-1.1 -13.5,-0.9 0,0.1 0.7,0.2 1.1,0.3 0.1,0.1 0.2,0.1 0.2,0.1 -0.1,0 0.1,0 0.2,0.1 0.2,0.1 0.2,0.5 0.1,0.7 -0.4,0.5 -2,0 -2.3,-0.1 -1,-0.3 -2,-1.4 -1,-2.3 0.5,-0.5 1.3,-0.7 2,-0.7 2.1,0 3.3,0 5.4,0.1 2.6,0.1 5.5,0.5 8,0.7 3.5,0.2 6.5,0.3 9.9,0.3 0.1,0.1 0.8,-0.2 1.2,-0.3 1.4,-0.3 2.9,-0.7 4.3,-1.1 3.3,-0.9 6.8,-2.1 10.3,-2.4 0.8,-0.1 2.3,-0.7 3,0"
       id="path114"
       inkscape:connector-curvature="0"
       style="stroke:#000000" />
    <path
       d="m 691.3,436.4 c 0,0 0.3,0.1 0.5,0.3 0.3,0.3 0.4,0.7 0.3,1.1 -0.2,0.5 -0.9,1.4 -1.1,1.8 -0.8,1.1 -1.6,2 -2.6,2.9 -4.4,4.2 -9.4,8.2 -14.7,11 -4.9,2.6 -9.8,5.3 -14.9,7.5 -1.8,0.8 -3.7,1.7 -5.6,2.2 -3.9,1 -7.8,1.5 -11.8,1.7 -1.8,0 -3.5,-0.1 -5.2,0 -4.3,0.1 -8.7,0.2 -13,0.5 0,0 -0.1,0 -0.2,0 -1.7,0.3 -3.5,0.5 -5.3,0.8 -2.3,0.3 -3.9,0.5 -6.2,0.7 -6.7,0.5 -13.4,1.4 -20.1,1.6 0,0.1 -0.4,0.1 -0.5,0.2 -1.6,0.2 -3.4,0.5 -5,0.8 -2.5,0.5 -6.4,1 -9.3,1.9 -2.3,0.6 -4.5,1.5 -6.7,2.4 0,0.1 -1.9,1 -2.8,1.5 -1.5,0.8 -4.4,2.2 -6,3.3 -3.1,2 -6.4,3.7 -9.4,5.9 -3.5,2.4 -6.6,5.3 -10.2,7.5 0,0.1 -0.8,0.8 -1.2,1.2 -0.2,0.2 -0.7,0.6 -0.6,0.9 0.1,0.4 2.3,0.3 1.5,1.3 -0.7,0.9 -2.5,0.2 -3.1,-0.5 0,0 -0.1,0.2 -0.2,0.2 -0.3,0.3 -0.8,1 -1.4,1.2 -0.4,0.2 -1,-0.1 -1.2,-0.6 -0.3,-0.8 0.7,-1.6 1.2,-2.1 1.1,-1.2 2.4,-2.2 3.8,-3.1 0,0 0.8,-0.8 1.2,-1.1 0.5,-0.5 0.9,-0.9 1.3,-1.4 2,-2 4.4,-3.3 6.7,-4.8 1.5,-1 3.1,-1.9 4.7,-2.8 4.8,-3 9.5,-6.1 14.8,-8.4 0,0 0.4,-0.2 0.7,-0.3 0.7,-0.3 1.5,-0.7 2.3,-1.1 1.5,-0.7 3.4,-1.2 5,-1.7 4.5,-1.3 9.4,-2.2 14.1,-2.3 0,0 1.1,-0.3 1.7,-0.4 3.4,-0.8 5.5,-1.2 8.9,-1.5 2.4,-0.2 4.9,-0.3 7.3,-0.5 1.5,-0.1 3.2,-0.5 4.8,-0.5 3,-0.1 6,-0.1 9.1,-0.3 0,0 1.1,-0.1 1.6,-0.2 1.9,-0.4 3.9,-0.7 5.9,-1.1 3.3,-0.6 7.4,-1.6 10.6,-2.3 2.3,-0.5 4.6,-0.9 6.9,-1.3 8,-1.8 16,-4 23.6,-7 1.1,-0.4 2.1,-0.8 3.2,-1.3 1.3,-0.7 2.4,-1.7 3.7,-2.5 3.4,-2.3 6.6,-4.6 9.5,-7.5 0.3,-0.3 0.5,-0.6 0.8,-0.9 0.6,-0.9 1.8,-3.9 3.3,-2.4 m -27.3,19 c 0,0 -0.8,0.3 -1.2,0.4 -1.8,0.5 -3.6,1.1 -5.4,1.6 -1.7,0.5 -3.6,1 -5.2,1.4 -5.4,1.5 -11,2.3 -16.6,3.5 0,0.1 1.1,0.1 1.6,0.1 1,0 2,0 3,0 1.8,0 3.7,-0.2 5.5,-0.4 2.4,-0.3 5,-0.7 7.3,-1.5 3.8,-1.3 7.4,-3.3 11,-5.1"
       id="path116"
       inkscape:connector-curvature="0"
       style="stroke:#000000" />
    <path
       d="m 714.1,438.3 c 0,0 0.3,0.7 0.1,0.9 -0.5,0.6 -2.3,0.2 -3.3,0.4 -1,0.3 -2.1,0.6 -3.2,0.8 -0.2,0.1 -0.6,0 -0.7,-0.3 -0.1,-0.4 0.3,-0.6 0.5,-0.7 0.6,-0.1 1.2,-0.2 1.8,-0.4 1,-0.2 4.3,-1.2 4.8,-0.8 0.1,0.2 0.2,0.9 0.1,1 -0.4,0.6 -2.1,0.3 -3.1,0.4"
       id="path118"
       inkscape:connector-curvature="0"
       style="stroke:#000000" />
    <path
       d="m 691.8,436.9 c 0,0 0.6,0 1,0.1 0.9,0.3 1.6,0.5 2.5,0.8 0.1,0 0.2,-0.3 0.4,-0.3 0.3,-0.2 0.7,-0.2 1,0 0.9,0.4 3.1,1.8 4.1,2.4 0.1,0 0.9,0.4 1.4,0.6 0.8,0.5 1.7,1 2.6,1.4 2.1,1.2 4.7,2.7 6.8,4.2 2.9,2 5.2,4.6 7.3,7.6 0.8,1.1 1.9,2.3 0.4,3.1 -0.1,0.1 -0.4,0.1 -0.6,0 -0.8,-0.3 -1.5,-1.6 -1.8,-2 0,0 0.5,0.7 0.7,1 0.9,1.8 1,1.9 1.7,3.7 1.1,2.6 1.7,5.4 2.3,8.2 0,0 0.5,-0.1 0.7,0 0.4,0.2 0.6,0.7 0.4,1.1 -0.4,0.7 -1.9,1 -2.6,0.5 -0.4,-0.4 -0.3,-0.8 -0.5,-1.2 -0.4,-1.7 -0.8,-3.3 -1.2,-5 -1,-3.7 -2.8,-7.2 -5.1,-10.3 -3.9,-5.4 -10,-8.4 -15.4,-12 0,0 -1.3,-0.5 -2,-0.7 -0.7,-0.3 -3,-1.3 -4.2,-1.2 0,0 0.3,0.3 0.5,0.3 0.1,0.1 1,0.3 1.2,0.7 0.1,0.2 -0.1,0.5 -0.3,0.6 -0.3,0.2 -1.2,-0.3 -1.3,-0.3 -0.8,-0.3 -2.7,-0.8 -2.5,-2 0.4,-2.2 4,-1.1 5.1,-0.7"
       id="path120"
       inkscape:connector-curvature="0"
       style="stroke:#000000" />
    <path
       d="m 720.9,459.4 c 0,0 0.2,0 0.4,0 0.1,0.1 0.4,0.2 0.5,0.4 0.4,0.6 0.6,1.3 0.6,2.1 -0.1,2.5 -1.1,5 -2.4,7.2 -3,5 -9,7.4 -14.2,9 0,0 -0.7,0.4 -1.1,0.5 -0.7,0.3 -1.5,0.5 -2.2,0.8 -1.9,0.6 -3.7,1 -5.7,1.5 -2.8,0.6 -6.7,1.3 -8.8,1.6 -1.8,0.4 -4.5,1.1 -6.6,1.1 0,0 -0.3,0.6 -0.6,0.7 -0.3,0 -0.6,-0.3 -0.6,-0.6 0.1,0 -0.1,-0.1 -0.2,-0.1 0,0 -0.3,-0.1 -0.4,-0.1 -0.2,-0.1 -0.5,-0.3 -0.6,-0.6 -0.2,-0.4 0,-0.9 0.4,-1.1 0.7,-0.5 2.5,-0.2 3.3,-0.3 3.6,-0.5 11.4,-2.1 13.2,-2.5 0,0 1.8,-0.7 2.8,-0.9 2.7,-0.8 4.1,-1.1 6.4,-1.8 0,0 0.7,-0.4 1.1,-0.5 0.6,-0.3 1.2,-0.7 1.8,-1 1.9,-1 3.7,-2.5 5,-4.2 0.7,-0.9 1.5,-2.3 2,-3.3 0.4,-0.7 0.6,-1.7 1.2,-2.3 0.6,-0.7 1.9,-1.1 2.3,-1.9 0.1,-0.4 -0.1,-0.9 0,-1.3 0,-0.4 0.1,-0.9 0.4,-1.2 0.6,-1.1 1.8,-1.7 2.8,-0.9 m -1.4,1.9 c 0,0 -0.2,0.3 -0.2,0.5 -0.1,0.4 -0.2,0.9 -0.5,1.3 -0.5,0.8 -1.4,1.1 -1.9,1.8 -0.1,0.2 -0.1,0.5 -0.1,0.7 0,0.5 -0.1,0.8 -0.3,1.4 -0.8,1.6 -1.8,3.2 -2.9,4.7 0,0 0.3,-0.2 0.5,-0.4 0.8,-0.7 1.6,-1.3 2.4,-2.1 1,-1.3 1.6,-2.7 2.3,-4.2 0.4,-1.1 0.9,-2.5 0.8,-3.7"
       id="path122"
       inkscape:connector-curvature="0"
       style="stroke:#000000" />
    <path
       d="m 746.2,473.7 c 0,0 2.6,0.1 3.9,0.2 0.9,0.1 2.1,0 2.8,0 0.5,-0.1 1.1,0 1.6,0 0.8,0.1 3.8,0.7 2.5,2.2 -0.3,0.3 -0.8,0.4 -1.1,0.4 -1.6,0.1 -2.6,0.1 -4.3,0.1 -5.1,-0.1 -9.2,-0.2 -14.2,-0.2 -8.6,0 -17.3,0.1 -25.8,1.2 -5.9,0.7 -12.7,2.2 -18.1,3.2 -2.3,0.5 -4.7,0.8 -7,1.4 0,0 -0.2,0.6 -0.4,0.7 0,0 -1.8,0.3 -2.7,0.5 -0.6,0.1 -1.2,0.5 -1.8,0.3 -0.4,-0.1 -0.7,-0.6 -0.6,-1.1 0.1,-1 1.4,-1.3 2.2,-1.6 2.2,-0.6 4.1,-1 6.3,-1.5 3.2,-0.6 15.1,-3 21.2,-3.8 4.5,-0.7 9.1,-0.9 13.7,-1 7.1,-0.2 14.2,-0.5 21.3,-0.3 0,0 0,-0.5 0.1,-0.6 0.1,-0.1 0.4,-0.1 0.6,-0.1 3.8,0.2 3.2,0.2 6.6,0.2"
       id="path124"
       inkscape:connector-curvature="0"
       style="stroke:#000000" />
    <path
       d="m 735.3,474.4 c 0,0 4.4,0 6.6,0 4.4,0 12.7,-0.1 17.8,0.1 1.1,0.1 4.6,-0.1 6.3,0.4 0.7,0.2 1.6,0.9 2.2,1.2 0.3,0.1 0.5,0.4 0.4,0.8 -0.1,0.3 -0.5,0.4 -0.8,0.4 -0.7,-0.2 -1.4,-0.3 -2.1,-0.5 -0.1,0 -0.2,0 -0.3,0 -4,-0.2 -8,-0.3 -12,-0.3 -6.1,-0.1 -13.2,-0.3 -19.4,-0.1 -4.4,0.1 -8.8,0.2 -13.2,0.3 -2.2,0.1 -4.4,0.3 -6.5,1 0,0 0,0 0,0 0,0 0.4,0.2 0.5,0.4 0,0.3 -0.2,0.5 -0.4,0.6 -0.3,0.1 -0.6,0 -0.9,0 -0.7,0 -2.4,0.1 -2,-1.2 0.2,-0.7 1,-1.1 1.6,-1.3 2.3,-0.9 4.7,-1.2 7.1,-1.3 11.2,-0.5 22.3,-0.5 33.5,-0.5"
       id="path126"
       inkscape:connector-curvature="0"
       style="stroke:#000000" />
    <path
       d="m 760.2,475.4 c 0,0 0.5,0.1 0.7,0.2 0.5,0.2 0.8,0.4 1.3,0.8 1.2,1.1 2.3,2.1 3.6,3.2 0,0 -0.2,-0.6 -0.3,-0.9 -0.1,-0.3 -0.1,-0.7 0,-1.1 0.4,-0.7 1.2,-0.7 1.9,-0.3 3.3,1.7 4.3,6 5,9.4 0,0 0.5,0.7 0.7,1.1 0.5,0.9 0.7,1.6 1.1,2.5 0.7,2.1 0.7,4.5 0.5,6.7 -0.8,7.5 -4.9,13.2 -10.3,18.2 0,0 0.4,0.1 0.6,0.2 0.4,0.3 0.7,0.5 0.8,1.1 0.1,0.7 -0.5,1.3 -1.1,1.6 -2.5,1.1 -5.8,1 -8.4,1.1 -5.1,0.2 -7.9,0.2 -13.2,0.2 -13.4,-0.2 -26.8,0.7 -40,2.9 -0.1,0 -0.6,0.1 -0.9,0.2 -0.5,0.1 -1.2,-0.1 -1.4,-0.6 -0.5,-1.3 1.1,-1.5 1.8,-1.6 0.1,0 1.5,-0.4 2.3,-0.6 0.9,-0.2 2,-0.4 2.9,-0.6 3.1,-0.6 6.4,-0.8 9.6,-1 0,-0.1 -1.6,0 -2.4,0 -2.5,0.1 -5.1,0.2 -7.6,0.6 -7.9,1.1 -15.7,2.7 -23.2,5.5 0,0 0.1,0.1 0.2,0.2 0.2,0.2 0.4,0.4 0.6,0.6 0.3,0.4 0.2,0.9 -0.2,1 -0.5,0.2 -1.4,-0.5 -1.6,-0.6 -0.8,-0.4 -1.5,-1.5 -0.9,-2.4 0.8,-0.9 4.5,-1.9 4.6,-1.9 1.9,-0.8 4.2,-1.3 6.2,-1.7 4.8,-1.1 9.6,-2.2 14.5,-2.7 6.6,-0.8 13.3,-0.8 19.9,-0.6 7,0.2 8.3,0.2 15.6,0.5 0.9,0.1 2.4,0 3.2,0.8 0,0 2.7,0 4,0 2.1,0 4.1,-0.1 6.1,-0.2 0,0 0.3,-0.3 0.4,-0.4 0.3,-0.3 0.7,-0.4 1.1,-0.5 1.6,-0.6 3,-1.3 4.3,-2.5 0,0 0,0 0.1,0 0,0 1.1,-1.2 1.5,-1.8 1.4,-1.8 2.8,-3.5 3.7,-5.5 1.2,-2.6 2.5,-5.2 3,-7.9 0.5,-3.4 0.4,-7 0.1,-10.3 0,0 -0.2,-0.4 -0.3,-0.6 -0.9,-1.1 -1.8,-2.3 -2.6,-3.5 0,0 -0.3,-0.3 -0.4,-0.4 -0.5,-0.5 -1.1,-1.1 -1.6,-1.6 -0.5,-0.6 -1.2,-1 -1.8,-1.6 0,0 0.2,0.3 0.2,0.5 0.1,0.2 0.1,0.6 -0.1,0.8 -0.3,0.3 -0.6,0 -0.8,-0.3 0,0 -0.3,-0.5 -0.5,-0.7 -0.3,-0.4 -0.9,-0.8 -1.2,-1.1 -0.7,-0.5 -1.3,-1.4 -1.9,-2.1 -0.2,-0.3 -0.5,-0.7 -0.6,-1.1 -0.1,-1.4 1.5,-1.2 2.3,-0.8 m 7,5 c 0,0 0.1,0.4 0.2,0.7 0.1,0.4 0.3,0.8 0.6,1.2 0,0 -0.5,-1.3 -0.8,-1.9"
       id="path128"
       inkscape:connector-curvature="0"
       style="stroke:#000000" />
    <path
       d="m 740.5,517.2 c 0,0 0.7,0 1.1,0 1.2,0 2.5,0.1 3.7,0.1 1.4,0 2.8,0.2 4,0.2 4.7,0.3 9.7,0.8 14.1,2.5 0.1,0 0.2,0.1 0.3,0.1 1.3,0.3 2.5,0.7 3.7,1 1,0.3 2.2,0.6 3.1,1.2 1.2,0.8 0.5,2.2 -0.9,2.1 0,0 0.3,0.3 0.4,0.4 0.4,0.6 0.8,1.2 1.2,1.8 0.8,1.3 2.3,3.3 3,4.9 2.4,5.6 3.2,11.4 1,17.3 0,0 -0.2,0.7 -0.3,1.1 -0.5,1.3 -0.9,2.7 -1.6,3.9 -1.6,3.1 -3.3,6.3 -5.7,8.9 -0.4,0.5 -0.9,1 -1.4,1.5 0,0 0,0.1 -0.1,0.1 0,-0.1 -0.2,0.3 -0.3,0.5 -0.5,0.3 -1.3,0.1 -1.5,-0.5 -0.1,-0.1 -0.3,-0.4 -0.1,-0.4 0,-0.1 0,0.1 0,0.1 0,0 -0.2,-0.3 -0.2,-0.3 -0.2,-0.3 -0.4,-0.5 -0.6,-0.7 -1.2,-0.9 -2.3,-1.9 -3.7,-2.6 0,0 -0.7,0 -1,-0.1 -0.9,-0.2 -1.8,-0.4 -2.7,-0.6 -4.2,-0.8 -8.1,-1.6 -12.3,-2.4 -8.8,-1.8 -18.1,-1.8 -27,-1.3 0,0 -1.7,0.4 -2.5,0.6 0,0 1.5,0.3 1.9,0.9 0.1,0.2 0.1,0.6 0,0.7 -0.2,0.3 -0.6,0.3 -0.8,0.2 -1.4,-0.3 -2.6,-0.6 -3.9,-1.2 0,0 -2.2,0.5 -3.3,0.8 -2.3,0.6 -4.7,1.3 -7,2 -3.5,0.9 -7.8,1.7 -11.2,2.4 -0.1,0 -0.1,0 -0.2,0 -0.8,0.1 -4.1,1.3 -4.5,-0.4 -0.2,-0.9 0.8,-1.3 1.5,-1.5 1,-0.3 1.9,-0.5 2.9,-0.8 0.1,0 0.2,-0.1 0.3,-0.1 4.8,-1.5 9.9,-3.4 15,-4.4 2.2,-0.4 4.5,-0.6 6.7,-0.8 0,0 0.3,-0.1 0.4,-0.1 0.6,-0.1 1.2,-0.3 1.8,-0.3 3,-0.3 4.9,-0.5 8,-0.7 0,0 1.1,-0.1 1.6,-0.1 1.3,-0.1 2.6,-0.1 3.9,-0.2 2.4,-0.1 4.8,0 7.3,0.1 0,0.1 1.1,0.1 1.7,0.1 1.5,0.1 3.1,0.2 4.7,0.4 4.6,0.5 9,0.9 13.4,2.3 1.8,0.6 4.2,1.2 5.7,2.4 0,0 0.7,0.4 1,0.6 0.5,0.2 0.9,0.5 1.3,0.8 1.1,0.7 2,1.6 2.9,2.4 0.1,0.1 0.3,-0.2 0.5,-0.4 0.3,-0.4 0.7,-0.8 1,-1.2 0.7,-0.7 1.2,-1.6 1.8,-2.5 0,0 0.1,-0.4 0.1,-0.6 0.1,-0.2 0.3,-0.4 0.4,-0.7 0.1,0 0.9,-1.6 1.3,-2.3 0.5,-1.1 1,-2.3 1.3,-3.4 0.3,-1.5 0.7,-3.1 1,-4.6 0.4,-2.7 0.3,-5.5 0.4,-8.2 0,-0.1 -0.9,-2.4 -1.3,-3.6 -0.5,-1.2 -2.3,-3.8 -1.3,-5.3 0,0 -0.9,-1.5 -1.4,-2.2 -0.3,-0.5 -0.7,-1.1 -1.1,-1.6 -0.5,-0.6 -1.8,-1.6 -1.9,-2.6 0,-0.1 -0.5,-0.2 -0.8,-0.3 -0.3,-0.1 -0.6,-0.2 -0.9,-0.3 0,0 -0.5,0.1 -0.8,0.1 -0.5,0 -1,-0.2 -1.4,-0.3 -2,-0.6 -3.9,-0.9 -5.9,-1.2 -4.8,-0.5 -9.7,-0.2 -14.5,-0.1 -3,0.1 -6,0.1 -8.9,0.1 -0.2,0 -0.2,0.1 -0.4,0.1 -0.6,0 -4.4,0.8 -4.2,-1.2 0,0 -0.1,0 -0.2,0 -1.7,0.2 -3.4,0.3 -5.2,0.4 -2.3,0.2 -4.5,0.5 -6.7,0.7 -7.3,1 -14.5,2 -21.6,3.9 -3.4,0.8 -4.1,1 -7.5,2.1 -0.4,0.1 -0.7,0.2 -1,0.5 -0.1,0 -0.1,0 -0.1,0.1 0,0 1.5,-0.6 2.2,-0.8 0.7,-0.3 2.2,-0.9 3,-0.8 0.6,0 0.7,0.9 0.1,1 -0.1,0 -0.9,0.2 -1.3,0.3 -0.4,0.1 -0.8,0.3 -1.2,0.4 -0.9,0.4 -1.7,0.8 -2.5,1.2 -0.3,0.2 -1.1,0.8 -1.6,0.7 -1.1,0 -1,-1.3 -0.8,-2.1 0.5,-1.7 1.8,-2.2 3.4,-2.7 4.8,-1.4 4.4,-1.3 9.1,-2.4 12.2,-2.9 25,-4.2 37.5,-4.9 0.1,0 0.3,0 0.4,0 0.7,-0.1 1.4,-0.1 2.1,-0.2 1.6,-0.1 3.3,0 5,0 m -1.6,2 c 0,0 -2.4,0.1 -3.7,0.1 -0.5,0 -1.1,0.1 -1.7,0.1 0,0 -0.9,0.1 -1.3,0.2 -0.1,0 1,0 1.6,0 4,-0.1 5.8,-0.1 9.7,-0.2 0,0 -1.5,-0.1 -2.3,-0.2 -0.8,0 -1.5,0 -2.2,0"
       id="path130"
       inkscape:connector-curvature="0"
       style="stroke:#000000" />
    <path
       d="m 762.1,564.4 c 0,0 0.6,0.1 0.9,0.2 0.5,0.2 1,0.7 1.4,1.1 0.3,0.5 -0.1,1.2 -0.7,0.8 0,0 -0.5,-0.3 -0.8,-0.4 0,0 -0.1,0.6 -0.2,0.9 -0.2,0.6 -0.5,1.3 -0.6,1.8 -0.4,1.1 -0.9,2.1 -1.4,3.1 0,0.1 0.5,0 0.7,0.1 0.6,0.4 0.5,0.9 0.4,1.5 0,0 -0.7,2.1 -1.1,3.2 -0.3,1.1 -0.7,2 -1.3,3 -1.8,3.6 -4.8,7.3 -8,9.8 0,0 -1.5,2 -2.4,3 -2.4,2.9 -2.6,3.2 -4.6,5.3 -0.4,0.4 -0.9,1 -1.4,1.4 -1.3,0.9 -3,1.3 -4.4,1.9 0,0 -0.2,0.1 -0.2,0.1 -0.5,0.2 -1,0.4 -1.5,0.7 -0.3,0.1 -0.7,0.2 -1,0.3 0,0 -0.3,0.1 -0.4,0.2 -0.8,0.3 -2,0.9 -3,1.3 -2.8,0.9 -5.6,1.6 -8.5,2 -2.4,0.3 -6.4,0.2 -8.3,0.2 -4.8,-0.1 -10,-0.5 -14.7,-0.8 -2.1,-0.1 -6.3,-0.3 -9.4,-0.6 -0.7,-0.1 -1.4,-0.2 -2.1,-0.3 -0.9,-0.1 -3.8,-0.3 -3.8,-1.9 0.1,-1.2 1.6,-1.1 2.3,-0.9 2.8,0.6 5.4,0.9 8.2,1.1 10.8,0.8 22.2,2 33,-0.4 0,0 -0.5,0.1 -0.7,0.1 -1.2,0.1 -2.3,0.1 -3.4,0.2 -1.4,0.1 -3,0.1 -4.2,0.1 -4.3,0.1 -9,0.2 -13.3,-0.1 -4.5,-0.4 -9,-0.8 -13.3,-2 -6,-1.5 -11.3,-4.3 -16.7,-7.2 -3.4,-1.8 -6.8,-3.5 -10.3,-5.3 0,0 -0.3,-0.2 -0.4,-0.3 -0.3,-0.1 -0.9,-0.4 -1.1,-0.7 -0.2,-0.6 0.1,-1.3 0.7,-1.5 0.5,-0.1 1.1,0.2 1.4,0.4 1.3,0.7 2.5,1.4 3.8,2.1 0.1,0.1 0.1,0.1 0.2,0.1 7.3,3.8 14.6,8.5 22.7,10.4 8.6,2.1 17.1,2.1 25.9,2.1 1.5,0 3,0 4.5,-0.1 3.5,-0.2 7.1,-0.6 10.6,-1.1 1.1,-0.2 2.6,-0.9 3.8,-0.7 0.1,0 1.7,-0.7 2.5,-1.1 0,0 0.6,-0.7 0.9,-1 0.5,-0.4 0.9,-0.9 1.4,-1.4 0,0 -0.7,0.5 -1.1,0.8 -0.5,0.3 -1.9,1.3 -2.6,1.6 -0.8,0.2 -1.6,-0.4 -1.5,-1.2 0.2,-0.6 0.9,-0.9 1.3,-1.3 1.6,-1.2 2.9,-2.4 4.3,-3.8 4,-3.6 7.7,-7.9 10.4,-12.5 2,-3.6 3.8,-7.3 5.4,-11.1 0.5,-1.3 0.6,-3.8 2.6,-3"
       id="path132"
       inkscape:connector-curvature="0"
       style="stroke:#000000" />
    <path
       d="m 734,599.7 c 0,0 0.5,0.1 0.6,0.3 0.3,0.5 0.3,0.8 0,1.3 -1.6,2.4 -3.4,4.4 -5.3,6.6 -3.4,3.8 -7.8,6.6 -12.3,8.9 0,0 -1.2,0.7 -1.8,1.1 -1.2,0.7 -2.4,1.3 -3.7,1.9 -3.1,1.6 -6.2,3.1 -9.4,4.3 -2.3,0.9 -4.7,1.6 -6.9,2.6 -1.5,0.7 -2.6,2.6 -4.2,2.9 -0.8,0.1 -1.6,-0.6 -1.2,-1.4 0.3,-0.8 1.4,-1.2 2,-1.5 0,0 0.8,-0.7 1.3,-1 0.6,-0.5 1.3,-0.9 2,-1.1 5.5,-2.1 6.1,-2.2 9.9,-3.8 0,0 -0.1,-0.2 -0.1,-0.3 0,-0.3 0,-0.6 0.1,-0.8 0.3,-0.4 1.6,-0.9 1.7,-1 1.8,-0.8 3.9,-2 5.3,-2.7 3.4,-1.8 6.5,-4.5 9.6,-6.9 1.5,-1.2 3,-2.4 4.2,-4 0,0 0.2,-0.2 0.3,-0.3 0.3,-0.4 0.7,-0.8 1.3,-0.6 0.6,0.2 0.8,1.1 0.4,1.6 0,0 -1.2,1.7 -1.8,2.5 0,0 0.2,-0.1 0.3,-0.2 0.4,-0.4 0.9,-0.9 1.4,-1.4 1.3,-1.5 2.9,-3 3.9,-4.7 0.1,0 -0.4,0.1 -0.6,0.2 -0.4,0.3 -0.8,0.6 -1.3,0.9 -1.1,0.6 -2.4,0.5 -3.6,1 0,0 -0.5,0.1 -0.7,-0.1 -0.2,-0.1 -0.2,-0.5 0,-0.7 0.8,-1 2.4,-0.9 3.4,-1.3 0.6,-0.2 1.2,-0.8 1.7,-1 0.7,-0.5 1.9,-0.8 2.6,-1 0.1,0 0.6,-0.4 0.9,-0.3 0.5,0 0.6,0.3 0.8,0.7"
       id="path134"
       inkscape:connector-curvature="0"
       style="stroke:#000000" />
    <path
       d="m 539.4,576.3 c 0,0 0.5,0 0.8,0 0.5,0.1 1.7,0.6 1.5,1.3 -0.1,0.2 -0.5,0.4 -0.7,0.3 -0.1,0 -0.2,-0.4 -0.3,-0.3 0,0.1 -0.3,-0.2 -0.4,-0.2 -0.3,-0.1 -0.8,-0.1 -1.1,0 -0.8,0.1 -2.5,0.8 -2.9,0.9 -0.3,0.1 -0.7,0 -0.8,-0.3 -0.2,-0.7 1.4,-1 1.6,-1.1 1.2,-0.4 2.3,-0.8 3.6,-0.4"
       id="path136"
       inkscape:connector-curvature="0"
       style="stroke:#000000" />
    <path
       d="m 519.5,580.2 c 0,0 -0.6,0 -0.8,-0.2 -0.2,-0.2 -0.2,-0.5 -0.1,-0.7 0.2,-0.4 0.9,-0.6 1.2,-0.9 0.2,-0.3 0.2,-0.8 0.4,-1.1 0.5,-0.9 1.6,-1.3 2.6,-1.5 1.7,-0.4 3.5,-0.4 5.2,-0.6 4.9,-0.5 9.6,-0.9 14.4,0.7 2.8,0.9 5.4,2.8 7.8,4.6 3.3,2.5 6.7,4.9 9.8,7.6 2.1,1.8 4.1,4 6.4,5.6 4.1,3 9.5,4.1 14.3,5.5 0.1,0.1 -1,-0.6 -1.5,-0.9 -0.7,-0.4 -1.4,-0.7 -2.1,-1 -2.6,-1.2 -5.9,-2.4 -8,-4.5 -1.1,-1 -1.6,-2.4 -2.6,-3.5 -2.4,-2.7 -5.3,-5.1 -8.1,-7.2 -3.3,-2.5 -6.2,-5.1 -9.8,-6.9 -4.4,-2.3 -10.2,-2.1 -14.9,-2.3 -0.1,0 -0.2,0 -0.3,0 -0.3,-0.1 -2.8,-0.2 -2.2,-1.4 0.1,-0.3 0.5,-0.4 0.8,-0.4 1.4,0 2.7,0 4,0 4.5,-0.1 9.7,0.3 13.7,2.4 1.9,1 3.5,2.1 5.2,3.4 4,3.1 8.1,6.2 11.7,9.7 0.8,0.8 1.6,1.5 2.3,2.4 0.7,0.9 1.1,2.1 2.1,2.8 2.8,2 6.1,3.1 9.1,4.7 2.1,1.2 4,2.9 6.3,3.9 2.5,1 4.4,1.4 7,2.3 1.7,0.5 3.3,1.2 4.9,1.9 0,0 2.5,0.6 3.7,0.9 3.5,0.8 5.9,1.4 9.1,2.3 3.3,0.9 6.7,1.8 10.1,2.7 2.4,0.6 4.8,0.9 7.3,1.5 3.1,0.8 6.1,1.9 9.2,2.6 0.1,0 0.9,0.1 1.3,0.2 0.6,0 1.3,0 1.9,0 1.3,0.1 3.2,-0.1 4.1,-0.2 3.1,-0.2 8,0.1 10.5,0.2 2.4,0 4.8,0.3 7.2,0.4 6.6,0.2 13,0.3 19.5,1.8 2,0.4 4.5,0.8 6.6,1.6 1.9,0.6 3.4,1.4 5.2,2.2 0.7,0.3 3.1,1 3,2.2 -0.1,1.7 -2.4,0.7 -3.2,0.5 -0.4,-0.1 -0.7,-0.1 -1.1,-0.1 -0.8,-0.1 -1.6,0 -2.4,-0.1 -1.2,0 -2.6,-0.1 -3.8,-0.1 -1.3,0 -2.6,0 -3.8,0 -5.3,0 -10.5,-1.2 -15.7,-1.9 -2.6,-0.3 -5.3,-0.3 -8,-0.6 -2.9,-0.3 -5.7,-1.1 -8.6,-1.7 -4.3,-0.8 -8.6,-1.4 -12.9,-2.4 0,0 -0.2,0 -0.2,0 -0.8,-0.2 -1.6,-0.3 -2.4,-0.4 -0.7,-0.2 -1.5,-0.4 -2.3,-0.5 -3,-0.7 -6.1,-1.7 -9.1,-2.4 -2.2,-0.6 -4.5,-0.9 -6.7,-1.3 -6.4,-1.4 -12.9,-3.1 -19.1,-5.5 0,0 -1.5,-0.4 -2.3,-0.5 -0.9,-0.3 -1.8,-0.6 -2.7,-0.8 -2.3,-0.7 -4.7,-1.5 -7,-2.2 -2,-0.6 -3.9,-1.4 -5.8,-1.9 -3.3,-1 -6.7,-1.8 -9.8,-3.2 -1.6,-0.7 -3.3,-1.5 -4.8,-2.5 -2.3,-1.7 -4.4,-3.8 -6.5,-5.6 -3.1,-2.7 -6.4,-5.2 -9.7,-7.6 -1.7,-1.4 -3.7,-2.9 -5.7,-3.8 -4.8,-2.3 -10.1,-1.8 -15.2,-1.2 -1.5,0.1 -4.3,-0.1 -5.8,0.6 -0.7,0.2 -0.8,1 -1.4,1.4 0,0 0.3,0 0.4,0 0.4,-0.1 0.9,-0.2 1.3,-0.1 0.3,0.1 0.6,0.6 0.3,0.9 -0.1,0.1 -0.4,0.1 -0.5,0.1 -0.7,0 -2.8,0.5 -3.8,-0.1 m 129.2,36.6 c 0,0 1.8,0.3 2.7,0.4 1,0.2 2.2,0.5 3.1,0.7 3.1,0.7 6.1,1.1 9.2,1.4 2.5,0.2 4.8,0.3 7.3,0.6 3.1,0.5 6.2,1.2 9.3,1.4 3.6,0.3 7.2,0.2 10.8,0.2 0.1,0 -1.4,-0.6 -2.2,-0.8 -0.5,-0.3 -1.1,-0.4 -1.7,-0.6 -3,-0.6 -6.3,-1.6 -9.4,-1.9 -2.8,-0.3 -5.5,-0.6 -8.3,-0.7 -2.1,-0.1 -4.1,-0.1 -6.2,-0.1 -4.9,-0.2 -9.7,-0.5 -14.6,-0.6"
       id="path138"
       inkscape:connector-curvature="0"
       style="stroke:#000000" />
    <path
       d="m 417.8,496.5 c 0,0 0.2,-0.1 0.2,0 0,0 -0.2,0 -0.2,0 M 328.2,514 c 0,0 -0.3,0.1 -0.4,0.2 0,0 0.5,-0.3 0.8,-0.4 m 12.5,-3.4 c 0,0 0,0 -0.1,0.1 -2.8,1.2 -5.6,2.3 -8.5,3.6 0,0 0.4,-0.1 0.6,-0.2 0.7,-0.2 1.6,-0.5 2.4,-0.8 2.4,-1 3.4,-1.5 6,-2.8 m 76.3,-13.8 c 0,0 0.2,0 0.2,0 0,0.1 0.6,0.2 0.8,0.5 0,0 0.7,0 1,0 0.4,-0.1 0.9,0 1.4,0 0,0 0.4,0 0.6,0 0,0 0.6,0 0.9,0 0.6,0 1.2,0 1.9,0 0.9,0 2.5,-0.2 3.2,0.7 0,0 0.3,0.1 0.4,0.2 0.2,0.1 0.4,0.4 0.4,0.7 0.1,0.6 -0.4,0.9 -1,0.9 0,0 -1.6,-0.2 -2.4,-0.4 0,0 -0.8,0 -1.2,0 0,0 -0.5,0 -0.7,0 -0.4,-0.1 -0.9,-0.1 -1.3,-0.2 0,0 -1.5,0 -2.2,0 -3.9,0.1 -7.2,0.2 -10.9,0.4 -0.1,0 -2.2,0.3 -3.3,0.5 -0.7,0.1 -1.4,0.1 -2.2,0.1 0,0 -0.1,0 -0.1,0 -3.6,0.4 -8.3,0.8 -12.4,1.3 -10.2,1.3 -20.4,3 -30.6,5 0,0 -0.1,0 -0.1,0 -1.8,0.6 -3.5,1.2 -5.3,1.7 -1.9,0.6 -3.9,1.3 -5.9,1.6 -1.5,0.3 -3.1,0.7 -4.6,0.6 0,0 -0.1,0 -0.2,0 -1.7,1 -3.5,1.9 -5.3,2.8 -3.3,1.8 -6.7,3.1 -10.4,3.7 0,0 -0.9,0.7 -1.4,1 -1,0.6 -3,2.2 -4.4,1.8 0,0 -0.2,0.3 -0.2,0.4 -0.2,0.6 -0.4,1.1 -0.4,1.7 -0.2,1.4 0.2,2.6 0.5,3.9 0,0 0.7,-0.2 1,-0.1 0.3,0.1 0.4,0.5 0.4,0.7 -0.1,0.2 -0.3,0.3 -0.4,0.4 -1.3,0.4 -2.1,0.5 -2.7,-0.9 -1.7,-3.9 0,-7.9 2.9,-10.7 0.1,0 0.1,-0.3 0.1,-0.5 0.2,-0.3 0.5,-0.6 0.7,-0.8 0.9,-0.6 2.1,-1.1 3,-1.3 0,0 1.7,-1 2.5,-1.5 0.6,-0.3 1.2,-0.6 1.8,-0.9 0.7,-0.4 2.8,-1.2 3.2,0.1 0,0.1 3.3,-0.7 4.9,-1.1 0,0 0.1,0 0.1,-0.1 2.7,-1.1 5.4,-2.3 8.1,-3.4 5.4,-2.3 10.7,-4.5 16.3,-6.4 0.7,-0.3 2.8,-1.1 3.7,-0.4 0.4,0.4 0.3,1 -0.1,1.3 -0.9,0.5 -1.9,0.6 -2.8,0.9 -4.2,1.3 -8.2,2.9 -12.1,4.8 0,0 0.1,0 0.1,0 5.8,-1.4 11.5,-2.8 17.3,-4.2 0,0 2,-0.7 3,-1.1 1.5,-0.5 3.2,-1 4.6,-1.4 3.8,-1.2 7.6,-2 11.5,-2.7 1.6,-0.3 3.4,-0.4 5.1,-0.5 0.3,0 0.8,0.1 0.9,0.5 0.4,1 -1.2,1.2 -1.8,1.3 -1.3,0.2 -2.5,0.4 -3.8,0.7 -4.1,0.6 -8,1.9 -11.9,3 0,0 0.1,0 0.1,0 2,-0.3 4.2,-0.7 6.3,-1 7.2,-0.9 11.1,-1.3 19.1,-2.2 0.1,0 0.5,-0.1 0.7,-0.1 0.8,-0.1 1.5,-0.2 2.3,-0.2 0.8,-0.1 1.5,-0.1 2.3,-0.1 0,0 1,-0.1 1.5,-0.2 0.2,0 0.4,0 0.7,0 0,0 0.4,-0.1 0.6,-0.1 2,-0.3 4,-0.5 6,-0.7"
       id="path150"
       inkscape:connector-curvature="0"
       style="stroke:#000000" />
    <path
       d="m 322.1,519 c 0,0 0.5,0.2 0.6,0.5 0.1,0.2 0,0.8 -0.4,0.8 0,0 -0.1,0.2 -0.1,0.3 -0.2,0.6 -0.4,1.2 -0.5,1.9 -0.2,0.8 -0.4,1.7 -0.7,2.5 -1.1,3.6 -2.7,7.6 -2.7,11.5 0,2.3 0.2,4.7 1.1,6.9 0.2,0.7 0.5,1.4 0.8,2.1 0.1,0.4 0.1,0.9 -0.4,1 -0.3,0 -0.5,-0.2 -0.6,-0.4 -0.8,-1.3 -1.5,-2.4 -1.9,-3.8 -0.4,-1.5 -0.8,-2.9 -0.9,-4.5 -0.2,-4.6 1.5,-9 3,-13.4 0.3,-1 0.5,-2.1 0.8,-3 0.2,-1 0.8,-2.9 2.3,-2.2 m -0.6,0.9 c 0,0 0,0 0,0.1 0,0 0,-0.1 0,-0.1"
       id="path152"
       inkscape:connector-curvature="0"
       style="stroke:#000000" />
    <path
       d="m 318.9,551.2 c 0,0 0.2,0 0.4,0 0.1,0 0.4,0.1 0.5,0.1 0.5,0.2 1,0.5 1.5,0.8 2.2,1.5 4.5,3 6.7,4.5 7.4,4.8 14.9,9.7 22.8,13.7 3.5,1.8 7.1,3.6 10.8,4.9 1.3,0.4 2.6,0.9 3.9,1.3 0.4,0.2 0.8,0.6 0.5,1.1 -0.2,0.3 -0.6,0.3 -0.8,0.2 -1.7,-0.5 -3.4,-0.9 -5.1,-1.4 -2,-0.6 -4,-1.5 -5.8,-2.3 -2.6,-1.1 -5.8,-2.8 -8.1,-4.1 -7.5,-4.2 -14.6,-8.8 -21.8,-13.5 0,0 -0.2,0.6 -0.4,0.6 -0.3,0 -0.5,-0.2 -0.6,-0.4 0,0 -0.1,-0.3 -0.2,-0.5 -0.1,-0.3 -0.3,-0.5 -0.5,-0.7 0,0 -2.3,-1.6 -3.5,-2.2 0,0 -0.5,-0.2 -0.7,-0.4 -0.4,-0.3 -0.5,-0.8 -0.3,-1.2 0.4,-0.7 1.1,-0.5 1.7,-0.3"
       id="path154"
       inkscape:connector-curvature="0"
       style="stroke:#000000" />
    <path
       d="m 320.3,553.2 c 0,0 0.5,0.2 0.8,0.3 1.8,1 2,1.1 3.8,1.9 2.2,0.9 4.6,1.6 6.8,2.4 7,2.3 14.8,3 21.9,4.1 18.7,3 37.5,6.1 56.5,6.1 0,0 0.2,-0.3 0.4,-0.4 0.3,0 0.5,0.2 0.6,0.4 0,0 0,0 0,0 0,0 2.8,-0.4 3.8,0.3 0.8,0.5 0.3,1.7 -0.6,1.7 0,0 -0.1,0 -0.1,0 -4.2,-0.1 -8.3,-0.1 -12.4,-0.2 -7.2,-0.2 -14.4,-1.1 -21.6,-1.8 -8.8,-1 -17.5,-2.6 -26.3,-4 -11.1,-1.8 -22.8,-3 -32.9,-8.3 0,0 0,0.5 -0.2,0.6 -0.2,0 -0.6,-0.1 -0.7,-0.3 0,0 -0.5,-0.9 -0.8,-1.3 -0.2,-0.4 -0.2,-1 0.2,-1.3 0.9,-0.7 3,0.9 3.5,1.1"
       id="path156"
       inkscape:connector-curvature="0"
       style="stroke:#000000" />
    <path
       d="m 334.3,558 c 0,0 0.3,0.1 0.5,0.1 0.2,0.1 0.5,0.2 0.8,0.3 0.8,0.3 1.9,0.5 2.5,0.6 0.3,0.1 0.6,0.4 0.4,0.8 0,0 0.6,0.2 1,0.2 0.9,0.2 1.8,0.3 2.7,0.5 1.5,0.2 3.2,0.4 4.7,0.6 5.4,0.7 10.9,1.4 16.2,2.1 11.7,1.4 23.6,1.9 35.3,2.6 6.9,0.4 12.6,0.9 19.3,1.5 1.4,0.2 3,0.1 3.2,1.8 0,0 -0.3,0.5 -0.5,0.6 -0.5,0.1 -1.3,-0.2 -1.8,-0.3 -2.6,-0.2 -5.3,-0.5 -7.9,-0.7 -3,-0.3 -6.3,-0.5 -9.1,-0.7 -12.8,-0.9 -25.7,-1.2 -38.4,-2.9 -7.8,-1 -15.7,-1.5 -23.3,-3.2 -1.9,-0.3 -4.1,-0.6 -5.6,-1.9 -0.5,-0.4 -1.3,-1.6 -0.3,-2 0.4,-0.2 1.4,0.3 1.7,0.5 m 85.2,10.6 c 0,0 0,0 0,0 0,0 0,0 0,0"
       id="path158"
       inkscape:connector-curvature="0"
       style="stroke:#000000" />
    <path
       d="m 325.1,527.5 c 0,0 0.2,0.1 0.3,0.2 0.1,0.2 0.1,0.4 0,0.7 -0.5,1.3 -1,2.5 -1.5,3.8 -0.6,1.5 -0.9,3.3 -1.3,4.8 -0.6,2.7 -0.6,5.5 -0.7,8.2 -0.1,1.9 0,4 0.5,5.8 0.6,2 1.8,3.8 2.8,5.5 0.9,1.5 1.8,3.3 3.1,4.4 0.5,0.4 1.1,1 1.7,1.1 0.1,0 0.3,-0.3 0.4,-0.5 0.1,-0.3 -0.1,-0.7 -0.1,-0.9 0,-0.1 -0.6,-0.5 -0.8,-0.8 -0.8,-0.9 -2.5,-2.6 -1.4,-3.9 1.4,-1.6 2.9,1.1 3.2,2.1 0.1,0.4 0.2,0.7 0.3,1.1 0,0 0.7,0.6 1,0.8 1,0.8 2,1.4 3.2,1.9 0,0.1 1.6,0.4 2.3,0.5 1.5,0.4 3,0.6 4.5,0.9 4.2,0.8 8.2,2.5 12.2,4 0,0 0.6,0.1 0.9,0.1 2.2,0.4 4.4,0.8 6.6,1.1 0,0 0.4,-0.2 0.6,-0.1 1.5,0.1 3.1,0.3 4.6,0.4 3.8,0.2 7.2,0.4 10.9,0.4 11.6,0.1 23.1,0.2 34.7,1.5 2.1,0.3 4.3,0.7 6.4,1.4 0.6,0.2 1.4,0.6 1.6,1.2 0,0.1 1.3,0.1 2,0.1 0,0.1 0,-0.3 0,-0.4 0,-0.3 0.2,-0.6 0.4,-0.8 0.8,-1 1.8,-1.6 2.8,-2.3 0.1,0 0.6,-0.2 0.7,0 0.2,0.1 0.2,0.5 0.1,0.7 -0.5,0.9 -1.9,1.5 -2.6,2.3 0,0 0.5,-0.1 0.8,-0.1 0.2,0 0.5,0 0.8,0 1.1,0.2 2.2,0.8 3.3,1 0,0.1 1.8,0.2 2.7,0.3 0.7,0.1 2.9,0.2 3.2,1.2 0.7,1.8 -2.3,1.1 -2.9,0.8 0,0 -1.2,-0.1 -1.7,-0.2 -1.1,-0.1 -2.3,-0.2 -3.4,-0.3 -3.1,-0.3 -6.3,-0.3 -9.4,-0.4 -0.1,0 -1.5,0 -2.2,0 -1.4,0.1 -3,0 -4.3,0 -3.1,-0.1 -6.7,-0.3 -9.8,-0.6 -11.2,-1.2 -22.3,-2.3 -33.4,-3.4 -0.1,0 -0.4,0 -0.5,0 -0.1,0 -0.1,0 -0.1,0 0,0 -1.5,-0.1 -2.2,-0.2 -1.6,-0.2 -3.1,-0.3 -4.6,-0.6 0,0 -3.3,-0.3 -5,-0.5 -1.8,-0.3 -3.6,-0.5 -5.5,-0.7 -4.3,-0.6 -9.4,-1.2 -13.3,-3.4 -1,-0.5 -3.1,-1.4 -3.3,-2.6 0,-0.1 -0.3,-0.2 -0.5,-0.3 -0.4,-0.3 -0.8,-0.6 -1.2,-0.9 0,0 -0.1,0.2 -0.1,0.3 -0.1,0.2 -0.2,0.4 -0.3,0.6 -0.3,0.5 -0.9,0.9 -1.5,1 -1.1,0.1 -2.3,-0.8 -3,-1.5 -1.4,-1.1 -2.3,-2.7 -3.2,-4.2 -0.8,-1.4 -1.7,-2.8 -2.4,-4.2 -1.3,-2.4 -1.7,-5.3 -1.6,-8 0.2,-5 0.9,-9.6 2.7,-14.2 0.5,-1.3 1.6,-3.2 1.9,-3.8 0.2,-0.5 0.7,-0.5 1,0 m 63.8,43.1 c 0,0 2.6,0.3 3.9,0.5 2.6,0.2 5.3,0.5 7.8,0.7 5.4,0.5 10.2,0.6 15.6,0.8 0,0 -0.4,-0.1 -0.7,-0.1 -0.8,-0.1 -1.7,-0.3 -2.5,-0.4 -1.3,-0.2 -2.6,-0.4 -3.9,-0.5 -6.7,-0.5 -13.5,-0.9 -20.2,-1"
       id="path160"
       inkscape:connector-curvature="0"
       style="stroke:#000000" />
    <path
       d="m 327.7,517 c 0,0 0.3,0 0.4,0.1 0.2,0.1 0.5,0.5 0.5,0.7 -0.1,0.6 -0.6,1 -0.9,0.3 -0.1,0 -0.3,0.6 -0.4,0.8 -0.2,0.6 -0.3,1.1 -0.4,1.7 -0.7,4.4 -0.7,4.7 -1.2,9 -0.8,6.5 -0.9,13.2 -0.4,19.8 0.3,3.4 1.2,6.6 2.4,9.8 0.4,1.1 1.2,2.5 1.6,3.2 0.1,0.4 0.1,0.9 -0.3,1 -0.3,0 -0.6,-0.2 -0.7,-0.4 -0.3,-0.7 -0.7,-1.4 -1.1,-2.1 -1,-1.9 -1.6,-3.8 -2.2,-5.8 -1,-3.8 -1.2,-7.7 -1.4,-11.6 -0.2,-5.3 0.2,-10.9 1,-16.1 0.4,-3 0.8,-6 1.6,-8.9 0.3,-0.9 1.1,-2.1 2.1,-1.2 m -0.7,0.7 c 0,0 0,0 0,0 0,0 0,0 0,0"
       id="path162"
       inkscape:connector-curvature="0"
       style="stroke:#000000" />
    <path
       d="m 337.5,562.5 c 0,0 0.1,0 0.1,0 0,0 0,0 0,0 0,0 0.3,0.3 0.4,0.4 0.6,0.6 0.9,0.8 1.7,1.4 1.2,0.9 3,1.7 4.4,2.3 5.5,2.3 10.9,4.3 16.6,6 6.9,2.1 14.3,2.6 21.4,3.1 4.6,0.4 9.5,0.6 14,0.9 2.8,0.2 6.3,0.3 9.2,0.2 1.8,-0.1 5.2,0 7.2,-0.5 0,0 -1.5,-1 -2.2,-1.6 -0.1,0 -0.3,-0.2 -0.4,-0.3 -0.1,-0.3 0.1,-0.7 0.3,-0.7 0.2,-0.1 0.4,-0.1 0.6,0 0.7,0.4 1.5,0.7 2.2,1 0.9,0.4 3.1,1.6 1.9,2.9 -0.3,0.3 -0.9,0.5 -1.3,0.6 -1.7,0.2 -2.7,0.3 -4.6,0.5 -4.4,0.3 -9.1,0.2 -13.5,-0.1 -9.4,-0.6 -19.1,-0.8 -28.4,-2.5 -5.3,-0.9 -10.4,-2.4 -15.3,-4.3 -3.7,-1.4 -7.3,-2.9 -10.9,-4.6 -1.1,-0.5 -2.4,-1.2 -3.4,-2.1 0,0 -0.1,0 -0.1,-0.1 0,0 -0.3,-0.3 -0.5,-0.4 -0.3,-0.3 -0.6,-0.8 -0.6,-1.2 0,-0.1 0,-0.1 0,-0.1 0,0 0,-0.2 0,-0.3 0.1,0 0.1,-0.2 0.1,-0.2 0.1,0 0.1,-0.1 0.2,-0.1 0,0 0.2,-0.2 0.3,-0.2 0,0 0.1,-0.1 0.2,-0.1 0,0.1 0.3,0.1 0.4,0.1"
       id="path164"
       inkscape:connector-curvature="0"
       style="stroke:#000000" />
    <path
       d="m 325.1,528 c 0,0 0.2,0 0.3,0.1 0.2,0.1 0.3,0.5 0.2,0.7 -0.3,1.7 -0.9,4.5 -1.2,6.8 -0.2,2.1 -0.6,5.8 -1.1,8 -0.4,2.3 -1,4.5 -1.3,6.8 -0.1,0.7 0,1.7 0.5,2.3 0.5,0.7 1.4,1.2 2.2,1.7 0.1,0 0.9,0.2 1.2,0.3 1.2,0.5 2.1,0.9 3.1,1.6 0,0 0.6,0.2 0.9,0.3 1.8,0.8 3.7,1.6 5.6,2.4 1.7,0.7 3.6,1.2 5.3,2 0.9,0.5 2,0.9 2.7,1.8 0.2,0.1 0.3,0.4 0.4,0.6 0.5,2 -1.9,2 -3.3,2 0,0 1.2,0.3 1.8,0.4 1.2,0.3 2.5,0.5 3.7,0.6 6.3,0.9 12.7,1.7 19.1,2.2 0,0 0,-0.2 0.1,-0.3 0.1,-0.3 0.4,-0.5 0.7,-0.5 1.1,-0.1 3.5,0.3 4.6,0.5 0.4,0.1 0.6,0.3 0.5,0.7 0,0 0.1,0.1 0.2,0.1 4.6,0.3 9.2,0.6 13.8,0.9 4.8,0.3 8.8,0.3 13.7,0.5 4.2,0.3 8.4,0.9 12.7,1.2 4.2,0.3 8.4,0.1 12.7,-0.1 0.6,0 3.1,-0.3 3.4,0.9 0.3,1.5 -1.9,1.4 -2.7,1.4 -2.2,0.1 -4.9,0.2 -7.3,0.2 -12.4,0 -24.5,-1 -36.8,-2.2 -3.7,-0.4 -7.4,-0.4 -11,-1 -0.1,0 -2.7,-0.2 -4,-0.3 -2,-0.1 -3.9,-0.3 -5.8,-0.5 -7,-0.7 -7.5,-0.8 -14.6,-1.8 -3.2,-0.4 -6.7,-1 -9.4,-2.8 -1.4,-0.9 -2.4,-2.1 -3.4,-3.3 0,0 -0.8,-0.4 -1.1,-0.7 -0.8,-0.6 -1.5,-1.2 -2.3,-1.9 -1.4,-1 -2.7,-2 -4.2,-2.9 0,0 -0.6,-0.2 -0.9,-0.3 -0.2,-0.1 -0.9,-0.4 -0.9,-0.7 0,0 -0.3,-0.2 -0.5,-0.3 -0.3,-0.2 -0.7,-0.5 -1,-0.8 -1.2,-1 -1.6,-2.2 -1.6,-3.7 0,-2.6 0.9,-5.1 1.3,-7.5 0.5,-2.4 0.7,-4.9 1.1,-7.3 0.8,-4 0.6,-2.8 2,-7.6 0.2,-0.5 0.7,-0.6 1.1,-0.2 m 7.1,31.4 c 0,0 1,0.7 1.4,1.2 0,0 0.6,0.4 0.9,0.6 0.6,0.4 1.4,0.9 1.9,1.2 1.6,0.8 3.6,1.1 5.4,0.9 0,0 -0.2,-0.2 -0.3,-0.2 -0.2,-0.2 -0.4,-0.3 -0.7,-0.5 -1.1,-0.5 -1.4,-0.6 -2.7,-1.1 -2,-0.7 -3.9,-1.4 -5.9,-2.1"
       id="path166"
       inkscape:connector-curvature="0"
       style="stroke:#000000" />
    <path
       d="m 323.5,519 c 0,0 2.7,0 2.9,1 0.1,0.4 -0.4,0.7 -0.8,0.7 -0.7,0 -1.4,0 -2.1,0 0,0 -0.3,1.2 -0.4,1.9 -0.2,1.2 -0.3,2.5 -0.4,3.8 -0.3,2.5 -0.9,6 -1.1,9 -0.1,0.9 -0.2,1.7 -0.2,2.6 -0.1,0.8 -0.1,3.3 -1.4,3.5 -1.4,0.1 -1.7,-2 -1.9,-2.8 -0.1,-0.7 -0.2,-1.3 -0.3,-2 -0.6,-4.3 -0.1,-9.3 3.2,-12.4 0,0 0.1,-0.7 0.1,-1.1 0.2,-0.7 0.2,-2.9 1,-3.8 0.9,-1 3.3,-0.3 4.1,0.2 m -5.4,6.3 c 0,0 -0.3,0.4 -0.4,0.6 -0.2,0.4 -0.4,0.7 -0.6,1.1 -0.4,0.8 -0.5,1.7 -0.8,2.6 -0.6,2.8 -0.1,6 0.5,8.7 0,0 0.1,-2.4 0.3,-3.6 0.3,-3.1 0.7,-6.2 1,-9.4"
       id="path168"
       inkscape:connector-curvature="0"
       style="stroke:#000000" />
  </g>
</svg>
