  0
SECTION
  2
HEADER
  9
$ACADVER
  1
AC1014
  9
$HANDSEED
  5
FFFF
  9
$MEASUREMENT
 70
     1
  0
ENDSEC
  0
SECTION
  2
TABLES
  0
TABLE
  2
VPORT
  5
8
330
0
100
AcDbSymbolTable
 70
     4
  0
VPORT
  5
2E
330
8
100
AcDbSymbolTableRecord
100
AcDbViewportTableRecord
  2
*ACTIVE
 70
     0
 10
0.0
 20
0.0
 11
1.0
 21
1.0
 12
210.0
 22
148.5
 13
0.0
 23
0.0
 14
10.0
 24
10.0
 15
10.0
 25
10.0
 16
0.0
 26
0.0
 36
1.0
 17
0.0
 27
0.0
 37
0.0
 40
341.0
 41
1.24
 42
50.0
 43
0.0
 44
0.0
 50
0.0
 51
0.0
 71
     0
 72
   100
 73
     1
 74
     3
 75
     0
 76
     0
 77
     0
 78
     0
  0
ENDTAB
  0
TABLE
  2
LTYPE
  5
5
330
0
100
AcDbSymbolTable
 70
     1
  0
LTYPE
  5
14
330
5
100
AcDbSymbolTableRecord
100
AcDbLinetypeTableRecord
  2
BYBLOCK
 70
     0
  3

 72
    65
 73
     0
 40
0.0
  0
LTYPE
  5
15
330
5
100
AcDbSymbolTableRecord
100
AcDbLinetypeTableRecord
  2
BYLAYER
 70
     0
  3

 72
    65
 73
     0
 40
0.0
  0
LTYPE
  5
16
330
5
100
AcDbSymbolTableRecord
100
AcDbLinetypeTableRecord
  2
CONTINUOUS
 70
     0
  3
Solid line
 72
    65
 73
     0
 40
0.0
  0
ENDTAB
  0
TABLE
  2
LAYER
  5
2
100
AcDbSymbolTable
 70
7
  0
LAYER
  5
50
100
AcDbSymbolTableRecord
100
AcDbLayerTableRecord
  2
0
 70
0
  6
CONTINUOUS
  0
LAYER
  5
51
100
AcDbSymbolTableRecord
100
AcDbLayerTableRecord
  2
Head
 70
0
  6
CONTINUOUS
  0
LAYER
  5
52
100
AcDbSymbolTableRecord
100
AcDbLayerTableRecord
  2
Head_2
 70
0
  6
CONTINUOUS
  0
LAYER
  5
53
100
AcDbSymbolTableRecord
100
AcDbLayerTableRecord
  2
Wing
 70
0
  6
CONTINUOUS
  0
LAYER
  5
54
100
AcDbSymbolTableRecord
100
AcDbLayerTableRecord
  2
Body
 70
0
  6
CONTINUOUS
  0
LAYER
  5
55
100
AcDbSymbolTableRecord
100
AcDbLayerTableRecord
  2
Tail
 70
0
  6
CONTINUOUS
  0
LAYER
  5
56
100
AcDbSymbolTableRecord
100
AcDbLayerTableRecord
  2
Draw
 70
0
  6
CONTINUOUS
  0
ENDTAB
  0
TABLE
  2
STYLE
  5
3
330
0
100
AcDbSymbolTable
 70
     1
  0
STYLE
  5
11
330
3
100
AcDbSymbolTableRecord
100
AcDbTextStyleTableRecord
  2
STANDARD
 70
     0
 40
0.0
 41
1.0
 50
0.0
 71
     0
 42
2.5
  3
txt
  4

  0
ENDTAB
  0
TABLE
  2
VIEW
  5
6
330
0
100
AcDbSymbolTable
 70
     0
  0
ENDTAB
  0
TABLE
  2
UCS
  5
7
330
0
100
AcDbSymbolTable
 70
     0
  0
ENDTAB
  0
TABLE
  2
APPID
  5
9
330
0
100
AcDbSymbolTable
 70
     2
  0
APPID
  5
12
330
9
100
AcDbSymbolTableRecord
100
AcDbRegAppTableRecord
  2
ACAD
 70
     0
  0
ENDTAB
  0
TABLE
  2
DIMSTYLE
  5
A
330
0
100
AcDbSymbolTable
 70
     1
  0
DIMSTYLE
105
27
330
A
100
AcDbSymbolTableRecord
100
AcDbDimStyleTableRecord
  2
ISO-25
 70
     0
  3

  4

  5

  6

  7

 40
1.0
 41
2.5
 42
0.625
 43
3.75
 44
1.25
 45
0.0
 46
0.0
 47
0.0
 48
0.0
140
2.5
141
2.5
142
0.0
143
0.03937007874016
144
1.0
145
0.0
146
1.0
147
0.625
 71
     0
 72
     0
 73
     0
 74
     0
 75
     0
 76
     0
 77
     1
 78
     8
170
     0
171
     3
172
     1
173
     0
174
     0
175
     0
176
     0
177
     0
178
     0
270
     2
271
     2
272
     2
273
     2
274
     3
340
11
275
     0
280
     0
281
     0
282
     0
283
     0
284
     8
285
     0
286
     0
287
     3
288
     0
  0
ENDTAB
  0
TABLE
  2
BLOCK_RECORD
  5
1
330
0
100
AcDbSymbolTable
 70
     1
  0
BLOCK_RECORD
  5
1F
330
1
100
AcDbSymbolTableRecord
100
AcDbBlockTableRecord
  2
*MODEL_SPACE
  0
BLOCK_RECORD
  5
1B
330
1
100
AcDbSymbolTableRecord
100
AcDbBlockTableRecord
  2
*PAPER_SPACE
  0
ENDTAB
  0
ENDSEC
  0
SECTION
  2
BLOCKS
  0
BLOCK
  5
20
330
1F
100
AcDbEntity
  8
0
100
AcDbBlockBegin
  2
*MODEL_SPACE
 70
     0
 10
0.0
 20
0.0
 30
0.0
  3
*MODEL_SPACE
  1

  0
ENDBLK
  5
21
330
1F
100
AcDbEntity
  8
0
100
AcDbBlockEnd
  0
BLOCK
  5
1C
330
1B
100
AcDbEntity
 67
     1
  8
0
100
AcDbBlockBegin
  2
*PAPER_SPACE
  1

  0
ENDBLK
  5
1D
330
1B
100
AcDbEntity
 67
     1
  8
0
100
AcDbBlockEnd
  0
ENDSEC
  0
SECTION
  2
ENTITIES
  0
SPLINE
  5
100
100
AcDbEntity
  8
Wing
 62
7
100
AcDbSpline
 70
8
 71
3
 72
8
 73
4
 74
0
 40
0
 40
0
 40
0
 40
0
 40
1
 40
1
 40
1
 40
1
 10
30.151345
 20
25.945129
 30
0.0
 10
30.151345
 20
25.945129
 30
0.0
 10
27.170443
 20
28.508225
 30
0.0
 10
26.133102
 20
31.344204
 30
0.0
  0
SPLINE
  5
101
100
AcDbEntity
  8
Wing
 62
7
100
AcDbSpline
 70
8
 71
3
 72
8
 73
4
 74
0
 40
0
 40
0
 40
0
 40
0
 40
1
 40
1
 40
1
 40
1
 10
26.133102
 20
31.344204
 30
0.0
 10
25.295950
 20
33.632881
 30
0.0
 10
26.308317
 20
36.138194
 30
0.0
 10
26.651096
 20
37.315947
 30
0.0
  0
SPLINE
  5
102
100
AcDbEntity
  8
Wing
 62
7
100
AcDbSpline
 70
8
 71
3
 72
8
 73
4
 74
0
 40
0
 40
0
 40
0
 40
0
 40
1
 40
1
 40
1
 40
1
 10
26.651096
 20
37.315947
 30
0.0
 10
27.259402
 20
39.406023
 30
0.0
 10
34.278845
 20
40.126796
 30
0.0
 10
34.278845
 20
40.126796
 30
0.0
  0
SPLINE
  5
103
100
AcDbEntity
  8
Wing
 62
7
100
AcDbSpline
 70
8
 71
3
 72
8
 73
4
 74
0
 40
0
 40
0
 40
0
 40
0
 40
1
 40
1
 40
1
 40
1
 10
34.278845
 20
40.126796
 30
0.0
 10
34.278845
 20
40.126796
 30
0.0
 10
43.784499
 20
38.688471
 30
0.0
 10
47.568797
 20
37.246547
 30
0.0
  0
SPLINE
  5
104
100
AcDbEntity
  8
Wing
 62
7
100
AcDbSpline
 70
8
 71
3
 72
8
 73
4
 74
0
 40
0
 40
0
 40
0
 40
0
 40
1
 40
1
 40
1
 40
1
 10
47.568797
 20
37.246547
 30
0.0
 10
50.404810
 20
36.165946
 30
0.0
 10
54.149053
 20
32.586171
 30
0.0
 10
54.149053
 20
32.586171
 30
0.0
  0
LINE
  5
105
100
AcDbEntity
  8
Wing
 62
7
100
AcDbLine
 10
54.149053
 20
32.586171
 30
0.0
 11
42.533845
 21
31.104504
 31
0.0
  0
SPLINE
  5
106
100
AcDbEntity
  8
Wing
 62
7
100
AcDbSpline
 70
8
 71
3
 72
8
 73
4
 74
0
 40
0
 40
0
 40
0
 40
0
 40
1
 40
1
 40
1
 40
1
 10
42.533845
 20
31.104504
 30
0.0
 10
42.533845
 20
31.104504
 30
0.0
 10
50.603637
 20
30.522421
 30
0.0
 10
56.424470
 20
32.057004
 30
0.0
  0
SPLINE
  5
107
100
AcDbEntity
  8
Wing
 62
7
100
AcDbSpline
 70
8
 71
3
 72
8
 73
4
 74
0
 40
0
 40
0
 40
0
 40
0
 40
1
 40
1
 40
1
 40
1
 10
56.424470
 20
32.057004
 30
0.0
 10
57.966980
 20
32.463666
 30
0.0
 10
59.923093
 20
30.720194
 30
0.0
 10
60.500675
 20
29.549622
 30
0.0
  0
SPLINE
  5
108
100
AcDbEntity
  8
Wing
 62
7
100
AcDbSpline
 70
8
 71
3
 72
8
 73
4
 74
0
 40
0
 40
0
 40
0
 40
0
 40
1
 40
1
 40
1
 40
1
 10
60.500675
 20
29.549622
 30
0.0
 10
61.246009
 20
28.039084
 30
0.0
 10
60.393220
 20
24.013671
 30
0.0
 10
60.393220
 20
24.013671
 30
0.0
  0
LINE
  5
109
100
AcDbEntity
  8
Wing
 62
7
100
AcDbLine
 10
60.393220
 20
24.013671
 30
0.0
 11
46.873012
 21
24.992629
 31
0.0
  0
SPLINE
  5
10a
100
AcDbEntity
  8
Wing
 62
7
100
AcDbSpline
 70
8
 71
3
 72
8
 73
4
 74
0
 40
0
 40
0
 40
0
 40
0
 40
1
 40
1
 40
1
 40
1
 10
46.873012
 20
24.992629
 30
0.0
 10
46.873012
 20
24.992629
 30
0.0
 10
51.190858
 20
22.777471
 30
0.0
 10
53.349782
 20
22.283653
 30
0.0
  0
SPLINE
  5
10b
100
AcDbEntity
  8
Wing
 62
7
100
AcDbSpline
 70
8
 71
3
 72
8
 73
4
 74
0
 40
0
 40
0
 40
0
 40
0
 40
1
 40
1
 40
1
 40
1
 10
53.349782
 20
22.283653
 30
0.0
 10
55.856346
 20
21.710320
 30
0.0
 10
60.869470
 20
21.791171
 30
0.0
 10
60.869470
 20
21.791171
 30
0.0
  0
SPLINE
  5
10c
100
AcDbEntity
  8
Wing
 62
7
100
AcDbSpline
 70
8
 71
3
 72
8
 73
4
 74
0
 40
0
 40
0
 40
0
 40
0
 40
1
 40
1
 40
1
 40
1
 10
60.869470
 20
21.791171
 30
0.0
 10
60.869470
 20
21.791171
 30
0.0
 10
63.282364
 20
19.859231
 30
0.0
 10
63.484474
 20
18.893264
 30
0.0
  0
SPLINE
  5
10d
100
AcDbEntity
  8
Wing
 62
7
100
AcDbSpline
 70
8
 71
3
 72
8
 73
4
 74
0
 40
0
 40
0
 40
0
 40
0
 40
1
 40
1
 40
1
 40
1
 10
63.484474
 20
18.893264
 30
0.0
 10
63.882085
 20
16.992913
 30
0.0
 10
62.668637
 20
13.192213
 30
0.0
 10
62.668637
 20
13.192213
 30
0.0
  0
LINE
  5
10e
100
AcDbEntity
  8
Wing
 62
7
100
AcDbLine
 10
62.668637
 20
13.192213
 30
0.0
 11
52.058845
 21
15.308879
 31
0.0
  0
LINE
  5
10f
100
AcDbEntity
  8
Wing
 62
7
100
AcDbLine
 10
52.058845
 20
15.308879
 30
0.0
 11
63.488845
 21
10.361171
 31
0.0
  0
SPLINE
  5
110
100
AcDbEntity
  8
Wing
 62
7
100
AcDbSpline
 70
8
 71
3
 72
8
 73
4
 74
0
 40
0
 40
0
 40
0
 40
0
 40
1
 40
1
 40
1
 40
1
 10
63.488845
 20
10.361171
 30
0.0
 10
63.488845
 20
10.361171
 30
0.0
 10
64.268649
 20
5.223624
 30
0.0
 10
63.263640
 20
3.993965
 30
0.0
  0
SPLINE
  5
111
100
AcDbEntity
  8
Wing
 62
7
100
AcDbSpline
 70
8
 71
3
 72
8
 73
4
 74
0
 40
0
 40
0
 40
0
 40
0
 40
1
 40
1
 40
1
 40
1
 10
63.263640
 20
3.993965
 30
0.0
 10
62.019691
 20
2.471957
 30
0.0
 10
56.741970
 20
2.106171
 30
0.0
 10
56.741970
 20
2.106171
 30
0.0
  0
SPLINE
  5
112
100
AcDbEntity
  8
Wing
 62
7
100
AcDbSpline
 70
8
 71
3
 72
8
 73
4
 74
0
 40
0
 40
0
 40
0
 40
0
 40
1
 40
1
 40
1
 40
1
 10
56.741970
 20
2.106171
 30
0.0
 10
56.741970
 20
2.106171
 30
0.0
 10
52.417054
 20
2.233100
 30
0.0
 10
50.812560
 20
3.635680
 30
0.0
  0
SPLINE
  5
113
100
AcDbEntity
  8
Wing
 62
7
100
AcDbSpline
 70
8
 71
3
 72
8
 73
4
 74
0
 40
0
 40
0
 40
0
 40
0
 40
1
 40
1
 40
1
 40
1
 10
50.812560
 20
3.635680
 30
0.0
 10
48.492402
 20
5.663864
 30
0.0
 10
44.968012
 20
12.398463
 30
0.0
 10
44.968012
 20
12.398463
 30
0.0
  0
LINE
  5
114
100
AcDbEntity
  8
Wing
 62
7
100
AcDbLine
 10
44.968012
 20
12.398463
 30
0.0
 11
30.151345
 21
25.945129
 31
0.0
  0
SPLINE
  5
115
100
AcDbEntity
  8
Wing
 62
7
100
AcDbSpline
 70
8
 71
3
 72
8
 73
4
 74
0
 40
0
 40
0
 40
0
 40
0
 40
1
 40
1
 40
1
 40
1
 10
35.403232
 20
14.538704
 30
0.0
 10
35.403232
 20
14.538704
 30
0.0
 10
38.616173
 20
12.273256
 30
0.0
 10
39.920675
 20
9.549818
 30
0.0
  0
SPLINE
  5
116
100
AcDbEntity
  8
Wing
 62
7
100
AcDbSpline
 70
8
 71
3
 72
8
 73
4
 74
0
 40
0
 40
0
 40
0
 40
0
 40
1
 40
1
 40
1
 40
1
 10
39.920675
 20
9.549818
 30
0.0
 10
40.973431
 20
7.351962
 30
0.0
 10
40.205964
 20
4.761117
 30
0.0
 10
39.977700
 20
3.555921
 30
0.0
  0
SPLINE
  5
117
100
AcDbEntity
  8
Wing
 62
7
100
AcDbSpline
 70
8
 71
3
 72
8
 73
4
 74
0
 40
0
 40
0
 40
0
 40
0
 40
1
 40
1
 40
1
 40
1
 10
39.977700
 20
3.555921
 30
0.0
 10
39.572615
 20
1.417146
 30
0.0
 10
32.654632
 20
0.026602
 30
0.0
 10
32.654632
 20
0.026602
 30
0.0
  0
SPLINE
  5
118
100
AcDbEntity
  8
Wing
 62
7
100
AcDbSpline
 70
8
 71
3
 72
8
 73
4
 74
0
 40
0
 40
0
 40
0
 40
0
 40
1
 40
1
 40
1
 40
1
 10
32.654632
 20
0.026602
 30
0.0
 10
32.654632
 20
0.026602
 30
0.0
 10
23.054860
 20
0.546801
 30
0.0
 10
19.149735
 20
1.619203
 30
0.0
  0
SPLINE
  5
119
100
AcDbEntity
  8
Wing
 62
7
100
AcDbSpline
 70
8
 71
3
 72
8
 73
4
 74
0
 40
0
 40
0
 40
0
 40
0
 40
1
 40
1
 40
1
 40
1
 10
19.149735
 20
1.619203
 30
0.0
 10
16.223170
 20
2.422880
 30
0.0
 10
12.152916
 20
5.627124
 30
0.0
 10
12.152916
 20
5.627124
 30
0.0
  0
LINE
  5
11a
100
AcDbEntity
  8
Wing
 62
7
100
AcDbLine
 10
12.152916
 20
5.627124
 30
0.0
 11
23.572523
 21
8.215744
 31
0.0
  0
SPLINE
  5
11b
100
AcDbEntity
  8
Wing
 62
7
100
AcDbSpline
 70
8
 71
3
 72
8
 73
4
 74
0
 40
0
 40
0
 40
0
 40
0
 40
1
 40
1
 40
1
 40
1
 10
23.572523
 20
8.215744
 30
0.0
 10
23.572523
 20
8.215744
 30
0.0
 10
15.484102
 20
8.021334
 30
0.0
 10
9.837243
 20
5.935663
 30
0.0
  0
SPLINE
  5
11c
100
AcDbEntity
  8
Wing
 62
7
100
AcDbSpline
 70
8
 71
3
 72
8
 73
4
 74
0
 40
0
 40
0
 40
0
 40
0
 40
1
 40
1
 40
1
 40
1
 10
9.837243
 20
5.935663
 30
0.0
 10
8.340836
 20
5.382961
 30
0.0
 10
6.226556
 20
6.930830
 30
0.0
 10
5.539388
 20
8.040622
 30
0.0
  0
SPLINE
  5
11d
100
AcDbEntity
  8
Wing
 62
7
100
AcDbSpline
 70
8
 71
3
 72
8
 73
4
 74
0
 40
0
 40
0
 40
0
 40
0
 40
1
 40
1
 40
1
 40
1
 10
5.539388
 20
8.040622
 30
0.0
 10
4.652642
 20
9.472729
 30
0.0
 10
5.115504
 20
13.561367
 30
0.0
 10
5.115504
 20
13.561367
 30
0.0
  0
LINE
  5
11e
100
AcDbEntity
  8
Wing
 62
7
100
AcDbLine
 10
5.115504
 20
13.561367
 30
0.0
 11
18.667286
 21
13.883373
 31
0.0
  0
SPLINE
  5
11f
100
AcDbEntity
  8
Wing
 62
7
100
AcDbSpline
 70
8
 71
3
 72
8
 73
4
 74
0
 40
0
 40
0
 40
0
 40
0
 40
1
 40
1
 40
1
 40
1
 10
18.667286
 20
13.883373
 30
0.0
 10
18.667286
 20
13.883373
 30
0.0
 10
14.156923
 20
15.674285
 30
0.0
 10
11.960595
 20
15.958810
 30
0.0
  0
SPLINE
  5
120
100
AcDbEntity
  8
Wing
 62
7
100
AcDbSpline
 70
8
 71
3
 72
8
 73
4
 74
0
 40
0
 40
0
 40
0
 40
0
 40
1
 40
1
 40
1
 40
1
 10
11.960595
 20
15.958810
 30
0.0
 10
9.410605
 20
16.289145
 30
0.0
 10
4.428334
 20
15.727958
 30
0.0
 10
4.428334
 20
15.727958
 30
0.0
  0
SPLINE
  5
121
100
AcDbEntity
  8
Wing
 62
7
100
AcDbSpline
 70
8
 71
3
 72
8
 73
4
 74
0
 40
0
 40
0
 40
0
 40
0
 40
1
 40
1
 40
1
 40
1
 10
4.428334
 20
15.727958
 30
0.0
 10
4.428334
 20
15.727958
 30
0.0
 10
1.841307
 20
17.419625
 30
0.0
 10
1.547500
 20
18.361758
 30
0.0
  0
SPLINE
  5
122
100
AcDbEntity
  8
Wing
 62
7
100
AcDbSpline
 70
8
 71
3
 72
8
 73
4
 74
0
 40
0
 40
0
 40
0
 40
0
 40
1
 40
1
 40
1
 40
1
 10
1.547500
 20
18.361758
 30
0.0
 10
0.969497
 20
20.215228
 30
0.0
 10
1.812904
 20
24.114771
 30
0.0
 10
1.812904
 20
24.114771
 30
0.0
  0
LINE
  5
123
100
AcDbEntity
  8
Wing
 62
7
100
AcDbLine
 10
1.812904
 20
24.114771
 30
0.0
 11
12.576773
 21
23.025230
 31
0.0
  0
LINE
  5
124
100
AcDbEntity
  8
Wing
 62
7
100
AcDbLine
 10
12.576773
 20
23.025230
 30
0.0
 11
0.725006
 21
26.854116
 31
0.0
  0
SPLINE
  5
125
100
AcDbEntity
  8
Wing
 62
7
100
AcDbSpline
 70
8
 71
3
 72
8
 73
4
 74
0
 40
0
 40
0
 40
0
 40
0
 40
1
 40
1
 40
1
 40
1
 10
0.725006
 20
26.854116
 30
0.0
 10
0.725006
 20
26.854116
 30
0.0
 10
-0.543843
 20
31.893214
 30
0.0
 10
0.338624
 20
33.213577
 30
0.0
  0
SPLINE
  5
126
100
AcDbEntity
  8
Wing
 62
7
100
AcDbSpline
 70
8
 71
3
 72
8
 73
4
 74
0
 40
0
 40
0
 40
0
 40
0
 40
1
 40
1
 40
1
 40
1
 10
0.338624
 20
33.213577
 30
0.0
 10
1.430896
 20
34.847853
 30
0.0
 10
6.649220
 20
35.718036
 30
0.0
 10
6.649220
 20
35.718036
 30
0.0
  0
SPLINE
  5
127
100
AcDbEntity
  8
Wing
 62
7
100
AcDbSpline
 70
8
 71
3
 72
8
 73
4
 74
0
 40
0
 40
0
 40
0
 40
0
 40
1
 40
1
 40
1
 40
1
 10
6.649220
 20
35.718036
 30
0.0
 10
6.649220
 20
35.718036
 30
0.0
 10
10.966379
 20
36.006408
 30
0.0
 10
12.697971
 20
34.764147
 30
0.0
  0
SPLINE
  5
128
100
AcDbEntity
  8
Wing
 62
7
100
AcDbSpline
 70
8
 71
3
 72
8
 73
4
 74
0
 40
0
 40
0
 40
0
 40
0
 40
1
 40
1
 40
1
 40
1
 10
12.697971
 20
34.764147
 30
0.0
 10
15.201921
 20
32.967787
 30
0.0
 10
19.355850
 20
26.602177
 30
0.0
 10
19.355850
 20
26.602177
 30
0.0
  0
LINE
  5
129
100
AcDbEntity
  8
Wing
 62
7
100
AcDbLine
 10
19.355850
 20
26.602177
 30
0.0
 11
35.403232
 21
14.538704
 31
0.0
  0
ENDSEC
  0
SECTION
  2
OBJECTS
  0
DICTIONARY
  5
C
330
0
100
AcDbDictionary
  3
ACAD_GROUP
350
D
  3
ACAD_MLINESTYLE
350
17
  0
DICTIONARY
  5
D
330
C
100
AcDbDictionary
  0
DICTIONARY
  5
1A
330
C
100
AcDbDictionary
  0
DICTIONARY
  5
17
330
C
100
AcDbDictionary
  3
STANDARD
350
18
  0
DICTIONARY
  5
19
330
C
100
AcDbDictionary
  0
ENDSEC
  0
EOF
