<?xml version="1.0" encoding="UTF-8" standalone="no"?>
<!-- Created with Inkscape (http://www.inkscape.org/) -->

<svg
   xmlns:dc="http://purl.org/dc/elements/1.1/"
   xmlns:cc="http://creativecommons.org/ns#"
   xmlns:rdf="http://www.w3.org/1999/02/22-rdf-syntax-ns#"
   xmlns:svg="http://www.w3.org/2000/svg"
   xmlns="http://www.w3.org/2000/svg"
   xmlns:sodipodi="http://sodipodi.sourceforge.net/DTD/sodipodi-0.dtd"
   xmlns:inkscape="http://www.inkscape.org/namespaces/inkscape"
   width="163.74728mm"
   height="70.000168mm"
   viewBox="0 0 163.74729 70.000169"
   version="1.1"
   id="svg8"
   inkscape:version="0.92.2 5c3e80d, 2017-08-06"
   sodipodi:docname="BirdWheel.svg">
  <defs
     id="defs2" />
  <sodipodi:namedview
     id="base"
     pagecolor="#ffffff"
     bordercolor="#666666"
     borderopacity="1.0"
     inkscape:pageopacity="0.0"
     inkscape:pageshadow="2"
     inkscape:zoom="0.78927413"
     inkscape:cx="346.55724"
     inkscape:cy="-30.130567"
     inkscape:document-units="mm"
     inkscape:current-layer="layer1"
     showgrid="false"
     inkscape:window-width="1280"
     inkscape:window-height="755"
     inkscape:window-x="0"
     inkscape:window-y="281"
     inkscape:window-maximized="1"
     fit-margin-top="0"
     fit-margin-left="0"
     fit-margin-right="0"
     fit-margin-bottom="0"
     showguides="true"
     inkscape:guide-bbox="true">
    <sodipodi:guide
       position="34.89993,59.153796"
       orientation="0,1"
       id="guide877"
       inkscape:locked="false" />
  </sodipodi:namedview>
  <metadata
     id="metadata5">
    <rdf:RDF>
      <cc:Work
         rdf:about="">
        <dc:format>image/svg+xml</dc:format>
        <dc:type
           rdf:resource="http://purl.org/dc/dcmitype/StillImage" />
        <dc:title></dc:title>
      </cc:Work>
    </rdf:RDF>
  </metadata>
  <g
     inkscape:label="Layer 1"
     inkscape:groupmode="layer"
     id="layer1"
     transform="translate(-4.3012462,-38.962942)">
    <path
       style="opacity:1;fill:none;fill-opacity:1;stroke:#000000;stroke-width:0.75590551;stroke-miterlimit:4;stroke-dasharray:none;stroke-dashoffset:0.57139313;stroke-opacity:1"
       d="m 389.67773,21.90625 v 158.74023 11.3379 25.70117 h 19.27539 v -10.58203 h 112.62891 v 10.58203 h 19.27539 V 191.98438 180.64648 21.90625 h -28.72461 v 15.652344 a 7.1602521,7.1811023 0 0 1 4.23047,-1.398438 7.1602521,7.1811023 0 0 1 7.16016,7.181641 7.1602521,7.1811023 0 0 1 -7.16016,7.181641 7.1602521,7.1811023 0 0 1 -4.23047,-1.396485 V 66.503906 H 418.40234 V 48.507812 a 7.1811023,7.2020099 0 0 1 -4.98242,2.015626 7.1811023,7.2020099 0 0 1 -7.17969,-7.203126 7.1811023,7.2020099 0 0 1 7.17969,-7.201171 7.1811023,7.2020099 0 0 1 4.98242,2.02539 V 21.90625 Z"
       transform="matrix(0.26458333,0,0,0.26458333,24.84668,44.013346)"
       id="rect815"
       inkscape:connector-curvature="0" />
    <path
       style="opacity:1;fill:none;fill-opacity:1;stroke:#000000;stroke-width:0.2;stroke-miterlimit:4;stroke-dasharray:none;stroke-dashoffset:0.57139313;stroke-opacity:1"
       d="m 9.4014562,49.809314 v 2.99982 h -5.00021 v 39.80015 H 44.201386 v -39.80015 h -5.00021 v -2.99982 z"
       id="rect863"
       inkscape:connector-curvature="0" />
    <path
       style="opacity:1;fill:none;fill-opacity:1;stroke:#000000;stroke-width:0.2;stroke-miterlimit:4;stroke-dasharray:none;stroke-dashoffset:0.57139313;stroke-opacity:1"
       d="m 87.561537,73.963022 a 1.9,1.9 0 0 1 -1.9,1.90001 1.9,1.9 0 0 1 -1.9,-1.90001 1.9,1.9 0 0 1 1.9,-1.89999 1.9,1.9 0 0 1 1.9,1.89999 z"
       id="circle888"
       inkscape:connector-curvature="0" />
    <path
       inkscape:connector-curvature="0"
       id="path836"
       d="m 120.56153,73.962932 a 34.9,34.899996 0 0 1 -34.89999,34.900178 34.9,34.899996 0 0 1 -34.9,-34.900178 34.9,34.899996 0 0 1 34.9,-34.89999 34.9,34.899996 0 0 1 34.89999,34.89999 z"
       style="opacity:1;fill:none;fill-opacity:1;stroke:#000000;stroke-width:0.19999994;stroke-miterlimit:4;stroke-dasharray:none;stroke-dashoffset:0.57139313;stroke-opacity:1" />
    <path
       inkscape:connector-curvature="0"
       id="path838"
       d="m 117.56149,73.963022 a 1.9,1.9 0 0 1 -1.9,1.90001 1.9,1.9 0 0 1 -1.9,-1.90001 1.9,1.9 0 0 1 1.9,-1.89999 1.9,1.9 0 0 1 1.9,1.89999 z"
       style="opacity:1;fill:none;fill-opacity:1;stroke:#000000;stroke-width:0.2;stroke-miterlimit:4;stroke-dasharray:none;stroke-dashoffset:0.57139313;stroke-opacity:1" />
  </g>
</svg>
