  0
SECTION
  2
HEADER
  9
$ACADVER
  1
AC1014
  9
$HANDSEED
  5
FFFF
  9
$MEASUREMENT
 70
     1
  0
ENDSEC
  0
SECTION
  2
TABLES
  0
TABLE
  2
VPORT
  5
8
330
0
100
AcDbSymbolTable
 70
     4
  0
VPORT
  5
2E
330
8
100
AcDbSymbolTableRecord
100
AcDbViewportTableRecord
  2
*ACTIVE
 70
     0
 10
0.0
 20
0.0
 11
1.0
 21
1.0
 12
210.0
 22
148.5
 13
0.0
 23
0.0
 14
10.0
 24
10.0
 15
10.0
 25
10.0
 16
0.0
 26
0.0
 36
1.0
 17
0.0
 27
0.0
 37
0.0
 40
341.0
 41
1.24
 42
50.0
 43
0.0
 44
0.0
 50
0.0
 51
0.0
 71
     0
 72
   100
 73
     1
 74
     3
 75
     0
 76
     0
 77
     0
 78
     0
  0
ENDTAB
  0
TABLE
  2
LTYPE
  5
5
330
0
100
AcDbSymbolTable
 70
     1
  0
LTYPE
  5
14
330
5
100
AcDbSymbolTableRecord
100
AcDbLinetypeTableRecord
  2
BYBLOCK
 70
     0
  3

 72
    65
 73
     0
 40
0.0
  0
LTYPE
  5
15
330
5
100
AcDbSymbolTableRecord
100
AcDbLinetypeTableRecord
  2
BYLAYER
 70
     0
  3

 72
    65
 73
     0
 40
0.0
  0
LTYPE
  5
16
330
5
100
AcDbSymbolTableRecord
100
AcDbLinetypeTableRecord
  2
CONTINUOUS
 70
     0
  3
Solid line
 72
    65
 73
     0
 40
0.0
  0
ENDTAB
  0
TABLE
  2
LAYER
  5
2
100
AcDbSymbolTable
 70
7
  0
LAYER
  5
50
100
AcDbSymbolTableRecord
100
AcDbLayerTableRecord
  2
0
 70
0
  6
CONTINUOUS
  0
LAYER
  5
51
100
AcDbSymbolTableRecord
100
AcDbLayerTableRecord
  2
Head
 70
0
  6
CONTINUOUS
  0
LAYER
  5
52
100
AcDbSymbolTableRecord
100
AcDbLayerTableRecord
  2
Head_2
 70
0
  6
CONTINUOUS
  0
LAYER
  5
53
100
AcDbSymbolTableRecord
100
AcDbLayerTableRecord
  2
Wing
 70
0
  6
CONTINUOUS
  0
LAYER
  5
54
100
AcDbSymbolTableRecord
100
AcDbLayerTableRecord
  2
Body
 70
0
  6
CONTINUOUS
  0
LAYER
  5
55
100
AcDbSymbolTableRecord
100
AcDbLayerTableRecord
  2
Tail
 70
0
  6
CONTINUOUS
  0
LAYER
  5
56
100
AcDbSymbolTableRecord
100
AcDbLayerTableRecord
  2
Draw
 70
0
  6
CONTINUOUS
  0
ENDTAB
  0
TABLE
  2
STYLE
  5
3
330
0
100
AcDbSymbolTable
 70
     1
  0
STYLE
  5
11
330
3
100
AcDbSymbolTableRecord
100
AcDbTextStyleTableRecord
  2
STANDARD
 70
     0
 40
0.0
 41
1.0
 50
0.0
 71
     0
 42
2.5
  3
txt
  4

  0
ENDTAB
  0
TABLE
  2
VIEW
  5
6
330
0
100
AcDbSymbolTable
 70
     0
  0
ENDTAB
  0
TABLE
  2
UCS
  5
7
330
0
100
AcDbSymbolTable
 70
     0
  0
ENDTAB
  0
TABLE
  2
APPID
  5
9
330
0
100
AcDbSymbolTable
 70
     2
  0
APPID
  5
12
330
9
100
AcDbSymbolTableRecord
100
AcDbRegAppTableRecord
  2
ACAD
 70
     0
  0
ENDTAB
  0
TABLE
  2
DIMSTYLE
  5
A
330
0
100
AcDbSymbolTable
 70
     1
  0
DIMSTYLE
105
27
330
A
100
AcDbSymbolTableRecord
100
AcDbDimStyleTableRecord
  2
ISO-25
 70
     0
  3

  4

  5

  6

  7

 40
1.0
 41
2.5
 42
0.625
 43
3.75
 44
1.25
 45
0.0
 46
0.0
 47
0.0
 48
0.0
140
2.5
141
2.5
142
0.0
143
0.03937007874016
144
1.0
145
0.0
146
1.0
147
0.625
 71
     0
 72
     0
 73
     0
 74
     0
 75
     0
 76
     0
 77
     1
 78
     8
170
     0
171
     3
172
     1
173
     0
174
     0
175
     0
176
     0
177
     0
178
     0
270
     2
271
     2
272
     2
273
     2
274
     3
340
11
275
     0
280
     0
281
     0
282
     0
283
     0
284
     8
285
     0
286
     0
287
     3
288
     0
  0
ENDTAB
  0
TABLE
  2
BLOCK_RECORD
  5
1
330
0
100
AcDbSymbolTable
 70
     1
  0
BLOCK_RECORD
  5
1F
330
1
100
AcDbSymbolTableRecord
100
AcDbBlockTableRecord
  2
*MODEL_SPACE
  0
BLOCK_RECORD
  5
1B
330
1
100
AcDbSymbolTableRecord
100
AcDbBlockTableRecord
  2
*PAPER_SPACE
  0
ENDTAB
  0
ENDSEC
  0
SECTION
  2
BLOCKS
  0
BLOCK
  5
20
330
1F
100
AcDbEntity
  8
0
100
AcDbBlockBegin
  2
*MODEL_SPACE
 70
     0
 10
0.0
 20
0.0
 30
0.0
  3
*MODEL_SPACE
  1

  0
ENDBLK
  5
21
330
1F
100
AcDbEntity
  8
0
100
AcDbBlockEnd
  0
BLOCK
  5
1C
330
1B
100
AcDbEntity
 67
     1
  8
0
100
AcDbBlockBegin
  2
*PAPER_SPACE
  1

  0
ENDBLK
  5
1D
330
1B
100
AcDbEntity
 67
     1
  8
0
100
AcDbBlockEnd
  0
ENDSEC
  0
SECTION
  2
ENTITIES
  0
SPLINE
  5
100
100
AcDbEntity
  8
Head_2
 62
7
100
AcDbSpline
 70
8
 71
3
 72
8
 73
4
 74
0
 40
0
 40
0
 40
0
 40
0
 40
1
 40
1
 40
1
 40
1
 10
0.046215
 20
20.314358
 30
0.0
 10
0.046215
 20
20.314358
 30
0.0
 10
2.701682
 20
24.841416
 30
0.0
 10
4.305594
 20
26.631494
 30
0.0
  0
SPLINE
  5
101
100
AcDbEntity
  8
Head_2
 62
7
100
AcDbSpline
 70
8
 71
3
 72
8
 73
4
 74
0
 40
0
 40
0
 40
0
 40
0
 40
1
 40
1
 40
1
 40
1
 10
4.305594
 20
26.631494
 30
0.0
 10
5.665015
 20
28.148707
 30
0.0
 10
8.936215
 20
30.236233
 30
0.0
 10
8.936215
 20
30.236233
 30
0.0
  0
SPLINE
  5
102
100
AcDbEntity
  8
Head_2
 62
7
100
AcDbSpline
 70
8
 71
3
 72
8
 73
4
 74
0
 40
0
 40
0
 40
0
 40
0
 40
1
 40
1
 40
1
 40
1
 10
8.936215
 20
30.236233
 30
0.0
 10
8.936215
 20
30.236233
 30
0.0
 10
13.130755
 20
32.575782
 30
0.0
 10
15.504202
 20
33.193197
 30
0.0
  0
SPLINE
  5
103
100
AcDbEntity
  8
Head_2
 62
7
100
AcDbSpline
 70
8
 71
3
 72
8
 73
4
 74
0
 40
0
 40
0
 40
0
 40
0
 40
1
 40
1
 40
1
 40
1
 10
15.504202
 20
33.193197
 30
0.0
 10
18.351865
 20
33.933975
 30
0.0
 10
24.599548
 20
34.310816
 30
0.0
 10
24.599548
 20
34.310816
 30
0.0
  0
LINE
  5
104
100
AcDbEntity
  8
Head_2
 62
7
100
AcDbLine
 10
24.599548
 20
34.310816
 30
0.0
 11
37.326006
 21
34.496024
 31
0.0
  0
LINE
  5
105
100
AcDbEntity
  8
Head_2
 62
7
100
AcDbLine
 10
37.326006
 20
34.496024
 30
0.0
 11
30.632048
 21
31.321024
 31
0.0
  0
LINE
  5
106
100
AcDbEntity
  8
Head_2
 62
7
100
AcDbLine
 10
30.632048
 20
31.321024
 30
0.0
 11
39.707256
 21
29.971649
 31
0.0
  0
SPLINE
  5
107
100
AcDbEntity
  8
Head_2
 62
7
100
AcDbSpline
 70
8
 71
3
 72
8
 73
4
 74
0
 40
0
 40
0
 40
0
 40
0
 40
1
 40
1
 40
1
 40
1
 10
39.707256
 20
29.971649
 30
0.0
 10
39.707256
 20
29.971649
 30
0.0
 10
36.032564
 20
27.465206
 30
0.0
 10
34.964571
 20
26.310620
 30
0.0
  0
SPLINE
  5
108
100
AcDbEntity
  8
Head_2
 62
7
100
AcDbSpline
 70
8
 71
3
 72
8
 73
4
 74
0
 40
0
 40
0
 40
0
 40
0
 40
1
 40
1
 40
1
 40
1
 10
34.964571
 20
26.310620
 30
0.0
 10
34.400966
 20
25.701317
 30
0.0
 10
34.812465
 20
24.679983
 30
0.0
 10
34.812465
 20
24.679983
 30
0.0
  0
SPLINE
  5
109
100
AcDbEntity
  8
Head_2
 62
7
100
AcDbSpline
 70
8
 71
3
 72
8
 73
4
 74
0
 40
0
 40
0
 40
0
 40
0
 40
1
 40
1
 40
1
 40
1
 10
34.812465
 20
24.679983
 30
0.0
 10
34.812465
 20
24.679983
 30
0.0
 10
36.719354
 20
23.269290
 30
0.0
 10
36.173545
 20
22.268038
 30
0.0
  0
SPLINE
  5
10a
100
AcDbEntity
  8
Head_2
 62
7
100
AcDbSpline
 70
8
 71
3
 72
8
 73
4
 74
0
 40
0
 40
0
 40
0
 40
0
 40
1
 40
1
 40
1
 40
1
 10
36.173545
 20
22.268038
 30
0.0
 10
35.387619
 20
20.826303
 30
0.0
 10
30.817256
 20
17.351024
 30
0.0
 10
30.817256
 20
17.351024
 30
0.0
  0
SPLINE
  5
10b
100
AcDbEntity
  8
Head_2
 62
7
100
AcDbSpline
 70
8
 71
3
 72
8
 73
4
 74
0
 40
0
 40
0
 40
0
 40
0
 40
1
 40
1
 40
1
 40
1
 10
30.817256
 20
17.351024
 30
0.0
 10
30.817256
 20
17.351024
 30
0.0
 10
30.211329
 20
16.476201
 30
0.0
 10
30.204270
 20
15.802066
 30
0.0
  0
SPLINE
  5
10c
100
AcDbEntity
  8
Head_2
 62
7
100
AcDbSpline
 70
8
 71
3
 72
8
 73
4
 74
0
 40
0
 40
0
 40
0
 40
0
 40
1
 40
1
 40
1
 40
1
 10
30.204270
 20
15.802066
 30
0.0
 10
30.193686
 20
14.791689
 30
0.0
 10
30.764340
 20
12.297483
 30
0.0
 10
30.764340
 20
12.297483
 30
0.0
  0
SPLINE
  5
10d
100
AcDbEntity
  8
Head_2
 62
7
100
AcDbSpline
 70
8
 71
3
 72
8
 73
4
 74
0
 40
0
 40
0
 40
0
 40
0
 40
1
 40
1
 40
1
 40
1
 10
30.764340
 20
12.297483
 30
0.0
 10
30.764340
 20
12.297483
 30
0.0
 10
32.887105
 20
9.183437
 30
0.0
 10
33.396132
 20
7.961774
 30
0.0
  0
SPLINE
  5
10e
100
AcDbEntity
  8
Head_2
 62
7
100
AcDbSpline
 70
8
 71
3
 72
8
 73
4
 74
0
 40
0
 40
0
 40
0
 40
0
 40
1
 40
1
 40
1
 40
1
 10
33.396132
 20
7.961774
 30
0.0
 10
33.769051
 20
7.066771
 30
0.0
 10
33.410181
 20
5.947483
 30
0.0
 10
33.410181
 20
5.947483
 30
0.0
  0
SPLINE
  5
10f
100
AcDbEntity
  8
Head_2
 62
7
100
AcDbSpline
 70
8
 71
3
 72
8
 73
4
 74
0
 40
0
 40
0
 40
0
 40
0
 40
1
 40
1
 40
1
 40
1
 10
33.410181
 20
5.947483
 30
0.0
 10
33.410181
 20
5.947483
 30
0.0
 10
32.905121
 20
6.153643
 30
0.0
 10
31.955134
 20
6.703093
 30
0.0
  0
SPLINE
  5
110
100
AcDbEntity
  8
Head_2
 62
7
100
AcDbSpline
 70
8
 71
3
 72
8
 73
4
 74
0
 40
0
 40
0
 40
0
 40
0
 40
1
 40
1
 40
1
 40
1
 10
31.955134
 20
6.703093
 30
0.0
 10
31.273515
 20
7.097322
 30
0.0
 10
28.515381
 20
8.778524
 30
0.0
 10
28.515381
 20
8.778524
 30
0.0
  0
SPLINE
  5
111
100
AcDbEntity
  8
Head_2
 62
7
100
AcDbSpline
 70
8
 71
3
 72
8
 73
4
 74
0
 40
0
 40
0
 40
0
 40
0
 40
1
 40
1
 40
1
 40
1
 10
28.515381
 20
8.778524
 30
0.0
 10
28.515381
 20
8.778524
 30
0.0
 10
29.148461
 20
6.747651
 30
0.0
 10
29.130223
 20
5.425335
 30
0.0
  0
SPLINE
  5
112
100
AcDbEntity
  8
Head_2
 62
7
100
AcDbSpline
 70
8
 71
3
 72
8
 73
4
 74
0
 40
0
 40
0
 40
0
 40
0
 40
1
 40
1
 40
1
 40
1
 10
29.130223
 20
5.425335
 30
0.0
 10
29.113184
 20
4.190012
 30
0.0
 10
28.409548
 20
1.105608
 30
0.0
 10
28.409548
 20
1.105608
 30
0.0
  0
SPLINE
  5
113
100
AcDbEntity
  8
Head_2
 62
7
100
AcDbSpline
 70
8
 71
3
 72
8
 73
4
 74
0
 40
0
 40
0
 40
0
 40
0
 40
1
 40
1
 40
1
 40
1
 10
28.409548
 20
1.105608
 30
0.0
 10
28.409548
 20
1.105608
 30
0.0
 10
27.828171
 20
3.067115
 30
0.0
 10
27.314295
 20
3.908376
 30
0.0
  0
SPLINE
  5
114
100
AcDbEntity
  8
Head_2
 62
7
100
AcDbSpline
 70
8
 71
3
 72
8
 73
4
 74
0
 40
0
 40
0
 40
0
 40
0
 40
1
 40
1
 40
1
 40
1
 10
27.314295
 20
3.908376
 30
0.0
 10
26.734558
 20
4.857463
 30
0.0
 10
25.128715
 20
6.476649
 30
0.0
 10
25.128715
 20
6.476649
 30
0.0
  0
SPLINE
  5
115
100
AcDbEntity
  8
Head_2
 62
7
100
AcDbSpline
 70
8
 71
3
 72
8
 73
4
 74
0
 40
0
 40
0
 40
0
 40
0
 40
1
 40
1
 40
1
 40
1
 10
25.128715
 20
6.476649
 30
0.0
 10
25.128715
 20
6.476649
 30
0.0
 10
24.862959
 20
3.914795
 30
0.0
 10
24.506896
 20
2.912849
 30
0.0
  0
SPLINE
  5
116
100
AcDbEntity
  8
Head_2
 62
7
100
AcDbSpline
 70
8
 71
3
 72
8
 73
4
 74
0
 40
0
 40
0
 40
0
 40
0
 40
1
 40
1
 40
1
 40
1
 10
24.506896
 20
2.912849
 30
0.0
 10
24.104489
 20
1.780488
 30
0.0
 10
22.853298
 20
0.073733
 30
0.0
 10
22.853298
 20
0.073733
 30
0.0
  0
SPLINE
  5
117
100
AcDbEntity
  8
Head_2
 62
7
100
AcDbSpline
 70
8
 71
3
 72
8
 73
4
 74
0
 40
0
 40
0
 40
0
 40
0
 40
1
 40
1
 40
1
 40
1
 10
22.853298
 20
0.073733
 30
0.0
 10
22.853298
 20
0.073733
 30
0.0
 10
22.759620
 20
1.381666
 30
0.0
 10
22.350103
 20
1.979836
 30
0.0
  0
SPLINE
  5
118
100
AcDbEntity
  8
Head_2
 62
7
100
AcDbSpline
 70
8
 71
3
 72
8
 73
4
 74
0
 40
0
 40
0
 40
0
 40
0
 40
1
 40
1
 40
1
 40
1
 10
22.350103
 20
1.979836
 30
0.0
 10
21.974688
 20
2.528193
 30
0.0
 10
20.498506
 20
3.513316
 30
0.0
 10
20.498506
 20
3.513316
 30
0.0
  0
SPLINE
  5
119
100
AcDbEntity
  8
Head_2
 62
7
100
AcDbSpline
 70
8
 71
3
 72
8
 73
4
 74
0
 40
0
 40
0
 40
0
 40
0
 40
1
 40
1
 40
1
 40
1
 10
20.498506
 20
3.513316
 30
0.0
 10
20.498506
 20
3.513316
 30
0.0
 10
19.337811
 20
4.581870
 30
0.0
 10
18.255295
 20
4.697676
 30
0.0
  0
SPLINE
  5
11a
100
AcDbEntity
  8
Head_2
 62
7
100
AcDbSpline
 70
8
 71
3
 72
8
 73
4
 74
0
 40
0
 40
0
 40
0
 40
0
 40
1
 40
1
 40
1
 40
1
 10
18.255295
 20
4.697676
 30
0.0
 10
17.441630
 20
4.784718
 30
0.0
 10
14.809965
 20
4.121858
 30
0.0
 10
14.809965
 20
4.121858
 30
0.0
  0
SPLINE
  5
11b
100
AcDbEntity
  8
Head_2
 62
7
100
AcDbSpline
 70
8
 71
3
 72
8
 73
4
 74
0
 40
0
 40
0
 40
0
 40
0
 40
1
 40
1
 40
1
 40
1
 10
14.809965
 20
4.121858
 30
0.0
 10
14.809965
 20
4.121858
 30
0.0
 10
8.334015
 20
3.827387
 30
0.0
 10
6.490954
 20
4.517100
 30
0.0
  0
SPLINE
  5
11c
100
AcDbEntity
  8
Head_2
 62
7
100
AcDbSpline
 70
8
 71
3
 72
8
 73
4
 74
0
 40
0
 40
0
 40
0
 40
0
 40
1
 40
1
 40
1
 40
1
 10
6.490954
 20
4.517100
 30
0.0
 10
4.091863
 20
5.414887
 30
0.0
 10
2.083506
 20
8.884358
 30
0.0
 10
2.083506
 20
8.884358
 30
0.0
  0
SPLINE
  5
11d
100
AcDbEntity
  8
Head_2
 62
7
100
AcDbSpline
 70
8
 71
3
 72
8
 73
4
 74
0
 40
0
 40
0
 40
0
 40
0
 40
1
 40
1
 40
1
 40
1
 10
17.139520
 20
24.172096
 30
0.0
 10
17.139520
 20
23.474401
 30
0.0
 10
16.490801
 20
22.829704
 30
0.0
 10
15.437728
 20
22.480856
 30
0.0
  0
SPLINE
  5
11e
100
AcDbEntity
  8
Head_2
 62
7
100
AcDbSpline
 70
8
 71
3
 72
8
 73
4
 74
0
 40
0
 40
0
 40
0
 40
0
 40
1
 40
1
 40
1
 40
1
 10
15.437728
 20
22.480856
 30
0.0
 10
14.384656
 20
22.132009
 30
0.0
 10
13.087217
 20
22.132009
 30
0.0
 10
12.034145
 20
22.480856
 30
0.0
  0
SPLINE
  5
11f
100
AcDbEntity
  8
Head_2
 62
7
100
AcDbSpline
 70
8
 71
3
 72
8
 73
4
 74
0
 40
0
 40
0
 40
0
 40
0
 40
1
 40
1
 40
1
 40
1
 10
12.034145
 20
22.480856
 30
0.0
 10
10.981072
 20
22.829704
 30
0.0
 10
10.332353
 20
23.474401
 30
0.0
 10
10.332353
 20
24.172096
 30
0.0
  0
SPLINE
  5
120
100
AcDbEntity
  8
Head_2
 62
7
100
AcDbSpline
 70
8
 71
3
 72
8
 73
4
 74
0
 40
0
 40
0
 40
0
 40
0
 40
1
 40
1
 40
1
 40
1
 10
10.332353
 20
24.172096
 30
0.0
 10
10.332353
 20
24.869792
 30
0.0
 10
10.981072
 20
25.514489
 30
0.0
 10
12.034145
 20
25.863337
 30
0.0
  0
SPLINE
  5
121
100
AcDbEntity
  8
Head_2
 62
7
100
AcDbSpline
 70
8
 71
3
 72
8
 73
4
 74
0
 40
0
 40
0
 40
0
 40
0
 40
1
 40
1
 40
1
 40
1
 10
12.034145
 20
25.863337
 30
0.0
 10
13.087217
 20
26.212184
 30
0.0
 10
14.384656
 20
26.212184
 30
0.0
 10
15.437728
 20
25.863337
 30
0.0
  0
SPLINE
  5
122
100
AcDbEntity
  8
Head_2
 62
7
100
AcDbSpline
 70
8
 71
3
 72
8
 73
4
 74
0
 40
0
 40
0
 40
0
 40
0
 40
1
 40
1
 40
1
 40
1
 10
15.437728
 20
25.863337
 30
0.0
 10
16.490801
 20
25.514489
 30
0.0
 10
17.139520
 20
24.869792
 30
0.0
 10
17.139520
 20
24.172096
 30
0.0
  0
LINE
  5
123
100
AcDbEntity
  8
Head_2
 62
7
100
AcDbLine
 10
17.139520
 20
24.172096
 30
0.0
 11
17.139520
 21
24.172096
 31
0.0
  0
SPLINE
  5
124
100
AcDbEntity
  8
Head_2
 62
7
100
AcDbSpline
 70
8
 71
3
 72
8
 73
4
 74
0
 40
0
 40
0
 40
0
 40
0
 40
1
 40
1
 40
1
 40
1
 10
0.046215
 20
20.314358
 30
0.0
 10
-0.286232
 20
17.375969
 30
0.0
 10
3.646710
 20
19.593043
 30
0.0
 10
3.775255
 20
17.308863
 30
0.0
  0
SPLINE
  5
125
100
AcDbEntity
  8
Head_2
 62
7
100
AcDbSpline
 70
8
 71
3
 72
8
 73
4
 74
0
 40
0
 40
0
 40
0
 40
0
 40
1
 40
1
 40
1
 40
1
 10
3.775255
 20
17.308863
 30
0.0
 10
3.876011
 20
15.518459
 30
0.0
 10
2.083506
 20
8.884358
 30
0.0
 10
2.083506
 20
8.884358
 30
0.0
  0
SPLINE
  5
126
100
AcDbEntity
  8
Head_2
 62
7
100
AcDbSpline
 70
8
 71
3
 72
8
 73
4
 74
0
 40
0
 40
0
 40
0
 40
0
 40
1
 40
1
 40
1
 40
1
 10
40.456728
 20
20.314358
 30
0.0
 10
40.456728
 20
20.314358
 30
0.0
 10
43.112195
 20
24.841416
 30
0.0
 10
44.716107
 20
26.631494
 30
0.0
  0
SPLINE
  5
127
100
AcDbEntity
  8
Head_2
 62
7
100
AcDbSpline
 70
8
 71
3
 72
8
 73
4
 74
0
 40
0
 40
0
 40
0
 40
0
 40
1
 40
1
 40
1
 40
1
 10
44.716107
 20
26.631494
 30
0.0
 10
46.075529
 20
28.148707
 30
0.0
 10
49.346728
 20
30.236233
 30
0.0
 10
49.346728
 20
30.236233
 30
0.0
  0
SPLINE
  5
128
100
AcDbEntity
  8
Head_2
 62
7
100
AcDbSpline
 70
8
 71
3
 72
8
 73
4
 74
0
 40
0
 40
0
 40
0
 40
0
 40
1
 40
1
 40
1
 40
1
 10
49.346728
 20
30.236233
 30
0.0
 10
49.346728
 20
30.236233
 30
0.0
 10
53.541269
 20
32.575782
 30
0.0
 10
55.914716
 20
33.193197
 30
0.0
  0
SPLINE
  5
129
100
AcDbEntity
  8
Head_2
 62
7
100
AcDbSpline
 70
8
 71
3
 72
8
 73
4
 74
0
 40
0
 40
0
 40
0
 40
0
 40
1
 40
1
 40
1
 40
1
 10
55.914716
 20
33.193197
 30
0.0
 10
58.762379
 20
33.933975
 30
0.0
 10
65.010062
 20
34.310816
 30
0.0
 10
65.010062
 20
34.310816
 30
0.0
  0
LINE
  5
12a
100
AcDbEntity
  8
Head_2
 62
7
100
AcDbLine
 10
65.010062
 20
34.310816
 30
0.0
 11
77.736520
 21
34.496024
 31
0.0
  0
LINE
  5
12b
100
AcDbEntity
  8
Head_2
 62
7
100
AcDbLine
 10
77.736520
 20
34.496024
 30
0.0
 11
71.042562
 21
31.321024
 31
0.0
  0
LINE
  5
12c
100
AcDbEntity
  8
Head_2
 62
7
100
AcDbLine
 10
71.042562
 20
31.321024
 30
0.0
 11
80.117770
 21
29.971649
 31
0.0
  0
SPLINE
  5
12d
100
AcDbEntity
  8
Head_2
 62
7
100
AcDbSpline
 70
8
 71
3
 72
8
 73
4
 74
0
 40
0
 40
0
 40
0
 40
0
 40
1
 40
1
 40
1
 40
1
 10
80.117770
 20
29.971649
 30
0.0
 10
80.117770
 20
29.971649
 30
0.0
 10
76.443078
 20
27.465206
 30
0.0
 10
75.375085
 20
26.310620
 30
0.0
  0
SPLINE
  5
12e
100
AcDbEntity
  8
Head_2
 62
7
100
AcDbSpline
 70
8
 71
3
 72
8
 73
4
 74
0
 40
0
 40
0
 40
0
 40
0
 40
1
 40
1
 40
1
 40
1
 10
75.375085
 20
26.310620
 30
0.0
 10
74.811480
 20
25.701317
 30
0.0
 10
75.222978
 20
24.679983
 30
0.0
 10
75.222978
 20
24.679983
 30
0.0
  0
SPLINE
  5
12f
100
AcDbEntity
  8
Head_2
 62
7
100
AcDbSpline
 70
8
 71
3
 72
8
 73
4
 74
0
 40
0
 40
0
 40
0
 40
0
 40
1
 40
1
 40
1
 40
1
 10
75.222978
 20
24.679983
 30
0.0
 10
75.222978
 20
24.679983
 30
0.0
 10
77.129868
 20
23.269290
 30
0.0
 10
76.584059
 20
22.268038
 30
0.0
  0
SPLINE
  5
130
100
AcDbEntity
  8
Head_2
 62
7
100
AcDbSpline
 70
8
 71
3
 72
8
 73
4
 74
0
 40
0
 40
0
 40
0
 40
0
 40
1
 40
1
 40
1
 40
1
 10
76.584059
 20
22.268038
 30
0.0
 10
75.798132
 20
20.826303
 30
0.0
 10
71.227770
 20
17.351024
 30
0.0
 10
71.227770
 20
17.351024
 30
0.0
  0
SPLINE
  5
131
100
AcDbEntity
  8
Head_2
 62
7
100
AcDbSpline
 70
8
 71
3
 72
8
 73
4
 74
0
 40
0
 40
0
 40
0
 40
0
 40
1
 40
1
 40
1
 40
1
 10
71.227770
 20
17.351024
 30
0.0
 10
71.227770
 20
17.351024
 30
0.0
 10
70.621842
 20
16.476201
 30
0.0
 10
70.614783
 20
15.802066
 30
0.0
  0
SPLINE
  5
132
100
AcDbEntity
  8
Head_2
 62
7
100
AcDbSpline
 70
8
 71
3
 72
8
 73
4
 74
0
 40
0
 40
0
 40
0
 40
0
 40
1
 40
1
 40
1
 40
1
 10
70.614783
 20
15.802066
 30
0.0
 10
70.604200
 20
14.791689
 30
0.0
 10
71.174853
 20
12.297483
 30
0.0
 10
71.174853
 20
12.297483
 30
0.0
  0
SPLINE
  5
133
100
AcDbEntity
  8
Head_2
 62
7
100
AcDbSpline
 70
8
 71
3
 72
8
 73
4
 74
0
 40
0
 40
0
 40
0
 40
0
 40
1
 40
1
 40
1
 40
1
 10
71.174853
 20
12.297483
 30
0.0
 10
71.174853
 20
12.297483
 30
0.0
 10
73.297619
 20
9.183437
 30
0.0
 10
73.806645
 20
7.961774
 30
0.0
  0
SPLINE
  5
134
100
AcDbEntity
  8
Head_2
 62
7
100
AcDbSpline
 70
8
 71
3
 72
8
 73
4
 74
0
 40
0
 40
0
 40
0
 40
0
 40
1
 40
1
 40
1
 40
1
 10
73.806645
 20
7.961774
 30
0.0
 10
74.179565
 20
7.066771
 30
0.0
 10
73.820695
 20
5.947483
 30
0.0
 10
73.820695
 20
5.947483
 30
0.0
  0
SPLINE
  5
135
100
AcDbEntity
  8
Head_2
 62
7
100
AcDbSpline
 70
8
 71
3
 72
8
 73
4
 74
0
 40
0
 40
0
 40
0
 40
0
 40
1
 40
1
 40
1
 40
1
 10
73.820695
 20
5.947483
 30
0.0
 10
73.820695
 20
5.947483
 30
0.0
 10
73.315634
 20
6.153643
 30
0.0
 10
72.365648
 20
6.703093
 30
0.0
  0
SPLINE
  5
136
100
AcDbEntity
  8
Head_2
 62
7
100
AcDbSpline
 70
8
 71
3
 72
8
 73
4
 74
0
 40
0
 40
0
 40
0
 40
0
 40
1
 40
1
 40
1
 40
1
 10
72.365648
 20
6.703093
 30
0.0
 10
71.684028
 20
7.097322
 30
0.0
 10
68.925895
 20
8.778524
 30
0.0
 10
68.925895
 20
8.778524
 30
0.0
  0
SPLINE
  5
137
100
AcDbEntity
  8
Head_2
 62
7
100
AcDbSpline
 70
8
 71
3
 72
8
 73
4
 74
0
 40
0
 40
0
 40
0
 40
0
 40
1
 40
1
 40
1
 40
1
 10
68.925895
 20
8.778524
 30
0.0
 10
68.925895
 20
8.778524
 30
0.0
 10
69.558974
 20
6.747651
 30
0.0
 10
69.540736
 20
5.425335
 30
0.0
  0
SPLINE
  5
138
100
AcDbEntity
  8
Head_2
 62
7
100
AcDbSpline
 70
8
 71
3
 72
8
 73
4
 74
0
 40
0
 40
0
 40
0
 40
0
 40
1
 40
1
 40
1
 40
1
 10
69.540736
 20
5.425335
 30
0.0
 10
69.523697
 20
4.190012
 30
0.0
 10
68.820062
 20
1.105608
 30
0.0
 10
68.820062
 20
1.105608
 30
0.0
  0
SPLINE
  5
139
100
AcDbEntity
  8
Head_2
 62
7
100
AcDbSpline
 70
8
 71
3
 72
8
 73
4
 74
0
 40
0
 40
0
 40
0
 40
0
 40
1
 40
1
 40
1
 40
1
 10
68.820062
 20
1.105608
 30
0.0
 10
68.820062
 20
1.105608
 30
0.0
 10
68.238685
 20
3.067115
 30
0.0
 10
67.724808
 20
3.908376
 30
0.0
  0
SPLINE
  5
13a
100
AcDbEntity
  8
Head_2
 62
7
100
AcDbSpline
 70
8
 71
3
 72
8
 73
4
 74
0
 40
0
 40
0
 40
0
 40
0
 40
1
 40
1
 40
1
 40
1
 10
67.724808
 20
3.908376
 30
0.0
 10
67.145072
 20
4.857463
 30
0.0
 10
65.539228
 20
6.476649
 30
0.0
 10
65.539228
 20
6.476649
 30
0.0
  0
SPLINE
  5
13b
100
AcDbEntity
  8
Head_2
 62
7
100
AcDbSpline
 70
8
 71
3
 72
8
 73
4
 74
0
 40
0
 40
0
 40
0
 40
0
 40
1
 40
1
 40
1
 40
1
 10
65.539228
 20
6.476649
 30
0.0
 10
65.539228
 20
6.476649
 30
0.0
 10
65.273473
 20
3.914795
 30
0.0
 10
64.917410
 20
2.912849
 30
0.0
  0
SPLINE
  5
13c
100
AcDbEntity
  8
Head_2
 62
7
100
AcDbSpline
 70
8
 71
3
 72
8
 73
4
 74
0
 40
0
 40
0
 40
0
 40
0
 40
1
 40
1
 40
1
 40
1
 10
64.917410
 20
2.912849
 30
0.0
 10
64.515003
 20
1.780488
 30
0.0
 10
63.263812
 20
0.073733
 30
0.0
 10
63.263812
 20
0.073733
 30
0.0
  0
SPLINE
  5
13d
100
AcDbEntity
  8
Head_2
 62
7
100
AcDbSpline
 70
8
 71
3
 72
8
 73
4
 74
0
 40
0
 40
0
 40
0
 40
0
 40
1
 40
1
 40
1
 40
1
 10
63.263812
 20
0.073733
 30
0.0
 10
63.263812
 20
0.073733
 30
0.0
 10
63.170133
 20
1.381666
 30
0.0
 10
62.760617
 20
1.979836
 30
0.0
  0
SPLINE
  5
13e
100
AcDbEntity
  8
Head_2
 62
7
100
AcDbSpline
 70
8
 71
3
 72
8
 73
4
 74
0
 40
0
 40
0
 40
0
 40
0
 40
1
 40
1
 40
1
 40
1
 10
62.760617
 20
1.979836
 30
0.0
 10
62.385202
 20
2.528193
 30
0.0
 10
60.909020
 20
3.513316
 30
0.0
 10
60.909020
 20
3.513316
 30
0.0
  0
SPLINE
  5
13f
100
AcDbEntity
  8
Head_2
 62
7
100
AcDbSpline
 70
8
 71
3
 72
8
 73
4
 74
0
 40
0
 40
0
 40
0
 40
0
 40
1
 40
1
 40
1
 40
1
 10
60.909020
 20
3.513316
 30
0.0
 10
60.909020
 20
3.513316
 30
0.0
 10
59.748325
 20
4.581870
 30
0.0
 10
58.665808
 20
4.697676
 30
0.0
  0
SPLINE
  5
140
100
AcDbEntity
  8
Head_2
 62
7
100
AcDbSpline
 70
8
 71
3
 72
8
 73
4
 74
0
 40
0
 40
0
 40
0
 40
0
 40
1
 40
1
 40
1
 40
1
 10
58.665808
 20
4.697676
 30
0.0
 10
57.852143
 20
4.784718
 30
0.0
 10
55.220478
 20
4.121858
 30
0.0
 10
55.220478
 20
4.121858
 30
0.0
  0
SPLINE
  5
141
100
AcDbEntity
  8
Head_2
 62
7
100
AcDbSpline
 70
8
 71
3
 72
8
 73
4
 74
0
 40
0
 40
0
 40
0
 40
0
 40
1
 40
1
 40
1
 40
1
 10
55.220478
 20
4.121858
 30
0.0
 10
55.220478
 20
4.121858
 30
0.0
 10
48.744529
 20
3.827387
 30
0.0
 10
46.901468
 20
4.517100
 30
0.0
  0
SPLINE
  5
142
100
AcDbEntity
  8
Head_2
 62
7
100
AcDbSpline
 70
8
 71
3
 72
8
 73
4
 74
0
 40
0
 40
0
 40
0
 40
0
 40
1
 40
1
 40
1
 40
1
 10
46.901468
 20
4.517100
 30
0.0
 10
44.502377
 20
5.414887
 30
0.0
 10
42.494020
 20
8.884358
 30
0.0
 10
42.494020
 20
8.884358
 30
0.0
  0
SPLINE
  5
143
100
AcDbEntity
  8
Head_2
 62
7
100
AcDbSpline
 70
8
 71
3
 72
8
 73
4
 74
0
 40
0
 40
0
 40
0
 40
0
 40
1
 40
1
 40
1
 40
1
 10
57.550039
 20
24.172096
 30
0.0
 10
57.550039
 20
23.093553
 30
0.0
 10
56.026203
 20
22.219221
 30
0.0
 10
54.146455
 20
22.219221
 30
0.0
  0
SPLINE
  5
144
100
AcDbEntity
  8
Head_2
 62
7
100
AcDbSpline
 70
8
 71
3
 72
8
 73
4
 74
0
 40
0
 40
0
 40
0
 40
0
 40
1
 40
1
 40
1
 40
1
 10
54.146455
 20
22.219221
 30
0.0
 10
52.266708
 20
22.219221
 30
0.0
 10
50.742872
 20
23.093553
 30
0.0
 10
50.742872
 20
24.172096
 30
0.0
  0
SPLINE
  5
145
100
AcDbEntity
  8
Head_2
 62
7
100
AcDbSpline
 70
8
 71
3
 72
8
 73
4
 74
0
 40
0
 40
0
 40
0
 40
0
 40
1
 40
1
 40
1
 40
1
 10
50.742872
 20
24.172096
 30
0.0
 10
50.742872
 20
25.250640
 30
0.0
 10
52.266708
 20
26.124972
 30
0.0
 10
54.146455
 20
26.124972
 30
0.0
  0
SPLINE
  5
146
100
AcDbEntity
  8
Head_2
 62
7
100
AcDbSpline
 70
8
 71
3
 72
8
 73
4
 74
0
 40
0
 40
0
 40
0
 40
0
 40
1
 40
1
 40
1
 40
1
 10
54.146455
 20
26.124972
 30
0.0
 10
56.026203
 20
26.124972
 30
0.0
 10
57.550039
 20
25.250640
 30
0.0
 10
57.550039
 20
24.172096
 30
0.0
  0
LINE
  5
147
100
AcDbEntity
  8
Head_2
 62
7
100
AcDbLine
 10
57.550039
 20
24.172096
 30
0.0
 11
57.550039
 21
24.172096
 31
0.0
  0
SPLINE
  5
148
100
AcDbEntity
  8
Head_2
 62
7
100
AcDbSpline
 70
8
 71
3
 72
8
 73
4
 74
0
 40
0
 40
0
 40
0
 40
0
 40
1
 40
1
 40
1
 40
1
 10
40.456728
 20
20.314358
 30
0.0
 10
40.124282
 20
17.375969
 30
0.0
 10
44.057223
 20
19.593043
 30
0.0
 10
44.185769
 20
17.308863
 30
0.0
  0
SPLINE
  5
149
100
AcDbEntity
  8
Head_2
 62
7
100
AcDbSpline
 70
8
 71
3
 72
8
 73
4
 74
0
 40
0
 40
0
 40
0
 40
0
 40
1
 40
1
 40
1
 40
1
 10
44.185769
 20
17.308863
 30
0.0
 10
44.286525
 20
15.518459
 30
0.0
 10
42.494020
 20
8.884358
 30
0.0
 10
42.494020
 20
8.884358
 30
0.0
  0
ENDSEC
  0
SECTION
  2
OBJECTS
  0
DICTIONARY
  5
C
330
0
100
AcDbDictionary
  3
ACAD_GROUP
350
D
  3
ACAD_MLINESTYLE
350
17
  0
DICTIONARY
  5
D
330
C
100
AcDbDictionary
  0
DICTIONARY
  5
1A
330
C
100
AcDbDictionary
  0
DICTIONARY
  5
17
330
C
100
AcDbDictionary
  3
STANDARD
350
18
  0
DICTIONARY
  5
19
330
C
100
AcDbDictionary
  0
ENDSEC
  0
EOF
