  0
SECTION
  2
HEADER
  9
$ACADVER
  1
AC1014
  9
$HANDSEED
  5
FFFF
  9
$MEASUREMENT
 70
     1
  0
ENDSEC
  0
SECTION
  2
TABLES
  0
TABLE
  2
VPORT
  5
8
330
0
100
AcDbSymbolTable
 70
     4
  0
VPORT
  5
2E
330
8
100
AcDbSymbolTableRecord
100
AcDbViewportTableRecord
  2
*ACTIVE
 70
     0
 10
0.0
 20
0.0
 11
1.0
 21
1.0
 12
210.0
 22
148.5
 13
0.0
 23
0.0
 14
10.0
 24
10.0
 15
10.0
 25
10.0
 16
0.0
 26
0.0
 36
1.0
 17
0.0
 27
0.0
 37
0.0
 40
341.0
 41
1.24
 42
50.0
 43
0.0
 44
0.0
 50
0.0
 51
0.0
 71
     0
 72
   100
 73
     1
 74
     3
 75
     0
 76
     0
 77
     0
 78
     0
  0
ENDTAB
  0
TABLE
  2
LTYPE
  5
5
330
0
100
AcDbSymbolTable
 70
     1
  0
LTYPE
  5
14
330
5
100
AcDbSymbolTableRecord
100
AcDbLinetypeTableRecord
  2
BYBLOCK
 70
     0
  3

 72
    65
 73
     0
 40
0.0
  0
LTYPE
  5
15
330
5
100
AcDbSymbolTableRecord
100
AcDbLinetypeTableRecord
  2
BYLAYER
 70
     0
  3

 72
    65
 73
     0
 40
0.0
  0
LTYPE
  5
16
330
5
100
AcDbSymbolTableRecord
100
AcDbLinetypeTableRecord
  2
CONTINUOUS
 70
     0
  3
Solid line
 72
    65
 73
     0
 40
0.0
  0
ENDTAB
  0
TABLE
  2
LAYER
  5
2
100
AcDbSymbolTable
 70
7
  0
LAYER
  5
50
100
AcDbSymbolTableRecord
100
AcDbLayerTableRecord
  2
0
 70
0
  6
CONTINUOUS
  0
LAYER
  5
51
100
AcDbSymbolTableRecord
100
AcDbLayerTableRecord
  2
Head
 70
0
  6
CONTINUOUS
  0
LAYER
  5
52
100
AcDbSymbolTableRecord
100
AcDbLayerTableRecord
  2
Head_2
 70
0
  6
CONTINUOUS
  0
LAYER
  5
53
100
AcDbSymbolTableRecord
100
AcDbLayerTableRecord
  2
Wing
 70
0
  6
CONTINUOUS
  0
LAYER
  5
54
100
AcDbSymbolTableRecord
100
AcDbLayerTableRecord
  2
Body
 70
0
  6
CONTINUOUS
  0
LAYER
  5
55
100
AcDbSymbolTableRecord
100
AcDbLayerTableRecord
  2
Tail
 70
0
  6
CONTINUOUS
  0
LAYER
  5
56
100
AcDbSymbolTableRecord
100
AcDbLayerTableRecord
  2
Draw
 70
0
  6
CONTINUOUS
  0
ENDTAB
  0
TABLE
  2
STYLE
  5
3
330
0
100
AcDbSymbolTable
 70
     1
  0
STYLE
  5
11
330
3
100
AcDbSymbolTableRecord
100
AcDbTextStyleTableRecord
  2
STANDARD
 70
     0
 40
0.0
 41
1.0
 50
0.0
 71
     0
 42
2.5
  3
txt
  4

  0
ENDTAB
  0
TABLE
  2
VIEW
  5
6
330
0
100
AcDbSymbolTable
 70
     0
  0
ENDTAB
  0
TABLE
  2
UCS
  5
7
330
0
100
AcDbSymbolTable
 70
     0
  0
ENDTAB
  0
TABLE
  2
APPID
  5
9
330
0
100
AcDbSymbolTable
 70
     2
  0
APPID
  5
12
330
9
100
AcDbSymbolTableRecord
100
AcDbRegAppTableRecord
  2
ACAD
 70
     0
  0
ENDTAB
  0
TABLE
  2
DIMSTYLE
  5
A
330
0
100
AcDbSymbolTable
 70
     1
  0
DIMSTYLE
105
27
330
A
100
AcDbSymbolTableRecord
100
AcDbDimStyleTableRecord
  2
ISO-25
 70
     0
  3

  4

  5

  6

  7

 40
1.0
 41
2.5
 42
0.625
 43
3.75
 44
1.25
 45
0.0
 46
0.0
 47
0.0
 48
0.0
140
2.5
141
2.5
142
0.0
143
0.03937007874016
144
1.0
145
0.0
146
1.0
147
0.625
 71
     0
 72
     0
 73
     0
 74
     0
 75
     0
 76
     0
 77
     1
 78
     8
170
     0
171
     3
172
     1
173
     0
174
     0
175
     0
176
     0
177
     0
178
     0
270
     2
271
     2
272
     2
273
     2
274
     3
340
11
275
     0
280
     0
281
     0
282
     0
283
     0
284
     8
285
     0
286
     0
287
     3
288
     0
  0
ENDTAB
  0
TABLE
  2
BLOCK_RECORD
  5
1
330
0
100
AcDbSymbolTable
 70
     1
  0
BLOCK_RECORD
  5
1F
330
1
100
AcDbSymbolTableRecord
100
AcDbBlockTableRecord
  2
*MODEL_SPACE
  0
BLOCK_RECORD
  5
1B
330
1
100
AcDbSymbolTableRecord
100
AcDbBlockTableRecord
  2
*PAPER_SPACE
  0
ENDTAB
  0
ENDSEC
  0
SECTION
  2
BLOCKS
  0
BLOCK
  5
20
330
1F
100
AcDbEntity
  8
0
100
AcDbBlockBegin
  2
*MODEL_SPACE
 70
     0
 10
0.0
 20
0.0
 30
0.0
  3
*MODEL_SPACE
  1

  0
ENDBLK
  5
21
330
1F
100
AcDbEntity
  8
0
100
AcDbBlockEnd
  0
BLOCK
  5
1C
330
1B
100
AcDbEntity
 67
     1
  8
0
100
AcDbBlockBegin
  2
*PAPER_SPACE
  1

  0
ENDBLK
  5
1D
330
1B
100
AcDbEntity
 67
     1
  8
0
100
AcDbBlockEnd
  0
ENDSEC
  0
SECTION
  2
ENTITIES
  0
LINE
  5
100
100
AcDbEntity
  8
Tail
 62
7
100
AcDbLine
 10
0.026458
 20
19.284898
 30
0.0
 11
0.026458
 21
27.565320
 31
0.0
  0
SPLINE
  5
101
100
AcDbEntity
  8
Tail
 62
7
100
AcDbSpline
 70
8
 71
3
 72
8
 73
4
 74
0
 40
0
 40
0
 40
0
 40
0
 40
1
 40
1
 40
1
 40
1
 10
0.026458
 20
27.565320
 30
0.0
 10
0.026458
 20
27.565320
 30
0.0
 10
4.141991
 20
31.922520
 30
0.0
 10
6.153579
 20
33.078694
 30
0.0
  0
SPLINE
  5
102
100
AcDbEntity
  8
Tail
 62
7
100
AcDbSpline
 70
8
 71
3
 72
8
 73
4
 74
0
 40
0
 40
0
 40
0
 40
0
 40
1
 40
1
 40
1
 40
1
 10
6.153579
 20
33.078694
 30
0.0
 10
8.885497
 20
34.648880
 30
0.0
 10
14.148731
 20
35.004490
 30
0.0
 10
14.148731
 20
35.004490
 30
0.0
  0
SPLINE
  5
103
100
AcDbEntity
  8
Tail
 62
7
100
AcDbSpline
 70
8
 71
3
 72
8
 73
4
 74
0
 40
0
 40
0
 40
0
 40
0
 40
1
 40
1
 40
1
 40
1
 10
14.148731
 20
35.004490
 30
0.0
 10
14.148731
 20
35.004490
 30
0.0
 10
27.530780
 20
33.594491
 30
0.0
 10
33.681776
 20
33.699531
 30
0.0
  0
SPLINE
  5
104
100
AcDbEntity
  8
Tail
 62
7
100
AcDbSpline
 70
8
 71
3
 72
8
 73
4
 74
0
 40
0
 40
0
 40
0
 40
0
 40
1
 40
1
 40
1
 40
1
 10
33.681776
 20
33.699531
 30
0.0
 10
36.924067
 20
33.754900
 30
0.0
 10
40.717986
 20
32.360885
 30
0.0
 10
44.126023
 20
33.099490
 30
0.0
  0
SPLINE
  5
105
100
AcDbEntity
  8
Tail
 62
7
100
AcDbSpline
 70
8
 71
3
 72
8
 73
4
 74
0
 40
0
 40
0
 40
0
 40
0
 40
1
 40
1
 40
1
 40
1
 10
44.126023
 20
33.099490
 30
0.0
 10
47.307458
 20
33.788986
 30
0.0
 10
51.869081
 20
36.565773
 30
0.0
 10
51.869081
 20
36.565773
 30
0.0
  0
SPLINE
  5
106
100
AcDbEntity
  8
Tail
 62
7
100
AcDbSpline
 70
8
 71
3
 72
8
 73
4
 74
0
 40
0
 40
0
 40
0
 40
0
 40
1
 40
1
 40
1
 40
1
 10
51.869081
 20
36.565773
 30
0.0
 10
51.869081
 20
36.565773
 30
0.0
 10
54.891503
 20
40.086607
 30
0.0
 10
56.942741
 20
40.586958
 30
0.0
  0
SPLINE
  5
107
100
AcDbEntity
  8
Tail
 62
7
100
AcDbSpline
 70
8
 71
3
 72
8
 73
4
 74
0
 40
0
 40
0
 40
0
 40
0
 40
1
 40
1
 40
1
 40
1
 10
56.942741
 20
40.586958
 30
0.0
 10
60.574150
 20
41.472756
 30
0.0
 10
69.817065
 20
41.804282
 30
0.0
 10
69.817065
 20
41.804282
 30
0.0
  0
SPLINE
  5
108
100
AcDbEntity
  8
Tail
 62
7
100
AcDbSpline
 70
8
 71
3
 72
8
 73
4
 74
0
 40
0
 40
0
 40
0
 40
0
 40
1
 40
1
 40
1
 40
1
 10
69.817065
 20
41.804282
 30
0.0
 10
69.817065
 20
41.804282
 30
0.0
 10
77.058925
 20
41.671220
 30
0.0
 10
80.490171
 20
43.237768
 30
0.0
  0
SPLINE
  5
109
100
AcDbEntity
  8
Tail
 62
7
100
AcDbSpline
 70
8
 71
3
 72
8
 73
4
 74
0
 40
0
 40
0
 40
0
 40
0
 40
1
 40
1
 40
1
 40
1
 10
80.490171
 20
43.237768
 30
0.0
 10
83.136264
 20
44.445850
 30
0.0
 10
87.888106
 20
49.477198
 30
0.0
 10
87.888106
 20
49.477198
 30
0.0
  0
SPLINE
  5
10a
100
AcDbEntity
  8
Tail
 62
7
100
AcDbSpline
 70
8
 71
3
 72
8
 73
4
 74
0
 40
0
 40
0
 40
0
 40
0
 40
1
 40
1
 40
1
 40
1
 10
87.888106
 20
49.477198
 30
0.0
 10
87.888106
 20
49.477198
 30
0.0
 10
93.988647
 20
46.261267
 30
0.0
 10
95.148821
 20
44.473293
 30
0.0
  0
SPLINE
  5
10b
100
AcDbEntity
  8
Tail
 62
7
100
AcDbSpline
 70
8
 71
3
 72
8
 73
4
 74
0
 40
0
 40
0
 40
0
 40
0
 40
1
 40
1
 40
1
 40
1
 10
95.148821
 20
44.473293
 30
0.0
 10
96.025938
 20
43.121544
 30
0.0
 10
93.999981
 20
40.058032
 30
0.0
 10
93.999981
 20
40.058032
 30
0.0
  0
LINE
  5
10c
100
AcDbEntity
  8
Tail
 62
7
100
AcDbLine
 10
93.999981
 20
40.058032
 30
0.0
 11
84.792481
 21
37.015323
 31
0.0
  0
LINE
  5
10d
100
AcDbEntity
  8
Tail
 62
7
100
AcDbLine
 10
84.792481
 20
37.015323
 30
0.0
 11
105.959148
 21
38.549907
 31
0.0
  0
SPLINE
  5
10e
100
AcDbEntity
  8
Tail
 62
7
100
AcDbSpline
 70
8
 71
3
 72
8
 73
4
 74
0
 40
0
 40
0
 40
0
 40
0
 40
1
 40
1
 40
1
 40
1
 10
105.959148
 20
38.549907
 30
0.0
 10
105.959148
 20
38.549907
 30
0.0
 10
109.606768
 20
35.179753
 30
0.0
 10
109.540482
 20
33.674684
 30
0.0
  0
SPLINE
  5
10f
100
AcDbEntity
  8
Tail
 62
7
100
AcDbSpline
 70
8
 71
3
 72
8
 73
4
 74
0
 40
0
 40
0
 40
0
 40
0
 40
1
 40
1
 40
1
 40
1
 10
109.540482
 20
33.674684
 30
0.0
 10
109.456839
 20
31.775446
 30
0.0
 10
105.509356
 20
28.336990
 30
0.0
 10
105.509356
 20
28.336990
 30
0.0
  0
LINE
  5
110
100
AcDbEntity
  8
Tail
 62
7
100
AcDbLine
 10
105.509356
 20
28.336990
 30
0.0
 11
85.506856
 21
26.564282
 31
0.0
  0
LINE
  5
111
100
AcDbEntity
  8
Tail
 62
7
100
AcDbLine
 10
85.506856
 20
26.564282
 30
0.0
 11
107.229148
 21
26.749490
 31
0.0
  0
SPLINE
  5
112
100
AcDbEntity
  8
Tail
 62
7
100
AcDbSpline
 70
8
 71
3
 72
8
 73
4
 74
0
 40
0
 40
0
 40
0
 40
0
 40
1
 40
1
 40
1
 40
1
 10
107.229148
 20
26.749490
 30
0.0
 10
107.229148
 20
26.749490
 30
0.0
 10
110.276693
 20
23.752864
 30
0.0
 10
110.360391
 20
21.804525
 30
0.0
  0
SPLINE
  5
113
100
AcDbEntity
  8
Tail
 62
7
100
AcDbSpline
 70
8
 71
3
 72
8
 73
4
 74
0
 40
0
 40
0
 40
0
 40
0
 40
1
 40
1
 40
1
 40
1
 10
110.360391
 20
21.804525
 30
0.0
 10
110.435443
 20
20.057516
 30
0.0
 10
107.705398
 20
15.663448
 30
0.0
 10
107.705398
 20
15.663448
 30
0.0
  0
LINE
  5
114
100
AcDbEntity
  8
Tail
 62
7
100
AcDbLine
 10
107.705398
 20
15.663448
 30
0.0
 11
84.630739
 21
17.304799
 31
0.0
  0
LINE
  5
115
100
AcDbEntity
  8
Tail
 62
7
100
AcDbLine
 10
84.630739
 20
17.304799
 30
0.0
 11
106.620606
 21
14.446365
 31
0.0
  0
SPLINE
  5
116
100
AcDbEntity
  8
Tail
 62
7
100
AcDbSpline
 70
8
 71
3
 72
8
 73
4
 74
0
 40
0
 40
0
 40
0
 40
0
 40
1
 40
1
 40
1
 40
1
 10
106.620606
 20
14.446365
 30
0.0
 10
106.620606
 20
14.446365
 30
0.0
 10
106.418957
 20
11.582219
 30
0.0
 10
105.328082
 20
10.150146
 30
0.0
  0
SPLINE
  5
117
100
AcDbEntity
  8
Tail
 62
7
100
AcDbSpline
 70
8
 71
3
 72
8
 73
4
 74
0
 40
0
 40
0
 40
0
 40
0
 40
1
 40
1
 40
1
 40
1
 10
105.328082
 20
10.150146
 30
0.0
 10
104.416942
 20
8.954023
 30
0.0
 10
100.614565
 20
6.561782
 30
0.0
 10
100.614565
 20
6.561782
 30
0.0
  0
SPLINE
  5
118
100
AcDbEntity
  8
Tail
 62
7
100
AcDbSpline
 70
8
 71
3
 72
8
 73
4
 74
0
 40
0
 40
0
 40
0
 40
0
 40
1
 40
1
 40
1
 40
1
 10
100.614565
 20
6.561782
 30
0.0
 10
100.614565
 20
6.561782
 30
0.0
 10
94.456364
 20
5.369323
 30
0.0
 10
91.287259
 20
5.943152
 30
0.0
  0
SPLINE
  5
119
100
AcDbEntity
  8
Tail
 62
7
100
AcDbSpline
 70
8
 71
3
 72
8
 73
4
 74
0
 40
0
 40
0
 40
0
 40
0
 40
1
 40
1
 40
1
 40
1
 10
91.287259
 20
5.943152
 30
0.0
 10
88.026989
 20
6.533490
 30
0.0
 10
81.326440
 20
10.054282
 30
0.0
 10
81.326440
 20
10.054282
 30
0.0
  0
LINE
  5
11a
100
AcDbEntity
  8
Tail
 62
7
100
AcDbLine
 10
81.326440
 20
10.054282
 30
0.0
 11
90.768829
 21
3.995323
 31
0.0
  0
LINE
  5
11b
100
AcDbEntity
  8
Tail
 62
7
100
AcDbLine
 10
90.768829
 20
3.995323
 30
0.0
 11
90.995439
 21
1.195616
 31
0.0
  0
SPLINE
  5
11c
100
AcDbEntity
  8
Tail
 62
7
100
AcDbSpline
 70
8
 71
3
 72
8
 73
4
 74
0
 40
0
 40
0
 40
0
 40
0
 40
1
 40
1
 40
1
 40
1
 10
90.995439
 20
1.195616
 30
0.0
 10
91.047909
 20
0.547392
 30
0.0
 10
87.623523
 20
0.026573
 30
0.0
 10
87.623523
 20
0.026573
 30
0.0
  0
SPLINE
  5
11d
100
AcDbEntity
  8
Tail
 62
7
100
AcDbSpline
 70
8
 71
3
 72
8
 73
4
 74
0
 40
0
 40
0
 40
0
 40
0
 40
1
 40
1
 40
1
 40
1
 10
87.623523
 20
0.026573
 30
0.0
 10
87.623523
 20
0.026573
 30
0.0
 10
75.022739
 20
0.754717
 30
0.0
 10
69.532386
 20
1.928830
 30
0.0
  0
SPLINE
  5
11e
100
AcDbEntity
  8
Tail
 62
7
100
AcDbSpline
 70
8
 71
3
 72
8
 73
4
 74
0
 40
0
 40
0
 40
0
 40
0
 40
1
 40
1
 40
1
 40
1
 10
69.532386
 20
1.928830
 30
0.0
 10
64.364656
 20
3.033949
 30
0.0
 10
55.649273
 20
6.864272
 30
0.0
 10
55.649273
 20
6.864272
 30
0.0
  0
SPLINE
  5
11f
100
AcDbEntity
  8
Tail
 62
7
100
AcDbSpline
 70
8
 71
3
 72
8
 73
4
 74
0
 40
0
 40
0
 40
0
 40
0
 40
1
 40
1
 40
1
 40
1
 10
55.649273
 20
6.864272
 30
0.0
 10
55.649273
 20
6.864272
 30
0.0
 10
52.726489
 20
9.606842
 30
0.0
 10
51.355104
 20
10.168087
 30
0.0
  0
SPLINE
  5
120
100
AcDbEntity
  8
Tail
 62
7
100
AcDbSpline
 70
8
 71
3
 72
8
 73
4
 74
0
 40
0
 40
0
 40
0
 40
0
 40
1
 40
1
 40
1
 40
1
 10
51.355104
 20
10.168087
 30
0.0
 10
48.382698
 20
11.384554
 30
0.0
 10
42.617898
 20
12.197407
 30
0.0
 10
42.617898
 20
12.197407
 30
0.0
  0
SPLINE
  5
121
100
AcDbEntity
  8
Tail
 62
7
100
AcDbSpline
 70
8
 71
3
 72
8
 73
4
 74
0
 40
0
 40
0
 40
0
 40
0
 40
1
 40
1
 40
1
 40
1
 10
42.617898
 20
12.197407
 30
0.0
 10
42.617898
 20
12.197407
 30
0.0
 10
35.253022
 20
14.497959
 30
0.0
 10
32.290620
 20
14.748189
 30
0.0
  0
SPLINE
  5
122
100
AcDbEntity
  8
Tail
 62
7
100
AcDbSpline
 70
8
 71
3
 72
8
 73
4
 74
0
 40
0
 40
0
 40
0
 40
0
 40
1
 40
1
 40
1
 40
1
 10
32.290620
 20
14.748189
 30
0.0
 10
25.542814
 20
15.318167
 30
0.0
 10
13.487273
 20
14.658032
 30
0.0
 10
13.487273
 20
14.658032
 30
0.0
  0
SPLINE
  5
123
100
AcDbEntity
  8
Tail
 62
7
100
AcDbSpline
 70
8
 71
3
 72
8
 73
4
 74
0
 40
0
 40
0
 40
0
 40
0
 40
1
 40
1
 40
1
 40
1
 10
13.487273
 20
14.658032
 30
0.0
 10
13.487273
 20
14.658032
 30
0.0
 10
8.782815
 20
15.543825
 30
0.0
 10
6.970612
 20
16.166731
 30
0.0
  0
SPLINE
  5
124
100
AcDbEntity
  8
Tail
 62
7
100
AcDbSpline
 70
8
 71
3
 72
8
 73
4
 74
0
 40
0
 40
0
 40
0
 40
0
 40
1
 40
1
 40
1
 40
1
 10
6.970612
 20
16.166731
 30
0.0
 10
4.295876
 20
17.086113
 30
0.0
 10
0.026458
 20
19.284898
 30
0.0
 10
0.026458
 20
19.284898
 30
0.0
  0
LINE
  5
125
100
AcDbEntity
  8
Tail
 62
7
100
AcDbLine
 10
0.026458
 20
19.284898
 30
0.0
 11
0.026458
 21
19.284898
 31
0.0
  0
ENDSEC
  0
SECTION
  2
OBJECTS
  0
DICTIONARY
  5
C
330
0
100
AcDbDictionary
  3
ACAD_GROUP
350
D
  3
ACAD_MLINESTYLE
350
17
  0
DICTIONARY
  5
D
330
C
100
AcDbDictionary
  0
DICTIONARY
  5
1A
330
C
100
AcDbDictionary
  0
DICTIONARY
  5
17
330
C
100
AcDbDictionary
  3
STANDARD
350
18
  0
DICTIONARY
  5
19
330
C
100
AcDbDictionary
  0
ENDSEC
  0
EOF
