  0
SECTION
  2
HEADER
  9
$ACADVER
  1
AC1014
  9
$HANDSEED
  5
FFFF
  9
$MEASUREMENT
 70
     1
  0
ENDSEC
  0
SECTION
  2
TABLES
  0
TABLE
  2
VPORT
  5
8
330
0
100
AcDbSymbolTable
 70
     4
  0
VPORT
  5
2E
330
8
100
AcDbSymbolTableRecord
100
AcDbViewportTableRecord
  2
*ACTIVE
 70
     0
 10
0.0
 20
0.0
 11
1.0
 21
1.0
 12
210.0
 22
148.5
 13
0.0
 23
0.0
 14
10.0
 24
10.0
 15
10.0
 25
10.0
 16
0.0
 26
0.0
 36
1.0
 17
0.0
 27
0.0
 37
0.0
 40
341.0
 41
1.24
 42
50.0
 43
0.0
 44
0.0
 50
0.0
 51
0.0
 71
     0
 72
   100
 73
     1
 74
     3
 75
     0
 76
     0
 77
     0
 78
     0
  0
ENDTAB
  0
TABLE
  2
LTYPE
  5
5
330
0
100
AcDbSymbolTable
 70
     1
  0
LTYPE
  5
14
330
5
100
AcDbSymbolTableRecord
100
AcDbLinetypeTableRecord
  2
BYBLOCK
 70
     0
  3

 72
    65
 73
     0
 40
0.0
  0
LTYPE
  5
15
330
5
100
AcDbSymbolTableRecord
100
AcDbLinetypeTableRecord
  2
BYLAYER
 70
     0
  3

 72
    65
 73
     0
 40
0.0
  0
LTYPE
  5
16
330
5
100
AcDbSymbolTableRecord
100
AcDbLinetypeTableRecord
  2
CONTINUOUS
 70
     0
  3
Solid line
 72
    65
 73
     0
 40
0.0
  0
ENDTAB
  0
TABLE
  2
LAYER
  5
2
100
AcDbSymbolTable
 70
4
  0
LAYER
  5
50
100
AcDbSymbolTableRecord
100
AcDbLayerTableRecord
  2
0
 70
0
  6
CONTINUOUS
  0
LAYER
  5
51
100
AcDbSymbolTableRecord
100
AcDbLayerTableRecord
  2
Hexagon
 70
0
  6
CONTINUOUS
  0
LAYER
  5
52
100
AcDbSymbolTableRecord
100
AcDbLayerTableRecord
  2
Support
 70
0
  6
CONTINUOUS
  0
LAYER
  5
53
100
AcDbSymbolTableRecord
100
AcDbLayerTableRecord
  2
Top
 70
0
  6
CONTINUOUS
  0
ENDTAB
  0
TABLE
  2
STYLE
  5
3
330
0
100
AcDbSymbolTable
 70
     1
  0
STYLE
  5
11
330
3
100
AcDbSymbolTableRecord
100
AcDbTextStyleTableRecord
  2
STANDARD
 70
     0
 40
0.0
 41
1.0
 50
0.0
 71
     0
 42
2.5
  3
txt
  4

  0
ENDTAB
  0
TABLE
  2
VIEW
  5
6
330
0
100
AcDbSymbolTable
 70
     0
  0
ENDTAB
  0
TABLE
  2
UCS
  5
7
330
0
100
AcDbSymbolTable
 70
     0
  0
ENDTAB
  0
TABLE
  2
APPID
  5
9
330
0
100
AcDbSymbolTable
 70
     2
  0
APPID
  5
12
330
9
100
AcDbSymbolTableRecord
100
AcDbRegAppTableRecord
  2
ACAD
 70
     0
  0
ENDTAB
  0
TABLE
  2
DIMSTYLE
  5
A
330
0
100
AcDbSymbolTable
 70
     1
  0
DIMSTYLE
105
27
330
A
100
AcDbSymbolTableRecord
100
AcDbDimStyleTableRecord
  2
ISO-25
 70
     0
  3

  4

  5

  6

  7

 40
1.0
 41
2.5
 42
0.625
 43
3.75
 44
1.25
 45
0.0
 46
0.0
 47
0.0
 48
0.0
140
2.5
141
2.5
142
0.0
143
0.03937007874016
144
1.0
145
0.0
146
1.0
147
0.625
 71
     0
 72
     0
 73
     0
 74
     0
 75
     0
 76
     0
 77
     1
 78
     8
170
     0
171
     3
172
     1
173
     0
174
     0
175
     0
176
     0
177
     0
178
     0
270
     2
271
     2
272
     2
273
     2
274
     3
340
11
275
     0
280
     0
281
     0
282
     0
283
     0
284
     8
285
     0
286
     0
287
     3
288
     0
  0
ENDTAB
  0
TABLE
  2
BLOCK_RECORD
  5
1
330
0
100
AcDbSymbolTable
 70
     1
  0
BLOCK_RECORD
  5
1F
330
1
100
AcDbSymbolTableRecord
100
AcDbBlockTableRecord
  2
*MODEL_SPACE
  0
BLOCK_RECORD
  5
1B
330
1
100
AcDbSymbolTableRecord
100
AcDbBlockTableRecord
  2
*PAPER_SPACE
  0
ENDTAB
  0
ENDSEC
  0
SECTION
  2
BLOCKS
  0
BLOCK
  5
20
330
1F
100
AcDbEntity
  8
0
100
AcDbBlockBegin
  2
*MODEL_SPACE
 70
     0
 10
0.0
 20
0.0
 30
0.0
  3
*MODEL_SPACE
  1

  0
ENDBLK
  5
21
330
1F
100
AcDbEntity
  8
0
100
AcDbBlockEnd
  0
BLOCK
  5
1C
330
1B
100
AcDbEntity
 67
     1
  8
0
100
AcDbBlockBegin
  2
*PAPER_SPACE
  1

  0
ENDBLK
  5
1D
330
1B
100
AcDbEntity
 67
     1
  8
0
100
AcDbBlockEnd
  0
ENDSEC
  0
SECTION
  2
ENTITIES
  0
LINE
  5
100
100
AcDbEntity
  8
Hexagon
 62
7
100
AcDbLine
 10
30.310913
 20
69.969438
 30
0.0
 11
60.595370
 21
52.484716
 31
0.0
  0
LINE
  5
101
100
AcDbEntity
  8
Hexagon
 62
7
100
AcDbLine
 10
60.595370
 20
52.484716
 30
0.0
 11
60.595370
 21
52.462491
 31
0.0
  0
LINE
  5
102
100
AcDbEntity
  8
Hexagon
 62
7
100
AcDbLine
 10
60.595370
 20
52.462491
 30
0.0
 11
63.595186
 21
52.462491
 31
0.0
  0
LINE
  5
103
100
AcDbEntity
  8
Hexagon
 62
7
100
AcDbLine
 10
63.595186
 20
52.462491
 30
0.0
 11
63.595186
 21
47.462279
 31
0.0
  0
LINE
  5
104
100
AcDbEntity
  8
Hexagon
 62
7
100
AcDbLine
 10
63.595186
 20
47.462279
 30
0.0
 11
60.648080
 21
47.462279
 31
0.0
  0
LINE
  5
105
100
AcDbEntity
  8
Hexagon
 62
7
100
AcDbLine
 10
60.648080
 20
47.462279
 30
0.0
 11
60.648080
 21
42.515293
 31
0.0
  0
LINE
  5
106
100
AcDbEntity
  8
Hexagon
 62
7
100
AcDbLine
 10
60.648080
 20
42.515293
 30
0.0
 11
63.595186
 21
42.515293
 31
0.0
  0
LINE
  5
107
100
AcDbEntity
  8
Hexagon
 62
7
100
AcDbLine
 10
63.595186
 20
42.515293
 30
0.0
 11
63.595186
 21
37.462373
 31
0.0
  0
LINE
  5
108
100
AcDbEntity
  8
Hexagon
 62
7
100
AcDbLine
 10
63.595186
 20
37.462373
 30
0.0
 11
60.648080
 21
37.462373
 31
0.0
  0
LINE
  5
109
100
AcDbEntity
  8
Hexagon
 62
7
100
AcDbLine
 10
60.648080
 20
37.462373
 30
0.0
 11
60.648080
 21
32.515387
 31
0.0
  0
LINE
  5
10a
100
AcDbEntity
  8
Hexagon
 62
7
100
AcDbLine
 10
60.648080
 20
32.515387
 30
0.0
 11
63.595186
 21
32.515387
 31
0.0
  0
LINE
  5
10b
100
AcDbEntity
  8
Hexagon
 62
7
100
AcDbLine
 10
63.595186
 20
32.515387
 30
0.0
 11
63.595186
 21
27.462467
 31
0.0
  0
LINE
  5
10c
100
AcDbEntity
  8
Hexagon
 62
7
100
AcDbLine
 10
63.595186
 20
27.462467
 30
0.0
 11
60.648080
 21
27.462467
 31
0.0
  0
LINE
  5
10d
100
AcDbEntity
  8
Hexagon
 62
7
100
AcDbLine
 10
60.648080
 20
27.462467
 30
0.0
 11
60.648080
 21
22.515481
 31
0.0
  0
LINE
  5
10e
100
AcDbEntity
  8
Hexagon
 62
7
100
AcDbLine
 10
60.648080
 20
22.515481
 30
0.0
 11
63.595186
 21
22.515481
 31
0.0
  0
LINE
  5
10f
100
AcDbEntity
  8
Hexagon
 62
7
100
AcDbLine
 10
63.595186
 20
22.515481
 30
0.0
 11
63.595186
 21
17.515269
 31
0.0
  0
LINE
  5
110
100
AcDbEntity
  8
Hexagon
 62
7
100
AcDbLine
 10
63.595186
 20
17.515269
 30
0.0
 11
60.595370
 21
17.515269
 31
0.0
  0
LINE
  5
111
100
AcDbEntity
  8
Hexagon
 62
7
100
AcDbLine
 10
60.595370
 20
17.515269
 30
0.0
 11
30.310913
 21
0.030554
 31
0.0
  0
LINE
  5
112
100
AcDbEntity
  8
Hexagon
 62
7
100
AcDbLine
 10
30.310913
 20
0.030554
 30
0.0
 11
0.026458
 21
17.515274
 31
0.0
  0
LINE
  5
113
100
AcDbEntity
  8
Hexagon
 62
7
100
AcDbLine
 10
0.026458
 20
17.515274
 30
0.0
 11
0.026458
 21
52.484716
 31
0.0
  0
LINE
  5
114
100
AcDbEntity
  8
Hexagon
 62
7
100
AcDbLine
 10
0.026458
 20
52.484716
 30
0.0
 11
30.310913
 21
69.969438
 31
0.0
  0
LINE
  5
115
100
AcDbEntity
  8
Hexagon
 62
7
100
AcDbLine
 10
50.284377
 20
44.973460
 30
0.0
 11
10.337292
 21
44.973460
 31
0.0
  0
LINE
  5
116
100
AcDbEntity
  8
Hexagon
 62
7
100
AcDbLine
 10
10.337292
 20
44.973460
 30
0.0
 11
10.337292
 21
25.026377
 31
0.0
  0
LINE
  5
117
100
AcDbEntity
  8
Hexagon
 62
7
100
AcDbLine
 10
10.337292
 20
25.026377
 30
0.0
 11
50.284377
 21
25.026377
 31
0.0
  0
LINE
  5
118
100
AcDbEntity
  8
Hexagon
 62
7
100
AcDbLine
 10
50.284377
 20
25.026377
 30
0.0
 11
50.284377
 21
44.973460
 31
0.0
  0
SPLINE
  5
119
100
AcDbEntity
  8
Hexagon
 62
7
100
AcDbSpline
 70
8
 71
3
 72
8
 73
4
 74
0
 40
0
 40
0
 40
0
 40
0
 40
1
 40
1
 40
1
 40
1
 10
32.284378
 20
14.999999
 30
0.0
 10
32.284378
 20
14.294921
 30
0.0
 10
31.908223
 20
13.643401
 30
0.0
 10
31.297607
 20
13.290862
 30
0.0
  0
SPLINE
  5
11a
100
AcDbEntity
  8
Hexagon
 62
7
100
AcDbSpline
 70
8
 71
3
 72
8
 73
4
 74
0
 40
0
 40
0
 40
0
 40
0
 40
1
 40
1
 40
1
 40
1
 10
31.297607
 20
13.290862
 30
0.0
 10
30.686991
 20
12.938323
 30
0.0
 10
29.934681
 20
12.938323
 30
0.0
 10
29.324065
 20
13.290862
 30
0.0
  0
SPLINE
  5
11b
100
AcDbEntity
  8
Hexagon
 62
7
100
AcDbSpline
 70
8
 71
3
 72
8
 73
4
 74
0
 40
0
 40
0
 40
0
 40
0
 40
1
 40
1
 40
1
 40
1
 10
29.324065
 20
13.290862
 30
0.0
 10
28.713449
 20
13.643401
 30
0.0
 10
28.337294
 20
14.294921
 30
0.0
 10
28.337294
 20
14.999999
 30
0.0
  0
SPLINE
  5
11c
100
AcDbEntity
  8
Hexagon
 62
7
100
AcDbSpline
 70
8
 71
3
 72
8
 73
4
 74
0
 40
0
 40
0
 40
0
 40
0
 40
1
 40
1
 40
1
 40
1
 10
28.337294
 20
14.999999
 30
0.0
 10
28.337294
 20
15.705078
 30
0.0
 10
28.713449
 20
16.356597
 30
0.0
 10
29.324065
 20
16.709136
 30
0.0
  0
SPLINE
  5
11d
100
AcDbEntity
  8
Hexagon
 62
7
100
AcDbSpline
 70
8
 71
3
 72
8
 73
4
 74
0
 40
0
 40
0
 40
0
 40
0
 40
1
 40
1
 40
1
 40
1
 10
29.324065
 20
16.709136
 30
0.0
 10
29.934681
 20
17.061676
 30
0.0
 10
30.686991
 20
17.061676
 30
0.0
 10
31.297607
 20
16.709136
 30
0.0
  0
SPLINE
  5
11e
100
AcDbEntity
  8
Hexagon
 62
7
100
AcDbSpline
 70
8
 71
3
 72
8
 73
4
 74
0
 40
0
 40
0
 40
0
 40
0
 40
1
 40
1
 40
1
 40
1
 10
31.297607
 20
16.709136
 30
0.0
 10
31.908223
 20
16.356597
 30
0.0
 10
32.284378
 20
15.705078
 30
0.0
 10
32.284378
 20
14.999999
 30
0.0
  0
LINE
  5
11f
100
AcDbEntity
  8
Hexagon
 62
7
100
AcDbLine
 10
32.284378
 20
14.999999
 30
0.0
 11
32.284378
 21
14.999999
 31
0.0
  0
SPLINE
  5
120
100
AcDbEntity
  8
Hexagon
 62
7
100
AcDbSpline
 70
8
 71
3
 72
8
 73
4
 74
0
 40
0
 40
0
 40
0
 40
0
 40
1
 40
1
 40
1
 40
1
 10
32.284378
 20
54.999996
 30
0.0
 10
32.284378
 20
54.294917
 30
0.0
 10
31.908223
 20
53.643398
 30
0.0
 10
31.297607
 20
53.290859
 30
0.0
  0
SPLINE
  5
121
100
AcDbEntity
  8
Hexagon
 62
7
100
AcDbSpline
 70
8
 71
3
 72
8
 73
4
 74
0
 40
0
 40
0
 40
0
 40
0
 40
1
 40
1
 40
1
 40
1
 10
31.297607
 20
53.290859
 30
0.0
 10
30.686991
 20
52.938319
 30
0.0
 10
29.934681
 20
52.938319
 30
0.0
 10
29.324065
 20
53.290859
 30
0.0
  0
SPLINE
  5
122
100
AcDbEntity
  8
Hexagon
 62
7
100
AcDbSpline
 70
8
 71
3
 72
8
 73
4
 74
0
 40
0
 40
0
 40
0
 40
0
 40
1
 40
1
 40
1
 40
1
 10
29.324065
 20
53.290859
 30
0.0
 10
28.713449
 20
53.643398
 30
0.0
 10
28.337294
 20
54.294917
 30
0.0
 10
28.337294
 20
54.999996
 30
0.0
  0
SPLINE
  5
123
100
AcDbEntity
  8
Hexagon
 62
7
100
AcDbSpline
 70
8
 71
3
 72
8
 73
4
 74
0
 40
0
 40
0
 40
0
 40
0
 40
1
 40
1
 40
1
 40
1
 10
28.337294
 20
54.999996
 30
0.0
 10
28.337294
 20
55.705074
 30
0.0
 10
28.713449
 20
56.356594
 30
0.0
 10
29.324065
 20
56.709133
 30
0.0
  0
SPLINE
  5
124
100
AcDbEntity
  8
Hexagon
 62
7
100
AcDbSpline
 70
8
 71
3
 72
8
 73
4
 74
0
 40
0
 40
0
 40
0
 40
0
 40
1
 40
1
 40
1
 40
1
 10
29.324065
 20
56.709133
 30
0.0
 10
29.934681
 20
57.061672
 30
0.0
 10
30.686991
 20
57.061672
 30
0.0
 10
31.297607
 20
56.709133
 30
0.0
  0
SPLINE
  5
125
100
AcDbEntity
  8
Hexagon
 62
7
100
AcDbSpline
 70
8
 71
3
 72
8
 73
4
 74
0
 40
0
 40
0
 40
0
 40
0
 40
1
 40
1
 40
1
 40
1
 10
31.297607
 20
56.709133
 30
0.0
 10
31.908223
 20
56.356594
 30
0.0
 10
32.284378
 20
55.705074
 30
0.0
 10
32.284378
 20
54.999996
 30
0.0
  0
LINE
  5
126
100
AcDbEntity
  8
Hexagon
 62
7
100
AcDbLine
 10
32.284378
 20
54.999996
 30
0.0
 11
32.284378
 21
54.999996
 31
0.0
  0
SPLINE
  5
127
100
AcDbEntity
  8
Hexagon
 62
7
100
AcDbSpline
 70
8
 71
3
 72
8
 73
4
 74
0
 40
0
 40
0
 40
0
 40
0
 40
1
 40
1
 40
1
 40
1
 10
7.697037
 20
34.999991
 30
0.0
 10
7.697037
 20
34.294912
 30
0.0
 10
7.320882
 20
33.643393
 30
0.0
 10
6.710267
 20
33.290854
 30
0.0
  0
SPLINE
  5
128
100
AcDbEntity
  8
Hexagon
 62
7
100
AcDbSpline
 70
8
 71
3
 72
8
 73
4
 74
0
 40
0
 40
0
 40
0
 40
0
 40
1
 40
1
 40
1
 40
1
 10
6.710267
 20
33.290854
 30
0.0
 10
6.099651
 20
32.938314
 30
0.0
 10
5.347341
 20
32.938314
 30
0.0
 10
4.736725
 20
33.290854
 30
0.0
  0
SPLINE
  5
129
100
AcDbEntity
  8
Hexagon
 62
7
100
AcDbSpline
 70
8
 71
3
 72
8
 73
4
 74
0
 40
0
 40
0
 40
0
 40
0
 40
1
 40
1
 40
1
 40
1
 10
4.736725
 20
33.290854
 30
0.0
 10
4.126109
 20
33.643393
 30
0.0
 10
3.749954
 20
34.294912
 30
0.0
 10
3.749954
 20
34.999991
 30
0.0
  0
SPLINE
  5
12a
100
AcDbEntity
  8
Hexagon
 62
7
100
AcDbSpline
 70
8
 71
3
 72
8
 73
4
 74
0
 40
0
 40
0
 40
0
 40
0
 40
1
 40
1
 40
1
 40
1
 10
3.749954
 20
34.999991
 30
0.0
 10
3.749954
 20
35.705069
 30
0.0
 10
4.126109
 20
36.356589
 30
0.0
 10
4.736725
 20
36.709128
 30
0.0
  0
SPLINE
  5
12b
100
AcDbEntity
  8
Hexagon
 62
7
100
AcDbSpline
 70
8
 71
3
 72
8
 73
4
 74
0
 40
0
 40
0
 40
0
 40
0
 40
1
 40
1
 40
1
 40
1
 10
4.736725
 20
36.709128
 30
0.0
 10
5.347341
 20
37.061667
 30
0.0
 10
6.099651
 20
37.061667
 30
0.0
 10
6.710267
 20
36.709128
 30
0.0
  0
SPLINE
  5
12c
100
AcDbEntity
  8
Hexagon
 62
7
100
AcDbSpline
 70
8
 71
3
 72
8
 73
4
 74
0
 40
0
 40
0
 40
0
 40
0
 40
1
 40
1
 40
1
 40
1
 10
6.710267
 20
36.709128
 30
0.0
 10
7.320882
 20
36.356589
 30
0.0
 10
7.697037
 20
35.705069
 30
0.0
 10
7.697037
 20
34.999991
 30
0.0
  0
LINE
  5
12d
100
AcDbEntity
  8
Hexagon
 62
7
100
AcDbLine
 10
7.697037
 20
34.999991
 30
0.0
 11
7.697037
 21
34.999991
 31
0.0
  0
SPLINE
  5
12e
100
AcDbEntity
  8
Hexagon
 62
7
100
AcDbSpline
 70
8
 71
3
 72
8
 73
4
 74
0
 40
0
 40
0
 40
0
 40
0
 40
1
 40
1
 40
1
 40
1
 10
56.755374
 20
34.999991
 30
0.0
 10
56.755374
 20
34.294912
 30
0.0
 10
56.379219
 20
33.643393
 30
0.0
 10
55.768603
 20
33.290854
 30
0.0
  0
SPLINE
  5
12f
100
AcDbEntity
  8
Hexagon
 62
7
100
AcDbSpline
 70
8
 71
3
 72
8
 73
4
 74
0
 40
0
 40
0
 40
0
 40
0
 40
1
 40
1
 40
1
 40
1
 10
55.768603
 20
33.290854
 30
0.0
 10
55.157987
 20
32.938314
 30
0.0
 10
54.405678
 20
32.938314
 30
0.0
 10
53.795062
 20
33.290854
 30
0.0
  0
SPLINE
  5
130
100
AcDbEntity
  8
Hexagon
 62
7
100
AcDbSpline
 70
8
 71
3
 72
8
 73
4
 74
0
 40
0
 40
0
 40
0
 40
0
 40
1
 40
1
 40
1
 40
1
 10
53.795062
 20
33.290854
 30
0.0
 10
53.184446
 20
33.643393
 30
0.0
 10
52.808291
 20
34.294912
 30
0.0
 10
52.808291
 20
34.999991
 30
0.0
  0
SPLINE
  5
131
100
AcDbEntity
  8
Hexagon
 62
7
100
AcDbSpline
 70
8
 71
3
 72
8
 73
4
 74
0
 40
0
 40
0
 40
0
 40
0
 40
1
 40
1
 40
1
 40
1
 10
52.808291
 20
34.999991
 30
0.0
 10
52.808291
 20
35.705069
 30
0.0
 10
53.184446
 20
36.356589
 30
0.0
 10
53.795062
 20
36.709128
 30
0.0
  0
SPLINE
  5
132
100
AcDbEntity
  8
Hexagon
 62
7
100
AcDbSpline
 70
8
 71
3
 72
8
 73
4
 74
0
 40
0
 40
0
 40
0
 40
0
 40
1
 40
1
 40
1
 40
1
 10
53.795062
 20
36.709128
 30
0.0
 10
54.405678
 20
37.061667
 30
0.0
 10
55.157987
 20
37.061667
 30
0.0
 10
55.768603
 20
36.709128
 30
0.0
  0
SPLINE
  5
133
100
AcDbEntity
  8
Hexagon
 62
7
100
AcDbSpline
 70
8
 71
3
 72
8
 73
4
 74
0
 40
0
 40
0
 40
0
 40
0
 40
1
 40
1
 40
1
 40
1
 10
55.768603
 20
36.709128
 30
0.0
 10
56.379219
 20
36.356589
 30
0.0
 10
56.755374
 20
35.705069
 30
0.0
 10
56.755374
 20
34.999991
 30
0.0
  0
LINE
  5
134
100
AcDbEntity
  8
Hexagon
 62
7
100
AcDbLine
 10
56.755374
 20
34.999991
 30
0.0
 11
56.755374
 21
34.999991
 31
0.0
  0
LINE
  5
135
100
AcDbEntity
  8
Support
 62
7
100
AcDbLine
 10
11.894209
 20
117.377991
 30
0.0
 11
16.841195
 21
117.377991
 31
0.0
  0
LINE
  5
136
100
AcDbEntity
  8
Support
 62
7
100
AcDbLine
 10
16.841195
 20
117.377991
 30
0.0
 11
16.841195
 21
114.430884
 31
0.0
  0
LINE
  5
137
100
AcDbEntity
  8
Support
 62
7
100
AcDbLine
 10
16.841195
 20
114.430884
 30
0.0
 11
21.894115
 21
114.430884
 31
0.0
  0
LINE
  5
138
100
AcDbEntity
  8
Support
 62
7
100
AcDbLine
 10
21.894115
 20
114.430884
 30
0.0
 11
21.894115
 21
117.377991
 31
0.0
  0
LINE
  5
139
100
AcDbEntity
  8
Support
 62
7
100
AcDbLine
 10
21.894115
 20
117.377991
 30
0.0
 11
26.841101
 21
117.377991
 31
0.0
  0
LINE
  5
13a
100
AcDbEntity
  8
Support
 62
7
100
AcDbLine
 10
26.841101
 20
117.377991
 30
0.0
 11
26.841101
 21
114.430884
 31
0.0
  0
LINE
  5
13b
100
AcDbEntity
  8
Support
 62
7
100
AcDbLine
 10
26.841101
 20
114.430884
 30
0.0
 11
31.894023
 21
114.430884
 31
0.0
  0
LINE
  5
13c
100
AcDbEntity
  8
Support
 62
7
100
AcDbLine
 10
31.894023
 20
114.430884
 30
0.0
 11
31.894023
 21
117.377991
 31
0.0
  0
LINE
  5
13d
100
AcDbEntity
  8
Support
 62
7
100
AcDbLine
 10
31.894023
 20
117.377991
 30
0.0
 11
36.841525
 21
117.377991
 31
0.0
  0
LINE
  5
13e
100
AcDbEntity
  8
Support
 62
7
100
AcDbLine
 10
36.841525
 20
117.377991
 30
0.0
 11
36.841525
 21
114.430884
 31
0.0
  0
LINE
  5
13f
100
AcDbEntity
  8
Support
 62
7
100
AcDbLine
 10
36.841525
 20
114.430884
 30
0.0
 11
41.894445
 21
114.430884
 31
0.0
  0
LINE
  5
140
100
AcDbEntity
  8
Support
 62
7
100
AcDbLine
 10
41.894445
 20
114.430884
 30
0.0
 11
41.894445
 21
117.377991
 31
0.0
  0
LINE
  5
141
100
AcDbEntity
  8
Support
 62
7
100
AcDbLine
 10
41.894445
 20
117.377991
 30
0.0
 11
46.841431
 21
117.377991
 31
0.0
  0
LINE
  5
142
100
AcDbEntity
  8
Support
 62
7
100
AcDbLine
 10
46.841431
 20
117.377991
 30
0.0
 11
46.841431
 21
194.377942
 31
0.0
  0
LINE
  5
143
100
AcDbEntity
  8
Support
 62
7
100
AcDbLine
 10
46.841431
 20
194.377942
 30
0.0
 11
41.841219
 21
194.377942
 31
0.0
  0
LINE
  5
144
100
AcDbEntity
  8
Support
 62
7
100
AcDbLine
 10
41.841219
 20
194.377942
 30
0.0
 11
41.841219
 21
191.430836
 31
0.0
  0
LINE
  5
145
100
AcDbEntity
  8
Support
 62
7
100
AcDbLine
 10
41.841219
 20
191.430836
 30
0.0
 11
36.894233
 21
191.430836
 31
0.0
  0
LINE
  5
146
100
AcDbEntity
  8
Support
 62
7
100
AcDbLine
 10
36.894233
 20
191.430836
 30
0.0
 11
36.894233
 21
194.377942
 31
0.0
  0
LINE
  5
147
100
AcDbEntity
  8
Support
 62
7
100
AcDbLine
 10
36.894233
 20
194.377942
 30
0.0
 11
31.841313
 21
194.377942
 31
0.0
  0
LINE
  5
148
100
AcDbEntity
  8
Support
 62
7
100
AcDbLine
 10
31.841313
 20
194.377942
 30
0.0
 11
31.841313
 21
191.430836
 31
0.0
  0
LINE
  5
149
100
AcDbEntity
  8
Support
 62
7
100
AcDbLine
 10
31.841313
 20
191.430836
 30
0.0
 11
26.894327
 21
191.430836
 31
0.0
  0
LINE
  5
14a
100
AcDbEntity
  8
Support
 62
7
100
AcDbLine
 10
26.894327
 20
191.430836
 30
0.0
 11
26.894327
 21
194.377942
 31
0.0
  0
LINE
  5
14b
100
AcDbEntity
  8
Support
 62
7
100
AcDbLine
 10
26.894327
 20
194.377942
 30
0.0
 11
21.841407
 21
194.377942
 31
0.0
  0
LINE
  5
14c
100
AcDbEntity
  8
Support
 62
7
100
AcDbLine
 10
21.841407
 20
194.377942
 30
0.0
 11
21.841407
 21
191.430836
 31
0.0
  0
LINE
  5
14d
100
AcDbEntity
  8
Support
 62
7
100
AcDbLine
 10
21.841407
 20
191.430836
 30
0.0
 11
16.894421
 21
191.430836
 31
0.0
  0
LINE
  5
14e
100
AcDbEntity
  8
Support
 62
7
100
AcDbLine
 10
16.894421
 20
191.430836
 30
0.0
 11
16.894421
 21
194.377942
 31
0.0
  0
LINE
  5
14f
100
AcDbEntity
  8
Support
 62
7
100
AcDbLine
 10
16.894421
 20
194.377942
 30
0.0
 11
11.894209
 21
194.377942
 31
0.0
  0
LINE
  5
150
100
AcDbEntity
  8
Support
 62
7
100
AcDbLine
 10
11.894209
 20
194.377942
 30
0.0
 11
11.894209
 21
117.377991
 31
0.0
  0
LINE
  5
151
100
AcDbEntity
  8
Top
 62
7
100
AcDbLine
 10
6.421411
 20
110.433062
 30
0.0
 11
6.421411
 21
105.486076
 31
0.0
  0
LINE
  5
152
100
AcDbEntity
  8
Top
 62
7
100
AcDbLine
 10
6.421411
 20
105.486076
 30
0.0
 11
3.474821
 21
105.486076
 31
0.0
  0
LINE
  5
153
100
AcDbEntity
  8
Top
 62
7
100
AcDbLine
 10
3.474821
 20
105.486076
 30
0.0
 11
3.474821
 21
100.433156
 31
0.0
  0
LINE
  5
154
100
AcDbEntity
  8
Top
 62
7
100
AcDbLine
 10
3.474821
 20
100.433156
 30
0.0
 11
6.421927
 21
100.433156
 31
0.0
  0
LINE
  5
155
100
AcDbEntity
  8
Top
 62
7
100
AcDbLine
 10
6.421927
 20
100.433156
 30
0.0
 11
6.421927
 21
95.486170
 31
0.0
  0
LINE
  5
156
100
AcDbEntity
  8
Top
 62
7
100
AcDbLine
 10
6.421927
 20
95.486170
 30
0.0
 11
3.474821
 21
95.486170
 31
0.0
  0
LINE
  5
157
100
AcDbEntity
  8
Top
 62
7
100
AcDbLine
 10
3.474821
 20
95.486170
 30
0.0
 11
3.474821
 21
90.433247
 31
0.0
  0
LINE
  5
158
100
AcDbEntity
  8
Top
 62
7
100
AcDbLine
 10
3.474821
 20
90.433247
 30
0.0
 11
6.421927
 21
90.433247
 31
0.0
  0
LINE
  5
159
100
AcDbEntity
  8
Top
 62
7
100
AcDbLine
 10
6.421927
 20
90.433247
 30
0.0
 11
6.421927
 21
85.485745
 31
0.0
  0
LINE
  5
15a
100
AcDbEntity
  8
Top
 62
7
100
AcDbLine
 10
6.421927
 20
85.485745
 30
0.0
 11
3.474821
 21
85.485745
 31
0.0
  0
LINE
  5
15b
100
AcDbEntity
  8
Top
 62
7
100
AcDbLine
 10
3.474821
 20
85.485745
 30
0.0
 11
3.474821
 21
80.432825
 31
0.0
  0
LINE
  5
15c
100
AcDbEntity
  8
Top
 62
7
100
AcDbLine
 10
3.474821
 20
80.432825
 30
0.0
 11
6.421411
 21
80.432825
 31
0.0
  0
LINE
  5
15d
100
AcDbEntity
  8
Top
 62
7
100
AcDbLine
 10
6.421411
 20
80.432825
 30
0.0
 11
6.421411
 21
75.485839
 31
0.0
  0
LINE
  5
15e
100
AcDbEntity
  8
Top
 62
7
100
AcDbLine
 10
6.421411
 20
75.485839
 30
0.0
 11
6.474637
 21
75.485839
 31
0.0
  0
LINE
  5
15f
100
AcDbEntity
  8
Top
 62
7
100
AcDbLine
 10
6.474637
 20
75.485839
 30
0.0
 11
10.014474
 21
75.485839
 31
0.0
  0
LINE
  5
160
100
AcDbEntity
  8
Top
 62
7
100
AcDbLine
 10
10.014474
 20
75.485839
 30
0.0
 11
56.421974
 21
75.485839
 31
0.0
  0
LINE
  5
161
100
AcDbEntity
  8
Top
 62
7
100
AcDbLine
 10
56.421974
 20
75.485839
 30
0.0
 11
56.421974
 21
89.486020
 31
0.0
  0
LINE
  5
162
100
AcDbEntity
  8
Top
 62
7
100
AcDbLine
 10
56.421974
 20
89.486020
 30
0.0
 11
16.474543
 21
89.486020
 31
0.0
  0
LINE
  5
163
100
AcDbEntity
  8
Top
 62
7
100
AcDbLine
 10
16.474543
 20
89.486020
 30
0.0
 11
16.474543
 21
96.432881
 31
0.0
  0
LINE
  5
164
100
AcDbEntity
  8
Top
 62
7
100
AcDbLine
 10
16.474543
 20
96.432881
 30
0.0
 11
56.421974
 21
96.432881
 31
0.0
  0
LINE
  5
165
100
AcDbEntity
  8
Top
 62
7
100
AcDbLine
 10
56.421974
 20
96.432881
 30
0.0
 11
56.421974
 21
110.433062
 31
0.0
  0
LINE
  5
166
100
AcDbEntity
  8
Top
 62
7
100
AcDbLine
 10
56.421974
 20
110.433062
 30
0.0
 11
10.014474
 21
110.433062
 31
0.0
  0
LINE
  5
167
100
AcDbEntity
  8
Top
 62
7
100
AcDbLine
 10
10.014474
 20
110.433062
 30
0.0
 11
6.474637
 21
110.433062
 31
0.0
  0
LINE
  5
168
100
AcDbEntity
  8
Top
 62
7
100
AcDbLine
 10
6.474637
 20
110.433062
 30
0.0
 11
6.421411
 21
110.433062
 31
0.0
  0
ENDSEC
  0
SECTION
  2
OBJECTS
  0
DICTIONARY
  5
C
330
0
100
AcDbDictionary
  3
ACAD_GROUP
350
D
  3
ACAD_MLINESTYLE
350
17
  0
DICTIONARY
  5
D
330
C
100
AcDbDictionary
  0
DICTIONARY
  5
1A
330
C
100
AcDbDictionary
  0
DICTIONARY
  5
17
330
C
100
AcDbDictionary
  3
STANDARD
350
18
  0
DICTIONARY
  5
19
330
C
100
AcDbDictionary
  0
ENDSEC
  0
EOF
