  0
SECTION
  2
HEADER
  9
$ACADVER
  1
AC1014
  9
$HANDSEED
  5
FFFF
  9
$MEASUREMENT
 70
     1
  0
ENDSEC
  0
SECTION
  2
TABLES
  0
TABLE
  2
VPORT
  5
8
330
0
100
AcDbSymbolTable
 70
     4
  0
VPORT
  5
2E
330
8
100
AcDbSymbolTableRecord
100
AcDbViewportTableRecord
  2
*ACTIVE
 70
     0
 10
0.0
 20
0.0
 11
1.0
 21
1.0
 12
210.0
 22
148.5
 13
0.0
 23
0.0
 14
10.0
 24
10.0
 15
10.0
 25
10.0
 16
0.0
 26
0.0
 36
1.0
 17
0.0
 27
0.0
 37
0.0
 40
341.0
 41
1.24
 42
50.0
 43
0.0
 44
0.0
 50
0.0
 51
0.0
 71
     0
 72
   100
 73
     1
 74
     3
 75
     0
 76
     0
 77
     0
 78
     0
  0
ENDTAB
  0
TABLE
  2
LTYPE
  5
5
330
0
100
AcDbSymbolTable
 70
     1
  0
LTYPE
  5
14
330
5
100
AcDbSymbolTableRecord
100
AcDbLinetypeTableRecord
  2
BYBLOCK
 70
     0
  3

 72
    65
 73
     0
 40
0.0
  0
LTYPE
  5
15
330
5
100
AcDbSymbolTableRecord
100
AcDbLinetypeTableRecord
  2
BYLAYER
 70
     0
  3

 72
    65
 73
     0
 40
0.0
  0
LTYPE
  5
16
330
5
100
AcDbSymbolTableRecord
100
AcDbLinetypeTableRecord
  2
CONTINUOUS
 70
     0
  3
Solid line
 72
    65
 73
     0
 40
0.0
  0
ENDTAB
  0
TABLE
  2
LAYER
  5
2
100
AcDbSymbolTable
 70
5
  0
LAYER
  5
50
100
AcDbSymbolTableRecord
100
AcDbLayerTableRecord
  2
0
 70
0
  6
CONTINUOUS
  0
LAYER
  5
51
100
AcDbSymbolTableRecord
100
AcDbLayerTableRecord
  2
Layer_1
 70
0
  6
CONTINUOUS
  0
LAYER
  5
52
100
AcDbSymbolTableRecord
100
AcDbLayerTableRecord
  2
PipeMark
 70
0
  6
CONTINUOUS
  0
LAYER
  5
53
100
AcDbSymbolTableRecord
100
AcDbLayerTableRecord
  2
PipeCut
 70
0
  6
CONTINUOUS
  0
LAYER
  5
54
100
AcDbSymbolTableRecord
100
AcDbLayerTableRecord
  2
Hexagon
 70
0
  6
CONTINUOUS
  0
ENDTAB
  0
TABLE
  2
STYLE
  5
3
330
0
100
AcDbSymbolTable
 70
     1
  0
STYLE
  5
11
330
3
100
AcDbSymbolTableRecord
100
AcDbTextStyleTableRecord
  2
STANDARD
 70
     0
 40
0.0
 41
1.0
 50
0.0
 71
     0
 42
2.5
  3
txt
  4

  0
ENDTAB
  0
TABLE
  2
VIEW
  5
6
330
0
100
AcDbSymbolTable
 70
     0
  0
ENDTAB
  0
TABLE
  2
UCS
  5
7
330
0
100
AcDbSymbolTable
 70
     0
  0
ENDTAB
  0
TABLE
  2
APPID
  5
9
330
0
100
AcDbSymbolTable
 70
     2
  0
APPID
  5
12
330
9
100
AcDbSymbolTableRecord
100
AcDbRegAppTableRecord
  2
ACAD
 70
     0
  0
ENDTAB
  0
TABLE
  2
DIMSTYLE
  5
A
330
0
100
AcDbSymbolTable
 70
     1
  0
DIMSTYLE
105
27
330
A
100
AcDbSymbolTableRecord
100
AcDbDimStyleTableRecord
  2
ISO-25
 70
     0
  3

  4

  5

  6

  7

 40
1.0
 41
2.5
 42
0.625
 43
3.75
 44
1.25
 45
0.0
 46
0.0
 47
0.0
 48
0.0
140
2.5
141
2.5
142
0.0
143
0.03937007874016
144
1.0
145
0.0
146
1.0
147
0.625
 71
     0
 72
     0
 73
     0
 74
     0
 75
     0
 76
     0
 77
     1
 78
     8
170
     0
171
     3
172
     1
173
     0
174
     0
175
     0
176
     0
177
     0
178
     0
270
     2
271
     2
272
     2
273
     2
274
     3
340
11
275
     0
280
     0
281
     0
282
     0
283
     0
284
     8
285
     0
286
     0
287
     3
288
     0
  0
ENDTAB
  0
TABLE
  2
BLOCK_RECORD
  5
1
330
0
100
AcDbSymbolTable
 70
     1
  0
BLOCK_RECORD
  5
1F
330
1
100
AcDbSymbolTableRecord
100
AcDbBlockTableRecord
  2
*MODEL_SPACE
  0
BLOCK_RECORD
  5
1B
330
1
100
AcDbSymbolTableRecord
100
AcDbBlockTableRecord
  2
*PAPER_SPACE
  0
ENDTAB
  0
ENDSEC
  0
SECTION
  2
BLOCKS
  0
BLOCK
  5
20
330
1F
100
AcDbEntity
  8
0
100
AcDbBlockBegin
  2
*MODEL_SPACE
 70
     0
 10
0.0
 20
0.0
 30
0.0
  3
*MODEL_SPACE
  1

  0
ENDBLK
  5
21
330
1F
100
AcDbEntity
  8
0
100
AcDbBlockEnd
  0
BLOCK
  5
1C
330
1B
100
AcDbEntity
 67
     1
  8
0
100
AcDbBlockBegin
  2
*PAPER_SPACE
  1

  0
ENDBLK
  5
1D
330
1B
100
AcDbEntity
 67
     1
  8
0
100
AcDbBlockEnd
  0
ENDSEC
  0
SECTION
  2
ENTITIES
  0
LINE
  5
100
100
AcDbEntity
  8
PipeCut
 62
7
100
AcDbLine
 10
53.802236
 20
16.446257
 30
0.0
 11
47.511566
 21
16.446257
 31
0.0
  0
LINE
  5
101
100
AcDbEntity
  8
PipeCut
 62
7
100
AcDbLine
 10
47.511566
 20
16.446257
 30
0.0
 11
47.511566
 21
18.962657
 31
0.0
  0
LINE
  5
102
100
AcDbEntity
  8
PipeCut
 62
7
100
AcDbLine
 10
47.511566
 20
18.962657
 30
0.0
 11
53.802236
 21
18.962657
 31
0.0
  0
LINE
  5
103
100
AcDbEntity
  8
PipeCut
 62
7
100
AcDbLine
 10
53.802236
 20
18.962657
 30
0.0
 11
53.802236
 21
16.446257
 31
0.0
  0
LINE
  5
104
100
AcDbEntity
  8
PipeCut
 62
7
100
AcDbLine
 10
34.930346
 20
46.004707
 30
0.0
 11
34.982291
 21
0.088190
 31
0.0
  0
LINE
  5
105
100
AcDbEntity
  8
PipeCut
 62
7
100
AcDbLine
 10
34.982291
 20
0.088190
 30
0.0
 11
60.155794
 21
0.088190
 31
0.0
  0
LINE
  5
106
100
AcDbEntity
  8
PipeCut
 62
7
100
AcDbLine
 10
60.155794
 20
0.088190
 30
0.0
 11
60.095301
 21
6.381484
 31
0.0
  0
LINE
  5
107
100
AcDbEntity
  8
PipeCut
 62
7
100
AcDbLine
 10
60.095301
 20
6.381484
 30
0.0
 11
65.019930
 21
9.884187
 31
0.0
  0
LINE
  5
108
100
AcDbEntity
  8
PipeCut
 62
7
100
AcDbLine
 10
65.019930
 20
9.884187
 30
0.0
 11
65.019930
 21
42.383647
 31
0.0
  0
LINE
  5
109
100
AcDbEntity
  8
PipeCut
 62
7
100
AcDbLine
 10
65.019930
 20
42.383647
 30
0.0
 11
60.092671
 21
46.004707
 31
0.0
  0
LINE
  5
10a
100
AcDbEntity
  8
PipeCut
 62
7
100
AcDbLine
 10
60.092671
 20
46.004707
 30
0.0
 11
34.930346
 21
46.004707
 31
0.0
  0
LINE
  5
10b
100
AcDbEntity
  8
PipeCut
 62
7
100
AcDbLine
 10
29.209766
 20
27.648237
 30
0.0
 11
30.855583
 21
33.681803
 31
0.0
  0
LINE
  5
10c
100
AcDbEntity
  8
PipeCut
 62
7
100
AcDbLine
 10
30.855583
 20
33.681803
 30
0.0
 11
19.144507
 21
41.293131
 31
0.0
  0
LINE
  5
10d
100
AcDbEntity
  8
PipeCut
 62
7
100
AcDbLine
 10
19.144507
 20
41.293131
 30
0.0
 11
15.181528
 21
36.914587
 31
0.0
  0
LINE
  5
10e
100
AcDbEntity
  8
PipeCut
 62
7
100
AcDbLine
 10
15.181528
 20
36.914587
 30
0.0
 11
9.922541
 21
40.366332
 31
0.0
  0
LINE
  5
10f
100
AcDbEntity
  8
PipeCut
 62
7
100
AcDbLine
 10
9.922541
 20
40.366332
 30
0.0
 11
3.019381
 21
29.848029
 31
0.0
  0
LINE
  5
110
100
AcDbEntity
  8
PipeCut
 62
7
100
AcDbLine
 10
3.019381
 20
29.848029
 30
0.0
 11
8.278368
 21
26.396285
 31
0.0
  0
LINE
  5
111
100
AcDbEntity
  8
PipeCut
 62
7
100
AcDbLine
 10
8.278368
 20
26.396285
 30
0.0
 11
3.057518
 21
27.946759
 31
0.0
  0
LINE
  5
112
100
AcDbEntity
  8
PipeCut
 62
7
100
AcDbLine
 10
3.057518
 20
27.946759
 30
0.0
 11
1.245016
 21
21.923056
 31
0.0
  0
LINE
  5
113
100
AcDbEntity
  8
PipeCut
 62
7
100
AcDbLine
 10
1.245016
 20
21.923056
 30
0.0
 11
6.440221
 21
20.359760
 31
0.0
  0
LINE
  5
114
100
AcDbEntity
  8
PipeCut
 62
7
100
AcDbLine
 10
6.440221
 20
20.359760
 30
0.0
 11
0.149558
 21
20.383760
 31
0.0
  0
LINE
  5
115
100
AcDbEntity
  8
PipeCut
 62
7
100
AcDbLine
 10
0.149558
 20
20.383760
 30
0.0
 11
0.101557
 21
7.802762
 31
0.0
  0
LINE
  5
116
100
AcDbEntity
  8
PipeCut
 62
7
100
AcDbLine
 10
0.101557
 20
7.802762
 30
0.0
 11
1.320961
 21
1.802073
 31
0.0
  0
LINE
  5
117
100
AcDbEntity
  8
PipeCut
 62
7
100
AcDbLine
 10
1.320961
 20
1.802073
 30
0.0
 11
5.171502
 21
1.802073
 31
0.0
  0
LINE
  5
118
100
AcDbEntity
  8
PipeCut
 62
7
100
AcDbLine
 10
5.171502
 20
1.802073
 30
0.0
 11
6.391892
 21
7.778433
 31
0.0
  0
LINE
  5
119
100
AcDbEntity
  8
PipeCut
 62
7
100
AcDbLine
 10
6.391892
 20
7.778433
 30
0.0
 11
7.611625
 21
1.955608
 31
0.0
  0
LINE
  5
11a
100
AcDbEntity
  8
PipeCut
 62
7
100
AcDbLine
 10
7.611625
 20
1.955608
 30
0.0
 11
21.872960
 21
1.742895
 31
0.0
  0
LINE
  5
11b
100
AcDbEntity
  8
PipeCut
 62
7
100
AcDbLine
 10
21.872960
 20
1.742895
 30
0.0
 11
23.207104
 21
7.778433
 31
0.0
  0
LINE
  5
11c
100
AcDbEntity
  8
PipeCut
 62
7
100
AcDbLine
 10
23.207104
 20
7.778433
 30
0.0
 11
23.218282
 21
15.310528
 31
0.0
  0
LINE
  5
11d
100
AcDbEntity
  8
PipeCut
 62
7
100
AcDbLine
 10
23.218282
 20
15.310528
 30
0.0
 11
25.049196
 21
21.349683
 31
0.0
  0
LINE
  5
11e
100
AcDbEntity
  8
PipeCut
 62
7
100
AcDbLine
 10
25.049196
 20
21.349683
 30
0.0
 11
29.209766
 21
27.648237
 31
0.0
  0
ENDSEC
  0
SECTION
  2
OBJECTS
  0
DICTIONARY
  5
C
330
0
100
AcDbDictionary
  3
ACAD_GROUP
350
D
  3
ACAD_MLINESTYLE
350
17
  0
DICTIONARY
  5
D
330
C
100
AcDbDictionary
  0
DICTIONARY
  5
1A
330
C
100
AcDbDictionary
  0
DICTIONARY
  5
17
330
C
100
AcDbDictionary
  3
STANDARD
350
18
  0
DICTIONARY
  5
19
330
C
100
AcDbDictionary
  0
ENDSEC
  0
EOF
