  0
SECTION
  2
HEADER
  9
$ACADVER
  1
AC1014
  9
$HANDSEED
  5
FFFF
  9
$MEASUREMENT
 70
     1
  0
ENDSEC
  0
SECTION
  2
TABLES
  0
TABLE
  2
VPORT
  5
8
330
0
100
AcDbSymbolTable
 70
     4
  0
VPORT
  5
2E
330
8
100
AcDbSymbolTableRecord
100
AcDbViewportTableRecord
  2
*ACTIVE
 70
     0
 10
0.0
 20
0.0
 11
1.0
 21
1.0
 12
210.0
 22
148.5
 13
0.0
 23
0.0
 14
10.0
 24
10.0
 15
10.0
 25
10.0
 16
0.0
 26
0.0
 36
1.0
 17
0.0
 27
0.0
 37
0.0
 40
341.0
 41
1.24
 42
50.0
 43
0.0
 44
0.0
 50
0.0
 51
0.0
 71
     0
 72
   100
 73
     1
 74
     3
 75
     0
 76
     0
 77
     0
 78
     0
  0
ENDTAB
  0
TABLE
  2
LTYPE
  5
5
330
0
100
AcDbSymbolTable
 70
     1
  0
LTYPE
  5
14
330
5
100
AcDbSymbolTableRecord
100
AcDbLinetypeTableRecord
  2
BYBLOCK
 70
     0
  3

 72
    65
 73
     0
 40
0.0
  0
LTYPE
  5
15
330
5
100
AcDbSymbolTableRecord
100
AcDbLinetypeTableRecord
  2
BYLAYER
 70
     0
  3

 72
    65
 73
     0
 40
0.0
  0
LTYPE
  5
16
330
5
100
AcDbSymbolTableRecord
100
AcDbLinetypeTableRecord
  2
CONTINUOUS
 70
     0
  3
Solid line
 72
    65
 73
     0
 40
0.0
  0
ENDTAB
  0
TABLE
  2
LAYER
  5
2
100
AcDbSymbolTable
 70
3
  0
LAYER
  5
50
100
AcDbSymbolTableRecord
100
AcDbLayerTableRecord
  2
0
 70
0
  6
CONTINUOUS
  0
LAYER
  5
51
100
AcDbSymbolTableRecord
100
AcDbLayerTableRecord
  2
Cut
 70
0
  6
CONTINUOUS
  0
LAYER
  5
52
100
AcDbSymbolTableRecord
100
AcDbLayerTableRecord
  2
Draw
 70
0
  6
CONTINUOUS
  0
ENDTAB
  0
TABLE
  2
STYLE
  5
3
330
0
100
AcDbSymbolTable
 70
     1
  0
STYLE
  5
11
330
3
100
AcDbSymbolTableRecord
100
AcDbTextStyleTableRecord
  2
STANDARD
 70
     0
 40
0.0
 41
1.0
 50
0.0
 71
     0
 42
2.5
  3
txt
  4

  0
ENDTAB
  0
TABLE
  2
VIEW
  5
6
330
0
100
AcDbSymbolTable
 70
     0
  0
ENDTAB
  0
TABLE
  2
UCS
  5
7
330
0
100
AcDbSymbolTable
 70
     0
  0
ENDTAB
  0
TABLE
  2
APPID
  5
9
330
0
100
AcDbSymbolTable
 70
     2
  0
APPID
  5
12
330
9
100
AcDbSymbolTableRecord
100
AcDbRegAppTableRecord
  2
ACAD
 70
     0
  0
ENDTAB
  0
TABLE
  2
DIMSTYLE
  5
A
330
0
100
AcDbSymbolTable
 70
     1
  0
DIMSTYLE
105
27
330
A
100
AcDbSymbolTableRecord
100
AcDbDimStyleTableRecord
  2
ISO-25
 70
     0
  3

  4

  5

  6

  7

 40
1.0
 41
2.5
 42
0.625
 43
3.75
 44
1.25
 45
0.0
 46
0.0
 47
0.0
 48
0.0
140
2.5
141
2.5
142
0.0
143
0.03937007874016
144
1.0
145
0.0
146
1.0
147
0.625
 71
     0
 72
     0
 73
     0
 74
     0
 75
     0
 76
     0
 77
     1
 78
     8
170
     0
171
     3
172
     1
173
     0
174
     0
175
     0
176
     0
177
     0
178
     0
270
     2
271
     2
272
     2
273
     2
274
     3
340
11
275
     0
280
     0
281
     0
282
     0
283
     0
284
     8
285
     0
286
     0
287
     3
288
     0
  0
ENDTAB
  0
TABLE
  2
BLOCK_RECORD
  5
1
330
0
100
AcDbSymbolTable
 70
     1
  0
BLOCK_RECORD
  5
1F
330
1
100
AcDbSymbolTableRecord
100
AcDbBlockTableRecord
  2
*MODEL_SPACE
  0
BLOCK_RECORD
  5
1B
330
1
100
AcDbSymbolTableRecord
100
AcDbBlockTableRecord
  2
*PAPER_SPACE
  0
ENDTAB
  0
ENDSEC
  0
SECTION
  2
BLOCKS
  0
BLOCK
  5
20
330
1F
100
AcDbEntity
  8
0
100
AcDbBlockBegin
  2
*MODEL_SPACE
 70
     0
 10
0.0
 20
0.0
 30
0.0
  3
*MODEL_SPACE
  1

  0
ENDBLK
  5
21
330
1F
100
AcDbEntity
  8
0
100
AcDbBlockEnd
  0
BLOCK
  5
1C
330
1B
100
AcDbEntity
 67
     1
  8
0
100
AcDbBlockBegin
  2
*PAPER_SPACE
  1

  0
ENDBLK
  5
1D
330
1B
100
AcDbEntity
 67
     1
  8
0
100
AcDbBlockEnd
  0
ENDSEC
  0
SECTION
  2
ENTITIES
  0
LINE
  5
100
100
AcDbEntity
  8
Draw
 62
7
100
AcDbLine
 10
246.834204
 20
35.187896
 30
0.0
 11
20.795403
 21
35.187896
 31
0.0
  0
LINE
  5
101
100
AcDbEntity
  8
Draw
 62
7
100
AcDbLine
 10
196.063074
 20
6.972936
 30
0.0
 11
249.351924
 21
35.187746
 31
0.0
  0
LINE
  5
102
100
AcDbEntity
  8
Draw
 62
7
100
AcDbLine
 10
249.351924
 20
35.187746
 30
0.0
 11
196.228524
 21
63.242406
 31
0.0
  0
LINE
  5
103
100
AcDbEntity
  8
Draw
 62
7
100
AcDbLine
 10
196.228914
 20
6.976186
 30
0.0
 11
213.991984
 21
34.881256
 31
0.0
  0
LINE
  5
104
100
AcDbEntity
  8
Draw
 62
7
100
AcDbLine
 10
213.991984
 20
34.881256
 30
0.0
 11
196.228914
 21
62.785986
 31
0.0
  0
LINE
  5
105
100
AcDbEntity
  8
Draw
 62
7
100
AcDbLine
 10
160.371314
 20
6.972936
 30
0.0
 11
213.660164
 21
35.187746
 31
0.0
  0
LINE
  5
106
100
AcDbEntity
  8
Draw
 62
7
100
AcDbLine
 10
213.660164
 20
35.187746
 30
0.0
 11
160.536764
 21
63.242406
 31
0.0
  0
LINE
  5
107
100
AcDbEntity
  8
Draw
 62
7
100
AcDbLine
 10
160.537194
 20
6.976186
 30
0.0
 11
178.300264
 21
34.881256
 31
0.0
  0
LINE
  5
108
100
AcDbEntity
  8
Draw
 62
7
100
AcDbLine
 10
178.300264
 20
34.881256
 30
0.0
 11
160.537194
 21
62.785986
 31
0.0
  0
LINE
  5
109
100
AcDbEntity
  8
Draw
 62
7
100
AcDbLine
 10
125.342884
 20
7.177476
 30
0.0
 11
178.631734
 21
35.392296
 31
0.0
  0
LINE
  5
10a
100
AcDbEntity
  8
Draw
 62
7
100
AcDbLine
 10
178.631734
 20
35.392296
 30
0.0
 11
125.508334
 21
63.446946
 31
0.0
  0
LINE
  5
10b
100
AcDbEntity
  8
Draw
 62
7
100
AcDbLine
 10
125.066554
 20
6.771606
 30
0.0
 11
142.829624
 21
34.676686
 31
0.0
  0
LINE
  5
10c
100
AcDbEntity
  8
Draw
 62
7
100
AcDbLine
 10
142.829624
 20
34.676686
 30
0.0
 11
125.066554
 21
62.581406
 31
0.0
  0
LINE
  5
10d
100
AcDbEntity
  8
Draw
 62
7
100
AcDbLine
 10
89.872244
 20
7.177476
 30
0.0
 11
143.161094
 21
35.392286
 31
0.0
  0
LINE
  5
10e
100
AcDbEntity
  8
Draw
 62
7
100
AcDbLine
 10
143.161094
 20
35.392286
 30
0.0
 11
90.037697
 21
63.446946
 31
0.0
  0
LINE
  5
10f
100
AcDbEntity
  8
Draw
 62
7
100
AcDbLine
 10
89.485385
 20
6.669336
 30
0.0
 11
107.248451
 21
34.574406
 31
0.0
  0
LINE
  5
110
100
AcDbEntity
  8
Draw
 62
7
100
AcDbLine
 10
107.248451
 20
34.574406
 30
0.0
 11
89.485385
 21
62.479136
 31
0.0
  0
LINE
  5
111
100
AcDbEntity
  8
Draw
 62
7
100
AcDbLine
 10
54.287583
 20
6.972936
 30
0.0
 11
107.576429
 21
35.187746
 31
0.0
  0
LINE
  5
112
100
AcDbEntity
  8
Draw
 62
7
100
AcDbLine
 10
107.576429
 20
35.187746
 30
0.0
 11
54.453036
 21
63.242406
 31
0.0
  0
LINE
  5
113
100
AcDbEntity
  8
Draw
 62
7
100
AcDbLine
 10
54.235830
 20
7.282996
 30
0.0
 11
71.998896
 21
35.188066
 31
0.0
  0
LINE
  5
114
100
AcDbEntity
  8
Draw
 62
7
100
AcDbLine
 10
71.998896
 20
35.188066
 30
0.0
 11
54.235830
 21
63.092796
 31
0.0
  0
LINE
  5
115
100
AcDbEntity
  8
Draw
 62
7
100
AcDbLine
 10
18.488788
 20
6.972936
 30
0.0
 11
71.777634
 21
35.187746
 31
0.0
  0
LINE
  5
116
100
AcDbEntity
  8
Draw
 62
7
100
AcDbLine
 10
71.777634
 20
35.187746
 30
0.0
 11
18.654241
 21
63.242406
 31
0.0
  0
LINE
  5
117
100
AcDbEntity
  8
Draw
 62
7
100
AcDbLine
 10
228.124344
 20
63.402886
 30
0.0
 11
3.723145
 21
63.402886
 31
0.0
  0
LINE
  5
118
100
AcDbEntity
  8
Draw
 62
7
100
AcDbLine
 10
231.847474
 20
7.119416
 30
0.0
 11
0.000000
 21
7.119416
 31
0.0
  0
LINE
  5
119
100
AcDbEntity
  8
Draw
 62
7
100
AcDbLine
 10
245.486844
 20
91.307816
 30
0.0
 11
22.142764
 21
91.307816
 31
0.0
  0
LINE
  5
11a
100
AcDbEntity
  8
Draw
 62
7
100
AcDbLine
 10
196.063074
 20
63.092826
 30
0.0
 11
249.351924
 21
91.307636
 31
0.0
  0
LINE
  5
11b
100
AcDbEntity
  8
Draw
 62
7
100
AcDbLine
 10
249.351924
 20
91.307636
 30
0.0
 11
196.228524
 21
119.362296
 31
0.0
  0
LINE
  5
11c
100
AcDbEntity
  8
Draw
 62
7
100
AcDbLine
 10
196.228914
 20
63.096076
 30
0.0
 11
213.991984
 21
91.001146
 31
0.0
  0
LINE
  5
11d
100
AcDbEntity
  8
Draw
 62
7
100
AcDbLine
 10
213.991984
 20
91.001146
 30
0.0
 11
196.228914
 21
118.905876
 31
0.0
  0
LINE
  5
11e
100
AcDbEntity
  8
Draw
 62
7
100
AcDbLine
 10
160.371314
 20
63.092826
 30
0.0
 11
213.660164
 21
91.307636
 31
0.0
  0
LINE
  5
11f
100
AcDbEntity
  8
Draw
 62
7
100
AcDbLine
 10
213.660164
 20
91.307636
 30
0.0
 11
160.536764
 21
119.362296
 31
0.0
  0
LINE
  5
120
100
AcDbEntity
  8
Draw
 62
7
100
AcDbLine
 10
160.537194
 20
63.096076
 30
0.0
 11
178.300264
 21
91.001146
 31
0.0
  0
LINE
  5
121
100
AcDbEntity
  8
Draw
 62
7
100
AcDbLine
 10
178.300264
 20
91.001146
 30
0.0
 11
160.537194
 21
118.905876
 31
0.0
  0
LINE
  5
122
100
AcDbEntity
  8
Draw
 62
7
100
AcDbLine
 10
125.342884
 20
63.297366
 30
0.0
 11
178.631734
 21
91.512176
 31
0.0
  0
LINE
  5
123
100
AcDbEntity
  8
Draw
 62
7
100
AcDbLine
 10
178.631734
 20
91.512176
 30
0.0
 11
125.508334
 21
119.566836
 31
0.0
  0
LINE
  5
124
100
AcDbEntity
  8
Draw
 62
7
100
AcDbLine
 10
125.066554
 20
62.891496
 30
0.0
 11
142.829624
 21
90.796566
 31
0.0
  0
LINE
  5
125
100
AcDbEntity
  8
Draw
 62
7
100
AcDbLine
 10
142.829624
 20
90.796566
 30
0.0
 11
125.066554
 21
118.701296
 31
0.0
  0
LINE
  5
126
100
AcDbEntity
  8
Draw
 62
7
100
AcDbLine
 10
89.872244
 20
63.297366
 30
0.0
 11
143.161094
 21
91.512176
 31
0.0
  0
LINE
  5
127
100
AcDbEntity
  8
Draw
 62
7
100
AcDbLine
 10
143.161094
 20
91.512176
 30
0.0
 11
90.037697
 21
119.566836
 31
0.0
  0
LINE
  5
128
100
AcDbEntity
  8
Draw
 62
7
100
AcDbLine
 10
89.485385
 20
62.789226
 30
0.0
 11
107.248451
 21
90.694296
 31
0.0
  0
LINE
  5
129
100
AcDbEntity
  8
Draw
 62
7
100
AcDbLine
 10
107.248451
 20
90.694296
 30
0.0
 11
89.485385
 21
118.599026
 31
0.0
  0
LINE
  5
12a
100
AcDbEntity
  8
Draw
 62
7
100
AcDbLine
 10
54.287583
 20
63.092826
 30
0.0
 11
107.576429
 21
91.307636
 31
0.0
  0
LINE
  5
12b
100
AcDbEntity
  8
Draw
 62
7
100
AcDbLine
 10
107.576429
 20
91.307636
 30
0.0
 11
54.453036
 21
119.362296
 31
0.0
  0
LINE
  5
12c
100
AcDbEntity
  8
Draw
 62
7
100
AcDbLine
 10
54.235830
 20
63.402886
 30
0.0
 11
71.998896
 21
91.307956
 31
0.0
  0
LINE
  5
12d
100
AcDbEntity
  8
Draw
 62
7
100
AcDbLine
 10
71.998896
 20
91.307956
 30
0.0
 11
54.235830
 21
119.212686
 31
0.0
  0
LINE
  5
12e
100
AcDbEntity
  8
Draw
 62
7
100
AcDbLine
 10
18.488788
 20
63.092826
 30
0.0
 11
71.777634
 21
91.307636
 31
0.0
  0
LINE
  5
12f
100
AcDbEntity
  8
Draw
 62
7
100
AcDbLine
 10
71.777634
 20
91.307636
 30
0.0
 11
18.654241
 21
119.362296
 31
0.0
  0
LINE
  5
130
100
AcDbEntity
  8
Draw
 62
7
100
AcDbLine
 10
229.920824
 20
119.522766
 30
0.0
 11
1.926662
 21
119.522766
 31
0.0
  0
LINE
  5
131
100
AcDbEntity
  8
Draw
 62
7
100
AcDbLine
 10
231.588994
 20
175.427816
 30
0.0
 11
17.834240
 21
175.427816
 31
0.0
  0
LINE
  5
132
100
AcDbEntity
  8
Draw
 62
7
100
AcDbLine
 10
245.935964
 20
147.427706
 30
0.0
 11
21.693644
 21
147.427706
 31
0.0
  0
LINE
  5
133
100
AcDbEntity
  8
Draw
 62
7
100
AcDbLine
 10
196.063074
 20
119.212716
 30
0.0
 11
249.351924
 21
147.427529
 31
0.0
  0
LINE
  5
134
100
AcDbEntity
  8
Draw
 62
7
100
AcDbLine
 10
249.351924
 20
147.427529
 30
0.0
 11
196.228524
 21
175.482181
 31
0.0
  0
LINE
  5
135
100
AcDbEntity
  8
Draw
 62
7
100
AcDbLine
 10
196.228914
 20
119.215956
 30
0.0
 11
213.991984
 21
147.121030
 31
0.0
  0
LINE
  5
136
100
AcDbEntity
  8
Draw
 62
7
100
AcDbLine
 10
213.991984
 20
147.121030
 30
0.0
 11
196.228914
 21
175.025752
 31
0.0
  0
LINE
  5
137
100
AcDbEntity
  8
Draw
 62
7
100
AcDbLine
 10
160.371314
 20
119.212716
 30
0.0
 11
213.660164
 21
147.427529
 31
0.0
  0
LINE
  5
138
100
AcDbEntity
  8
Draw
 62
7
100
AcDbLine
 10
213.660164
 20
147.427529
 30
0.0
 11
160.536764
 21
175.482181
 31
0.0
  0
LINE
  5
139
100
AcDbEntity
  8
Draw
 62
7
100
AcDbLine
 10
160.537194
 20
119.215956
 30
0.0
 11
178.300264
 21
147.121030
 31
0.0
  0
LINE
  5
13a
100
AcDbEntity
  8
Draw
 62
7
100
AcDbLine
 10
178.300264
 20
147.121030
 30
0.0
 11
160.537194
 21
175.025752
 31
0.0
  0
LINE
  5
13b
100
AcDbEntity
  8
Draw
 62
7
100
AcDbLine
 10
125.342884
 20
119.417256
 30
0.0
 11
178.631734
 21
147.632069
 31
0.0
  0
LINE
  5
13c
100
AcDbEntity
  8
Draw
 62
7
100
AcDbLine
 10
178.631734
 20
147.632069
 30
0.0
 11
125.508334
 21
175.686721
 31
0.0
  0
LINE
  5
13d
100
AcDbEntity
  8
Draw
 62
7
100
AcDbLine
 10
125.066554
 20
119.011416
 30
0.0
 11
142.829624
 21
146.916490
 31
0.0
  0
LINE
  5
13e
100
AcDbEntity
  8
Draw
 62
7
100
AcDbLine
 10
142.829624
 20
146.916490
 30
0.0
 11
125.066554
 21
174.821212
 31
0.0
  0
LINE
  5
13f
100
AcDbEntity
  8
Draw
 62
7
100
AcDbLine
 10
89.872244
 20
119.417256
 30
0.0
 11
143.161094
 21
147.632069
 31
0.0
  0
LINE
  5
140
100
AcDbEntity
  8
Draw
 62
7
100
AcDbLine
 10
143.161094
 20
147.632069
 30
0.0
 11
90.037697
 21
175.686721
 31
0.0
  0
LINE
  5
141
100
AcDbEntity
  8
Draw
 62
7
100
AcDbLine
 10
89.485385
 20
118.909116
 30
0.0
 11
107.248451
 21
146.814190
 31
0.0
  0
LINE
  5
142
100
AcDbEntity
  8
Draw
 62
7
100
AcDbLine
 10
107.248451
 20
146.814190
 30
0.0
 11
89.485385
 21
174.718912
 31
0.0
  0
LINE
  5
143
100
AcDbEntity
  8
Draw
 62
7
100
AcDbLine
 10
54.287583
 20
119.212716
 30
0.0
 11
107.576429
 21
147.427529
 31
0.0
  0
LINE
  5
144
100
AcDbEntity
  8
Draw
 62
7
100
AcDbLine
 10
107.576429
 20
147.427529
 30
0.0
 11
54.453036
 21
175.482181
 31
0.0
  0
LINE
  5
145
100
AcDbEntity
  8
Draw
 62
7
100
AcDbLine
 10
54.235830
 20
119.522766
 30
0.0
 11
71.998896
 21
147.427840
 31
0.0
  0
LINE
  5
146
100
AcDbEntity
  8
Draw
 62
7
100
AcDbLine
 10
71.998896
 20
147.427840
 30
0.0
 11
54.235830
 21
175.332562
 31
0.0
  0
LINE
  5
147
100
AcDbEntity
  8
Draw
 62
7
100
AcDbLine
 10
18.488788
 20
119.212716
 30
0.0
 11
71.777634
 21
147.427529
 31
0.0
  0
LINE
  5
148
100
AcDbEntity
  8
Draw
 62
7
100
AcDbLine
 10
71.777634
 20
147.427529
 30
0.0
 11
18.654241
 21
175.482181
 31
0.0
  0
LINE
  5
149
100
AcDbEntity
  8
Draw
 62
7
100
AcDbLine
 10
196.221404
 20
0.088266
 30
0.0
 11
196.221404
 21
7.119476
 31
0.0
  0
LINE
  5
14a
100
AcDbEntity
  8
Draw
 62
7
100
AcDbLine
 10
160.595184
 20
0.088266
 30
0.0
 11
160.595184
 21
7.119476
 31
0.0
  0
LINE
  5
14b
100
AcDbEntity
  8
Draw
 62
7
100
AcDbLine
 10
124.968934
 20
0.088266
 30
0.0
 11
124.968934
 21
7.119476
 31
0.0
  0
LINE
  5
14c
100
AcDbEntity
  8
Draw
 62
7
100
AcDbLine
 10
89.289911
 20
0.088266
 30
0.0
 11
89.289911
 21
7.119476
 31
0.0
  0
LINE
  5
14d
100
AcDbEntity
  8
Draw
 62
7
100
AcDbLine
 10
53.711214
 20
0.088266
 30
0.0
 11
53.711214
 21
7.119476
 31
0.0
  0
LINE
  5
14e
100
AcDbEntity
  8
Draw
 62
7
100
AcDbLine
 10
196.221404
 20
175.427816
 30
0.0
 11
196.221404
 21
182.019469
 31
0.0
  0
LINE
  5
14f
100
AcDbEntity
  8
Draw
 62
7
100
AcDbLine
 10
160.595184
 20
175.427816
 30
0.0
 11
160.595184
 21
182.019469
 31
0.0
  0
LINE
  5
150
100
AcDbEntity
  8
Draw
 62
7
100
AcDbLine
 10
124.968934
 20
175.427816
 30
0.0
 11
124.968934
 21
182.019469
 31
0.0
  0
LINE
  5
151
100
AcDbEntity
  8
Draw
 62
7
100
AcDbLine
 10
89.289911
 20
175.427816
 30
0.0
 11
89.289911
 21
182.019469
 31
0.0
  0
LINE
  5
152
100
AcDbEntity
  8
Draw
 62
7
100
AcDbLine
 10
53.711214
 20
175.427816
 30
0.0
 11
53.711214
 21
182.019469
 31
0.0
  0
LINE
  5
153
100
AcDbEntity
  8
Draw
 62
7
100
AcDbLine
 10
18.544105
 20
7.282996
 30
0.0
 11
36.307171
 21
35.188066
 31
0.0
  0
LINE
  5
154
100
AcDbEntity
  8
Draw
 62
7
100
AcDbLine
 10
36.307171
 20
35.188066
 30
0.0
 11
18.544105
 21
63.092796
 31
0.0
  0
LINE
  5
155
100
AcDbEntity
  8
Draw
 62
7
100
AcDbLine
 10
18.544105
 20
63.402886
 30
0.0
 11
36.307171
 21
91.307956
 31
0.0
  0
LINE
  5
156
100
AcDbEntity
  8
Draw
 62
7
100
AcDbLine
 10
36.307171
 20
91.307956
 30
0.0
 11
18.544105
 21
119.212686
 31
0.0
  0
LINE
  5
157
100
AcDbEntity
  8
Draw
 62
7
100
AcDbLine
 10
18.544105
 20
119.522766
 30
0.0
 11
36.307171
 21
147.427840
 31
0.0
  0
LINE
  5
158
100
AcDbEntity
  8
Draw
 62
7
100
AcDbLine
 10
36.307171
 20
147.427840
 30
0.0
 11
18.544105
 21
175.332562
 31
0.0
  0
ENDSEC
  0
SECTION
  2
OBJECTS
  0
DICTIONARY
  5
C
330
0
100
AcDbDictionary
  3
ACAD_GROUP
350
D
  3
ACAD_MLINESTYLE
350
17
  0
DICTIONARY
  5
D
330
C
100
AcDbDictionary
  0
DICTIONARY
  5
1A
330
C
100
AcDbDictionary
  0
DICTIONARY
  5
17
330
C
100
AcDbDictionary
  3
STANDARD
350
18
  0
DICTIONARY
  5
19
330
C
100
AcDbDictionary
  0
ENDSEC
  0
EOF
