<?xml version="1.0" encoding="UTF-8" standalone="no"?>
<!-- Generator: Adobe Illustrator 23.1.0, SVG Export Plug-In . SVG Version: 6.00 Build 0)  -->

<svg
   xmlns:dc="http://purl.org/dc/elements/1.1/"
   xmlns:cc="http://creativecommons.org/ns#"
   xmlns:rdf="http://www.w3.org/1999/02/22-rdf-syntax-ns#"
   xmlns:svg="http://www.w3.org/2000/svg"
   xmlns="http://www.w3.org/2000/svg"
   xmlns:sodipodi="http://sodipodi.sourceforge.net/DTD/sodipodi-0.dtd"
   xmlns:inkscape="http://www.inkscape.org/namespaces/inkscape"
   version="1.1"
   id="Layer_1"
   x="0px"
   y="0px"
   viewBox="0 0 514.64386 335.30017"
   xml:space="preserve"
   sodipodi:docname="lightSoundStander_Cri.svg"
   inkscape:version="0.92.1 r15371"
   width="514.64386"
   height="335.30017"><metadata
     id="metadata5627"><rdf:RDF><cc:Work
         rdf:about=""><dc:format>image/svg+xml</dc:format><dc:type
           rdf:resource="http://purl.org/dc/dcmitype/StillImage" /><dc:title></dc:title></cc:Work></rdf:RDF></metadata><defs
     id="defs5625" /><sodipodi:namedview
     pagecolor="#ffffff"
     bordercolor="#666666"
     borderopacity="1"
     objecttolerance="10"
     gridtolerance="10"
     guidetolerance="10"
     inkscape:pageopacity="0"
     inkscape:pageshadow="2"
     inkscape:window-width="1961"
     inkscape:window-height="1166"
     id="namedview5623"
     showgrid="false"
     inkscape:zoom="0.28710462"
     inkscape:cx="-1261.4352"
     inkscape:cy="68.342003"
     inkscape:window-x="0"
     inkscape:window-y="70"
     inkscape:window-maximized="1"
     inkscape:current-layer="Layer_1"
     fit-margin-top="0"
     fit-margin-left="0"
     fit-margin-right="0"
     fit-margin-bottom="0" /><style
     type="text/css"
     id="style5116">
	.st0{fill:#0000FF;}
	.st1{fill:none;stroke:#0000FF;stroke-width:0.8425;stroke-linecap:round;stroke-linejoin:round;stroke-miterlimit:10;}
	.st2{fill:none;stroke:#4D4D4D;stroke-width:2.106229e-02;stroke-linecap:round;stroke-linejoin:round;stroke-miterlimit:10;}
	.st3{fill:none;stroke:#4D4D4D;stroke-width:2.500000e-02;stroke-linecap:round;stroke-linejoin:round;stroke-miterlimit:10;}
</style><path
     inkscape:connector-curvature="0"
     style="fill:none;stroke:#fa0000;stroke-width:1;stroke-miterlimit:4;stroke-dasharray:none;stroke-opacity:1"
     id="path5310"
     d="M 322.8,0.5 H 12.4 C 5.8,0.5 0.5,5.8 0.5,12.4 v 310.5 c 0,6.6 5.3,11.9 11.9,11.9 h 11.9 v -24 l 8.4,-0.1 v 24 l 271,0.1 v -24.3 h 8.4 v 24.3 h 10.7 c 6.6,0 11.9,-5.3 11.9,-11.9 V 12.4 C 334.8,5.8 329.4,0.5 322.8,0.5 Z"
     class="st2" /><g
     id="g6229"
     transform="matrix(1.4173689,0,0,1.4173689,-198.19353,-164.27416)"
     style="fill:#000000;fill-opacity:1;stroke:none;stroke-opacity:1"><path
       class="st0"
       d="m 272.4,329.4 v -0.1 c -0.1,-0.2 -0.2,-0.3 -0.4,-0.3 -0.2,0 -0.3,0.1 -0.4,0.3 v 0.1 h -0.1 c -0.3,-0.1 -0.5,-0.2 -0.7,-0.3 l -0.1,-0.1 0.1,-0.1 c 0.1,-0.2 0,-0.4 -0.1,-0.5 -0.1,-0.1 -0.3,-0.2 -0.5,-0.1 h -0.1 l -0.1,-0.1 c -0.1,-0.2 -0.2,-0.5 -0.3,-0.7 v -0.1 h 0.1 c 0.2,-0.1 0.3,-0.2 0.3,-0.4 0,-0.2 -0.1,-0.3 -0.3,-0.4 h -0.1 v -0.1 c 0.1,-0.3 0.2,-0.5 0.3,-0.7 l 0.1,-0.1 h 0.1 c 0.2,0.1 0.4,0 0.5,-0.1 0.1,-0.1 0.2,-0.3 0.1,-0.5 V 325 l 0.1,-0.1 c 0.2,-0.1 0.5,-0.2 0.7,-0.3 h 0.1 v 0.1 c 0.1,0.2 0.2,0.3 0.4,0.3 0.2,0 0.3,-0.1 0.4,-0.3 v -0.1 h 0.1 c 0.3,0.1 0.5,0.2 0.7,0.3 l 0.1,0.1 -0.1,0.1 c -0.1,0.2 0,0.4 0.1,0.5 0.1,0.1 0.3,0.2 0.5,0.1 h 0.1 l 0.1,0.1 c 0.1,0.2 0.2,0.5 0.3,0.7 v 0.1 h -0.1 c -0.2,0.1 -0.3,0.2 -0.3,0.4 0,0.2 0.1,0.3 0.3,0.4 h 0.1 v 0.1 c -0.1,0.3 -0.2,0.5 -0.3,0.7 l -0.1,0.1 h -0.1 c -0.2,-0.1 -0.4,0 -0.5,0.1 -0.1,0.1 -0.2,0.3 -0.1,0.5 v 0.1 l -0.1,0.1 c -0.2,0.1 -0.5,0.2 -0.7,0.3 z m -0.5,-0.6 c 0.3,0 0.5,0.1 0.6,0.3 0.1,0 0.3,-0.1 0.4,-0.2 -0.1,-0.2 0,-0.5 0.2,-0.7 0.2,-0.2 0.4,-0.2 0.7,-0.2 0.1,-0.1 0.1,-0.3 0.2,-0.4 -0.2,-0.1 -0.3,-0.4 -0.3,-0.6 0,-0.3 0.1,-0.5 0.3,-0.6 0,-0.1 -0.1,-0.3 -0.2,-0.4 -0.2,0.1 -0.5,0 -0.7,-0.2 -0.2,-0.2 -0.2,-0.4 -0.2,-0.7 -0.1,-0.1 -0.3,-0.1 -0.4,-0.2 -0.1,0.2 -0.4,0.3 -0.6,0.3 -0.3,0 -0.5,-0.1 -0.6,-0.3 -0.1,0 -0.3,0.1 -0.4,0.2 0.1,0.2 0,0.5 -0.2,0.7 -0.2,0.2 -0.4,0.2 -0.7,0.2 -0.1,0.1 -0.1,0.3 -0.2,0.4 0.2,0.1 0.3,0.4 0.3,0.6 0,0.3 -0.1,0.5 -0.3,0.6 0,0.1 0.1,0.3 0.2,0.4 0.2,-0.1 0.5,0 0.7,0.2 0.2,0.2 0.2,0.4 0.2,0.7 0.1,0.1 0.3,0.1 0.4,0.2 0.1,-0.2 0.4,-0.3 0.6,-0.3 m 0,-0.7 c -0.6,0 -1.1,-0.5 -1.1,-1.1 0,-0.6 0.5,-1.1 1.1,-1.1 0.6,0 1.1,0.5 1.1,1.1 0,0.6 -0.5,1.1 -1.1,1.1 m 0,-1.9 c -0.4,0 -0.8,0.4 -0.8,0.8 0,0.4 0.4,0.8 0.8,0.8 0.4,0 0.8,-0.4 0.8,-0.8 0,-0.4 -0.3,-0.8 -0.8,-0.8"
       id="path5312"
       style="fill:#000000;fill-opacity:1;stroke:none;stroke-width:1;stroke-miterlimit:4;stroke-dasharray:none;stroke-opacity:1"
       inkscape:connector-curvature="0" /><path
       class="st0"
       d="M 260.5,331.6 V 330 c 0,-0.8 0.2,-1.4 0.6,-1.8 0.4,-0.4 1,-0.6 1.7,-0.6 0.7,0 1.3,0.2 1.7,0.6 0.4,0.4 0.6,1 0.6,1.8 v 1.6 z m 3.6,-2.8 c -0.3,-0.3 -0.7,-0.4 -1.2,-0.4 -0.5,0 -0.9,0.1 -1.2,0.4 -0.3,0.3 -0.4,0.7 -0.4,1.3 v 0.9 h 3.3 v -1 c -0.1,-0.5 -0.3,-0.9 -0.5,-1.2"
       id="path5314"
       style="fill:#000000;fill-opacity:1;stroke:none;stroke-width:1;stroke-miterlimit:4;stroke-dasharray:none;stroke-opacity:1"
       inkscape:connector-curvature="0" /><path
       style="fill:#000000;fill-opacity:1;stroke:none;stroke-width:1;stroke-miterlimit:4;stroke-dasharray:none;stroke-opacity:1"
       d="m 264.5,323.5 h 0.7 v 3.2 h -4.7 v -3.2 h 0.7 v 2.5 h 1.3 v -2.3 h 0.7 v 2.3 h 1.3 z"
       id="polygon5316" /><path
       class="st0"
       d="m 276.4,334.1 c 0,-0.4 0.2,-0.7 0.5,-0.9 0.3,-0.2 0.7,-0.3 1.2,-0.3 0.6,0 1,0.1 1.5,0.4 v 0.7 c -0.4,-0.3 -0.9,-0.4 -1.4,-0.4 -0.6,0 -0.9,0.2 -0.9,0.6 0,0.2 0.1,0.3 0.3,0.4 0.2,0.1 0.4,0.2 0.7,0.3 0.3,0.1 0.5,0.2 0.8,0.3 0.3,0.1 0.5,0.2 0.7,0.5 0.2,0.2 0.3,0.5 0.3,0.8 0,0.5 -0.2,0.8 -0.5,1 -0.3,0.2 -0.8,0.3 -1.3,0.3 -0.6,0 -1.2,-0.1 -1.6,-0.4 v -0.7 c 0.5,0.3 1,0.5 1.6,0.5 0.7,0 1,-0.2 1,-0.6 0,-0.2 -0.1,-0.3 -0.2,-0.4 -0.1,-0.1 -0.3,-0.2 -0.5,-0.3 -0.2,-0.1 -0.4,-0.1 -0.6,-0.2 -0.2,-0.1 -0.4,-0.2 -0.6,-0.3 -0.2,-0.1 -0.4,-0.2 -0.5,-0.4 -0.5,-0.4 -0.5,-0.7 -0.5,-0.9"
       id="path5318"
       style="fill:#000000;fill-opacity:1;stroke:none;stroke-width:1;stroke-miterlimit:4;stroke-dasharray:none;stroke-opacity:1"
       inkscape:connector-curvature="0" /><path
       style="fill:#000000;fill-opacity:1;stroke:none;stroke-width:1;stroke-miterlimit:4;stroke-dasharray:none;stroke-opacity:1"
       d="m 283.9,332.9 v 0.7 h -1.6 v 4 h -0.7 v -4 H 280 v -0.7 z"
       id="polygon5320" /><path
       style="fill:#000000;fill-opacity:1;stroke:none;stroke-width:1;stroke-miterlimit:4;stroke-dasharray:none;stroke-opacity:1"
       d="m 287.8,336.9 v 0.7 h -3.3 v -4.7 h 3.2 v 0.7 h -2.4 v 1.3 h 2.2 v 0.7 h -2.2 v 1.3 z"
       id="polygon5322" /><path
       style="fill:#000000;fill-opacity:1;stroke:none;stroke-width:1;stroke-miterlimit:4;stroke-dasharray:none;stroke-opacity:1"
       d="m 288.7,337.6 v -4.7 h 0.6 l 1.8,2.7 1.8,-2.7 h 0.7 v 4.7 h -0.8 v -3.3 l -1.5,2.2 h -0.4 l -1.5,-2.2 v 3.3 z"
       id="polygon5324" /><path
       style="fill:#000000;fill-opacity:1;stroke:none;stroke-width:1;stroke-miterlimit:4;stroke-dasharray:none;stroke-opacity:1"
       d="m 288.5,329.9 v 0.9 h -5 v -7.4 h 4.9 v 0.8 h -4.1 v 2.4 h 3.8 v 0.9 h -3.8 v 2.4 z"
       id="polygon5326" /><path
       class="st0"
       d="m 290,330.8 h -1 l 3.2,-7.4 h 1 l 3.2,7.4 h -0.9 l -0.8,-1.8 h -4 z m 2.6,-6.2 -1.5,3.6 h 3.3 l -1.5,-3.6 c 0,0 -0.1,-0.1 -0.1,-0.3 -0.1,0.1 -0.1,0.2 -0.2,0.3"
       id="path5328"
       style="fill:#000000;fill-opacity:1;stroke:none;stroke-width:1;stroke-miterlimit:4;stroke-dasharray:none;stroke-opacity:1"
       inkscape:connector-curvature="0" /><path
       style="fill:#000000;fill-opacity:1;stroke:none;stroke-width:1;stroke-miterlimit:4;stroke-dasharray:none;stroke-opacity:1"
       d="m 301.9,323.4 v 0.8 h -2.6 v 6.6 h -0.9 v -6.6 h -2.6 v -0.8 z"
       id="polygon5330" /><path
       style="fill:#000000;fill-opacity:1;stroke:none;stroke-width:1;stroke-miterlimit:4;stroke-dasharray:none;stroke-opacity:1"
       d="m 303.20001,323.39999 h 0.9 v 7.4 h -0.9 z"
       id="rect5332" /><path
       style="fill:#000000;fill-opacity:1;stroke:none;stroke-width:1;stroke-miterlimit:4;stroke-dasharray:none;stroke-opacity:1"
       d="m 311.1,329.9 v 0.9 H 306 v -7.4 h 5 v 0.8 h -4.1 v 2.4 h 3.8 v 0.9 h -3.8 v 2.4 z"
       id="polygon5334" /><path
       style="fill:#000000;fill-opacity:1;stroke:none;stroke-width:1;stroke-miterlimit:4;stroke-dasharray:none;stroke-opacity:1"
       d="m 311.7,323.4 h 0.9 l 2.6,6.4 2.6,-6.4 h 0.9 l -3,7.4 h -1 z"
       id="polygon5336" /><path
       style="fill:#000000;fill-opacity:1;stroke:none;stroke-width:1;stroke-miterlimit:4;stroke-dasharray:none;stroke-opacity:1"
       d="m 324.8,329.9 v 0.9 h -5 v -7.4 h 4.9 v 0.8 h -4 v 2.4 h 3.7 v 0.9 h -3.7 v 2.4 z"
       id="polygon5338" /><path
       class="st0"
       d="M 276.9,330.8 H 276 v -7.4 h 2.9 c 0.5,0 0.9,0.1 1.3,0.2 0.4,0.1 0.7,0.4 1,0.7 0.3,0.3 0.4,0.8 0.4,1.3 0,0.6 -0.2,1.1 -0.5,1.5 -0.4,0.4 -0.8,0.6 -1.4,0.7 l 2.5,3 h -1.1 l -2.4,-2.9 h -1.8 z m 0,-6.6 v 2.8 h 2 c 0.5,0 1,-0.1 1.3,-0.3 0.3,-0.2 0.5,-0.6 0.5,-1.1 0,-0.5 -0.2,-0.9 -0.5,-1.1 -0.3,-0.2 -0.8,-0.3 -1.3,-0.3 z"
       id="path5340"
       style="fill:#000000;fill-opacity:1;stroke:none;stroke-width:1;stroke-miterlimit:4;stroke-dasharray:none;stroke-opacity:1"
       inkscape:connector-curvature="0" /><path
       style="fill:#000000;fill-opacity:1;stroke:none;stroke-width:1;stroke-miterlimit:4;stroke-dasharray:none;stroke-opacity:1"
       d="m 273.2,331.7 0.9,-0.3 1.2,3.2 -4.5,-2 0.7,-0.7 2.1,1 z"
       id="polygon5342" /><path
       class="st0"
       d="m 271.4,331.9 c -2.3,-0.2 -4.2,-2.2 -4.2,-4.6 0,-2.6 2.1,-4.6 4.6,-4.6 1,0 1.9,0.3 2.7,0.9 0.1,-0.3 0.3,-0.6 0.4,-0.9 -0.9,-0.6 -2,-1 -3.1,-1 -3.1,0 -5.6,2.5 -5.6,5.6 0,3.1 2.5,5.6 5.6,5.6 0.5,0 0.9,-0.1 1.4,-0.2 z"
       id="path5344"
       style="fill:#000000;fill-opacity:1;stroke:none;stroke-width:1;stroke-miterlimit:4;stroke-dasharray:none;stroke-opacity:1"
       inkscape:connector-curvature="0" /><path
       class="st0"
       d="m 273.2,331.7 0.3,0.9 c 0.8,-0.2 1.4,-0.6 2,-1.1 l -0.6,-0.7 c -0.5,0.4 -1,0.7 -1.7,0.9"
       id="path5346"
       style="fill:#000000;fill-opacity:1;stroke:none;stroke-width:1;stroke-miterlimit:4;stroke-dasharray:none;stroke-opacity:1"
       inkscape:connector-curvature="0" /><path
       class="st0"
       d="M 327.9,337.7 H 293 v -1.2 h 34.9 c 0.5,0 0.9,-0.4 0.9,-0.9 v -15.7 c 0,-0.5 -0.4,-0.9 -0.9,-0.9 h -70.1 c -0.5,0 -0.9,0.4 -0.9,0.9 v 15.7 c 0,0.5 0.4,0.9 0.9,0.9 h 17.5 v 1.2 h -17.5 c -1.1,0 -2,-0.9 -2,-2 V 320 c 0,-1.1 0.9,-2 2,-2 h 70.1 c 1.1,0 2,0.9 2,2 v 15.7 c 0.1,1.1 -0.8,2 -2,2"
       id="path5348"
       style="fill:#000000;fill-opacity:1;stroke:none;stroke-width:1;stroke-miterlimit:4;stroke-dasharray:none;stroke-opacity:1"
       inkscape:connector-curvature="0" /></g><g
     id="g5614"
     style="fill:none;stroke:#fa0000;stroke-width:1;stroke-miterlimit:4;stroke-dasharray:none;stroke-opacity:1"
     transform="translate(-867.15614,-503.18782)"><path
       class="st3"
       d="m 1367.1,516 h -120.2 c -7.8,0 -14.2,6.3 -14.2,14.2 v 28.3 c 0,7.8 6.3,14.2 14.2,14.2 h 46.8 L 1279,548.6 h 9.9 l 14.7,24.1 h 69.2 c 7.8,0 8.5,-6.3 8.5,-14.2 v -28.3 c 0,-7.8 -6.3,-14.2 -14.2,-14.2 z"
       id="path5610"
       style="fill:none;stroke:#fa0000;stroke-width:1;stroke-miterlimit:4;stroke-dasharray:none;stroke-opacity:1"
       inkscape:connector-curvature="0" /><path
       class="st3"
       d="m 1367.1,580.4 h -120.2 c -7.8,0 -14.2,6.3 -14.2,14.2 v 28.3 c 0,7.8 6.3,14.2 14.2,14.2 h 46.8 L 1279,613 h 9.9 l 14.7,24.1 h 69.2 c 7.8,0 8.5,-6.3 8.5,-14.2 v -28.3 c 0,-7.9 -6.3,-14.2 -14.2,-14.2 z"
       id="path5612"
       style="fill:none;stroke:#fa0000;stroke-width:1;stroke-miterlimit:4;stroke-dasharray:none;stroke-opacity:1"
       inkscape:connector-curvature="0" /></g><g
     id="g6714"
     transform="translate(-539.90006,11.054667)"><g
       id="g6704"><g
         style="fill:#000000;fill-opacity:1;stroke:#0100ff;stroke-opacity:1"
         id="g6347"
         transform="matrix(0.18402351,-0.01668031,-0.01558738,-0.17196597,834.81687,771.68846)"><path
           style="color:#000000;font-style:normal;font-variant:normal;font-weight:normal;font-stretch:normal;font-size:medium;line-height:normal;font-family:sans-serif;font-variant-ligatures:normal;font-variant-position:normal;font-variant-caps:normal;font-variant-numeric:normal;font-variant-alternates:normal;font-feature-settings:normal;text-indent:0;text-align:start;text-decoration:none;text-decoration-line:none;text-decoration-style:solid;text-decoration-color:#000000;letter-spacing:normal;word-spacing:normal;text-transform:none;writing-mode:lr-tb;direction:ltr;text-orientation:mixed;dominant-baseline:auto;baseline-shift:baseline;text-anchor:start;white-space:normal;shape-padding:0;clip-rule:nonzero;display:inline;overflow:visible;visibility:visible;opacity:1;isolation:auto;mix-blend-mode:normal;color-interpolation:sRGB;color-interpolation-filters:linearRGB;solid-color:#000000;solid-opacity:1;vector-effect:none;fill:#010004;fill-opacity:1;fill-rule:nonzero;stroke:none;stroke-width:13.71329403;stroke-linecap:butt;stroke-linejoin:miter;stroke-miterlimit:4;stroke-dasharray:none;stroke-dashoffset:0;stroke-opacity:1;color-rendering:auto;image-rendering:auto;shape-rendering:auto;text-rendering:auto;enable-background:accumulate"
           d="m -752.53052,3737.665 c -13.0569,23.5541 -20.6504,50.6534 -20.6504,79.4786 0,52.8031 25.0519,99.7387 63.791,129.7812 -5.7174,0.6577 -11.3539,0.3512 -17.2344,-1.7363 h -0.01 v 0 c -5.4007,-1.9079 -11.7945,0.4302 -14.4785,4.8535 -2.6822,4.4202 -2.2013,10.4977 1.3984,14.7617 5.4928,6.5375 13.6492,11.337 21.5527,15.2031 7.8605,3.8451 14.9963,6.4647 20.0157,7.4336 28.6033,6.8204 58.5358,-1.8063 84.0957,-6.1914 1.6613,0.06 3.3344,0.1211 5.1152,0.1211 2.1463,0 4.2822,-0.076 6.418,-0.1797 25.6194,4.4055 55.652,13.0857 84.3359,6.2481 4.9897,-0.9709 12.1066,-3.5863 19.9668,-7.4297 7.9076,-3.8666 16.0834,-8.6704 21.5977,-15.1992 l 0.01,-0.01 0.01,-0.01 c 3.5793,-4.2686 4.0508,-10.3201 1.373,-14.7422 -2.6777,-4.422 -9.0761,-6.7626 -14.4746,-4.8593 h -0.01 -0.01 c -6.3287,2.2451 -12.3712,2.4134 -18.5351,1.5371 38.6294,-30.0413 63.5293,-76.9132 63.5293,-129.582 0,-28.0152 -7.1257,-54.3416 -19.5176,-77.4297 8.0486,-9.1049 15.2689,-18.9478 21.4531,-29.4883 m -18.9418,4.0992 c -4.8123,6.9548 -10.0652,13.5776 -15.8145,19.7461 l -3.4551,3.7071 2.5313,4.3906 c 12.7362,22.1028 20.0332,47.6277 20.0332,74.9727 0,53.3936 -27.767,100.1805 -69.6445,126.9023 l -12.1407,7.7461 13.666,4.541 c 10.709,3.5583 22.5322,6.1797 35.1036,3.5234 -3.5221,2.7126 -8.117,5.5446 -12.7871,7.8282 -7.0074,3.4264 -14.4096,5.8889 -16.6309,6.3144 l -0.1602,0.029 -0.1562,0.039 c -24.0652,5.8012 -52.7174,-1.943 -79.625,-6.5137 l -0.7578,-0.1289 -0.7696,0.043 c -2.2076,0.1223 -4.4001,0.1855 -6.5976,0.1855 -1.741,0 -3.5169,-0.063 -5.4238,-0.1328 l -0.7032,-0.025 -0.6933,0.1172 c -26.8461,4.5501 -55.399,12.2448 -79.3946,6.4551 l -0.164,-0.039 -0.1641,-0.031 c -2.2493,-0.4274 -9.6567,-2.8877 -16.6582,-6.3125 -4.674,-2.2864 -9.2671,-5.1214 -12.7754,-7.834 12.1629,2.5752 23.6533,0.2198 34.043,-3.1641 l 13.8516,-4.5117 -12.3047,-7.7988 c -42.1095,-26.6912 -70.1465,-73.6137 -70.1465,-127.2324 0,-28.1769 7.8146,-54.5317 21.2773,-77.084 m 134.4977,67.5306 c -9.7191,0 -17.9574,6.3181 -21.0938,15 h -1.4687 v 42.2246 38.2071 h 8.4433 c 12.382,0 22.5821,-10.1739 22.5821,-22.5625 v -72.2911 l -6.3399,-0.4804 c -0.5236,-0.04 -1.2438,-0.098 -2.123,-0.098 z m -5.25,15.5781 v 57.2911 c 0,2.9294 -1.4584,5.366 -3.5996,6.9687 v -22.6133 -28.5117 h -0.2383 l 0.293,-6.5488 c 0.1244,-2.7689 1.5212,-5.0585 3.5449,-6.586 z m -65.668,16.1758 c -18.0426,0 -32.7656,14.7665 -32.7656,32.7637 0,18.0209 14.7256,32.7852 32.7656,32.7852 14.1291,0 26.2564,-9.0431 30.8184,-21.6993 l -11.1621,-7.3066 c -0.6346,0.6001 -1.2774,0.8906 -2.1895,0.8906 -1.8105,0 -3.2031,-1.3765 -3.2031,-3.2246 0,-1.823 1.3662,-3.1777 3.2031,-3.1777 1.102,0 1.9123,0.4766 2.4766,1.2422 l 12.2734,-5.2481 c -2.6862,-15.3812 -16.1762,-27.0254 -32.2168,-27.0254 z m 130.168,0 c -18.0656,0 -32.8008,14.7649 -32.8008,32.7637 0,18.0225 14.7377,32.7852 32.8008,32.7852 14.1261,0 26.2213,-9.0519 30.8086,-21.6836 l -11.1192,-7.3575 c -0.6616,0.6165 -1.3972,0.9258 -2.2441,0.9258 -1.8489,0 -3.1895,-1.3477 -3.1895,-3.2246 0,-1.8519 1.3143,-3.1777 3.1895,-3.1777 1.0836,0 1.9165,0.4725 2.5215,1.2812 l 12.2422,-5.3086 c -2.7283,-15.3401 -16.1485,-27.0039 -32.209,-27.0039 z m -130.168,13.7129 c 4.7218,0 9.0125,1.6955 12.3164,4.5039 -6.7614,2.2095 -11.7656,8.5287 -11.7656,15.9922 0,6.4032 3.6843,11.9699 8.9902,14.8457 -2.8207,1.6668 -6.0145,2.7813 -9.541,2.7813 -10.648,0 -19.0527,-8.4292 -19.0527,-19.0723 0,-10.6028 8.4073,-19.0508 19.0527,-19.0508 z m 130.168,0 c 4.7397,0 9.023,1.6904 12.3183,4.5 -6.7723,2.2088 -11.7754,8.5473 -11.7754,15.9961 0,6.3877 3.6798,11.9651 8.9883,14.8457 -2.8176,1.6669 -6.0068,2.7813 -9.5312,2.7813 -10.687,0 -19.0879,-8.4308 -19.0879,-19.0723 0,-10.6012 8.4035,-19.0508 19.0879,-19.0508 z"
           id="path5573"
           inkscape:connector-curvature="0"
           sodipodi:nodetypes="cscccccccccscccccccccccsccccccscccccccccccscccccccccccsccccccsscccccsccccccsssccsssccssssccsssccsscscsssscscsss" /></g><g
         style="fill:none;stroke:#0100ff;stroke-opacity:1"
         id="g6571"
         transform="matrix(0.01575061,0.1240037,0.1240037,-0.01575061,560.09081,-236.62352)"><path
           transform="scale(1,-1)"
           style="fill:none;fill-opacity:1;stroke:#ff0001;stroke-width:14.04775715;stroke-miterlimit:4;stroke-dasharray:none;stroke-opacity:1"
           d="m 2724.1626,-1438.4137 a 144.15723,144.15721 0 0 1 -144.1572,144.1572 144.15723,144.15721 0 0 1 -144.1573,-144.1572 144.15723,144.15721 0 0 1 144.1573,-144.1572 144.15723,144.15721 0 0 1 144.1572,144.1572 z"
           id="path6557" /><path
           transform="scale(1,-1)"
           style="fill:none;fill-opacity:1;stroke:#ff0000;stroke-width:3.7878511;stroke-miterlimit:4;stroke-dasharray:none;stroke-opacity:1"
           d="m 2475.7124,-1574.6141 a 43.460403,43.460407 0 0 1 -43.4604,43.4604 43.460403,43.460407 0 0 1 -43.4605,-43.4604 43.460403,43.460407 0 0 1 43.4605,-43.4604 43.460403,43.460407 0 0 1 43.4604,43.4604 z"
           id="path6564" /><path
           transform="scale(1,-1)"
           style="fill:none;fill-opacity:1;stroke:#ff0000;stroke-width:3.7878511;stroke-miterlimit:4;stroke-dasharray:none;stroke-opacity:1"
           d="m 2777.0915,-1569.6884 a 43.460403,43.460407 0 0 1 -43.4604,43.4605 43.460403,43.460407 0 0 1 -43.4604,-43.4605 43.460403,43.460407 0 0 1 43.4604,-43.4604 43.460403,43.460407 0 0 1 43.4604,43.4604 z"
           id="ellipse6566" /></g></g><path
       inkscape:connector-curvature="0"
       id="path6678"
       d="m 642.703,235.03613 c -0.0759,-0.6833 0.143,-4.82506 0.48648,-9.20393 0.34347,-4.37887 0.3289,-8.33903 -0.0324,-8.80037 -0.36127,-0.46134 -2.30883,-0.66584 -4.32787,-0.45444 -2.01905,0.21143 -5.39147,0.18148 -7.49428,-0.0665 -3.24774,-0.38299 -3.79547,-0.20068 -3.63842,1.21106 0.10169,0.91406 -0.35683,2.65303 -1.01896,3.86437 -0.85996,1.57318 -0.86273,2.1937 -0.01,2.17184 9.86209,-0.25278 15.77532,-0.10278 15.83143,0.40159 0.0382,0.34312 -2.97995,0.68576 -6.70694,0.76142 -7.06383,0.14346 -10.51786,0.66516 -15.84645,2.39347 -4.03145,1.30758 -8.70456,-0.0148 -10.46385,-2.96096 -1.45962,-2.44435 -8.24664,-4.97405 -9.99305,-3.72469 -0.77307,0.55305 -0.80505,0.40626 -0.11638,-0.53421 0.69917,-0.95479 1.71496,-1.0993 3.85171,-0.54793 1.59617,0.41187 2.93807,0.61901 2.98201,0.46029 0.0439,-0.15874 0.67545,-1.81623 1.40334,-3.68337 1.27078,-3.25966 0.41438,-5.19541 -1.60044,-3.61755 -0.50904,0.39865 -0.97219,0.30544 -1.02921,-0.20713 -0.057,-0.51258 -1.58775,-1.36178 -3.40166,-1.88708 -1.81388,-0.52534 -2.82535,-1.17337 -2.2477,-1.44007 0.57764,-0.2667 2.95724,0.23497 5.28797,1.1148 2.33075,0.87985 5.63852,1.44388 7.35063,1.25342 1.71209,-0.19047 4.34956,0.42168 5.86102,1.36032 3.38184,2.10017 7.02225,1.95527 5.89006,-0.23445 -0.42798,-0.82774 -0.89847,-2.58649 -1.04552,-3.90836 -0.23232,-2.08831 -0.72758,-2.35219 -3.77781,-2.0129 -4.04159,0.44961 -10.21949,-1.14497 -13.41947,-3.46367 -1.21203,-0.87825 -3.62411,-2.15491 -5.36016,-2.83701 -1.73606,-0.68208 -2.46523,-1.33519 -1.62038,-1.45136 0.84485,-0.11613 2.0967,0.2372 2.78189,0.78522 1.49283,1.1939 -2.46821,-8.79053 -4.15859,-10.4825 -0.75451,-0.75521 -0.79715,-1.16903 -0.12807,-1.24347 1.83782,-0.20445 1.41587,-6.55618 -0.55621,-8.37273 -1.73592,-1.599 -1.71005,-1.6662 0.47851,-1.24314 1.27251,0.24598 2.26692,0.0273 2.20982,-0.48598 -0.0571,-0.51326 2.06958,-3.61021 4.72597,-6.8821 l 4.82978,-5.94889 -1.56058,-4.61475 c -1.2771,-3.77643 -2.37253,-5.06673 -6.03018,-7.10284 -5.67847,-3.16099 -9.35095,-5.6666 -9.43679,-6.43826 -0.0369,-0.33159 3.03572,1.32207 6.828,3.67472 l 6.89507,4.27761 -0.7795,-4.82191 c -0.42874,-2.65204 -0.40514,-6.4934 0.0524,-8.53634 0.82638,-3.68962 0.79988,-3.73522 -3.96846,-6.82996 -5.17055,-3.35578 -11.30504,-8.34695 -11.41745,-9.28951 -0.0385,-0.31935 2.47062,1.31211 5.57487,3.62557 3.10429,2.31346 6.10724,3.86949 6.67323,3.45786 0.566,-0.41163 0.73825,-0.34555 0.3828,0.14681 -0.79759,1.10477 1.41242,3.36683 3.10532,3.1785 0.68255,-0.0759 2.10699,-1.76186 3.16542,-3.7465 1.05846,-1.98463 2.62542,-4.1627 3.48219,-4.84012 2.53332,-2.00308 6.12154,2.82199 8.43352,11.34055 l 1.97786,7.2875 4.97136,2.0298 c 2.73425,1.11641 5.24627,1.99924 5.58226,1.96187 0.336,-0.0374 0.37081,-2.22623 0.0774,-4.86413 l -0.53353,-4.79616 8.80128,-4.54645 c 13.62993,-7.04075 15.85997,-8.03775 16.61957,-7.43023 0.38843,0.31065 1.59239,6.37604 2.67546,13.47863 l 1.96925,12.9138 8.54872,-0.99487 c 8.41741,-0.97956 16.36243,-2.92991 17.44397,-4.28221 0.30361,-0.37957 -0.49034,-3.28499 -1.7643,-6.45646 -1.27396,-3.17144 -2.41201,-6.62691 -2.52903,-7.67881 -0.20947,-1.88291 -0.1471,-1.88941 4.01923,-0.41896 4.96151,1.75108 8.32593,5.70064 9.89825,11.61972 l 1.12715,4.24326 2.05176,-2.40734 c 2.24582,-2.635 1.6742,-6.16393 -0.61408,-3.79121 -0.69827,0.72408 -1.54868,1.09329 -1.88973,0.82049 -0.34106,-0.27276 0.29678,-1.12617 1.41741,-1.89644 1.52079,-1.04531 1.80812,-1.9273 1.13297,-3.47761 -0.49754,-1.14241 -1.86485,-4.68694 -3.03847,-7.87674 -1.17363,-3.18979 -2.78412,-7.53838 -3.57888,-9.66354 -0.79476,-2.12516 -2.25768,-6.34067 -3.25095,-9.36777 -0.99326,-3.02713 -2.17852,-5.80058 -2.63391,-6.16325 -1.6907,-1.34641 -1.29769,-5.25396 0.66404,-6.60234 3.25055,-2.234277 12.56607,-2.032597 19.52651,0.42273 3.45598,1.21913 7.05502,2.04546 7.99788,1.83631 0.94287,-0.20915 1.66041,0.13583 1.59452,0.76666 -0.14652,1.40333 13.56253,7.98852 26.23581,12.60244 7.75269,2.8225 10.3129,3.29694 14.89654,2.76055 8.82627,-1.0329 10.68369,-4.10979 9.4073,-15.58355 -0.73813,-6.635067 -0.58405,-7.886457 1.25392,-10.184547 3.0918,-3.86579 7.90873,-5.4225 24.40532,-7.88713 8.16519,-1.2199 15.48901,-2.54108 16.27518,-2.93596 0.78616,-0.39488 2.20219,-0.89177 3.1467,-1.1042 0.94461,-0.21244 1.9689,-0.70076 2.27638,-1.08515 0.98902,-1.23667 -0.80537,-11.15045 -2.9032,-16.03969 -3.12486,-7.2829 -2.98928,-7.99418 2.0522,-10.76746 2.47704,-1.3626 5.33984,-3.10144 6.3618,-3.86406 1.02194,-0.76266 3.26952,-1.59382 4.99449,-1.84706 3.04268,-0.44668 3.16161,-0.32364 3.97932,4.11452 1.16443,6.32034 0.88633,7.87695 -1.459,8.13785 -1.60093,0.17809 -1.85398,0.67825 -1.21369,2.39892 0.62465,1.67883 0.24891,2.51783 -1.64949,3.68405 -2.05927,1.26503 -2.6722,1.27691 -3.77617,0.0731 -1.06424,-1.16053 -1.51114,0.55377 -2.32236,8.90971 -1.21264,12.49062 -3.35005,19.03334 -7.01657,21.47786 -1.49281,0.99527 -2.63472,2.52371 -2.53762,3.39655 0.12514,1.124887 -0.21668,1.344477 -1.17381,0.754157 -0.74269,-0.458067 -3.93179,-0.634767 -7.08687,-0.392687 -5.72912,0.439547 -5.7361,0.443857 -5.41096,3.366467 0.35286,3.17201 -0.93086,4.28758 -5.52177,4.79829 -2.45897,0.27355 -2.92566,-0.10028 -3.49959,-2.80325 -0.36943,-1.73983 -1.34114,-3.22272 -2.19764,-3.35371 -1.36477,-0.20874 -1.35543,-0.12484 0.084,0.75507 1.34235,0.82059 1.22724,0.94863 -0.67279,0.74833 -1.26068,-0.13283 -2.03207,0.0906 -1.71422,0.49646 0.31787,0.40587 -0.44052,1.57996 -1.68529,2.60906 -2.94532,2.43498 -3.84935,2.48319 -2.44316,0.13031 0.61997,-1.03744 -0.3435,-0.17919 -2.14093,1.90684 -1.79751,2.0862 -3.02112,4.1086 -2.71909,4.49427 0.30202,0.38566 0.25481,1.84181 -0.10491,3.23586 -0.35971,1.39405 -0.90669,6.73347 -1.21548,11.86535 -0.57393,9.53827 -1.69698,13.98652 -4.18159,16.56284 -0.7715,0.79994 -1.06307,1.88814 -0.64805,2.41815 0.41508,0.53002 0.25361,0.72608 -0.35868,0.43578 -0.61242,-0.29039 -2.63766,0.31767 -4.50057,1.35137 -3.89062,2.15875 -15.46458,3.67252 -25.5442,3.34094 -13.95174,-0.45894 -27.63383,1.72147 -27.73947,4.42066 -0.0254,0.65059 0.46825,6.1062 1.09714,12.12356 1.41423,13.53218 0.0935,17.9558 -8.60337,28.81529 -8.89211,11.10325 -23.99676,19.84512 -41.55648,24.05096 -4.99885,1.1973 -5.59672,1.62985 -6.71858,4.86102 -0.87325,2.51508 -2.65673,4.44088 -6.13129,6.62056 -5.70423,3.57842 -5.4816,3.50367 -5.65971,1.90061 z m 8.80522,-8.98143 c 1.91397,-1.98461 1.12498,-2.61283 -2.20173,-1.75315 -3.01982,0.78038 -4.48957,2.15995 -4.31349,4.0488 0.097,1.04164 4.94359,-0.66604 6.51523,-2.29566 z m 2.48411,-7.11544 c -0.31165,-2.80145 -0.56508,-2.95564 -4.19436,-2.55191 -3.53203,0.39292 -3.87174,0.6891 -3.96859,3.46 -0.10376,2.96861 -0.0184,3.02056 4.19436,2.55191 4.11551,-0.45784 4.28604,-0.6065 3.96859,-3.46 z m 18.87125,-2.21095 c 11.65578,-4.33499 22.30099,-11.71306 29.05433,-20.13727 5.45822,-6.80865 9.41287,-14.46638 8.9847,-17.39777 -0.10258,-0.70237 -0.85607,0.42153 -1.67437,2.49756 -2.45254,6.22201 -11.91485,16.24135 -20.24159,21.43318 -6.70623,4.18144 -18.25519,8.75631 -29.55525,11.70772 -3.06994,0.80183 -3.57395,1.35261 -3.66673,4.00711 l -0.10757,3.07754 4.98,-1.24652 c 2.73902,-0.68558 8.24093,-2.45928 12.22648,-3.94155 z m -52.77764,7.3873 c -0.36702,-0.29349 -1.22814,-0.23345 -1.91365,0.1335 -0.75755,0.40547 -0.49587,0.61474 0.66729,0.53364 1.05248,-0.0734 1.61336,-0.3736 1.24638,-0.66712 z m 4.08348,-3.30379 c 0.96843,-2.95457 -0.0781,-5.58941 -2.12948,-5.3612 -2.02609,0.22539 -3.37408,6.51329 -1.584,7.3887 2.1468,1.04985 2.82644,0.67877 3.71348,-2.0275 z m 49.37888,-11.59924 c 16.42801,-6.1161 27.46006,-14.65995 33.25811,-25.75697 3.86787,-7.40282 4.6502,-12.25675 0.92029,-5.70992 -1.51478,2.65878 -3.85293,6.16665 -5.19588,7.79526 -1.34295,1.62864 -2.22953,3.19878 -1.97012,3.48924 0.25939,0.29044 0.20234,0.38064 -0.12674,0.20044 -0.32899,-0.18046 -2.97335,1.48832 -5.87608,3.70785 -5.38865,4.12038 -16.37288,9.44105 -23.81222,11.53445 -3.19395,0.89876 -4.09786,1.6033 -3.93501,3.06715 0.11627,1.0452 -0.23584,1.95014 -0.78246,2.01095 -0.54663,0.0608 -1.08647,-0.72191 -1.19966,-1.73936 -0.16289,-1.46422 -0.74206,-1.68422 -2.77783,-1.05522 -1.41462,0.43709 -3.34566,1.762 -4.29121,2.94425 -1.34317,1.67935 -2.79477,2.19427 -6.6369,2.3541 -4.21764,0.17544 -4.88892,0.46278 -4.71534,2.01837 0.18692,1.67511 0.89951,1.68257 9.31852,0.0973 5.01386,-0.94406 13.03402,-3.17511 17.82259,-4.95788 z m -29.06435,2.98663 c 0.12155,-1.53535 0.10823,-2.88376 -0.0296,-2.99647 -0.36741,-0.30008 -16.14216,-1.49268 -17.602,-1.33048 -0.68329,0.0759 -1.12748,1.17065 -0.98708,2.43274 0.54103,4.86336 3.29606,5.87311 13.77613,5.04914 4.29683,-0.33785 4.63711,-0.55952 4.84256,-3.15493 z m 5.49244,-8.49805 c 2.88525,-0.91845 7.15196,0.0225 8.71515,1.92196 0.41123,0.49969 1.88124,0.48614 3.2667,-0.0301 1.94575,-0.72506 2.45,-1.55631 2.21587,-3.65274 l -0.30294,-2.7141 -10.20982,0.91867 c -5.61542,0.50527 -13.18799,0.60304 -16.82796,0.21727 -6.58777,-0.69821 -9.84064,0.3213 -8.10336,2.53972 0.41506,0.53002 0.25699,0.72767 -0.35127,0.43924 -0.6083,-0.2884 -1.55595,0.15951 -2.10593,0.9954 -1.25121,1.90172 -0.72839,2.10902 6.77374,2.68583 9.55881,0.73491 11.032,0.62657 12.54054,-0.9223 0.7776,-0.79835 2.75286,-1.87785 4.38951,-2.39885 z m 30.05066,-3.98076 c 14.22893,-6.30833 23.63113,-14.77232 27.828,-25.0512 1.20521,-2.95172 1.93013,-5.57561 1.61098,-5.83087 -0.31894,-0.25554 -1.10682,0.88169 -1.75035,2.52653 -1.95136,4.98763 -12.79215,16.63898 -16.95471,18.22239 -0.37776,0.1437 -1.86404,1.73315 -3.3028,3.5321 -2.61323,3.26741 -6.37206,4.57107 -8.43124,2.92417 -0.71779,-0.57413 -3.15964,-0.26572 -7.14405,0.90225 -5.80637,1.70206 -6.04019,1.89368 -5.72856,4.69493 0.31406,2.82313 0.44677,2.88584 3.98246,1.8817 2.01167,-0.57132 6.46228,-2.28222 9.89027,-3.802 z m -59.15743,1.85634 c -0.25627,-2.30353 -1.95793,-4.09275 -4.98074,-5.237 -3.24109,-1.22688 -3.25948,-1.21976 -1.32994,0.51594 1.97594,1.77739 2.79804,4.02336 1.52457,4.16502 -1.17219,0.13041 -6.85267,-4.57605 -6.98765,-5.78951 -0.0701,-0.62991 -1.30219,-1.53037 -2.73802,-2.00101 -3.08582,-1.01144 -3.20927,-0.0508 -0.51311,3.99314 1.02859,1.54274 3.39909,3.51875 5.26777,4.39112 3.48028,1.6247 9.93926,1.59974 9.75711,-0.0377 z m 42.49747,-6.90174 -0.34043,-3.06013 -7.1549,1.25688 c -3.93521,0.69128 -8.34813,1.72353 -9.8065,2.29388 -2.00172,0.78283 -2.69095,0.6833 -2.81215,-0.40612 -0.0997,-0.89607 -2.22424,-1.77762 -5.6049,-2.32549 l -5.44434,-0.88238 -0.65633,3.3664 c -0.36097,1.85151 -0.30733,3.09309 0.1192,2.75907 0.42653,-0.33403 0.82121,-0.1966 0.87706,0.30541 0.1645,1.47879 9.99673,1.83307 20.96202,0.75531 l 10.20168,-1.00271 z m 8.49584,1.09452 c 3.60048,-1.0885 6.29566,-2.62075 7.70135,-4.37833 1.18935,-1.48708 3.07725,-2.80556 4.19535,-2.92994 1.1181,-0.12438 1.96496,-0.83715 1.88188,-1.58391 -0.12647,-1.13677 -1.05822,-1.04871 -5.72527,0.54113 -3.06582,1.04435 -7.66596,2.42877 -10.22253,3.07649 -4.3451,1.10083 -4.6271,1.36816 -4.32338,4.09835 0.17871,1.6064 0.46639,2.90498 0.63932,2.88574 0.17294,-0.0193 2.8069,-0.78851 5.85328,-1.70951 z m -45.69943,4.23527 c 0.248,-0.523 -0.2459,-1.133 -1.09758,-1.35557 -0.94059,-0.2458 -1.48476,0.16819 -1.38612,1.05494 0.17882,1.60747 1.77254,1.80038 2.4837,0.30063 z m 1.49836,-5.4024 c 0.38342,-3.62387 -0.37295,-4.46286 -4.51791,-5.01129 -2.55167,-0.33762 -2.8547,-0.15882 -2.12441,1.25359 0.46849,0.90606 0.96845,2.69612 1.11105,3.9779 0.22845,2.05366 1.22898,2.69445 4.51818,2.89374 0.37358,0.0226 0.82945,-1.37867 1.01309,-3.11394 z m 63.14842,-7.70043 c 1.67454,0.37975 8.34538,-5.15634 12.0444,-9.99554 5.24452,-6.86115 7.80194,-15.65162 4.41904,-15.18937 -0.42593,0.0582 -2.97548,2.70561 -5.66565,5.88315 -2.69017,3.17753 -5.00374,5.70958 -5.14125,5.62681 -0.13769,-0.0825 -1.66735,0.63593 -3.39965,1.5971 -1.73228,0.96119 -4.33438,2.18909 -5.78245,2.72869 -2.14054,0.79763 -2.46704,1.36413 -1.74616,3.02953 1.25712,2.90421 1.1045,2.9016 5.91462,0.10093 6.23266,-3.62892 9.43592,-6.73723 13.26704,-12.87378 3.78735,-6.06645 4.66783,-5.91998 1.34912,0.22442 -2.62697,4.86316 -7.08871,9.30925 -13.4534,13.40512 -3.55522,2.28789 -4.72948,3.66456 -4.74099,5.55821 -0.011,1.8133 0.2002,2.10719 0.75519,1.05107 0.42373,-0.80633 1.40479,-1.32221 2.18009,-1.14637 z m -72.61682,5.08006 c -1.6467,-5.46552 -4.5413,-6.51792 -5.68941,-2.06855 -0.99487,3.85546 -0.7991,4.27624 2.34683,5.04407 4.36698,1.06585 4.51933,0.93022 3.34258,-2.97552 z m 44.40841,-4.18558 c -0.30536,-2.74498 -0.60775,-2.9509 -3.81022,-2.59464 -1.9132,0.21282 -3.43818,0.74988 -3.38883,1.19343 0.0493,0.44355 -0.7133,1.88672 -1.69479,3.20702 l -1.78448,2.40058 5.50499,-0.6124 c 5.45408,-0.60674 5.50194,-0.63994 5.17331,-3.59401 z m 16.30003,-1.20367 c 4.48116,-1.52656 5.00997,-2.01062 5.01931,-4.59457 0.009,-2.58927 -0.22216,-2.7974 -2.23602,-2.01066 -1.23554,0.48265 -2.96312,0.96347 -3.83907,1.06847 -0.8759,0.1055 -2.6747,1.44323 -3.99723,2.97383 -1.59847,1.84993 -3.55363,2.91075 -5.83195,3.16419 -2.44371,0.27185 -3.37779,0.8266 -3.25471,1.93297 0.18652,1.67671 3.54618,1.07456 14.13967,-2.53423 z m -36.34672,1.89293 c -0.21884,-1.96715 -0.95279,-3.59573 -1.66992,-3.70539 -0.70371,-0.10762 -3.6363,-0.60988 -6.51687,-1.11615 l -5.2374,-0.92051 1.64794,3.92077 c 1.52646,3.6317 2.01643,3.96607 6.64573,4.53545 2.74876,0.3381 5.11549,0.6554 5.25936,0.70514 0.14386,0.0497 0.0859,-1.48896 -0.12884,-3.41931 z m 7.78847,0.49901 c 1.13292,-1.32929 2.01879,-2.78615 1.96858,-3.2375 -0.11392,-1.02398 -6.08041,-0.43616 -5.98516,0.58965 0.0377,0.41086 -0.0884,1.7832 -0.28116,3.04979 -0.45604,2.99611 1.56253,2.80733 4.29774,-0.40194 z M 607.74318,188.765 c 0.30947,-3.56448 -0.38259,-4.88495 -2.44026,-4.65604 -1.59909,0.17789 -2.48785,4.52418 -1.36798,6.69002 1.27244,2.46096 3.52231,1.2593 3.80824,-2.03398 z m 62.47796,-4.83467 c 1.22989,-1.00381 1.21865,-1.10479 -0.10109,-0.90879 -0.81661,0.12122 -2.33646,0.70434 -3.37745,1.29576 l -1.89272,1.07528 1.99383,-0.16646 c 1.09658,-0.0916 2.61644,-0.67466 3.37743,-1.29577 z m -43.8162,4.09203 c -0.20357,-1.82992 -3.83129,-4.82851 -5.60309,-4.63142 -2.47759,0.27561 -2.29418,1.73557 0.49859,3.9692 2.18865,1.75041 5.27004,2.15017 5.10452,0.6622 z m 37.02436,-6.35498 c 1.86105,-2.5807 8.28266,-3.68088 10.27418,-1.76024 1.01584,0.9797 2.12829,0.93846 5.13287,-0.19032 3.84188,-1.44331 4.4322,-2.5871 2.54851,-4.93788 -0.83687,-1.04439 -2.21312,-0.91339 -8.12678,0.7736 -6.65106,1.89734 -18.32362,2.92836 -24.16414,2.13438 -1.75173,-0.23814 -2.60353,0.15974 -2.91798,1.36298 -0.34121,1.30561 -0.0267,1.51387 1.35726,0.89892 2.38909,-1.06151 7.02348,0.52878 8.00979,2.74856 1.07032,2.40893 5.85719,1.78373 7.88629,-1.03 z m 8.40447,-0.5764 c 0.89192,-0.95266 -4.55862,0.27459 -5.80769,1.30769 -0.97238,0.80423 -0.37191,0.83917 2.02545,0.11782 1.87414,-0.56389 3.57614,-1.20538 3.78224,-1.42551 z m -21.51627,2.38119 c -0.70317,-0.19738 -2.04674,-0.0647 -2.9857,0.29492 -0.93898,0.35957 -0.36362,0.52108 1.27848,0.35889 1.64215,-0.16215 2.41038,-0.45636 1.70721,-0.65376 z m -7.69574,-3.43255 c -0.28436,-2.5562 -0.87656,-2.90159 -7.26285,-4.23585 -7.99837,-1.67105 -20.40131,-5.79672 -19.77624,-6.57827 0.23225,-0.29115 2.78359,0.35499 5.66884,1.43518 4.92901,1.84537 5.20182,1.84918 4.51607,0.063 -0.40142,-1.04558 -0.24161,-2.64303 0.35503,-3.54992 0.59669,-0.90688 0.89812,-1.73036 0.6698,-1.82996 -5.80009,-2.53003 -7.59933,-2.86281 -8.79205,-1.62607 -0.7071,0.73321 -0.94046,2.00071 -0.51856,2.81668 0.42191,0.81598 0.41382,1.20104 -0.018,0.8557 -1.22884,-0.98284 -3.07864,1.50347 -2.49621,3.35513 2.12127,6.74378 2.30023,7.00184 4.67294,6.7379 1.31421,-0.14621 3.88431,0.73226 5.71132,1.95217 1.82702,1.2199 3.74687,1.88515 4.26635,1.47834 0.51945,-0.40682 0.99078,-0.32329 1.04739,0.1856 0.11448,1.02895 10.46425,3.02143 11.56713,2.22684 0.38426,-0.27685 0.55931,-1.75576 0.38902,-3.28647 z m 50.26038,-6.7763 c 3.35791,-2.08693 7.71058,-5.85377 9.67261,-8.37075 1.96202,-2.51697 3.92597,-4.51468 4.36433,-4.43933 0.43837,0.0753 0.2475,-1.19952 -0.42413,-2.83304 -0.67164,-1.63352 -1.21669,-3.25915 -1.21123,-3.61252 0.0319,-2.06627 -0.62978,-2.18441 -2.2132,-0.39515 -0.98323,1.11098 -1.68808,2.91453 -1.5665,4.00774 0.21413,1.92478 0.2777,1.92377 2.00875,-0.0323 0.98315,-1.11104 1.84019,-1.54749 1.90443,-0.96999 0.0643,0.57751 -1.34504,2.50244 -3.13195,4.2775 -1.78684,1.7751 -4.50646,4.80099 -6.04362,6.72416 -2.38534,2.98443 -3.4889,3.5629 -7.5321,3.94847 -5.46766,0.52143 -6.09569,1.00109 -4.88333,3.72967 1.15785,2.60588 1.83384,2.45403 9.05594,-2.0345 z m -79.70931,4.84927 c -0.006,-0.32559 -1.16626,-0.97085 -2.57915,-1.43401 -2.28243,-0.74812 -2.76195,-0.49539 -4.29921,2.26592 -1.61592,2.90266 -1.6096,3.15891 0.0958,3.87878 1.35545,0.57215 2.46616,0.14071 4.3094,-1.67395 1.36582,-1.3446 2.47872,-2.71113 2.47313,-3.03672 z m 59.25457,-3.62185 c 6.63121,-1.61109 8.53279,-2.41892 8.02152,-3.40776 -0.36859,-0.71285 -0.23698,-1.34427 0.29253,-1.40318 0.52947,-0.0589 1.01243,0.34015 1.07344,0.88654 0.25473,2.28975 4.10057,0.38646 5.24516,-2.59584 0.66559,-1.73422 1.72045,-3.2099 2.34415,-3.27928 0.62369,-0.0694 0.9213,-0.29625 0.66137,-0.50414 -0.26019,-0.20762 -3.52494,0.62889 -7.25556,1.85954 -7.97028,2.62924 -21.06998,4.5651 -29.90285,4.41903 -6.18261,-0.10225 -6.27421,-0.0671 -6.62932,2.54513 -0.19806,1.45685 -0.11111,2.84795 0.19322,3.09133 0.50613,0.40485 10.72156,0.79643 15.33044,0.5877 1.06394,-0.0482 5.84569,-1.03788 10.62611,-2.19931 z m -30.04121,-0.12333 c 1.3002,-4.97518 -2.50154,-7.51852 -6.27434,-4.19748 -1.04146,0.91675 -2.68852,1.75525 -3.66014,1.86334 -3.29113,0.36613 -1.60803,1.83022 3.31126,2.88039 6.32181,1.34957 6.12351,1.36593 6.62322,-0.54624 z m -30.07191,0.1576 c -0.28955,-0.93623 -0.58306,-1.89969 -0.65224,-2.14101 -0.0692,-0.24134 -0.61933,0.17829 -1.22254,0.93251 -0.87349,1.09212 -0.77371,1.52855 0.49001,2.14366 2.05439,0.99992 1.99553,1.03969 1.38477,-0.93516 z m 67.0747,-8.70092 c 10.14944,-3.04026 13.45102,-4.68461 13.23867,-6.59346 -0.27419,-2.4648 -1.70789,-2.94776 -4.49896,-1.51552 -1.29392,0.66397 -6.64273,2.17486 -11.8862,3.35752 -10.82413,2.44138 -22.48682,2.70173 -32.68861,0.72975 l -6.22421,-1.20312 0.70817,3.60611 c 0.65245,3.32225 0.9674,3.59032 4.00103,3.4056 1.81106,-0.11032 3.88144,0.1853 4.60082,0.65686 0.71939,0.47159 2.67153,0.90432 4.33808,0.96167 5.98754,0.20606 23.27057,-1.8655 28.41119,-3.40538 z m 20.80193,-4.14764 c 1.16741,-1.25196 1.2555,-1.98684 0.34347,-2.86641 -1.83794,-1.77252 -5.72404,1.6637 -4.7502,4.20027 0.73683,1.91922 1.62347,1.65085 4.40673,-1.33386 z m -6.45526,0.91907 c -0.36702,-0.29349 -1.22815,-0.23346 -1.91364,0.1335 -0.75756,0.40546 -0.49588,0.61475 0.66728,0.53363 1.05249,-0.0734 1.61337,-0.37358 1.24637,-0.6671 z m 4.18779,-5.24639 c 1.03272,-0.94708 1.37821,-2.15969 0.88632,-3.11101 -0.67299,-1.30158 -1.20073,-1.32328 -3.1966,-0.13146 -2.32515,1.38843 -2.89075,3.1513 -1.39493,4.34762 1.06987,0.85562 1.80673,0.63585 3.70521,-1.10515 z m -14.23553,0.55035 c 3.61683,-1.12665 6.75418,-2.27115 6.97188,-2.54333 0.21768,-0.27221 0.0186,-1.47751 -0.44252,-2.67849 -0.58323,-1.51916 -1.3065,-1.94152 -2.37699,-1.38798 -2.11831,1.09526 -23.68145,5.35445 -25.15656,4.96894 -0.65662,-0.17159 -1.97419,0.40361 -2.92792,1.27822 -2.30466,2.11354 -7.71249,2.63752 -9.49354,0.91987 -0.78409,-0.75626 -1.15598,-1.71218 -0.82634,-2.12434 0.32964,-0.41218 -2.5453,-1.3976 -6.38879,-2.1898 -3.84346,-0.7922 -7.12581,-1.27322 -7.29408,-1.06891 -0.16848,0.20416 0.1478,1.70945 0.70247,3.34474 0.91035,2.68405 1.67443,3.09033 7.85513,4.17675 3.76567,0.66194 7.76284,1.29895 8.88261,1.41559 4.54659,0.47354 24.34501,-2.19565 30.49465,-4.11127 z m -48.16163,3.73008 c -0.14085,-1.23 -3.70447,-2.84406 -13.90104,-6.29518 -0.36596,-0.12382 -0.98883,1.19082 -1.38431,2.92142 -0.68382,2.99273 -0.53251,3.21747 3.09444,4.59606 4.6791,1.77848 12.44459,0.99989 12.19091,-1.2223 z m 99.39782,-10.61873 c 9.52133,-0.0501 19.48239,-0.59643 22.13569,-1.21399 5.92297,-1.37855 11.19582,-4.52836 12.33133,-7.36629 0.77518,-1.93741 0.57624,-1.88111 -2.22852,0.63059 -2.52166,2.25818 -4.55836,2.98669 -11.24012,4.02051 -4.48825,0.69443 -8.11224,1.69589 -8.05333,2.22545 0.0589,0.5296 -0.61298,0.38695 -1.49312,-0.31695 -1.86763,-1.49366 -17.01794,-2.2419 -19.85657,-0.98065 -1.06554,0.47345 -2.57516,0.44118 -3.35473,-0.0717 -1.73753,-1.1432 -6.66683,-0.30137 -6.53048,1.11527 0.0548,0.56496 -0.34434,0.47441 -0.88621,-0.20144 -0.55951,-0.69787 -2.21083,-0.94886 -3.82236,-0.58095 -2.37988,0.54332 -2.83015,1.15724 -2.79317,3.80832 l 0.0441,3.16057 4.21799,-2.06878 c 3.88817,-1.907 5.57165,-2.0759 21.52948,-2.15993 z m -30.36954,-2.14725 c -0.14486,-1.3022 -0.82592,-1.10309 -3.34205,0.97707 -1.54478,1.27712 -1.94667,2.3889 -1.38879,3.84203 0.76382,1.9895 0.83987,1.96467 2.81016,-0.91791 1.11378,-1.62951 1.9781,-3.38505 1.92068,-3.90119 z m -9.51322,4.08242 c 2.28123,-1.568 1.23605,-3.10552 -1.87573,-2.75936 -1.84365,0.2051 -2.17756,0.66431 -1.59203,2.18944 0.85679,2.23166 1.01283,2.25733 3.46776,0.56992 z m 68.62102,-8.93665 c 1.67718,-0.93094 3.57737,-2.49566 4.22263,-3.47717 0.64528,-0.98149 1.47753,-1.64024 1.8495,-1.46385 0.37193,0.17642 0.51165,-1.15923 0.31044,-2.96804 -0.20122,-1.80879 -0.67823,-3.04412 -1.06,-2.74512 -0.38179,0.29898 -0.74813,0.0585 -0.81407,-0.53448 -0.0747,-0.67175 -1.179,-0.37194 -2.93,0.79549 -1.54556,1.03045 -2.76163,2.30929 -2.70238,2.84188 0.14938,1.34276 0.8163,1.14369 3.44267,-1.02762 1.24914,-1.03268 2.30113,-1.60818 2.33776,-1.27886 0.0366,0.32933 -1.6292,1.95341 -3.70235,3.60866 -2.81142,2.24521 -4.52463,2.92995 -6.74334,2.69519 -2.00773,-0.21243 -2.93095,0.076 -2.84068,0.88738 0.21604,1.94212 8.76911,-0.48815 12.04941,-3.42372 l 2.87873,-2.57621 -2.26144,2.95019 c -1.74048,2.27055 -3.70789,3.32137 -8.54018,4.56148 -3.4533,0.88623 -7.31673,1.4702 -8.58538,1.29773 -1.67836,-0.22816 -2.25823,0.12186 -2.12884,1.28497 0.14375,1.29216 1.32694,1.47072 6.17297,0.93163 3.29732,-0.36681 7.36738,-1.42861 9.04457,-2.35956 z m -151.62367,15.51694 c -1.35766,-1.3354 -1.32542,-1.4682 0.25916,-1.06734 1.26183,0.3192 2.2335,-0.37803 3.20951,-2.30297 1.33249,-2.62816 1.2992,-2.81979 -0.69331,-3.98894 -5.68725,-3.33712 -5.95602,-3.20759 -5.10563,2.46091 0.87061,5.80309 1.26413,6.71458 2.82395,6.54106 0.62528,-0.0696 0.42364,-0.74043 -0.49368,-1.64272 z m 22.43702,-3.89525 c -0.81102,-3.51605 -1.03862,-3.71407 -7.49709,-6.52337 l -4.89262,-2.12818 -0.35396,2.32652 c -0.65392,4.29795 -0.11995,4.89016 6.44327,7.14623 3.59624,1.23618 6.64171,2.23649 6.76774,2.2229 0.12608,-0.0136 -0.0843,-1.38342 -0.46734,-3.0441 z m 110.55763,-10.71133 c -0.0912,-0.81994 -0.65211,-1.45283 -1.24646,-1.40643 -0.59436,0.0464 -3.72239,-0.24434 -6.95121,-0.64611 -3.22882,-0.40175 -5.59608,-0.37996 -5.26059,0.0485 0.33551,0.42841 0.18671,1.1104 -0.33064,1.51556 -0.51735,0.40513 -1.0182,0.0394 -1.113,-0.81283 -0.0948,-0.85221 -0.6196,-1.49972 -1.16623,-1.43891 -0.54663,0.0608 -0.89868,0.96602 -0.7824,2.01153 0.17437,1.56751 1.31969,1.9471 6.52929,2.16395 9.35952,0.38959 10.50651,0.23009 10.32125,-1.43522 z m -92.98918,7.29406 c 0.9718,-0.9206 3.02314,-1.81356 4.55855,-1.98438 2.78541,-0.30986 2.78995,-0.32556 2.03013,-7.01747 -1.15487,-10.17159 -1.13088,-10.16413 -13.17187,-4.08793 -10.15935,5.12669 -10.33105,5.27058 -10.25117,8.59051 0.0786,3.26799 0.27388,3.42508 6.07792,4.88999 7.22019,1.82232 8.46816,1.777 10.75644,-0.39072 z m 61.90407,-6.50522 c 4.4255,-2.41468 6.05866,-2.6553 6.25159,-0.92108 0.13067,1.17474 0.75514,1.37491 2.34757,0.75244 1.19325,-0.46643 2.72792,-0.91634 3.41037,-0.99983 0.68251,-0.083 1.16925,-0.79523 1.08176,-1.58168 -0.1067,-0.95913 -1.73527,-1.45436 -4.94664,-1.50417 -2.63315,-0.0409 -5.90081,-0.11233 -7.26146,-0.15885 -4.03153,-0.13782 -6.82245,1.77324 -5.94134,4.06826 0.87987,2.29185 1.42212,2.32883 5.05815,0.34491 z m 39.23089,-4.21043 c 0.53419,-0.0594 0.64508,-0.52455 0.24645,-1.03359 -1.18131,-1.50843 -4.60053,-0.65404 -4.40532,1.1008 0.1166,1.04805 0.69508,1.32962 1.68268,0.81896 0.82773,-0.42799 1.94203,-0.82678 2.4762,-0.8862 z m -8.21328,-0.20013 c -0.0709,-0.63749 0.64007,-0.90311 1.69054,-0.63154 1.06042,0.27413 1.36083,0.15885 0.72373,-0.27772 -2.19823,-1.50635 -15.13521,-2.76285 -16.09469,-1.56319 -1.30715,1.63435 -0.31429,2.1306 5.85674,2.92731 7.08202,0.91432 7.97025,0.86268 7.82368,-0.45486 z m -49.78138,4.73783 c -0.0549,-0.49316 -1.49352,-1.2151 -3.19698,-1.60435 -3.66068,-0.83646 -4.15641,0.88563 -0.54429,1.89075 3.0761,0.85596 3.86167,0.79583 3.74127,-0.2864 z m 65.73067,-8.34203 c 0.40546,-0.0863 0.69972,-0.4922 0.65389,-0.90218 -0.0458,-0.40994 -1.65799,-0.65699 -3.58266,-0.54898 -3.29215,0.18474 -4.23456,1.01195 -2.6221,2.30157 0.3882,0.31059 1.63015,0.28147 2.75978,-0.0645 1.12963,-0.34602 2.38562,-0.69968 2.79106,-0.7859 z m -31.11538,2.94296 c -0.0268,-0.24106 -0.52675,-0.66495 -1.11121,-0.94168 -0.5842,-0.27704 -1.0095,-0.03 -0.94511,0.54884 0.0644,0.57889 0.56434,1.00277 1.1112,0.94167 0.54663,-0.0608 0.97193,-0.30778 0.94511,-0.54883 z m 23.79492,-3.17438 c -0.0606,-0.54491 -1.36918,-1.11468 -2.90783,-1.26625 -1.53868,-0.15154 -10.19969,-1.69284 -19.24668,-3.42511 -9.04701,-1.73228 -18.30084,-3.12651 -20.5641,-3.0983 -3.83905,0.0479 -4.06866,0.2014 -3.42355,2.28927 0.58026,1.878 1.52769,2.25437 5.89028,2.3399 9.0876,0.17819 18.25872,1.73871 16.90725,2.87687 -0.80931,0.68156 -0.40184,0.75878 1.20268,0.22751 1.33436,-0.44156 5.62775,-0.34289 9.54086,0.21925 8.55332,1.22873 12.74988,1.1744 12.60109,-0.16314 z m -26.788,1.04386 c 0.23852,-1.63359 -0.60309,-2.01911 -5.44237,-2.49298 -3.1485,-0.30831 -7.29835,-0.46272 -9.22193,-0.34314 -3.13318,0.19478 -3.49843,0.50954 -3.5073,3.02233 -0.009,2.47283 0.25628,2.71351 2.23849,2.03297 1.23662,-0.42457 4.75088,-0.66218 7.80946,-0.52804 3.05858,0.13414 6.07416,0.24329 6.70127,0.24257 0.62712,-7.5e-4 1.26718,-0.87089 1.42238,-1.93371 z m -109.27079,11.4591 c 0.90402,-3.45923 -0.0957,-5.34592 -3.75132,-7.07936 -2.07546,-0.98417 -3.54903,-2.07013 -3.27459,-2.41327 0.27441,-0.34317 1.92549,0.20399 3.66903,1.21585 4.1253,2.39416 4.31101,2.31907 3.87856,-1.56834 -0.50546,-4.54374 -3.11079,-7.24956 -5.33698,-5.54281 -2.05794,1.57779 -3.65836,5.82702 -3.83033,10.16982 -0.11165,2.8197 0.34555,3.5014 3.39818,5.06699 4.30764,2.20924 4.7066,2.22072 5.24745,0.15112 z m 76.10838,-9.31246 c -1.57461,-1.51858 -7.84913,-3.16406 -6.75951,-1.77267 0.39396,0.50309 2.20476,1.37849 4.024,1.94536 4.28463,1.33509 4.29807,1.33425 2.73551,-0.17269 z m 12.16812,-1.264 c 0.19862,-0.75996 -0.22443,-1.31659 -0.94018,-1.23697 -0.71572,0.0796 -1.00613,0.71562 -0.64537,1.41336 0.36076,0.69772 0.78385,1.25435 0.9402,1.23695 0.15632,-0.0173 0.44681,-0.65334 0.64535,-1.41334 z m 49.38856,-5.1051 c 1.03178,-0.82566 0.65166,-1.13984 -1.66208,-1.37396 -3.44189,-0.3482 -28.63242,-6.04137 -32.26699,-7.29247 -1.90333,-0.65517 -2.58339,-0.50251 -3.17533,0.71282 -0.41428,0.85062 -0.72666,1.76998 -0.69409,2.04305 0.0895,0.75062 32.63895,7.0816 35.95919,6.99418 0.2759,-0.007 1.10358,-0.49491 1.83932,-1.08365 z m 13.56903,-2.86082 c 1.48266,-0.23899 1.85586,-0.65287 1.11957,-1.24175 -1.5717,-1.257 -1.54901,-2.70764 0.031,-1.98265 1.05719,0.4851 1.04142,0.32747 -0.0776,-0.77918 -0.77179,-0.76305 -1.11431,-1.80675 -0.7611,-2.31937 0.35326,-0.5126 -0.60374,0.0781 -2.12655,1.3129 -3.73506,3.02841 -12.8737,3.88453 -20.31952,1.90356 -3.08255,-0.82012 -5.9883,-1.19066 -6.45722,-0.82343 -0.46892,0.36723 -1.85874,-0.1971 -3.08848,-1.25407 -1.84203,-1.58322 -2.47641,-1.67237 -3.60123,-0.50604 -1.15438,1.19698 -0.35266,1.67114 5.189,3.06896 8.22508,2.07479 16.9829,3.36467 20.32207,2.99319 1.40946,-0.15679 4.23622,-1.36456 6.28167,-2.68394 3.70205,-2.38793 3.7093,-2.38873 1.59085,-0.17698 -1.17051,1.22205 -2.74949,2.29102 -3.50887,2.3755 -0.75938,0.0845 -1.32515,0.65299 -1.25724,1.26337 0.0774,0.6963 0.92756,0.75555 2.28157,0.15908 1.18696,-0.5229 3.15891,-1.11203 4.38212,-1.30916 z m -64.61725,4.0113 c 1.53893,0.72973 0.94875,-1.09521 -0.97731,-3.02214 -1.68768,-1.68841 -1.71879,-1.66313 -0.78959,0.64226 0.89692,2.22532 0.82457,2.30658 -0.99454,1.11684 -1.84934,-1.20953 -1.87013,-1.14921 -0.36264,1.05171 0.95589,1.39556 1.71054,1.81504 1.8759,1.04279 0.15219,-0.71065 0.71386,-1.08478 1.24817,-0.83141 z m 62.33395,-10.66396 c 3.39767,-3.03798 3.15838,-3.44 -0.57694,-0.96933 -4.0706,2.69244 -10.71659,3.20218 -17.91702,1.37424 -3.57161,-0.90672 -6.10515,-1.0918 -6.40113,-0.46765 -0.99947,2.10778 13.79043,4.6446 18.96136,3.25232 1.86241,-0.50147 4.53259,-1.93677 5.93373,-3.18958 z m -60.83721,6.0689 c -1.56197,-2.27247 -1.75939,-3.28327 -0.52711,-2.69894 0.49981,0.23703 0.57474,-0.65016 0.16649,-1.97148 -0.40827,-1.32131 -1.16755,-2.35509 -1.68728,-2.29727 -0.51974,0.0578 -0.55613,1.08061 -0.0809,2.27288 0.79641,1.99787 0.739,2.04367 -0.73271,0.58459 -0.87827,-0.87073 -1.88301,-1.5513 -2.23268,-1.51242 -1.17193,0.13037 -0.47438,1.66816 1.54738,3.41128 1.10206,0.95019 2.42134,2.53831 2.93171,3.52918 0.51036,0.99087 1.14951,1.52451 1.42009,1.18618 0.27078,-0.33869 -0.0916,-1.46529 -0.80529,-2.50369 z m -6.05092,-3.21691 c -2.17157,-2.67537 -2.16017,-2.74066 0.6619,-3.79226 2.76561,-1.03056 2.84598,-1.65409 0.52847,-4.09992 -2.21376,-2.33633 -3.37363,-0.71728 -1.34908,1.88318 1.54427,1.98358 1.52835,1.99829 -0.56255,0.51994 -1.18348,-0.83679 -2.41263,-1.49242 -2.73139,-1.45699 -0.89889,0.1 0.25518,4.27124 1.80594,6.52736 0.76611,1.11459 1.17481,2.8611 0.90824,3.88116 -0.43153,1.65128 -0.32666,1.67519 0.95643,0.21803 1.26426,-1.43573 1.23751,-1.88744 -0.21791,-3.68052 z m 55.70963,-4.4729 c -4.05862,-0.59482 -8.38446,-1.48369 -9.61296,-1.97523 -1.22852,-0.49155 -2.47123,-0.59667 -2.7616,-0.23362 -1.66936,2.08726 7.91892,4.57004 14.78283,3.82787 l 4.97106,-0.53751 z m 11.97561,-2.96331 c -0.0454,-0.48085 0.20833,-1.46741 0.56301,-2.19227 0.44808,-0.91577 0.17762,-1.07634 -0.88643,-0.52613 -0.84219,0.43546 -1.23908,1.3568 -0.882,2.04742 0.35851,0.69339 -0.18751,1.62748 -1.21933,2.08598 -1.02775,0.45663 -1.81617,1.30192 -1.75204,1.87838 0.0674,0.60554 0.99114,0.3161 2.18763,-0.68544 1.13906,-0.95344 2.0342,-2.127 1.98916,-2.60788 z m -51.1484,6.35802 c 0.7344,-1.83545 0.35962,-2.13328 -3.4128,-2.71209 -2.84086,-0.43588 -4.53059,-0.28411 -5.12603,0.46039 -1.33165,1.66498 0.2657,3.92089 2.92321,4.12838 4.34535,0.33927 4.78821,0.19127 5.61562,-1.87668 z m 13.2197,-1.93265 c 0.21109,-0.80777 -0.24764,-1.63371 -1.01942,-1.83541 -1.44952,-0.37881 -2.63911,2.00036 -1.46837,2.93668 1.10213,0.88149 2.08311,0.44722 2.48779,-1.10127 z m 9.53145,-1.78282 c -1.4279,-0.39929 -3.01501,-0.76 -3.52692,-0.8016 -0.51189,-0.0416 -1.83773,-0.76709 -2.94632,-1.61217 -2.52248,-1.923 -5.05415,-1.71694 -4.81952,0.39226 0.11515,1.03511 0.69727,1.32846 1.65425,0.83369 0.84669,-0.43778 1.26418,-0.31555 0.97866,0.28656 -0.27388,0.57751 0.39656,0.95055 1.48981,0.82893 1.09327,-0.12162 2.31391,0.19536 2.71255,0.7044 0.39865,0.50905 2.1488,0.73844 3.88922,0.50974 3.11783,-0.40972 3.1262,-0.42646 0.5682,-1.14176 z m 23.86862,-2.5119 c 0.97557,-0.79075 -0.17149,-0.9165 -3.88426,-0.42577 -5.88209,0.77746 -14.59851,-1.93093 -31.46031,-9.77542 -4.96056,-2.30777 -9.32723,-4.33867 -9.7037,-4.51314 -0.37646,-0.17443 -0.85745,0.34472 -1.06888,1.15371 -0.49143,1.88047 26.28961,13.18379 35.13092,14.8275 3.74606,0.69643 9.36313,0.0487 10.98622,-1.26683 z m -36.31062,0.40095 c 0.78574,-2.39719 0.5075,-2.64151 -5.38358,-4.72743 -3.41669,-1.20979 -6.43255,-1.92405 -6.7019,-1.58726 -1.39632,1.74588 0.36046,3.23973 5.594,4.75676 3.19554,0.92629 5.37061,1.88704 4.83348,2.13503 -0.53713,0.248 -2.43403,-0.10847 -4.21535,-0.79215 -1.78133,-0.68366 -5.25087,-1.39198 -7.7101,-1.57407 -3.83151,-0.28366 -4.50881,-0.0742 -4.73342,1.46409 -0.26216,1.79551 2.89853,2.65292 7.77838,2.11007 1.06397,-0.11837 2.61643,0.3302 3.44992,0.99679 2.16752,1.7335 6.11654,0.18378 7.08857,-2.78183 z m 14.68324,0.0985 c -0.57325,-0.42744 -2.19603,-0.97289 -3.60612,-1.21215 -2.49053,-0.42259 -2.50201,-0.39669 -0.40234,0.90583 2.27711,1.41258 5.85936,1.68633 4.00845,0.30631 z m -34.25663,0.0939 c 0.76365,-2.92212 0.27709,-3.47012 -2.77918,-3.13013 -2.97637,0.33111 -2.98667,0.35579 -1.10009,2.6378 2.20203,2.66353 3.27622,2.79988 3.87927,0.49233 z m 24.65344,-2.92224 c -1.8931,-0.69278 -3.30999,-1.76476 -3.14864,-2.38219 0.16136,-0.6174 -2.5068,-2.29029 -5.92922,-3.7175 -5.59311,-2.33242 -6.27017,-2.41287 -6.69293,-0.7952 -0.25868,0.98986 -0.0373,1.90717 0.49189,2.0385 0.5292,0.13131 4.51081,1.61226 8.848,3.29103 4.33721,1.67874 8.33291,3.00114 8.87935,2.93863 0.54641,-0.0628 -0.55537,-0.68048 -2.44847,-1.37325 z m -34.36256,-1.21429 c -0.68071,-0.14577 -1.30567,-1.01213 -1.38886,-1.92516 -0.12312,-1.35192 0.24131,-1.2835 1.96308,0.36856 2.20231,2.11313 8.42178,2.20874 10.9662,0.16858 2.4724,-1.98242 -1.99814,-3.93444 -7.55644,-3.29946 -6.63483,0.75791 -8.17025,1.88577 -6.11173,4.48924 0.83227,1.05256 1.92997,1.58737 2.43929,1.18852 0.57646,-0.45144 0.4588,-0.82531 -0.31154,-0.99028 z M 777.553,104.5043 c -0.32087,-0.40972 0.15739,-1.2942 1.06321,-1.96525 1.29228,-0.95816 1.32411,-1.19897 0.14809,-1.12015 -0.91795,0.0616 -0.59712,-0.55665 0.82862,-1.596347 3.3002,-2.40674 1.34187,-2.00986 -2.26282,0.458597 -1.64569,1.12694 -3.45033,2.00034 -4.01034,1.94091 -0.56001,-0.0594 0.13791,0.67537 1.55083,1.63294 1.41297,0.95756 2.30207,1.82733 1.9758,1.93278 -0.32627,0.10543 -1.02801,0.35334 -1.55944,0.5508 -0.53142,0.19747 -1.21003,0.44275 -1.50799,0.54507 -0.29799,0.10228 -0.19436,0.62965 0.23026,1.17187 0.50621,0.64639 1.34973,0.33304 2.44985,-0.91008 0.92279,-1.04275 1.41527,-2.23116 1.09441,-2.64088 z m -2.15656,-1.69978 c 0.27704,-0.5842 0.95091,-1.11196 1.49755,-1.17276 0.54663,-0.0608 0.76723,0.36741 0.49019,0.95164 -0.27704,0.58419 -0.95092,1.11196 -1.49755,1.17276 -0.54663,0.0608 -0.76723,-0.36741 -0.49019,-0.95164 z m 20.65074,0.21814 c -0.17199,-1.54604 -0.83962,-2.42202 -1.76722,-2.31884 -0.92761,0.1032 -1.38639,1.1045 -1.2144,2.65052 0.17198,1.54602 0.8396,2.42203 1.76721,2.31883 0.92759,-0.10319 1.3864,-1.10449 1.21441,-2.65051 z m -86.34922,4.21003 c -5.55766,-1.80874 -15.23872,-1.70766 -17.61753,0.18392 -0.97359,0.77417 -0.83336,1.30509 0.70401,2.66561 1.43314,1.26822 3.33088,1.55659 7.48682,1.13756 3.06189,-0.30873 7.39285,-0.42951 9.62434,-0.26838 6.2554,0.45165 6.14343,-1.65503 -0.19764,-3.71871 z m 90.11297,-8.816697 c -0.71396,-0.19971 -1.83206,-0.0753 -2.48467,0.2764 -0.65261,0.35172 -0.0685,0.51512 1.2981,0.36309 1.36657,-0.15202 1.90053,-0.4398 1.18657,-0.63949 z m -84.20966,7.253017 c 0.13829,-0.64578 -2.61552,-2.24253 -6.11967,-3.54822 -11.38357,-4.241837 -22.87547,-2.489737 -20.3881,3.10846 0.75441,1.69787 1.35905,1.91816 3.01238,1.09747 3.65859,-1.81609 11.87966,-2.01141 16.72796,-0.39743 5.00982,1.66776 6.36571,1.61563 6.76743,-0.26028 z m 58.42808,-7.067047 c -0.17924,-1.08386 0.1932,-2.21283 0.82754,-2.50881 0.71631,-0.33423 1.09176,0.23542 0.99082,1.50325 -0.11854,1.4885 0.22797,1.8395 1.27916,1.29595 1.1707,-0.6053 1.17494,-0.87572 0.0226,-1.43832 -1.13892,-0.55609 -1.12546,-0.73162 0.0683,-0.88915 1.32215,-0.17446 1.30987,-0.28491 -0.11056,-0.99388 -1.42041,-0.70899 -1.43272,-0.81937 -0.11056,-0.99386 1.3084,-0.17262 1.29789,-0.28854 -0.0873,-0.96292 -1.17121,-0.57017 -0.45452,-1.08075 2.79684,-1.99248 l 4.37159,-1.22585 -3.96871,-0.393 c -2.18281,-0.21614 -4.17372,-0.13667 -4.42427,0.1766 -0.25069,0.31316 0.40362,0.49173 1.45368,0.39658 1.2657,-0.11464 0.83652,0.44166 -1.27341,1.65091 -4.00968,2.29787 -4.95558,2.37796 -2.68539,0.2274 0.9718,-0.9206 1.34762,-1.61273 0.83525,-1.53804 -1.52292,0.22173 -4.6277,3.50131 -3.16013,3.33805 1.07409,-0.1195 1.1065,0.18904 0.18296,1.74044 -0.95503,1.60421 -0.93526,1.67711 0.13239,0.48835 1.81279,-2.01834 3.29447,-1.91426 1.94509,0.13666 -1.52352,2.3156 -1.5212,4.260097 0.005,4.090327 0.67947,-0.0756 1.08877,-1.024227 0.90956,-2.108077 z m 13.3482,-1.15497 c -3.51928,-0.71026 -6.13221,-0.41959 -3.47854,0.38697 1.14552,0.34817 2.97578,0.52037 4.06724,0.3827 1.59533,-0.20122 1.47987,-0.35218 -0.5887,-0.76967 z m 20.64589,-1.89847 c -0.36702,-0.29348 -1.22813,-0.23347 -1.91368,0.13339 -0.75751,0.40548 -0.49588,0.61477 0.66731,0.53366 1.05243,-0.0734 1.61328,-0.37359 1.24638,-0.66712 z m -7.06764,-0.21994 c -0.36702,-0.29348 -1.22815,-0.23346 -1.91369,0.13341 -0.7575,0.40546 -0.49588,0.61476 0.6673,0.53365 1.05244,-0.0734 1.61329,-0.3736 1.24639,-0.66711 z m -11.52584,0.21755 c -0.71395,-0.1997 -1.83205,-0.0753 -2.48466,0.27641 -0.65262,0.35172 -0.0685,0.51512 1.29809,0.36309 1.36658,-0.15202 1.90054,-0.4398 1.18657,-0.6395 z m 13.29245,-2.42641 c -0.36701,-0.29348 -1.22814,-0.23346 -1.91368,0.1334 -0.75752,0.40546 -0.49589,0.61476 0.6673,0.53365 1.05243,-0.0734 1.61328,-0.37358 1.24638,-0.6671 z m 6.95708,-0.77394 c -0.36702,-0.29348 -1.22814,-0.23346 -1.91368,0.1334 -0.75751,0.40547 -0.49589,0.61477 0.6673,0.53365 1.05244,-0.0734 1.61328,-0.37358 1.24639,-0.66711 z m -14.99557,0.57859 c -0.9778,-0.14306 -2.76781,0.0469 -3.97766,0.42217 -1.20983,0.37526 -0.40987,0.49219 1.778,0.2601 2.18776,-0.23222 3.17757,-0.53925 2.19967,-0.68229 z m -7.57337,-0.13872 c -0.71396,-0.19969 -1.83206,-0.0753 -2.48468,0.27641 -0.65261,0.35173 -0.0685,0.51512 1.29809,0.36309 1.36659,-0.15202 1.90053,-0.4398 1.18659,-0.6395 z m -4.59726,-0.43627 c -0.36702,-0.29349 -1.22815,-0.23347 -1.91366,0.13339 -0.75754,0.40547 -0.49581,0.61482 0.66729,0.53364 1.05251,-0.0734 1.61338,-0.37361 1.24639,-0.66711 z m 21.14453,-2.315 c -3.4216,-0.37467 -10.80898,0.31525 -10.30233,0.96215 0.29899,0.38179 3.08315,0.35912 6.18692,-0.0503 3.10375,-0.40948 4.95574,-0.81979 4.11541,-0.91181 z m -16.28573,0.76829 c -0.36702,-0.29348 -1.22814,-0.23346 -1.91365,0.1334 -0.75755,0.40547 -0.49588,0.61476 0.66728,0.53364 1.05249,-0.0734 1.61337,-0.37361 1.24638,-0.66712 z m 3.97548,-0.44224 c -0.36703,-0.29349 -1.22815,-0.23346 -1.91366,0.13339 -0.75755,0.40548 -0.49588,0.61475 0.66729,0.53364 1.05248,-0.0734 1.61337,-0.37359 1.24638,-0.66711 z m 16.79651,-2.96038 c -0.98441,-0.14357 -2.54976,0.0306 -3.47855,0.38697 -0.92878,0.3564 -0.12335,0.47387 1.78985,0.26103 1.9132,-0.21283 2.67311,-0.50444 1.6887,-0.648 z m -10.07588,0.074 c -2.08603,0.0142 -5.2163,0.36613 -6.95623,0.7819 -1.73993,0.41583 -0.0332,0.40417 3.79271,-0.0259 3.82595,-0.42964 5.24942,-0.77029 3.1635,-0.75605 z m -13.99812,0.59177 c -0.98442,-0.14356 -2.54975,0.0306 -3.47854,0.38697 -0.9288,0.3564 -0.12337,0.47387 1.78983,0.26104 1.9132,-0.21283 2.67312,-0.50445 1.68871,-0.64801 z m 27.8171,-3.00879 c -0.36702,-0.29349 -1.22814,-0.23346 -1.91369,0.1334 -0.75751,0.40547 -0.49589,0.61477 0.66731,0.53366 1.05244,-0.0734 1.61328,-0.37359 1.24638,-0.66712 z m -7.52789,-0.29607 c -2.32986,0.0482 -6.3553,0.49346 -8.94548,0.9891 -2.59017,0.49609 -0.6839,0.45669 4.23609,-0.0876 4.91998,-0.5443 7.0392,-0.95014 4.70935,-0.90198 z m 21.30282,-24.05957 c -0.90201,-0.72134 -1.1836,-0.57744 -1.05915,0.54125 0.21978,1.97568 1.70491,3.16346 2.03405,1.62672 0.13958,-0.65193 -0.29908,-1.62754 -0.97488,-2.168 z M 597.30196,170.36028 c -2.04681,-1.12865 -3.33966,-2.09457 -2.87297,-2.14648 1.00176,-0.11145 7.98257,3.10962 8.04984,3.71433 0.10141,0.91163 -1.63279,0.38641 -5.17687,-1.56785 z m 2.67218,-8.0803 c -3.49381,-1.94427 -6.63232,-4.183 -6.97442,-4.97504 -0.35751,-0.82766 0.71931,-0.46613 2.53213,0.85013 1.73478,1.2596 5.19214,3.31224 7.68303,4.56139 2.49087,1.24917 4.54715,2.43536 4.56946,2.63608 0.11001,0.98886 -2.01179,0.15417 -7.8102,-3.07256 z m -3.96867,-21.4081 c -3.30663,-2.3639 -5.56528,-4.3519 -5.01921,-4.41778 0.54607,-0.0658 3.69919,1.8226 7.00695,4.19663 3.30777,2.37405 5.56641,4.36204 5.01922,4.41778 -0.54719,0.0558 -3.70032,-1.83275 -7.00696,-4.19663 z M 776.2022,110.90676 c 1.77225,-2.50258 2.29298,-2.85896 2.42628,-1.66064 0.0462,0.41514 -0.85356,1.48492 -1.99905,2.3776 -2.07599,1.61674 -2.0775,1.61418 -0.42686,-0.71666 z"
       style="fill:#000000" /></g></svg>