<?xml version="1.0" encoding="UTF-8" standalone="no"?>
<!-- Creator: CorelDRAW -->

<svg
   xmlns:dc="http://purl.org/dc/elements/1.1/"
   xmlns:cc="http://creativecommons.org/ns#"
   xmlns:rdf="http://www.w3.org/1999/02/22-rdf-syntax-ns#"
   xmlns:svg="http://www.w3.org/2000/svg"
   xmlns="http://www.w3.org/2000/svg"
   xmlns:sodipodi="http://sodipodi.sourceforge.net/DTD/sodipodi-0.dtd"
   xmlns:inkscape="http://www.inkscape.org/namespaces/inkscape"
   xml:space="preserve"
   width="604.72443"
   height="166.64597"
   style="fill-rule:evenodd;image-rendering:optimizeQuality;shape-rendering:geometricPrecision;text-rendering:geometricPrecision"
   viewBox="0 0 604.72442 166.63435"
   version="1.1"
   id="svg1197"
   sodipodi:docname="LensImaging.svg"
   inkscape:version="0.92.3 (2405546, 2018-03-11)"><metadata
   id="metadata1201"><rdf:RDF><cc:Work
       rdf:about=""><dc:format>image/svg+xml</dc:format><dc:type
         rdf:resource="http://purl.org/dc/dcmitype/StillImage" /><dc:title></dc:title><dc:creator><cc:Agent><dc:title>https://nl.m.wikipedia.org/wiki/Bestand:LensImaging.svg</dc:title></cc:Agent></dc:creator><dc:rights><cc:Agent><dc:title>https://nl.m.wikipedia.org/wiki/Bestand:LensImaging.svg</dc:title></cc:Agent></dc:rights><dc:publisher><cc:Agent><dc:title>Adapted by De Creatieve STEM</dc:title></cc:Agent></dc:publisher><cc:license
         rdf:resource="https://nl.m.wikipedia.org/wiki/Bestand:LensImaging.svg" /></cc:Work></rdf:RDF></metadata><sodipodi:namedview
   pagecolor="#ffffff"
   bordercolor="#666666"
   borderopacity="1"
   objecttolerance="10"
   gridtolerance="10"
   guidetolerance="10"
   inkscape:pageopacity="0"
   inkscape:pageshadow="2"
   inkscape:window-width="1440"
   inkscape:window-height="847"
   id="namedview1199"
   showgrid="false"
   fit-margin-top="0"
   fit-margin-left="0"
   fit-margin-right="0"
   fit-margin-bottom="0"
   inkscape:zoom="1.4833378"
   inkscape:cx="235.09017"
   inkscape:cy="3.873821"
   inkscape:window-x="0"
   inkscape:window-y="0"
   inkscape:window-maximized="1"
   inkscape:current-layer="svg1197" />
 <defs
   id="defs1038">
  <style
   type="text/css"
   id="style1036">
   <![CDATA[
    .str2 {stroke:#E5E5E5;stroke-width:0.899991}
    .str7 {stroke:#00FF00;stroke-width:0.899991}
    .str0 {stroke:#C0FFC0;stroke-width:0.899991}
    .str6 {stroke:#FF8080;stroke-width:0.899991}
    .str1 {stroke:#FFC0C0;stroke-width:0.899991}
    .str5 {stroke:#000000;stroke-width:1.18109}
    .str3 {stroke:#000000;stroke-width:2.36218}
    .str4 {stroke:#000000;stroke-width:1.18109;stroke-dasharray:17.7164 17.7164}
    .fil4 {fill:none}
    .fil5 {fill:#000000}
    .fil0 {fill:#C0FFC0}
    .fil3 {fill:#C0FFFF}
    .fil2 {fill:#E0F0D4}
    .fil1 {fill:#FFE8E8}
   ]]>
  </style>
 
  
  
  
  
  
  
  
  
  
  
  
  
  
  
  
  
  
  
  
  
  
  
  
  
  
  
  
  
  
  
  
  
  
  
  
  
 
   
   
   
  
   
   
   
  </defs>
 
<rect
   style="opacity:0.475;fill:#ffffff;fill-opacity:1;fill-rule:nonzero;stroke:none;stroke-width:0.33333334;stroke-linecap:butt;stroke-miterlimit:4;stroke-dasharray:none;stroke-dashoffset:0;stroke-opacity:1"
   id="rect1559"
   width="602.69482"
   height="165.84219"
   x="1.3483105"
   y="0.79796457" /><path
   style="fill:#c0ffc0;stroke:#c0ffc0;stroke-width:0.16904405"
   inkscape:connector-curvature="0"
   id="path1040"
   d="M 55.362854,75.531111 278.42998,74.850942 562.70293,121.09641 278.18956,120.1365 55.362854,75.53096 Z"
   class="fil0 str0" /><path
   style="fill:#ffe8e8;stroke:#ffc0c0;stroke-width:0.16904405"
   inkscape:connector-curvature="0"
   id="path1042"
   d="M 57.402673,53.08841 277.74816,53.768579 559.98129,148.29971 278.86762,148.69991 57.400794,53.088394 Z"
   class="fil1 str1" /><path
   style="fill:#e0f0d4;stroke:#e5e5e5;stroke-width:0.16904405"
   inkscape:connector-curvature="0"
   id="path1044"
   d="M 278.52201,120.22342 154.27978,94.94808 106.67124,75.883101 l 171.82748,-1.56887 121.75651,20.188194 74.4547,25.678235 -196.18698,0.0428 z"
   class="fil2 str2" /><path
   style="fill:#c0ffff;stroke:#000000;stroke-width:0.44368497"
   inkscape:connector-curvature="0"
   id="path1046"
   d="m 275.86048,157.33666 c -12.65767,-39.58187 -13.40728,-84.649838 0,-124.231898 h 6.7469 c 15.97999,40.400242 15.9181,83.987368 0,124.231898 z"
   class="fil3 str3" /><path
   style="fill:none;stroke:#000000;stroke-width:0.22184248;stroke-dasharray:3.32764661, 3.32764661"
   inkscape:connector-curvature="0"
   id="path1048"
   d="M 603.80941,95.220807 H 21.330378"
   class="fil4 str4" /><path
   style="fill:none;stroke:#000000;stroke-width:0.22184248"
   inkscape:connector-curvature="0"
   id="path1050"
   d="M 279.30338,166.64207 277.80417,-0.00190685"
   class="fil4 str5" /><path
   style="fill:none;stroke:#000000;stroke-width:0.22184248"
   inkscape:connector-curvature="0"
   id="path1052"
   d="M 402.78566,100.545 V 18.051239"
   class="fil4 str5" /><path
   style="fill:none;stroke:#000000;stroke-width:0.22184248"
   inkscape:connector-curvature="0"
   id="path1054"
   d="M 562.51153,100.545 V 2.8444478"
   class="fil4 str5" /><path
   style="fill:none;stroke:#000000;stroke-width:0.22184248"
   inkscape:connector-curvature="0"
   id="path1056"
   d="M 154.32223,101.02133 V 19.966715"
   class="fil4 str5" /><path
   style="fill:none;stroke:#000000;stroke-width:0.22184248"
   inkscape:connector-curvature="0"
   id="path1058"
   d="M 56.711463,101.52077 V 2.3557177"
   class="fil4 str5" /><path
   class="fil4 str6"
   d="M 597.81221,155.82077 5.5883943,43.388273"
   id="path1080"
   inkscape:connector-curvature="0"
   style="fill:none;stroke:#ff8080;stroke-width:0.16847216" /><path
   class="fil4 str6"
   d="M 598.02085,161.20687 278.53567,53.712942 5.58878,53.380622"
   id="path1082"
   inkscape:connector-curvature="0"
   style="fill:none;stroke:#ff8080;stroke-width:0.16904405" /><path
   class="fil4 str6"
   d="M 597.06249,149.07352 H 278.4601 L 9.1965354,33.155853"
   id="path1084"
   inkscape:connector-curvature="0"
   style="fill:none;stroke:#ff8080;stroke-width:0.16904405" /><path
   class="fil4 str7"
   d="M 602.82841,124.48569 0.00754711,70.130075"
   id="path1088"
   inkscape:connector-curvature="0"
   style="fill:none;stroke:#00ff00;stroke-width:0.16950785" /><path
   class="fil4 str7"
   d="M 600.30102,120.38182 H 279.11053 L 1.4380215,64.266119"
   id="path1090"
   inkscape:connector-curvature="0"
   style="fill:none;stroke:#00ff00;stroke-width:0.17053263" /><path
   class="fil4 str7"
   d="M 2.5886502,74.850942 H 278.42998 l 321.67901,51.686348"
   id="path1092"
   inkscape:connector-curvature="0"
   style="fill:none;stroke:#00ff00;stroke-width:0.16904412" /><path
   style="fill:#000000;stroke-width:0.1878286"
   inkscape:connector-curvature="0"
   id="path1112"
   d="M 412.54505,79.116122 V 82.7834 h 1.69753 c 0.38979,0 0.67619,-0.08674 0.85699,-0.258225 0.18079,-0.171483 0.30058,-0.511791 0.36159,-1.021363 h 0.25357 v 3.155483 h -0.25357 c -0.005,-0.361604 -0.0517,-0.626927 -0.14087,-0.79597 -0.0892,-0.171263 -0.21362,-0.298158 -0.37335,-0.382679 -0.15729,-0.08452 -0.392,-0.126671 -0.70436,-0.126671 h -1.69753 v 2.930088 c 0,0.47186 0.0282,0.784215 0.0894,0.934401 0.0446,0.115135 0.14087,0.213634 0.28862,0.295939 0.20188,0.110255 0.41086,0.166604 0.63157,0.166604 h 0.33809 v 0.253566 h -4.00292 v -0.253566 h 0.32855 c 0.38512,0 0.66686,-0.112698 0.84057,-0.338088 0.11048,-0.14553 0.16438,-0.500034 0.16438,-1.058856 v -6.027025 c 0,-0.471859 -0.0306,-0.783993 -0.0892,-0.9344 -0.047,-0.114916 -0.14087,-0.213635 -0.28174,-0.295716 -0.19722,-0.110479 -0.40864,-0.164386 -0.63403,-0.164386 h -0.32855 V 78.60653 h 6.94011 l 0.0892,2.04983 h -0.24181 c -0.11735,-0.434369 -0.25822,-0.753822 -0.41551,-0.957917 -0.15727,-0.204316 -0.35227,-0.352285 -0.58454,-0.443906 -0.2325,-0.0914 -0.58945,-0.13843 -1.07551,-0.13843 h -2.0567 z"
   class="fil5" /><path
   style="fill:#000000;stroke-width:0.1878286"
   inkscape:connector-curvature="0"
   id="path1116"
   d="m 144.81979,103.35728 v 3.66728 h 1.69754 c 0.38978,0 0.67619,-0.0867 0.85699,-0.25823 0.18078,-0.17148 0.30058,-0.51179 0.36159,-1.02136 h 0.25357 v 3.15548 h -0.25357 c -0.005,-0.3616 -0.0517,-0.62692 -0.14087,-0.79597 -0.0892,-0.17126 -0.21362,-0.29815 -0.37335,-0.38267 -0.15729,-0.0845 -0.392,-0.12668 -0.70436,-0.12668 h -1.69754 v 2.93009 c 0,0.47186 0.0282,0.78422 0.0894,0.9344 0.0446,0.11514 0.14087,0.21364 0.28862,0.29594 0.20188,0.11026 0.41085,0.16661 0.63157,0.16661 h 0.33809 v 0.25356 h -4.00293 v -0.25356 h 0.32855 c 0.38513,0 0.66687,-0.1127 0.84057,-0.33809 0.11049,-0.14553 0.16439,-0.50004 0.16439,-1.05886 v -6.02702 c 0,-0.47186 -0.0306,-0.784 -0.0892,-0.9344 -0.047,-0.11492 -0.14087,-0.21364 -0.28174,-0.29572 -0.19722,-0.11048 -0.40864,-0.16438 -0.63404,-0.16438 h -0.32855 v -0.25601 h 6.94012 l 0.0892,2.04983 h -0.24181 c -0.11735,-0.43437 -0.25823,-0.75382 -0.41551,-0.95792 -0.15727,-0.20431 -0.35228,-0.35228 -0.58454,-0.4439 -0.2325,-0.0914 -0.58945,-0.13843 -1.07551,-0.13843 h -2.05671 z"
   class="fil5" /><path
   style="fill:#000000;stroke-width:0.1878286"
   inkscape:connector-curvature="0"
   id="path1120"
   d="m 344.42296,30.584901 -0.12202,0.453224 H 343.296 l -0.75605,3.007512 c -0.33564,1.324178 -0.67374,2.350205 -1.01183,3.073402 -0.48138,1.023581 -1.00028,1.727933 -1.55422,2.117711 -0.42262,0.298157 -0.84521,0.448343 -1.26561,0.448343 -0.27464,0 -0.50935,-0.08208 -0.70192,-0.248685 -0.14331,-0.112695 -0.21363,-0.263105 -0.21363,-0.446125 0,-0.14553 0.0586,-0.274641 0.17614,-0.382678 0.11736,-0.105819 0.26045,-0.159726 0.42949,-0.159726 0.12446,0 0.22784,0.03749 0.31236,0.115135 0.0845,0.07964 0.12667,0.169044 0.12667,0.269983 0,0.100939 -0.0468,0.194779 -0.14309,0.281741 -0.0728,0.06322 -0.11048,0.112697 -0.11048,0.14309 0,0.04237 0.0163,0.0752 0.0495,0.09628 0.0399,0.03283 0.10315,0.04925 0.19233,0.04925 0.19722,0 0.40399,-0.06323 0.62228,-0.18546 0.21606,-0.124454 0.41084,-0.309914 0.57988,-0.553941 0.17149,-0.246688 0.331,-0.601194 0.48141,-1.063735 0.0657,-0.192338 0.23715,-0.826363 0.51645,-1.904075 l 1.1975,-4.658036 h -1.1975 l 0.0963,-0.453225 c 0.38045,0 0.64555,-0.02573 0.79818,-0.07964 0.15041,-0.05169 0.28884,-0.152628 0.41574,-0.303037 0.12667,-0.147748 0.29106,-0.427269 0.49294,-0.835682 0.26998,-0.549504 0.52821,-0.976772 0.7771,-1.279588 0.33809,-0.406194 0.69504,-0.713889 1.06841,-0.917984 0.37314,-0.204316 0.72541,-0.305255 1.0564,-0.305255 0.34741,0 0.62915,0.08918 0.83813,0.265323 0.21142,0.17592 0.31702,0.36848 0.31702,0.572798 0,0.161944 -0.0517,0.295939 -0.15729,0.406194 -0.1056,0.110256 -0.24181,0.166604 -0.4062,0.166604 -0.14309,0 -0.25822,-0.04215 -0.34741,-0.124455 -0.0892,-0.08208 -0.13377,-0.180578 -0.13377,-0.295715 0,-0.07276 0.0304,-0.164384 0.0892,-0.272423 0.0586,-0.108037 0.0892,-0.180802 0.0892,-0.215853 0,-0.06589 -0.0211,-0.112695 -0.061,-0.145749 -0.061,-0.04459 -0.14797,-0.06789 -0.26311,-0.06789 -0.28862,0 -0.54705,0.0914 -0.77711,0.274641 -0.30747,0.244027 -0.58211,0.624487 -0.82392,1.143376 -0.12446,0.269983 -0.3523,0.941501 -0.68105,2.014331 h 1.0096 z"
   class="fil5" /><path
   style="fill:#000000;stroke-width:0.1878286"
   inkscape:connector-curvature="0"
   id="path1124"
   d="m 218.482,30.986478 -0.12201,0.453225 h -1.00494 l -0.75605,3.007512 c -0.33565,1.324178 -0.67374,2.350205 -1.01183,3.073401 -0.48139,1.023582 -1.00028,1.727933 -1.55423,2.117711 -0.42261,0.298158 -0.84521,0.448344 -1.26561,0.448344 -0.27464,0 -0.50935,-0.08208 -0.70191,-0.248686 -0.14331,-0.112695 -0.21364,-0.263104 -0.21364,-0.446124 0,-0.14553 0.0586,-0.274641 0.17615,-0.382679 0.11735,-0.105818 0.26044,-0.159725 0.42949,-0.159725 0.12445,0 0.22783,0.03749 0.31236,0.115135 0.0845,0.07964 0.12667,0.169044 0.12667,0.269983 0,0.100939 -0.0468,0.194778 -0.14309,0.281741 -0.0728,0.06322 -0.11048,0.112697 -0.11048,0.14309 0,0.04237 0.0163,0.0752 0.0495,0.09628 0.0399,0.03283 0.10316,0.04925 0.19234,0.04925 0.19722,0 0.40398,-0.06322 0.62228,-0.18546 0.21606,-0.124453 0.41083,-0.309913 0.57988,-0.55394 0.17149,-0.246689 0.33099,-0.601194 0.4814,-1.063735 0.0657,-0.192339 0.23716,-0.826364 0.51646,-1.904075 l 1.1975,-4.658037 h -1.1975 l 0.0963,-0.453225 c 0.38045,0 0.64555,-0.02573 0.79818,-0.07964 0.15041,-0.05169 0.28884,-0.152628 0.41574,-0.303037 0.12667,-0.147748 0.29105,-0.427269 0.49293,-0.835681 0.26999,-0.549504 0.52821,-0.976773 0.77711,-1.279588 0.33809,-0.406195 0.69504,-0.71389 1.0684,-0.917984 0.37314,-0.204317 0.72542,-0.305256 1.05641,-0.305256 0.34741,0 0.62915,0.08918 0.83813,0.265323 0.21142,0.175921 0.31701,0.368481 0.31701,0.572799 0,0.161944 -0.0517,0.295939 -0.15728,0.406194 -0.1056,0.110255 -0.24182,0.166604 -0.4062,0.166604 -0.14309,0 -0.25823,-0.04215 -0.34741,-0.124455 -0.0892,-0.08208 -0.13377,-0.180579 -0.13377,-0.295716 0,-0.07276 0.0304,-0.164384 0.0892,-0.272423 0.0586,-0.108037 0.0892,-0.180802 0.0892,-0.215852 0,-0.06589 -0.0211,-0.112696 -0.061,-0.14575 -0.061,-0.04459 -0.14797,-0.06789 -0.26311,-0.06789 -0.28861,0 -0.54705,0.0914 -0.7771,0.274641 -0.30748,0.244027 -0.58212,0.624487 -0.82393,1.143377 -0.12445,0.269983 -0.35229,0.9415 -0.68105,2.01433 h 1.0096 z"
   class="fil5" /><g
   id="g1142"
   transform="matrix(-0.1878286,0,0,-0.1878286,610.06203,181.92681)">
   <path
   style="fill:#000000"
   inkscape:connector-curvature="0"
   id="path1128"
   d="m 1764.09,835.546 v 3.52438 l -16.5731,10.7432 -2.2842,-3.52438 16.5731,-10.7432 v 3.52438 z"
   class="fil5" />
   <path
   style="fill:#000000"
   inkscape:connector-curvature="0"
   id="path1130"
   d="m 1764.09,835.546 2.7165,1.76337 -2.7165,1.76101 z"
   class="fil5" />
   <path
   style="fill:#000000"
   inkscape:connector-curvature="0"
   id="path1132"
   d="m 1746.38,826.557 1.1421,-1.76219 16.5731,10.7515 -2.2854,3.52438 -16.5731,-10.7527 1.1433,-1.76101 z"
   class="fil5" />
   <path
   style="fill:#000000"
   inkscape:connector-curvature="0"
   id="path1134"
   d="m 1108.67,838.49 h 651.023 v -2.36218 H 1108.67 Z"
   class="fil5" />
   <path
   style="fill:#000000"
   inkscape:connector-curvature="0"
   id="path1136"
   d="m 1104.27,835.546 v 3.52438 l 16.5731,10.7432 2.2842,-3.52438 -16.5731,-10.7432 v 3.52438 z"
   class="fil5" />
   <path
   style="fill:#000000"
   inkscape:connector-curvature="0"
   id="path1138"
   d="m 1104.27,835.546 -2.7165,1.76337 2.7165,1.76101 z"
   class="fil5" />
   <path
   style="fill:#000000"
   inkscape:connector-curvature="0"
   id="path1140"
   d="m 1121.98,826.557 -1.1421,-1.76219 -16.5731,10.7515 2.2854,3.52438 16.5731,-10.7527 -1.1433,-1.76101 z"
   class="fil5" />
  </g><g
   id="g1158"
   transform="matrix(-0.1878286,0,0,-0.1878286,610.06203,181.92681)">
   <path
   style="fill:#000000"
   inkscape:connector-curvature="0"
   id="path1144"
   d="m 1762.81,832.941 v -3.52438 l 16.5731,-10.7432 2.2842,3.52438 -16.5731,10.7432 v -3.52438 z"
   class="fil5" />
   <path
   style="fill:#000000"
   inkscape:connector-curvature="0"
   id="path1146"
   d="m 1762.81,832.941 -2.7165,-1.76337 2.7165,-1.76101 z"
   class="fil5" />
   <path
   style="fill:#000000"
   inkscape:connector-curvature="0"
   id="path1148"
   d="m 1780.52,841.93 -1.1421,1.76219 -16.5731,-10.7515 2.2854,-3.52438 16.5731,10.7527 -1.1433,1.76101 z"
   class="fil5" />
   <path
   style="fill:#000000"
   inkscape:connector-curvature="0"
   id="path1150"
   d="m 2418.23,829.997 h -651.023 v 2.36218 h 651.023 z"
   class="fil5" />
   <path
   style="fill:#000000"
   inkscape:connector-curvature="0"
   id="path1152"
   d="m 2422.63,832.941 v -3.52438 l -16.5731,-10.7432 -2.2842,3.52438 16.5731,10.7432 v -3.52438 z"
   class="fil5" />
   <path
   style="fill:#000000"
   inkscape:connector-curvature="0"
   id="path1154"
   d="m 2422.63,832.941 2.7165,-1.76337 -2.7165,-1.76101 z"
   class="fil5" />
   <path
   style="fill:#000000"
   inkscape:connector-curvature="0"
   id="path1156"
   d="m 2404.92,841.93 1.1421,1.76219 16.5731,-10.7515 -2.2854,-3.52438 -16.5731,10.7527 1.1433,1.76101 z"
   class="fil5" />
  </g><g
   id="g1174"
   transform="matrix(-0.1878286,0,0,-0.1878286,610.06203,181.92681)">
   <path
   style="fill:#000000"
   inkscape:connector-curvature="0"
   id="path1160"
   d="m 1763.82,919.068 v -3.52438 l 16.5731,-10.7432 2.2842,3.52438 -16.5731,10.7432 v -3.52438 z"
   class="fil5" />
   <path
   style="fill:#000000"
   inkscape:connector-curvature="0"
   id="path1162"
   d="m 1763.82,919.068 -2.7165,-1.76337 2.7165,-1.76101 z"
   class="fil5" />
   <path
   style="fill:#000000"
   inkscape:connector-curvature="0"
   id="path1164"
   d="m 1781.54,928.058 -1.1421,1.76219 -16.5731,-10.7515 2.2854,-3.52438 16.5731,10.7527 -1.1433,1.76101 z"
   class="fil5" />
   <path
   style="fill:#000000"
   inkscape:connector-curvature="0"
   id="path1166"
   d="M 2940.65,916.125 H 1768.23 v 2.36218 h 1172.42 z"
   class="fil5" />
   <path
   style="fill:#000000"
   inkscape:connector-curvature="0"
   id="path1168"
   d="m 2945.05,919.068 v -3.52438 l -16.5731,-10.7432 -2.2842,3.52438 16.5731,10.7432 v -3.52438 z"
   class="fil5" />
   <path
   style="fill:#000000"
   inkscape:connector-curvature="0"
   id="path1170"
   d="m 2945.05,919.068 2.7165,-1.76337 -2.7165,-1.76101 z"
   class="fil5" />
   <path
   style="fill:#000000"
   inkscape:connector-curvature="0"
   id="path1172"
   d="m 2927.33,928.058 1.1421,1.76219 16.5731,-10.7515 -2.2854,-3.52438 -16.5731,10.7527 1.1433,1.76101 z"
   class="fil5" />
  </g><path
   style="fill:#000000;stroke-width:0.1878286"
   inkscape:connector-curvature="0"
   id="path1176"
   d="m 449.30363,12.431445 -1.35479,4.751876 c 0.44147,-0.457662 0.82413,-0.772235 1.15291,-0.941279 0.32855,-0.169044 0.6713,-0.253567 1.02825,-0.253567 0.5049,0 0.91797,0.166604 1.23743,0.500034 0.32145,0.335648 0.48118,0.788872 0.48118,1.364111 0,0.737184 -0.20898,1.471926 -0.63159,2.20445 -0.42262,0.730306 -0.95081,1.300886 -1.5895,1.709299 -0.63625,0.406194 -1.26538,0.61051 -1.88522,0.61051 -0.6926,0 -1.40159,-0.258225 -2.13191,-0.777114 l 2.09198,-7.200785 c 0.15973,-0.554164 0.23937,-0.880494 0.23937,-0.976773 0,-0.119795 -0.035,-0.208976 -0.10781,-0.267765 -0.10583,-0.08452 -0.26311,-0.124231 -0.46965,-0.124231 -0.0963,0 -0.24181,0.01642 -0.43903,0.04681 v -0.260664 l 2.37838,-0.384897 z m -2.66012,9.243289 c 0.45788,0.253567 0.86164,0.38046 1.20903,0.38046 0.40398,0 0.82171,-0.147969 1.25608,-0.443685 0.43438,-0.295938 0.81017,-0.79597 1.12696,-1.498104 0.31946,-0.699469 0.47896,-1.408701 0.47896,-2.124585 0,-0.422611 -0.10316,-0.75138 -0.31213,-0.990971 -0.20898,-0.23715 -0.45545,-0.356722 -0.73962,-0.356722 -0.42727,0 -0.84522,0.171262 -1.25142,0.511792 -0.40842,0.342747 -0.69968,0.817047 -0.87339,1.427557 l -0.89447,3.09427 z"
   class="fil5" /><g
   id="g1192"
   transform="matrix(-0.1878286,0,0,-0.1878286,610.06203,181.92681)">
   <path
   style="fill:#000000"
   inkscape:connector-curvature="0"
   id="path1178"
   d="m 1764.58,917.927 v 3.52438 l -16.5731,10.7432 -2.2842,-3.52438 16.5731,-10.7432 v 3.52438 z"
   class="fil5" />
   <path
   style="fill:#000000"
   inkscape:connector-curvature="0"
   id="path1180"
   d="m 1764.58,917.927 2.7165,1.76337 -2.7165,1.76101 z"
   class="fil5" />
   <path
   style="fill:#000000"
   inkscape:connector-curvature="0"
   id="path1182"
   d="m 1746.87,908.938 1.1421,-1.76219 16.5731,10.7515 -2.2854,3.52438 -16.5731,-10.7527 1.1433,-1.76101 z"
   class="fil5" />
   <path
   style="fill:#000000"
   inkscape:connector-curvature="0"
   id="path1184"
   d="m 258.889,920.871 h 1501.29 v -2.36218 H 258.889 Z"
   class="fil5" />
   <path
   style="fill:#000000"
   inkscape:connector-curvature="0"
   id="path1186"
   d="m 254.488,917.927 v 3.52438 l 16.5731,10.7432 2.28423,-3.52438 -16.5731,-10.7432 0.001,3.52438 z"
   class="fil5" />
   <path
   style="fill:#000000"
   inkscape:connector-curvature="0"
   id="path1188"
   d="m 254.488,917.927 -2.71651,1.76337 2.71651,1.76101 z"
   class="fil5" />
   <path
   style="fill:#000000"
   inkscape:connector-curvature="0"
   id="path1190"
   d="m 272.204,908.938 -1.14211,-1.76219 -16.5731,10.7515 2.28541,3.52438 16.5731,-10.7527 -1.1433,-1.76101 z"
   class="fil5" />
  </g><path
   style="fill:#000000;stroke-width:0.1878286"
   inkscape:connector-curvature="0"
   id="path1194"
   d="m 126.68572,12.037927 1.9886,-0.424829 c 0.14087,0.338088 0.25601,0.685494 0.34297,1.037558 0.12423,0.51889 0.2254,1.131842 0.30282,1.843068 0.0375,0.359386 0.0867,1.115202 0.15019,2.270341 0.57522,-0.633805 0.91576,-1.026023 1.02601,-1.176209 0.60586,-0.821705 0.95327,-1.303104 1.04489,-1.443974 0.15261,-0.244027 0.25821,-0.457661 0.31679,-0.640903 0.0517,-0.136212 0.0752,-0.267543 0.0752,-0.391997 0,-0.117355 -0.1056,-0.256006 -0.31921,-0.410852 -0.21364,-0.157286 -0.31946,-0.331211 -0.31946,-0.523548 0,-0.147969 0.0588,-0.277081 0.17614,-0.392218 0.11512,-0.114913 0.25357,-0.171262 0.4155,-0.171262 0.19256,0 0.36161,0.07742 0.50958,0.236929 0.14553,0.157507 0.21829,0.354725 0.21829,0.586996 0,0.234932 -0.0353,0.460323 -0.11025,0.673957 -0.11736,0.349846 -0.34054,0.774675 -0.66687,1.277148 -0.32389,0.502474 -0.84987,1.173991 -1.5753,2.019214 -0.0916,0.105597 -0.6012,0.636245 -1.52605,1.594162 h -0.25357 c -0.11048,-2.901933 -0.34053,-4.714592 -0.68794,-5.432924 -0.11512,-0.234709 -0.30524,-0.352285 -0.57301,-0.352285 -0.1127,0 -0.27708,0.0213 -0.48828,0.06345 l -0.047,-0.241809 z"
   class="fil5" /><text
   xml:space="preserve"
   style="font-style:normal;font-variant:normal;font-weight:normal;font-stretch:normal;font-size:3.28700042px;line-height:125%;font-family:'DejaVu Sans';-inkscape-font-specification:'DejaVu Sans, Normal';text-align:start;letter-spacing:0px;word-spacing:0px;writing-mode:lr-tb;text-anchor:start;fill:#000000;fill-opacity:1;stroke:none;stroke-width:0.1878286px;stroke-linecap:butt;stroke-linejoin:miter;stroke-opacity:1"
   x="123.62735"
   y="17.897684"
   id="text1417"><tspan
     sodipodi:role="line"
     id="tspan1415"
     x="123.62735"
     y="20.805908"
     style="stroke-width:0.1878286px" /></text>
<text
   xml:space="preserve"
   style="font-style:normal;font-variant:normal;font-weight:normal;font-stretch:normal;font-size:3.67357802px;line-height:125%;font-family:'DejaVu Sans';-inkscape-font-specification:'DejaVu Sans, Normal';text-align:start;letter-spacing:0px;word-spacing:0px;writing-mode:lr-tb;text-anchor:start;fill:#000000;fill-opacity:1;stroke:none;stroke-width:0.20991874px;stroke-linecap:butt;stroke-linejoin:miter;stroke-opacity:1"
   x="46.760731"
   y="93.095551"
   id="text1421"
   transform="scale(0.98298899,1.0173054)"><tspan
     sodipodi:role="line"
     id="tspan1419"
     x="46.760731"
     y="93.095551"
     style="font-style:normal;font-variant:normal;font-weight:normal;font-stretch:normal;font-size:55.9783287px;font-family:'DejaVu Sans';-inkscape-font-specification:'DejaVu Sans, Normal';font-variant-ligatures:normal;font-variant-caps:normal;font-variant-numeric:normal;font-feature-settings:normal;text-align:start;writing-mode:lr-tb;text-anchor:start;stroke-width:0.20991874px">K</tspan></text>
<text
   transform="scale(-0.98298899,-1.0173054)"
   id="text1425"
   y="-93.717659"
   x="-586.43494"
   style="font-style:normal;font-variant:normal;font-weight:normal;font-stretch:normal;font-size:4.81141615px;line-height:125%;font-family:'DejaVu Sans';-inkscape-font-specification:'DejaVu Sans, Normal';text-align:start;letter-spacing:0px;word-spacing:0px;writing-mode:lr-tb;text-anchor:start;fill:#000000;fill-opacity:1;stroke:none;stroke-width:0.27493805px;stroke-linecap:butt;stroke-linejoin:miter;stroke-opacity:1"
   xml:space="preserve"><tspan
     style="font-style:normal;font-variant:normal;font-weight:normal;font-stretch:normal;font-size:73.31681824px;font-family:'DejaVu Sans';-inkscape-font-specification:'DejaVu Sans, Normal';font-variant-ligatures:normal;font-variant-caps:normal;font-variant-numeric:normal;font-feature-settings:normal;text-align:start;writing-mode:lr-tb;text-anchor:start;stroke-width:0.27493805px"
     y="-93.717659"
     x="-586.43494"
     id="tspan1423"
     sodipodi:role="line">K</tspan></text>
</svg>