<?xml version="1.0" encoding="UTF-8" standalone="no"?>
<svg
   xmlns:dc="http://purl.org/dc/elements/1.1/"
   xmlns:cc="http://creativecommons.org/ns#"
   xmlns:rdf="http://www.w3.org/1999/02/22-rdf-syntax-ns#"
   xmlns:svg="http://www.w3.org/2000/svg"
   xmlns="http://www.w3.org/2000/svg"
   xmlns:sodipodi="http://sodipodi.sourceforge.net/DTD/sodipodi-0.dtd"
   xmlns:inkscape="http://www.inkscape.org/namespaces/inkscape"
   id="laag"
   viewBox="0 0 497.63976 154.57364"
   version="1.1"
   sodipodi:docname="logoMaakbibHeader_cmyk.svg"
   width="497.63974"
   height="154.57364"
   inkscape:version="0.92.1 r15371"
   inkscape:export-filename="/home/bennymalengier/git/jekyll/MaakBib/assets/images/logoMaakbibHeader.png"
   inkscape:export-xdpi="299.97354"
   inkscape:export-ydpi="299.97354">
  <metadata
     id="metadata4844">
    <rdf:RDF>
      <cc:Work
         rdf:about="">
        <dc:format>image/svg+xml</dc:format>
        <dc:type
           rdf:resource="http://purl.org/dc/dcmitype/StillImage" />
        <dc:title>logo Maakbib FINAL cmyk kleur 3</dc:title>
      </cc:Work>
    </rdf:RDF>
  </metadata>
  <sodipodi:namedview
     pagecolor="#ffffff"
     bordercolor="#666666"
     borderopacity="1"
     objecttolerance="10"
     gridtolerance="10"
     guidetolerance="10"
     inkscape:pageopacity="0"
     inkscape:pageshadow="2"
     inkscape:window-width="1366"
     inkscape:window-height="736"
     id="namedview4842"
     showgrid="false"
     inkscape:zoom="1.8218624"
     inkscape:cx="225.57594"
     inkscape:cy="70.56412"
     inkscape:window-x="0"
     inkscape:window-y="16"
     inkscape:window-maximized="1"
     inkscape:current-layer="laag"
     fit-margin-top="0"
     fit-margin-left="0"
     fit-margin-right="0"
     fit-margin-bottom="0" />
  <defs
     id="defs4751">
    <style
       id="style4749">
      .cls-1, .cls-2 {
        fill: none;
        stroke-linecap: round;
        stroke-miterlimit: 10;
      }

      .cls-1 {
        stroke: #9fd5dc;
        stroke-width: 3px;
      }

      .cls-2 {
        stroke: #364f6b;
        stroke-width: 4px;
      }

      .cls-3 {
        fill: #be2033;
      }

      .cls-4 {
        fill: #9fd5dc;
      }
    </style>
  </defs>
  <title
     id="title4753">logo Maakbib FINAL cmyk kleur 3</title>
  <g
     id="g4901"
     inkscape:export-xdpi="299.97354"
     inkscape:export-ydpi="299.97354"
     transform="matrix(1.98513,0,0,1.98513,115.13528,-298.51355)">
    <line
       class="cls-1"
       x1="161.6339"
       y1="210.12274"
       x2="161.6339"
       y2="218.48714"
       id="line4755"
       style="fill:none;stroke:#9fd5dc;stroke-width:2.98373032px;stroke-linecap:round;stroke-miterlimit:10" />
    <line
       class="cls-1"
       x1="161.08687"
       y1="208.90936"
       x2="168.16827"
       y2="215.99075"
       id="line4807"
       style="fill:none;stroke:#9fd5dc;stroke-width:2.98373032px;stroke-linecap:round;stroke-miterlimit:10" />
    <line
       class="cls-1"
       x1="162.10135"
       y1="208.90936"
       x2="155.01996"
       y2="215.99075"
       id="line4809"
       style="fill:none;stroke:#9fd5dc;stroke-width:2.98373032px;stroke-linecap:round;stroke-miterlimit:10" />
    <line
       class="cls-1"
       x1="174.98111"
       y1="209.41661"
       x2="148.36624"
       y2="209.41661"
       id="line4811"
       style="fill:none;stroke:#9fd5dc;stroke-width:2.98373032px;stroke-linecap:round;stroke-miterlimit:10" />
    <g
       transform="matrix(0.99457681,0,0,0.99457681,-48.639537,-39.854183)"
       id="g4829">
      <polygon
         class="cls-3"
         points="87.53,215.3 90.97,215.3 98.79,230.05 106.53,215.3 110.01,215.3 113.96,245.05 109.71,245.05 106.91,222.57 98.83,237.99 90.59,222.53 87.79,245.05 83.54,245.05 "
         id="polygon4813"
         style="fill:#be2033" />
      <path
         class="cls-3"
         d="m 197.86,229.71 a 6.06,6.06 0 0 0 4.07,-6 7.17,7.17 0 0 0 -1.56,-4.6 6.66,6.66 0 0 0 -3.69,-2.47 30.54,30.54 0 0 0 -6.52,-0.51 H 177 v 4.88 h 3.55 v 19.11 H 177 V 245 h 13.17 a 26.85,26.85 0 0 0 7.13,-0.74 8,8 0 0 0 4.15,-2.78 7.71,7.71 0 0 0 1.61,-4.91 q -0.01,-4.93 -5.2,-6.86 z m -9.81,-8.65 h 1.86 a 6.41,6.41 0 0 1 3.52,0.71 2.76,2.76 0 0 1 1,2.42 3.05,3.05 0 0 1 -1,2.64 5.57,5.57 0 0 1 -3.24,0.75 h -2.11 z m 6.14,18.28 a 7.18,7.18 0 0 1 -4,0.83 h -2.11 v -7.72 h 2.11 a 7,7 0 0 1 3.94,0.88 3.55,3.55 0 0 1 1.23,3.08 3.39,3.39 0 0 1 -1.17,2.93 z"
         id="path4815"
         inkscape:connector-curvature="0"
         style="fill:#be2033" />
      <path
         class="cls-3"
         d="m 214,248.36 a 3.37,3.37 0 0 1 1,2.48 3.41,3.41 0 0 1 -1,2.48 3.51,3.51 0 0 1 -5,0 3.41,3.41 0 0 1 -1,-2.48 3.36,3.36 0 0 1 1,-2.47 3.43,3.43 0 0 1 2.47,-1 3.38,3.38 0 0 1 2.53,0.99 z"
         id="path4817"
         inkscape:connector-curvature="0"
         style="fill:#be2033" />
      <polygon
         class="cls-3"
         points="205.14,224.99 217.59,224.99 217.59,229.62 214.61,229.62 214.61,245.08 205.14,245.08 205.14,240.45 208.2,240.45 208.2,229.62 205.14,229.62 "
         id="polygon4819"
         style="fill:#be2033" />
      <path
         class="cls-3"
         d="m 240.22,227.39 a 7.75,7.75 0 0 0 -6.27,-2.93 7.35,7.35 0 0 0 -5.71,2.78 v -11.06 h -9.9 v 4.63 h 3.49 v 19.61 h -3.49 v 4.63 h 9.9 v -2.32 a 8,8 0 0 0 5.87,2.61 7.72,7.72 0 0 0 6.11,-2.79 13.08,13.08 0 0 0 0,-15.16 z M 234.94,239 a 3.6,3.6 0 0 1 -5.65,0 7.61,7.61 0 0 1 0.07,-8 3.73,3.73 0 0 1 2.84,-1.29 3.41,3.41 0 0 1 2.8,1.29 6,6 0 0 1 1.06,3.88 6.43,6.43 0 0 1 -1.12,4.12 z"
         id="path4821"
         inkscape:connector-curvature="0"
         style="fill:#be2033" />
      <path
         class="cls-3"
         d="m 154.25,241.94 a 2.25,2.25 0 0 1 -0.66,-1.33 16.42,16.42 0 0 1 -0.15,-2.58 v -4.24 a 19.11,19.11 0 0 0 -0.74,-5.95 5.53,5.53 0 0 0 -2.34,-3.11 8.45,8.45 0 0 0 -4.27,-0.93 13,13 0 0 0 -3.91,0.59 A 10.32,10.32 0 0 0 139,226 l 0.56,3.1 a 10.44,10.44 0 0 1 2.84,-1.47 9,9 0 0 1 2.64,-0.4 5,5 0 0 1 3.46,1 c 0.72,0.66 1.08,1.93 1.08,3.8 a 21.77,21.77 0 0 0 -8.71,1.79 5.8,5.8 0 0 0 -3.74,5.65 5.74,5.74 0 0 0 1.77,4.33 6.37,6.37 0 0 0 4.65,1.7 8.11,8.11 0 0 0 6.37,-3.06 7.2,7.2 0 0 0 1,1.74 3.27,3.27 0 0 0 1.55,1 9.13,9.13 0 0 0 2.81,0.34 h 0.3 l 0.59,-3.06 h -0.38 a 2.22,2.22 0 0 1 -1.54,-0.52 z m -4.64,-2.33 a 7,7 0 0 1 -2.35,2 6.18,6.18 0 0 1 -3,0.76 3.41,3.41 0 0 1 -2.36,-0.78 3.09,3.09 0 0 1 -0.87,-2.4 3.54,3.54 0 0 1 2,-3.38 c 1.32,-0.7 3.5,-1.1 6.56,-1.21 z"
         id="path4823"
         inkscape:connector-curvature="0"
         style="fill:#be2033" />
      <polygon
         class="cls-3"
         points="170.56,224.22 175.24,224.22 166.95,233.91 175.45,245.05 170.78,245.05 162.91,234.47 162.91,245.05 159.09,245.05 159.09,213.18 162.91,213.18 162.91,233.62 "
         id="polygon4825"
         style="fill:#be2033" />
      <path
         class="cls-3"
         d="M 133.85,241.94 A 2.25,2.25 0 0 1 133.19,240.61 16.42,16.42 0 0 1 133,238 v -4.24 a 19.11,19.11 0 0 0 -0.74,-5.95 5.53,5.53 0 0 0 -2.34,-3.11 8.43,8.43 0 0 0 -4.27,-0.93 13,13 0 0 0 -3.91,0.59 10.27,10.27 0 0 0 -3.14,1.58 l 0.55,3.1 a 10.49,10.49 0 0 1 2.85,-1.44 8.84,8.84 0 0 1 2.63,-0.4 5,5 0 0 1 3.46,1 c 0.73,0.66 1.09,1.93 1.09,3.8 a 21.69,21.69 0 0 0 -8.71,1.79 6.16,6.16 0 0 0 -2,10 6.39,6.39 0 0 0 4.65,1.7 8.13,8.13 0 0 0 6.38,-3.06 6.6,6.6 0 0 0 1,1.74 3.22,3.22 0 0 0 1.55,1 9.06,9.06 0 0 0 2.8,0.34 h 0.3 l 0.59,-3.06 h -0.38 a 2.22,2.22 0 0 1 -1.51,-0.51 z m -4.63,-2.33 a 7,7 0 0 1 -2.36,2 6.14,6.14 0 0 1 -3,0.76 3.39,3.39 0 0 1 -2.36,-0.78 3.09,3.09 0 0 1 -0.87,-2.4 3.53,3.53 0 0 1 2,-3.38 q 2,-1 6.57,-1.21 z"
         id="path4827"
         inkscape:connector-curvature="0"
         style="fill:#be2033" />
    </g>
  </g>
  <g
     id="g4932"
     inkscape:export-xdpi="299.97354"
     inkscape:export-ydpi="299.97354"
     transform="translate(-26.02509,-2.5572775e-4)">
    <g
       transform="matrix(0.99457681,0,0,0.99457681,-48.639537,-39.854183)"
       id="g4805">
      <line
         class="cls-2"
         x1="229.74001"
         y1="142.09"
         x2="240.83"
         y2="140.63"
         id="line4757"
         style="fill:none;stroke:#364f6b;stroke-width:4px;stroke-linecap:round;stroke-miterlimit:10" />
      <line
         class="cls-2"
         x1="222.84"
         y1="89.739998"
         x2="233.94"
         y2="88.279999"
         id="line4759"
         style="fill:none;stroke:#364f6b;stroke-width:4px;stroke-linecap:round;stroke-miterlimit:10" />
      <line
         class="cls-2"
         x1="221.12"
         y1="76.650002"
         x2="232.21001"
         y2="75.190002"
         id="line4761"
         style="fill:none;stroke:#364f6b;stroke-width:4px;stroke-linecap:round;stroke-miterlimit:10" />
      <line
         class="cls-2"
         x1="226.28999"
         y1="115.91"
         x2="237.38"
         y2="114.45"
         id="line4763"
         style="fill:none;stroke:#364f6b;stroke-width:4px;stroke-linecap:round;stroke-miterlimit:10" />
      <line
         class="cls-2"
         x1="228.00999"
         y1="129"
         x2="239.10001"
         y2="127.54"
         id="line4765"
         style="fill:none;stroke:#364f6b;stroke-width:4px;stroke-linecap:round;stroke-miterlimit:10" />
      <line
         class="cls-2"
         x1="224.57001"
         y1="102.83"
         x2="235.66"
         y2="101.36"
         id="line4767"
         style="fill:none;stroke:#364f6b;stroke-width:4px;stroke-linecap:round;stroke-miterlimit:10" />
      <line
         class="cls-2"
         x1="88.190002"
         y1="94.150002"
         x2="77.099998"
         y2="95.610001"
         id="line4769"
         style="fill:none;stroke:#364f6b;stroke-width:4px;stroke-linecap:round;stroke-miterlimit:10" />
      <line
         class="cls-2"
         x1="95.080002"
         y1="146.5"
         x2="83.989998"
         y2="147.96001"
         id="line4771"
         style="fill:none;stroke:#364f6b;stroke-width:4px;stroke-linecap:round;stroke-miterlimit:10" />
      <line
         class="cls-2"
         x1="96.809998"
         y1="159.59"
         x2="85.709999"
         y2="161.05"
         id="line4773"
         style="fill:none;stroke:#364f6b;stroke-width:4px;stroke-linecap:round;stroke-miterlimit:10" />
      <line
         class="cls-2"
         x1="91.639999"
         y1="120.33"
         x2="80.550003"
         y2="121.79"
         id="line4775"
         style="fill:none;stroke:#364f6b;stroke-width:4px;stroke-linecap:round;stroke-miterlimit:10" />
      <line
         class="cls-2"
         x1="89.910004"
         y1="107.24"
         x2="78.82"
         y2="108.7"
         id="line4777"
         style="fill:none;stroke:#364f6b;stroke-width:4px;stroke-linecap:round;stroke-miterlimit:10" />
      <line
         class="cls-2"
         x1="93.360001"
         y1="133.41"
         x2="82.269997"
         y2="134.87"
         id="line4779"
         style="fill:none;stroke:#364f6b;stroke-width:4px;stroke-linecap:round;stroke-miterlimit:10" />
      <line
         class="cls-2"
         x1="113.86"
         y1="182.37"
         x2="115.32"
         y2="193.46001"
         id="line4781"
         style="fill:none;stroke:#364f6b;stroke-width:4px;stroke-linecap:round;stroke-miterlimit:10" />
      <line
         class="cls-2"
         x1="166.2"
         y1="175.48"
         x2="167.66"
         y2="186.57001"
         id="line4783"
         style="fill:none;stroke:#364f6b;stroke-width:4px;stroke-linecap:round;stroke-miterlimit:10" />
      <line
         class="cls-2"
         x1="179.28999"
         y1="173.75"
         x2="180.75"
         y2="184.85001"
         id="line4785"
         style="fill:none;stroke:#364f6b;stroke-width:4px;stroke-linecap:round;stroke-miterlimit:10" />
      <line
         class="cls-2"
         x1="140.03"
         y1="178.92"
         x2="141.49001"
         y2="190.02"
         id="line4787"
         style="fill:none;stroke:#364f6b;stroke-width:4px;stroke-linecap:round;stroke-miterlimit:10" />
      <line
         class="cls-2"
         x1="126.94"
         y1="180.64999"
         x2="128.39999"
         y2="191.74001"
         id="line4789"
         style="fill:none;stroke:#364f6b;stroke-width:4px;stroke-linecap:round;stroke-miterlimit:10" />
      <line
         class="cls-2"
         x1="153.12"
         y1="177.2"
         x2="154.58"
         y2="188.28999"
         id="line4791"
         style="fill:none;stroke:#364f6b;stroke-width:4px;stroke-linecap:round;stroke-miterlimit:10" />
      <line
         class="cls-2"
         x1="200.46001"
         y1="53.189999"
         x2="199"
         y2="42.099998"
         id="line4793"
         style="fill:none;stroke:#364f6b;stroke-width:4px;stroke-linecap:round;stroke-miterlimit:10" />
      <line
         class="cls-2"
         x1="148.11"
         y1="60.080002"
         x2="146.64999"
         y2="48.990002"
         id="line4795"
         style="fill:none;stroke:#364f6b;stroke-width:4px;stroke-linecap:round;stroke-miterlimit:10" />
      <line
         class="cls-2"
         x1="135.02"
         y1="61.799999"
         x2="133.56"
         y2="50.709999"
         id="line4797"
         style="fill:none;stroke:#364f6b;stroke-width:4px;stroke-linecap:round;stroke-miterlimit:10" />
      <line
         class="cls-2"
         x1="174.28"
         y1="56.630001"
         x2="172.82001"
         y2="45.540001"
         id="line4799"
         style="fill:none;stroke:#364f6b;stroke-width:4px;stroke-linecap:round;stroke-miterlimit:10" />
      <line
         class="cls-2"
         x1="187.37"
         y1="54.91"
         x2="185.91"
         y2="43.82"
         id="line4801"
         style="fill:none;stroke:#364f6b;stroke-width:4px;stroke-linecap:round;stroke-miterlimit:10" />
      <line
         class="cls-2"
         x1="161.19"
         y1="58.360001"
         x2="159.73"
         y2="47.259998"
         id="line4803"
         style="fill:none;stroke:#364f6b;stroke-width:4px;stroke-linecap:round;stroke-miterlimit:10" />
    </g>
    <path
       class="cls-4"
       d="m 35.800034,25.937073 c 0,0 0.547017,-0.427668 0.895119,-0.726041 L 65.786525,1.5798869 68.292859,20.347551 162.50912,7.9451785 c 4.6944,-0.6166376 8.95119,2.2079605 9.47832,6.3255085 l 2.3472,17.842708 v 0 l 7.76764,59.406073 v 0 l 3.97831,29.956652 c 0.54702,4.1076 -2.98373,6.52443 -5.19169,8.25499 l -30.88161,22.87527 -2.4765,-18.50908 -91.32204,12.03438 c -4.694402,0.61664 -8.951191,-2.21791 -9.478317,-6.32551 L 32.617388,32.620629 a 7.2604107,7.2604107 0 0 1 3.182646,-6.683556 z"
       id="path4831"
       inkscape:connector-curvature="0"
       style="fill:#9fd5dc;stroke-width:0.99457681" />
    <g
       transform="matrix(0.99457681,0,0,0.99457681,-48.639537,-39.854183)"
       id="g4837">
      <path
         class="cls-3"
         d="m 187.44,83.06 a 1,1 0 0 0 -0.13,-0.29 1.22,1.22 0 0 1 -0.25,1 l -2.28,2.88 3.37,-0.89 z"
         id="path4833"
         inkscape:connector-curvature="0"
         style="fill:#be2033" />
      <path
         class="cls-3"
         d="m 203.33,143.44 -3.33,-12.75 -6,1.59 a 0.69,0.69 0 0 1 -0.53,-0.07 0.71,0.71 0 0 1 -0.32,-0.43 0.68,0.68 0 0 1 0.49,-0.84 l 6,-1.59 -0.53,-2 -3.57,0.93 a 0.7,0.7 0 0 1 -0.53,-0.07 0.72,0.72 0 0 1 -0.32,-0.42 0.71,0.71 0 0 1 0.5,-0.85 l 3.57,-0.94 -0.53,-2 -3.57,0.94 a 0.69,0.69 0 0 1 -0.53,-0.07 0.72,0.72 0 0 1 -0.32,-0.42 0.69,0.69 0 0 1 0.5,-0.85 l 3.56,-0.94 -0.53,-2 -3.57,0.94 a 0.67,0.67 0 0 1 -0.52,-0.08 0.66,0.66 0 0 1 -0.32,-0.42 0.69,0.69 0 0 1 0.49,-0.85 l 3.57,-0.93 -0.53,-2 -3.57,0.94 a 0.67,0.67 0 0 1 -0.52,-0.07 0.65,0.65 0 0 1 -0.32,-0.42 0.69,0.69 0 0 1 0.49,-0.85 l 3.57,-0.94 -0.53,-2 -6,1.58 a 0.67,0.67 0 0 1 -0.52,-0.07 0.62,0.62 0 0 1 -0.32,-0.42 0.68,0.68 0 0 1 0.49,-0.84 l 6,-1.59 -0.53,-2 -3.57,0.94 a 0.69,0.69 0 0 1 -0.53,-0.07 0.72,0.72 0 0 1 -0.32,-0.42 0.69,0.69 0 0 1 0.5,-0.85 l 3.56,-0.94 -0.53,-2 -3.57,0.94 a 0.67,0.67 0 0 1 -0.52,-0.07 0.71,0.71 0 0 1 -0.32,-0.43 0.68,0.68 0 0 1 0.49,-0.84 l 3.57,-0.94 -0.53,-2 -3.57,0.94 a 0.67,0.67 0 0 1 -0.52,-0.07 0.65,0.65 0 0 1 -0.32,-0.42 0.69,0.69 0 0 1 0.49,-0.85 l 3.57,-0.94 -0.53,-2 -3.57,0.94 a 0.7,0.7 0 0 1 -0.53,-0.07 0.71,0.71 0 0 1 -0.32,-0.43 0.7,0.7 0 0 1 0.5,-0.84 l 3.57,-0.94 -0.53,-2 -6,1.58 a 0.7,0.7 0 0 1 -0.53,-0.07 0.72,0.72 0 0 1 -0.32,-0.42 0.71,0.71 0 0 1 0.5,-0.85 l 6,-1.59 -0.52,-2 -3.57,0.94 a 0.69,0.69 0 0 1 -0.53,-0.07 0.72,0.72 0 0 1 -0.32,-0.42 0.69,0.69 0 0 1 0.49,-0.85 l 3.57,-0.94 -0.53,-2 -3.57,0.93 a 0.67,0.67 0 0 1 -0.52,-0.07 0.62,0.62 0 0 1 -0.32,-0.42 0.69,0.69 0 0 1 0.49,-0.85 l 3.57,-0.94 -0.53,-2 -3.57,0.94 a 0.67,0.67 0 0 1 -0.52,-0.07 0.7,0.7 0 0 1 -0.33,-0.42 v 0 a 0.71,0.71 0 0 1 0.5,-0.83 l 0.2,-0.05 2.28,-2.88 a 1.22,1.22 0 0 0 0.25,-1 1.29,1.29 0 0 0 -0.46,-0.78 l -6.6,-5.23 a 1.26,1.26 0 0 0 -1.76,0.21 l -22,27.72 -27.23,-21.74 a 1.28,1.28 0 0 0 -1.79,0.21 l -5.2,6.57 a 1.22,1.22 0 0 0 -0.18,1.24 1.17,1.17 0 0 0 0.39,0.55 l 3.57,2.83 v 0 a 0.67,0.67 0 0 1 0.31,0.57 0.68,0.68 0 0 1 -0.69,0.7 h -3.69 v 2.08 h 3.69 a 0.69,0.69 0 0 1 0.5,1.18 0.69,0.69 0 0 1 -0.49,0.21 h -3.69 v 2.08 h 3.69 a 0.69,0.69 0 0 1 0.69,0.69 0.66,0.66 0 0 1 -0.2,0.49 0.67,0.67 0 0 1 -0.49,0.21 h -3.69 v 2.08 h 6.24 a 0.69,0.69 0 0 1 0.7,0.69 0.72,0.72 0 0 1 -0.2,0.49 0.73,0.73 0 0 1 -0.49,0.21 h -6.24 v 2.09 h 3.69 a 0.69,0.69 0 0 1 0.69,0.69 0.64,0.64 0 0 1 -0.2,0.49 0.66,0.66 0 0 1 -0.49,0.21 H 122 v 2.08 h 3.69 a 0.69,0.69 0 0 1 0.7,0.69 0.72,0.72 0 0 1 -0.2,0.49 0.68,0.68 0 0 1 -0.49,0.2 h -3.69 v 2.08 h 3.69 a 0.69,0.69 0 0 1 0.7,0.69 0.68,0.68 0 0 1 -0.69,0.69 h -3.69 v 2.08 h 3.69 a 0.69,0.69 0 0 1 0.49,1.18 0.7,0.7 0 0 1 -0.49,0.2 h -3.69 v 2.08 h 6.24 a 0.69,0.69 0 0 1 0.7,0.69 0.7,0.7 0 0 1 -0.2,0.49 0.69,0.69 0 0 1 -0.49,0.21 h -6.24 v 2.08 h 3.69 a 0.69,0.69 0 0 1 0.69,0.69 0.66,0.66 0 0 1 -0.2,0.49 0.67,0.67 0 0 1 -0.49,0.21 h -3.69 v 2.08 h 3.69 a 0.69,0.69 0 0 1 0.7,0.69 0.7,0.7 0 0 1 -0.2,0.49 0.69,0.69 0 0 1 -0.49,0.21 h -3.69 v 2.09 h 3.69 a 0.71,0.71 0 0 1 0.7,0.69 0.69,0.69 0 0 1 -0.21,0.49 0.66,0.66 0 0 1 -0.49,0.21 h -3.69 v 2.08 h 3.69 a 0.69,0.69 0 0 1 0.7,0.69 0.68,0.68 0 0 1 -0.2,0.49 0.66,0.66 0 0 1 -0.49,0.2 h -3.69 v 2.08 h 6.24 a 0.69,0.69 0 0 1 0.7,0.69 0.68,0.68 0 0 1 -0.69,0.7 h -6.24 v 13.18 a 1.08,1.08 0 0 0 0.31,0.73 1,1 0 0 0 0.74,0.31 l 10.41,-0.05 a 1,1 0 0 0 1,-1 l -0.24,-52.88 22.83,18.08 a 1.28,1.28 0 0 0 1.79,-0.21 l 1.37,-1.73 3.83,-4.84 13.48,-17 13.46,51.16 a 1,1 0 0 0 0.48,0.64 1,1 0 0 0 0.79,0.1 l 10.06,-2.64 a 1.07,1.07 0 0 0 0.64,-0.48 1,1 0 0 0 0.32,-0.8 z m -74.87,5.62 a 1.92,1.92 0 0 1 -1.37,-3.27 1.92,1.92 0 1 1 1.37,3.27 z m 68.72,-9.78 a 1.88,1.88 0 0 1 -1.17,0.89 2,2 0 0 1 -2.34,-1.37 1.89,1.89 0 0 1 0.2,-1.45 1.85,1.85 0 0 1 1.17,-0.89 1.89,1.89 0 0 1 1.45,0.2 1.85,1.85 0 0 1 0.89,1.17 1.89,1.89 0 0 1 -0.2,1.45 z"
         id="path4835"
         inkscape:connector-curvature="0"
         style="fill:#be2033" />
    </g>
  </g>
</svg>
