<?xml version="1.0" encoding="UTF-8" standalone="no"?>
<svg
   xmlns:dc="http://purl.org/dc/elements/1.1/"
   xmlns:cc="http://creativecommons.org/ns#"
   xmlns:rdf="http://www.w3.org/1999/02/22-rdf-syntax-ns#"
   xmlns:svg="http://www.w3.org/2000/svg"
   xmlns="http://www.w3.org/2000/svg"
   xmlns:sodipodi="http://sodipodi.sourceforge.net/DTD/sodipodi-0.dtd"
   xmlns:inkscape="http://www.inkscape.org/namespaces/inkscape"
   id="laag"
   viewBox="0 0 317.93 301.34"
   version="1.1"
   sodipodi:docname="logo Maakbib cmyk kleur 2.svg"
   inkscape:version="0.92.3 (2405546, 2018-03-11)">
  <metadata
     id="metadata1072">
    <rdf:RDF>
      <cc:Work
         rdf:about="">
        <dc:format>image/svg+xml</dc:format>
        <dc:type
           rdf:resource="http://purl.org/dc/dcmitype/StillImage" />
      </cc:Work>
    </rdf:RDF>
  </metadata>
  <sodipodi:namedview
     pagecolor="#ffffff"
     bordercolor="#666666"
     borderopacity="1"
     objecttolerance="10"
     gridtolerance="10"
     guidetolerance="10"
     inkscape:pageopacity="0"
     inkscape:pageshadow="2"
     inkscape:window-width="797"
     inkscape:window-height="480"
     id="namedview1070"
     showgrid="false"
     inkscape:zoom="0.78316852"
     inkscape:cx="18.509913"
     inkscape:cy="150.67"
     inkscape:window-x="0"
     inkscape:window-y="0"
     inkscape:window-maximized="0"
     inkscape:current-layer="laag" />
  <defs
     id="defs979">
    <style
       id="style977">
      .cls-1, .cls-2 {
        fill: none;
        stroke-linecap: round;
        stroke-miterlimit: 10;
      }

      .cls-1 {
        stroke: #e73954;
        stroke-width: 4px;
      }

      .cls-2 {
        stroke: #49bcc4;
        stroke-width: 3px;
      }

      .cls-3 {
        fill: #e73854;
      }

      .cls-4 {
        fill: #364f6b;
      }

      .cls-5 {
        fill: #49bcc5;
      }
    </style>
  </defs>
  <title
     id="title981">logo Maakbib FINAL cmyk kleur 2</title>
  <g
     id="g1067">
    <line
       class="cls-1"
       x1="229.74"
       y1="142.09"
       x2="240.83"
       y2="140.63"
       id="line983" />
    <line
       class="cls-1"
       x1="222.84"
       y1="89.74"
       x2="233.94"
       y2="88.28"
       id="line985" />
    <line
       class="cls-1"
       x1="221.12"
       y1="76.65"
       x2="232.21"
       y2="75.19"
       id="line987" />
    <line
       class="cls-1"
       x1="226.29"
       y1="115.91"
       x2="237.38"
       y2="114.45"
       id="line989" />
    <line
       class="cls-1"
       x1="228.01"
       y1="129"
       x2="239.1"
       y2="127.54"
       id="line991" />
    <line
       class="cls-1"
       x1="224.57"
       y1="102.83"
       x2="235.66"
       y2="101.36"
       id="line993" />
    <line
       class="cls-1"
       x1="88.19"
       y1="94.15"
       x2="77.1"
       y2="95.61"
       id="line995" />
    <line
       class="cls-1"
       x1="95.08"
       y1="146.5"
       x2="83.99"
       y2="147.96"
       id="line997" />
    <line
       class="cls-1"
       x1="96.81"
       y1="159.59"
       x2="85.71"
       y2="161.05"
       id="line999" />
    <line
       class="cls-1"
       x1="91.64"
       y1="120.33"
       x2="80.55"
       y2="121.79"
       id="line1001" />
    <line
       class="cls-1"
       x1="89.91"
       y1="107.24"
       x2="78.82"
       y2="108.7"
       id="line1003" />
    <line
       class="cls-1"
       x1="93.36"
       y1="133.41"
       x2="82.27"
       y2="134.87"
       id="line1005" />
    <line
       class="cls-1"
       x1="113.86"
       y1="182.37"
       x2="115.32"
       y2="193.46"
       id="line1007" />
    <line
       class="cls-1"
       x1="166.2"
       y1="175.48"
       x2="167.66"
       y2="186.57"
       id="line1009" />
    <line
       class="cls-1"
       x1="179.29"
       y1="173.75"
       x2="180.75"
       y2="184.85"
       id="line1011" />
    <line
       class="cls-1"
       x1="140.03"
       y1="178.92"
       x2="141.49"
       y2="190.02"
       id="line1013" />
    <line
       class="cls-1"
       x1="126.94"
       y1="180.65"
       x2="128.4"
       y2="191.74"
       id="line1015" />
    <line
       class="cls-2"
       x1="211.42"
       y1="251.34"
       x2="211.42"
       y2="259.75"
       id="line1017" />
    <line
       class="cls-1"
       x1="153.12"
       y1="177.2"
       x2="154.58"
       y2="188.29"
       id="line1019" />
    <line
       class="cls-1"
       x1="200.46"
       y1="53.19"
       x2="199"
       y2="42.1"
       id="line1021" />
    <line
       class="cls-1"
       x1="148.11"
       y1="60.08"
       x2="146.65"
       y2="48.99"
       id="line1023" />
    <line
       class="cls-1"
       x1="135.02"
       y1="61.8"
       x2="133.56"
       y2="50.71"
       id="line1025" />
    <line
       class="cls-1"
       x1="174.28"
       y1="56.63"
       x2="172.82"
       y2="45.54"
       id="line1027" />
    <line
       class="cls-1"
       x1="187.37"
       y1="54.91"
       x2="185.91"
       y2="43.82"
       id="line1029" />
    <line
       class="cls-1"
       x1="161.19"
       y1="58.36"
       x2="159.73"
       y2="47.26"
       id="line1031" />
    <line
       class="cls-2"
       x1="210.87"
       y1="250.12"
       x2="217.99"
       y2="257.24"
       id="line1033" />
    <line
       class="cls-2"
       x1="211.89"
       y1="250.12"
       x2="204.77"
       y2="257.24"
       id="line1035" />
    <line
       class="cls-2"
       x1="224.84"
       y1="250.63"
       x2="198.08"
       y2="250.63"
       id="line1037" />
    <g
       id="g1051">
      <path
         class="cls-3"
         d="M109.71,245.05l-2.8-22.48L98.84,238l-8.25-15.46-2.8,22.52H83.54l4-29.75H91l7.81,14.75,7.74-14.75H110L114,245.05Z"
         id="path1039" />
      <path
         class="cls-3"
         d="M118.53,243.77a6.16,6.16,0,0,1,2-10,21.73,21.73,0,0,1,8.71-1.79c0-1.87-.36-3.14-1.08-3.8a5,5,0,0,0-3.47-1,8.89,8.89,0,0,0-2.63.4,10.49,10.49,0,0,0-2.85,1.47l-.55-3.1a10.38,10.38,0,0,1,3.14-1.58,13,13,0,0,1,3.91-.59,8.43,8.43,0,0,1,4.27.93,5.48,5.48,0,0,1,2.34,3.11,18.86,18.86,0,0,1,.74,5.95V238a16.36,16.36,0,0,0,.15,2.57,2,2,0,0,0,2.23,1.8h.39l-.6,3.06h-.3a9.06,9.06,0,0,1-2.8-.34,3.22,3.22,0,0,1-1.55-1,6.6,6.6,0,0,1-1-1.74,8.13,8.13,0,0,1-6.37,3.06A6.41,6.41,0,0,1,118.53,243.77Zm8.33-2.12a7,7,0,0,0,2.36-2v-5q-4.59.17-6.57,1.21a3.54,3.54,0,0,0-2,3.38,3.09,3.09,0,0,0,.87,2.4,3.41,3.41,0,0,0,2.36.78A6.14,6.14,0,0,0,126.86,241.65Z"
         id="path1041" />
      <path
         class="cls-3"
         d="M138.93,243.77a6.16,6.16,0,0,1,2-10,21.69,21.69,0,0,1,8.71-1.79c0-1.87-.36-3.14-1.09-3.8a5,5,0,0,0-3.46-1,8.84,8.84,0,0,0-2.63.4,10.49,10.49,0,0,0-2.85,1.47L139,226a10.27,10.27,0,0,1,3.14-1.58,13,13,0,0,1,3.91-.59,8.45,8.45,0,0,1,4.27.93,5.53,5.53,0,0,1,2.34,3.11,19.15,19.15,0,0,1,.74,5.95V238a16.36,16.36,0,0,0,.15,2.57,2.25,2.25,0,0,0,.66,1.33,2.22,2.22,0,0,0,1.57.47h.38l-.59,3.06h-.3a9.06,9.06,0,0,1-2.8-.34,3.22,3.22,0,0,1-1.55-1,6.6,6.6,0,0,1-1-1.74,8.13,8.13,0,0,1-6.38,3.06A6.39,6.39,0,0,1,138.93,243.77Zm8.33-2.12a7,7,0,0,0,2.36-2v-5q-4.59.17-6.57,1.21a3.53,3.53,0,0,0-2,3.38,3.09,3.09,0,0,0,.87,2.4,3.38,3.38,0,0,0,2.35.78A6.18,6.18,0,0,0,147.26,241.65Z"
         id="path1043" />
      <path
         class="cls-3"
         d="M159.09,213.18h3.83v20.44l7.65-9.39h4.67L167,233.91l8.5,11.14h-4.67l-7.86-10.58v10.58h-3.83Z"
         id="path1045" />
      <path
         class="cls-3"
         d="M177,245.05v-4.88h3.55V221.06H177v-4.88h13.18a30.37,30.37,0,0,1,6.51.51,6.68,6.68,0,0,1,3.7,2.47,7.22,7.22,0,0,1,1.55,4.6,6,6,0,0,1-4.07,6q5.19,1.93,5.19,6.91a7.65,7.65,0,0,1-1.61,4.91,8,8,0,0,1-4.15,2.78,26.82,26.82,0,0,1-7.12.74Zm11.06-17.47h2.12a5.56,5.56,0,0,0,3.23-.75,3,3,0,0,0,1-2.64,2.73,2.73,0,0,0-1-2.42,6.4,6.4,0,0,0-3.51-.71h-1.87Zm0,12.59h2.12a7.16,7.16,0,0,0,4-.83,3.38,3.38,0,0,0,1.14-2.92,3.55,3.55,0,0,0-1.23-3.09,6.94,6.94,0,0,0-3.93-.88h-2.12Z"
         id="path1047" />
      <path
         class="cls-3"
         d="M228.24,216.18v11.06a7.35,7.35,0,0,1,5.71-2.78,7.79,7.79,0,0,1,6.28,2.93,11.38,11.38,0,0,1,2.41,7.49q0,4.88-2.41,7.67a7.75,7.75,0,0,1-6.11,2.79,8,8,0,0,1-5.88-2.61v2.32h-9.89v-4.63h3.48V220.81h-3.48v-4.63Zm7.83,18.66A6.09,6.09,0,0,0,235,231a3.44,3.44,0,0,0-2.8-1.31,3.73,3.73,0,0,0-2.85,1.29,6.13,6.13,0,0,0-1.18,4.19,6,6,0,0,0,1.11,3.84,3.6,3.6,0,0,0,5.65,0A6.43,6.43,0,0,0,236.07,234.84Z"
         id="path1049" />
    </g>
    <path
       class="cls-4"
       d="M84.9,66.15s.55-.43.9-.73l29.25-23.76,2.52,18.87L212.3,48.06c4.72-.62,9,2.22,9.53,6.36l2.36,17.94h0L232,132.09h0l4,30.12c.55,4.13-3,6.56-5.22,8.3l-31.05,23-2.49-18.61L105.42,187c-4.72.62-9-2.23-9.53-6.36L81.7,72.87A7.3,7.3,0,0,1,84.9,66.15Z"
       id="path1053" />
    <path
       class="cls-3"
       d="M208.2,240.45V229.62h-3V225H217.6v4.63h-3v15.46h-9.46v-4.63Zm.81,7.93a3.37,3.37,0,0,1,2.47-1,3.51,3.51,0,0,1,2.49,6,3.52,3.52,0,0,1-6-2.48A3.31,3.31,0,0,1,209,248.38Z"
       id="path1055" />
    <path
       class="cls-5"
       d="M122.51,91.68a1.17,1.17,0,0,1-.39-.55,1,1,0,0,0-.15.55v2.77l3.69,0a.67.67,0,0,1,.39.12l0,0Z"
       id="path1057" />
    <g
       id="g1063">
      <path
         class="cls-5"
         d="M187.45,83.06a1.09,1.09,0,0,0-.14-.31,1.26,1.26,0,0,1-.25,1l-2.28,2.88,3.37-.89Z"
         id="path1059" />
      <path
         class="cls-5"
         d="M203.33,143.44,200,130.69l-6,1.59a.7.7,0,0,1-.53-.07.71.71,0,0,1-.32-.43.69.69,0,0,1,.5-.84l6-1.59-.52-2-3.57.93a.69.69,0,0,1-.53-.07.72.72,0,0,1-.32-.42.69.69,0,0,1,.49-.85l3.57-.94-.53-2-3.57.94a.67.67,0,0,1-.52-.07.65.65,0,0,1-.32-.42.69.69,0,0,1,.49-.85l3.57-.94-.53-2-3.57.94a.7.7,0,0,1-.53-.08.66.66,0,0,1-.32-.42.71.71,0,0,1,.5-.85l3.57-.93-.53-2-3.57.94a.69.69,0,0,1-.53-.07.72.72,0,0,1-.32-.42.7.7,0,0,1,.5-.85l3.56-.94-.53-2-6,1.58a.69.69,0,0,1-.85-.49.68.68,0,0,1,.5-.84l6-1.59-.53-2-3.57.94a.67.67,0,0,1-.52-.07.65.65,0,0,1-.32-.42.69.69,0,0,1,.49-.85l3.57-.94-.53-2-3.57.94a.69.69,0,0,1-.53-.07.71.71,0,0,1-.32-.43.68.68,0,0,1,.5-.84l3.57-.94-.53-2-3.57.94a.69.69,0,0,1-.53-.07.72.72,0,0,1-.32-.42.69.69,0,0,1,.5-.85l3.56-.94-.52-2-3.57.94a.69.69,0,0,1-.53-.07.71.71,0,0,1-.32-.43.68.68,0,0,1,.49-.84l3.57-.94-.53-2-6,1.58a.69.69,0,0,1-.53-.07.72.72,0,0,1-.32-.42.69.69,0,0,1,.49-.85l6-1.59-.53-2-3.57.94a.67.67,0,0,1-.52-.07.7.7,0,0,1-.33-.42.7.7,0,0,1,.5-.85l3.57-.94-.53-2-3.57.93a.69.69,0,1,1-.35-1.34l3.57-.94-.53-2-3.57.94a.69.69,0,0,1-.53-.07.72.72,0,0,1-.32-.42v0h0a.68.68,0,0,1,.49-.82l.2-.05,2.28-2.88a1.26,1.26,0,0,0,.25-1,1.23,1.23,0,0,0-.45-.76l-6.6-5.23a1.26,1.26,0,0,0-1.76.21l-21.95,27.72L129.3,83.11a1.29,1.29,0,0,0-1.8.21l-5.2,6.57a1.27,1.27,0,0,0-.18,1.24,1.17,1.17,0,0,0,.39.55l3.58,2.83,0,0a.72.72,0,0,1,.31.57.69.69,0,0,1-.21.5.68.68,0,0,1-.48.2l-3.7,0v2.08l3.7,0a.69.69,0,0,1,.69.69.66.66,0,0,1-.2.49.67.67,0,0,1-.49.21l-3.69,0v2.08l3.69,0a.69.69,0,0,1,.5,1.18.69.69,0,0,1-.49.21l-3.69,0v2.08l6.24,0a.71.71,0,0,1,.7.69.72.72,0,0,1-.69.7l-6.25,0v2.09l3.69,0a.69.69,0,0,1,.7.69.72.72,0,0,1-.2.49.69.69,0,0,1-.49.21h-3.69v2.08h3.69a.7.7,0,0,1,.7.69.69.69,0,0,1-.21.49.64.64,0,0,1-.48.2l-3.7,0v2.08h3.7a.69.69,0,0,1,.49,1.18.7.7,0,0,1-.49.2l-3.69,0v2.08h3.69a.69.69,0,0,1,.7.69.68.68,0,0,1-.69.69l-3.69,0v2.08l6.24,0a.69.69,0,0,1,.69.69.63.63,0,0,1-.2.49.66.66,0,0,1-.49.21l-6.24,0v2.08l3.69,0a.69.69,0,0,1,.5,1.18.69.69,0,0,1-.49.21l-3.69,0v2.08l3.69,0a.71.71,0,0,1,.7.69.67.67,0,0,1-.21.49.65.65,0,0,1-.48.21h-3.7v2.09l3.69,0a.69.69,0,0,1,.7.69.72.72,0,0,1-.2.49.69.69,0,0,1-.49.21h-3.69v2.08h3.69a.7.7,0,0,1,.7.69.72.72,0,0,1-.2.49.68.68,0,0,1-.49.2l-3.7,0v2.08l6.25,0a.7.7,0,0,1,.49,1.19.7.7,0,0,1-.49.2l-6.24,0,.06,13.18a1,1,0,0,0,.31.73,1,1,0,0,0,.74.31l10.4-.05a1,1,0,0,0,.73-.31,1,1,0,0,0,.31-.74l-.25-52.88,22.84,18.08a1.28,1.28,0,0,0,1.79-.21l1.37-1.73,3.83-4.84,13.48-17,13.46,51.16a1,1,0,0,0,.48.64,1,1,0,0,0,.79.1l10.06-2.64a1,1,0,0,0,.74-1.27Zm-74.86,5.62a1.91,1.91,0,0,1-1.93-1.91,1.92,1.92,0,0,1,3.27-1.37,1.87,1.87,0,0,1,.57,1.36A2,2,0,0,1,128.47,149.06Zm68.72-9.78a1.9,1.9,0,0,1-1.17.89,2,2,0,0,1-2.35-1.37,1.92,1.92,0,0,1,1.37-2.34,1.91,1.91,0,0,1,1.46.2,1.91,1.91,0,0,1,.69,2.62Z"
         id="path1061" />
    </g>
    <path
       class="cls-5"
       d="M184.78,86.63l-.69.87a.68.68,0,0,1,.49-.82Z"
       id="path1065" />
  </g>
</svg>
