<?xml version="1.0" encoding="UTF-8" standalone="no"?>
<!-- Generator: Adobe Illustrator 18.0.0, SVG Export Plug-In . SVG Version: 6.00 Build 0)  -->

<svg
   xmlns:dc="http://purl.org/dc/elements/1.1/"
   xmlns:cc="http://creativecommons.org/ns#"
   xmlns:rdf="http://www.w3.org/1999/02/22-rdf-syntax-ns#"
   xmlns:svg="http://www.w3.org/2000/svg"
   xmlns="http://www.w3.org/2000/svg"
   xmlns:xlink="http://www.w3.org/1999/xlink"
   xmlns:sodipodi="http://sodipodi.sourceforge.net/DTD/sodipodi-0.dtd"
   xmlns:inkscape="http://www.inkscape.org/namespaces/inkscape"
   version="1.1"
   id="Capa_1"
   x="0px"
   y="0px"
   viewBox="0 0 144.773 144.773"
   style="enable-background:new 0 0 144.773 144.773;"
   xml:space="preserve"
   sodipodi:docname="avatar17.svg"
   inkscape:version="0.92.3 (2405546, 2018-03-11)"
   inkscape:export-filename="/home/benny/git/MaakBib/assets/images/avatars/avatar17.png"
   inkscape:export-xdpi="198.92999"
   inkscape:export-ydpi="198.92999"><metadata
   id="metadata85"><rdf:RDF><cc:Work
       rdf:about=""><dc:format>image/svg+xml</dc:format><dc:type
         rdf:resource="http://purl.org/dc/dcmitype/StillImage" /></cc:Work></rdf:RDF></metadata><defs
   id="defs83">
	
	

		<defs
   id="defs5">
			<circle
   id="SVGID_1_"
   cx="72.387001"
   cy="72.386002"
   r="72.386002" />
		</defs>
		<clipPath
   id="SVGID_2_">
			<use
   xlink:href="#SVGID_1_"
   style="overflow:visible"
   id="use7"
   x="0"
   y="0"
   width="100%"
   height="100%" />
		</clipPath>
		
	
			
			
			
			
			
			
			
			
		</defs><sodipodi:namedview
   pagecolor="#ffffff"
   bordercolor="#666666"
   borderopacity="1"
   objecttolerance="10"
   gridtolerance="10"
   guidetolerance="10"
   inkscape:pageopacity="0"
   inkscape:pageshadow="2"
   inkscape:window-width="1555"
   inkscape:window-height="927"
   id="namedview81"
   showgrid="false"
   inkscape:zoom="4.7660822"
   inkscape:cx="72.386497"
   inkscape:cy="72.386497"
   inkscape:window-x="94"
   inkscape:window-y="140"
   inkscape:window-maximized="0"
   inkscape:current-layer="Capa_1"
   showguides="true"
   inkscape:guide-bbox="true"><sodipodi:guide
     position="-108.83092,308.68408"
     orientation="0,1"
     id="guide1009"
     inkscape:locked="false" /></sodipodi:namedview>
<path
   id="circle2"
   style="fill:#bc9300;fill-opacity:1;stroke-width:0.93220294"
   sodipodi:type="arc"
   sodipodi:cx="71.773552"
   sodipodi:cy="82.814568"
   sodipodi:rx="67.478439"
   sodipodi:ry="67.478439"
   sodipodi:start="2.4876446"
   sodipodi:end="0.68112779"
   d="m 18.216705,123.86337 a 67.478439,67.478439 0 0 1 8.430876,-91.21838 67.478439,67.478439 0 0 1 91.598699,1.24489 67.478439,67.478439 0 0 1 5.94878,91.41381 L 71.773552,82.814568 Z" /><g
   id="g28"
   transform="matrix(1.3084182,0,0,1.3084182,-23.928612,-45.877217)">
				<path
   inkscape:connector-curvature="0"
   id="path10"
   d="m 107.053,116.94 c -4.666,-8.833 -34.666,-14.376 -34.666,-14.376 0,0 -30,5.543 -34.666,14.376 -3.449,12.258 -2.565938,9.49024 -2.565938,9.49024 H 72.387 l 35.44707,1.38823 c 0,0 3.60393,0.25453 -0.78107,-10.87847 z"
   style="fill:#f1c9a5"
   sodipodi:nodetypes="ccccccc" />
				<path
   inkscape:connector-curvature="0"
   id="path12"
   d="m 72.387,102.564 c 0,0 30,5.543 34.666,14.376 4.386,11.133 4.16489,11.0188 4.16489,11.0188 H 72.387 Z"
   style="fill:#e4b692"
   sodipodi:nodetypes="ccccc" />
				<rect
   id="rect14"
   height="27.336"
   width="16.334"
   style="fill:#f1c9a5"
   y="84.606003"
   x="64.220001" />
				<rect
   id="rect16"
   height="27.336"
   width="8.1669998"
   style="fill:#e4b692"
   y="84.606003"
   x="72.387001" />
				<path
   inkscape:connector-curvature="0"
   id="path18"
   d="m 64.22,97.273 c 1.469,4.217 7.397,6.634 11.751,6.634 1.575,0 3.107,-0.264 4.583,-0.747 V 84.606 H 64.22 Z"
   style="opacity:0.1;fill:#ddac8c" />
				<path
   inkscape:connector-curvature="0"
   id="path20"
   d="m 93.387,67.357 c 0,-17.074 -9.402,-26.783 -21,-26.783 -11.598,0 -21,9.709 -21,26.783 0,22.966 9.402,30.917 21,30.917 11.597,0 21,-8.908 21,-30.917 z"
   style="fill:#f1c9a5" />
				<path
   inkscape:connector-curvature="0"
   id="path22"
   d="m 90.19,79.197 c -3.807,-0.398 -6.377,-4.5 -5.732,-9.156 0.637,-4.66 4.242,-8.12 8.051,-7.724 3.805,0.396 6.371,4.496 5.729,9.156 -0.639,4.661 -4.241,8.118 -8.048,7.724 z"
   style="fill:#e4b692" />
				<path
   inkscape:connector-curvature="0"
   id="path24"
   d="m 46.685,71.474 c -0.643,-4.66 1.924,-8.76 5.727,-9.156 3.81,-0.396 7.416,3.063 8.055,7.724 0.643,4.656 -1.93,8.758 -5.734,9.156 -3.808,0.393 -7.41,-3.064 -8.048,-7.724 z"
   style="fill:#f1c9a5" />
				<path
   inkscape:connector-curvature="0"
   id="path26"
   d="m 93.387,67.357 c 0,-17.074 -9.402,-26.783 -21,-26.783 v 57.7 c 11.597,0 21,-8.908 21,-30.917 z"
   style="fill:#e4b692" />
			</g><path
   inkscape:connector-curvature="0"
   id="path30"
   d="m 95.499876,60.978681 c -1.478513,4.155536 -3.9789,9.151076 -8.496868,9.151076 -5.647133,0 -9.68622,-4.589931 -16.164198,-4.589931 -0.01832,0 -0.03533,0.0026 -0.05364,0.0026 -0.01963,0 -0.03664,-0.0026 -0.05626,-0.0026 -6.47667,0 -10.514449,4.589931 -16.164199,4.589931 -4.517968,0 -7.017047,-4.99554 -8.495559,-9.151076 l -1.279633,-8.004903 v 9.57893 c 0,0 2.147114,11.281181 6.267323,14.006616 3.356093,2.981886 14.311478,8.08995 19.669451,8.08995 h 0.0013 c 0.01832,0 0.03664,-0.0026 0.05626,-0.0026 0.01832,0 0.03664,0.0026 0.05365,0.0026 h 0.0026 c 5.359281,0 16.314667,-5.106756 19.669451,-8.08995 4.120209,-2.725435 6.267323,-14.006616 6.267323,-14.006616 v -9.57893 z"
   style="fill:#f9ce2f;stroke-width:1.30841815;fill-opacity:1" /><path
   inkscape:connector-curvature="0"
   id="path32"
   d="m 57.478552,11.485145 c 0,0 5.102831,20.655998 33.537375,31.105026 -2.674407,-4.617408 -3.15983,-10.20697 -3.15983,-10.20697 0,0 4.617408,4.860773 12.149973,8.749392 4.13198,-8.261352 8.99276,-20.655998 -1.943003,-27.459772 C 87.127308,6.8677375 61.123805,-5.2848508 57.478552,11.485145 Z"
   style="fill:#f9ce2f;stroke-width:1.30841815;fill-opacity:1" /><path
   inkscape:connector-curvature="0"
   id="path34"
   d="m 48.001679,40.889228 c 0,0 2.110478,-23.581622 10.896506,-28.798285 -7.494619,-3.2697371 -18.915802,6.6834 -17.70159,12.758386 1.215521,6.076294 6.805084,16.039899 6.805084,16.039899 z"
   style="fill:#f9ce2f;stroke-width:1.30841815;fill-opacity:1" /><path
   inkscape:connector-curvature="0"
   id="path36"
   d="m 116.14148,107.12921 c -3.56675,-6.74882 -18.425144,-12.025674 -30.178664,-15.250925 -0.460563,7.994435 -7.068075,14.340265 -15.17896,14.340265 -8.109576,0 -14.718396,-6.34583 -15.177651,-14.340265 -11.753521,3.225251 -26.613226,8.502105 -30.179974,15.250925 -4.512734,16.03859 -7.705068,16.05317 -7.705068,16.05317 14.948149,19.19027 32.941319,21.50213 53.322177,21.92094 20.246698,-1.14837 34.69746,-3.0516 53.15172,-19.79963 0,0 -2.31616,-3.60786 -8.05358,-18.17448 z"
   style="fill:#fb621e;stroke-width:1.30841815"
   sodipodi:nodetypes="ccscccccc" /><path
   inkscape:connector-curvature="0"
   id="path38"
   d="m 54.72564,95.803539 c 0.486731,7.994431 7.47761,14.340261 16.056908,14.340261 8.580606,0 15.570176,-6.34583 16.056908,-14.340261 10.772207,2.793473 23.996394,7.129571 29.795304,12.626231 -0.16225,-0.43962 -0.32711,-0.87402 -0.4959,-1.30056 -3.56674,-6.74882 -18.42514,-12.025674 -30.178661,-15.250925 -0.460563,7.994435 -7.068075,14.340265 -15.17896,14.340265 -8.109576,0 -14.718396,-6.34583 -15.177651,-14.340265 -11.75352,3.225251 -26.613226,8.502105 -30.179974,15.250925 -0.105982,0.37813 -0.211964,0.7615 -0.317946,1.14355 5.887882,-5.42077 18.95113,-9.703225 29.619972,-12.469221 z"
   style="opacity:0.2;fill:#e53d0c;stroke-width:1.30841815" /><path
   inkscape:connector-curvature="0"
   id="path40"
   d="m 51.13534,93.167077 c 1.48898,9.525283 9.705846,16.821023 19.648516,16.821023 9.94267,0 18.159536,-7.29574 19.648516,-16.821023 -1.519073,-0.460564 -3.01852,-0.889725 -4.469556,-1.287484 -0.460563,7.994435 -7.068075,14.340267 -15.17896,14.340267 -8.109576,0 -14.718396,-6.345832 -15.177651,-14.340267 -1.452344,0.397759 -2.951791,0.82692 -4.470865,1.287484 z"
   style="fill:#e53d0c;stroke-width:1.30841815" /><path
   inkscape:connector-curvature="0"
   id="path42"
   d="m 75.254721,72.740052 c 0,0 -0.654209,-2.912539 -4.470865,-2.912539 -3.489551,0 -4.470865,2.912539 -4.470865,2.912539 z"
   style="fill:#ffffff;stroke-width:1.30841815" />
<g
   id="g50">
</g>
<g
   id="g52">
</g>
<g
   id="g54">
</g>
<g
   id="g56">
</g>
<g
   id="g58">
</g>
<g
   id="g60">
</g>
<g
   id="g62">
</g>
<g
   id="g64">
</g>
<g
   id="g66">
</g>
<g
   id="g68">
</g>
<g
   id="g70">
</g>
<g
   id="g72">
</g>
<g
   id="g74">
</g>
<g
   id="g76">
</g>
<g
   id="g78">
</g>
<g
   id="g1111"
   transform="translate(-166.82572,-10.043839)"><path
     sodipodi:open="true"
     d="m 222.26618,56.999216 a 3.3022084,3.6691203 0 0 1 0.53103,-5.072808 3.3022084,3.6691203 0 0 1 4.57992,0.43086 3.3022084,3.6691203 0 0 1 -0.24413,5.0998 3.3022084,3.6691203 0 0 1 -4.59521,-0.111385"
     sodipodi:end="2.3623426"
     sodipodi:start="2.4876527"
     sodipodi:ry="3.6691203"
     sodipodi:rx="3.3022084"
     sodipodi:cy="54.767223"
     sodipodi:cx="224.88712"
     sodipodi:type="arc"
     id="path1105"
     style="fill:#252525;fill-opacity:1;stroke:none;stroke-width:1.08888888;stroke-opacity:1" /><path
     style="fill:#252525;fill-opacity:1;stroke:none;stroke-width:1.08888888;stroke-opacity:1"
     id="path1107"
     sodipodi:type="arc"
     sodipodi:cx="251.84392"
     sodipodi:cy="54.767223"
     sodipodi:rx="3.3022084"
     sodipodi:ry="3.6691203"
     sodipodi:start="2.4876527"
     sodipodi:end="2.3623426"
     d="m 249.22298,56.999216 a 3.3022084,3.6691203 0 0 1 0.53104,-5.072808 3.3022084,3.6691203 0 0 1 4.57992,0.43086 3.3022084,3.6691203 0 0 1 -0.24413,5.0998 3.3022084,3.6691203 0 0 1 -4.59522,-0.111385"
     sodipodi:open="true" /></g></svg>