<?xml version="1.0" encoding="UTF-8" standalone="no"?>
<!-- Generator: Adobe Illustrator 18.0.0, SVG Export Plug-In . SVG Version: 6.00 Build 0)  -->

<svg
   xmlns:dc="http://purl.org/dc/elements/1.1/"
   xmlns:cc="http://creativecommons.org/ns#"
   xmlns:rdf="http://www.w3.org/1999/02/22-rdf-syntax-ns#"
   xmlns:svg="http://www.w3.org/2000/svg"
   xmlns="http://www.w3.org/2000/svg"
   xmlns:xlink="http://www.w3.org/1999/xlink"
   xmlns:sodipodi="http://sodipodi.sourceforge.net/DTD/sodipodi-0.dtd"
   xmlns:inkscape="http://www.inkscape.org/namespaces/inkscape"
   version="1.1"
   id="Capa_1"
   x="0px"
   y="0px"
   viewBox="0 0 144.773 144.773"
   style="enable-background:new 0 0 144.773 144.773;"
   xml:space="preserve"
   sodipodi:docname="avatar18.svg"
   inkscape:version="0.92.3 (2405546, 2018-03-11)"
   inkscape:export-filename="/media/benny/hd2/datahd2/git/MaakBib/assets/images/avatars/avatar18.png"
   inkscape:export-xdpi="198.92999"
   inkscape:export-ydpi="198.92999"><metadata
   id="metadata83"><rdf:RDF><cc:Work
       rdf:about=""><dc:format>image/svg+xml</dc:format><dc:type
         rdf:resource="http://purl.org/dc/dcmitype/StillImage" /><dc:title></dc:title></cc:Work></rdf:RDF></metadata><defs
   id="defs81">
	
	

		<defs
   id="defs5">
			<circle
   id="SVGID_1_"
   cx="72.387001"
   cy="72.386002"
   r="72.386002" />
		</defs>
		<clipPath
   id="SVGID_2_">
			<use
   xlink:href="#SVGID_1_"
   style="overflow:visible"
   id="use7"
   x="0"
   y="0"
   width="100%"
   height="100%" />
		</clipPath>
		
	
			
			
			
			
			
			
			
		</defs><sodipodi:namedview
   pagecolor="#ffffff"
   bordercolor="#666666"
   borderopacity="1"
   objecttolerance="1"
   gridtolerance="1"
   guidetolerance="1"
   inkscape:pageopacity="0"
   inkscape:pageshadow="2"
   inkscape:window-width="1029"
   inkscape:window-height="705"
   id="namedview79"
   showgrid="false"
   inkscape:zoom="1.6301383"
   inkscape:cx="42.945825"
   inkscape:cy="72.386497"
   inkscape:window-x="325"
   inkscape:window-y="0"
   inkscape:window-maximized="0"
   inkscape:current-layer="Capa_1" />
<circle
   id="circle2"
   r="72.386002"
   cy="72.386002"
   cx="72.387001"
   style="fill:#a6d9ea" /><path
   inkscape:connector-curvature="0"
   id="XMLID_943_"
   style="fill:#dbb437;stroke-width:0.27249992;fill-opacity:1"
   d="m 102.56201,74.591611 c 0,-22.201387 -11.648285,-38.495793 -30.149395,-38.495793 -18.398105,0 -30.017502,16.114283 -30.146395,38.126555 -0.674437,-0.1526 -1.375034,-0.235712 -2.095252,-0.235712 -5.226276,0 -9.463105,4.236829 -9.463105,9.463105 0,4.294054 2.860977,7.917758 6.779798,9.074793 0.09129,5.147523 4.289694,9.292791 9.458745,9.292791 1.579955,0 3.068077,-0.38913 4.377167,-1.07392 1.360592,3.55749 4.804174,6.08465 8.839625,6.08465 5.226276,0 9.463105,-4.23683 9.463105,-9.463105 0,-0.763818 -0.09292,-1.50529 -0.26378,-2.216787 12.012887,0.459435 24.689584,-1.80395 30.159475,-6.790698 7.191822,-6.555804 3.040012,-7.787776 3.040012,-13.765879 z" /><path
   inkscape:connector-curvature="0"
   id="XMLID_946_"
   style="fill:#b2922d;stroke-width:0.27249992;fill-opacity:1"
   d="m 114.11737,83.449766 c 0,-5.226276 -4.23683,-9.463105 -9.46311,-9.463105 -0.72049,0 -1.42109,0.08311 -2.09525,0.235712 -0.12889,-22.012272 -11.74829,-38.126555 -30.146395,-38.126555 -0.0087,0 -0.01717,2.72e-4 -0.02562,2.72e-4 v 59.110685 c 1.02678,2.73e-4 2.053559,-0.01935 3.075434,-0.05831 -0.170857,0.711498 -0.26378,1.45297 -0.26378,2.216787 0,5.226268 4.236829,9.463098 9.463105,9.463098 4.035724,0 7.479306,-2.52716 8.839626,-6.08465 1.309362,0.68452 2.797484,1.07392 4.377166,1.07392 5.169324,0 9.367454,-4.14526 9.458744,-9.292784 3.91936,-1.157307 6.78007,-4.781011 6.78007,-9.075065 z" /><g
   id="g30">
				<path
   inkscape:connector-curvature="0"
   id="path12"
   d="m 107.053,116.94 c -4.666,-8.833 -34.666,-14.376 -34.666,-14.376 0,0 -30,5.543 -34.666,14.376 -3.449,12.258 -6.334,27.833 -6.334,27.833 h 41 41 c 0,0 -1.949,-16.7 -6.334,-27.833 z"
   style="fill:#f1c9a5" />
				<path
   inkscape:connector-curvature="0"
   id="path14"
   d="m 72.387,102.564 c 0,0 30,5.543 34.666,14.376 4.385,11.133 6.334,27.833 6.334,27.833 h -41 z"
   style="fill:#e4b692" />
				<rect
   id="rect16"
   height="27.336"
   width="16.334"
   style="fill:#f1c9a5"
   y="84.606003"
   x="64.219002" />
				<rect
   id="rect18"
   height="27.336"
   width="8.1660004"
   style="fill:#e4b692"
   y="84.606003"
   x="72.387001" />
				<path
   inkscape:connector-curvature="0"
   id="path20"
   d="m 64.219,97.273 c 1.469,4.217 7.398,6.634 11.752,6.634 1.574,0 3.108,-0.264 4.582,-0.747 V 84.606 H 64.219 Z"
   style="opacity:0.1;fill:#ddac8c" />
				<path
   inkscape:connector-curvature="0"
   id="path22"
   d="m 93.387,67.357 c 0,-17.074 -9.402,-26.783 -21,-26.783 -11.598,0 -21,9.709 -21,26.783 0,17.074 9.402,30.917 21,30.917 11.598,0 21,-13.842 21,-30.917 z"
   style="fill:#f1c9a5" />
				<path
   inkscape:connector-curvature="0"
   id="path24"
   d="m 90.19,79.195 c -3.807,-0.424 -6.377,-4.783 -5.732,-9.732 0.637,-4.953 4.242,-8.63 8.051,-8.209 3.805,0.422 6.371,4.779 5.729,9.732 -0.64,4.953 -4.241,8.627 -8.048,8.209 z"
   style="fill:#e4b692" />
				<path
   inkscape:connector-curvature="0"
   id="path26"
   d="m 46.684,70.986 c -0.643,-4.953 1.924,-9.311 5.727,-9.732 3.81,-0.421 7.416,3.256 8.055,8.209 0.643,4.949 -1.93,9.309 -5.734,9.732 -3.808,0.418 -7.409,-3.256 -8.048,-8.209 z"
   style="fill:#f1c9a5" />
				<path
   inkscape:connector-curvature="0"
   id="path28"
   d="m 93.387,67.357 c 0,-17.074 -9.402,-26.783 -21,-26.783 v 57.7 c 11.598,0 21,-13.842 21,-30.917 z"
   style="fill:#e4b692" />
			</g><polygon
   id="polygon32"
   points="72.387,144.773 97.774,144.773 97.774,117.205 46.895,117.205 46.895,144.773 "
   style="fill:#ffffff" /><path
   inkscape:connector-curvature="0"
   id="path34"
   d="m 67.459,144.773 -4.744,-40.007 c -10.615,1.666 -22.643,7.719 -24.994,12.174 -3.449,12.258 -6.334,27.833 -6.334,27.833 z"
   style="fill:#fe393e" /><path
   inkscape:connector-curvature="0"
   id="path36"
   d="m 79.336,144.773 h 34.051 c 0,0 -1.949,-16.7 -6.334,-27.833 -3.828,-6.82 -18.959,-10.514 -24.232,-12.067 z"
   style="fill:#fe393e" /><path
   inkscape:connector-curvature="0"
   id="path40"
   d="m 74.455851,47.481941 c 0,0 0.506,7.666 8.219,8.333 7.715,0.667 8.715,6.318 7.215,11.409 -1.5,5.091 -2.168,7.925 2,11.925 4.166,4 -0.5,19.445999 -0.5,19.445999 l 15.334019,-7.296999 c 0,0 -3.271,-12.403 -1.5,-19.316 1.771,-6.913 -6.168019,-11.833 -8.168019,-16.833 -2,-5 -12.041,-23.04 -20.166,-21.67 -8.127,1.37 -7.309,10.003 -7.309,10.003 z"
   style="fill:#b2922d;fill-opacity:1" />
<g
   id="g48">
</g>
<g
   id="g50">
</g>
<g
   id="g52">
</g>
<g
   id="g54">
</g>
<g
   id="g56">
</g>
<g
   id="g58">
</g>
<g
   id="g60">
</g>
<g
   id="g62">
</g>
<g
   id="g64">
</g>
<g
   id="g66">
</g>
<g
   id="g68">
</g>
<g
   id="g70">
</g>
<g
   id="g72">
</g>
<g
   id="g74">
</g>
<g
   id="g76">
</g>
<path
   style="fill:#dbb437;fill-opacity:1"
   d="m 69.926766,48.095386 c 0,0 -0.506,7.666 -8.219,8.333 -7.715,0.667 -8.715,6.318 -7.215,11.409 1.5,5.091 2.168,7.925 -2,11.925 -4.166,4 0.5,19.445999 0.5,19.445999 L 37.658747,91.911386 c 0,0 3.271,-12.403 1.5,-19.316 -1.771,-6.913 6.168019,-11.833 8.168019,-16.833 2,-5 12.041,-23.04 20.166,-21.67 8.127,1.37 7.309,10.003 7.309,10.003 z"
   id="path1089"
   inkscape:connector-curvature="0" /><g
   id="g1105"
   transform="translate(-0.61344489)"
   style="fill:#302864;fill-opacity:1"><path
     sodipodi:open="true"
     d="m 61.194714,69.710928 a 3.3022084,3.6691203 0 0 1 0.531039,-5.072808 3.3022084,3.6691203 0 0 1 4.579921,0.43086 3.3022084,3.6691203 0 0 1 -0.24413,5.0998 3.3022084,3.6691203 0 0 1 -4.595215,-0.111385"
     sodipodi:end="2.3623426"
     sodipodi:start="2.4876527"
     sodipodi:ry="3.6691203"
     sodipodi:rx="3.3022084"
     sodipodi:cy="67.478935"
     sodipodi:cx="63.815655"
     sodipodi:type="arc"
     id="path1105"
     style="fill:#302864;fill-opacity:1;stroke:none;stroke-width:1.08888888;stroke-opacity:1" /><path
     style="fill:#302864;fill-opacity:1;stroke:none;stroke-width:1.08888888;stroke-opacity:1"
     id="path1107"
     sodipodi:type="arc"
     sodipodi:cx="82.772461"
     sodipodi:cy="67.478935"
     sodipodi:rx="3.3022084"
     sodipodi:ry="3.6691203"
     sodipodi:start="2.4876527"
     sodipodi:end="2.3623426"
     d="m 80.151521,69.710928 a 3.3022084,3.6691203 0 0 1 0.531038,-5.072808 3.3022084,3.6691203 0 0 1 4.579921,0.43086 3.3022084,3.6691203 0 0 1 -0.24413,5.0998 3.3022084,3.6691203 0 0 1 -4.595215,-0.111385"
     sodipodi:open="true" /></g><path
   style="fill:#ffffff;fill-rule:evenodd;stroke:none;stroke-width:1px;stroke-linecap:butt;stroke-linejoin:miter;stroke-opacity:1;fill-opacity:1"
   d="m 29.445355,131.27721 c 29.199789,13.37158 56.886562,14.63903 82.815065,1.84033 l 12.88234,12.88234 -96.924295,1.84034 z"
   id="path1112"
   inkscape:connector-curvature="0"
   sodipodi:nodetypes="ccccc" /></svg>