<?xml version="1.0" encoding="UTF-8" standalone="no"?>
<!-- Generator: Adobe Illustrator 18.0.0, SVG Export Plug-In . SVG Version: 6.00 Build 0)  -->

<svg
   xmlns:dc="http://purl.org/dc/elements/1.1/"
   xmlns:cc="http://creativecommons.org/ns#"
   xmlns:rdf="http://www.w3.org/1999/02/22-rdf-syntax-ns#"
   xmlns:svg="http://www.w3.org/2000/svg"
   xmlns="http://www.w3.org/2000/svg"
   xmlns:xlink="http://www.w3.org/1999/xlink"
   xmlns:sodipodi="http://sodipodi.sourceforge.net/DTD/sodipodi-0.dtd"
   xmlns:inkscape="http://www.inkscape.org/namespaces/inkscape"
   version="1.1"
   id="Capa_1"
   x="0px"
   y="0px"
   viewBox="0 0 144.773 144.773"
   style="enable-background:new 0 0 144.773 144.773;"
   xml:space="preserve"
   sodipodi:docname="avatar18.svg"
   inkscape:version="0.92.3 (2405546, 2018-03-11)"
   inkscape:export-filename="/media/benny/hd2/datahd2/git/MaakBib/assets/images/avatars/avatar18.png"
   inkscape:export-xdpi="198.92999"
   inkscape:export-ydpi="198.92999"><metadata
   id="metadata83"><rdf:RDF><cc:Work
       rdf:about=""><dc:format>image/svg+xml</dc:format><dc:type
         rdf:resource="http://purl.org/dc/dcmitype/StillImage" /><dc:title /></cc:Work></rdf:RDF></metadata><defs
   id="defs81">
	
	

		<defs
   id="defs5">
			<circle
   id="SVGID_1_"
   cx="72.387001"
   cy="72.386002"
   r="72.386002" />
		</defs>
		<clipPath
   id="SVGID_2_">
			<use
   xlink:href="#SVGID_1_"
   style="overflow:visible"
   id="use7"
   x="0"
   y="0"
   width="100%"
   height="100%" />
		</clipPath>
		
	
			
			
			
			
			
			
			
		</defs><sodipodi:namedview
   pagecolor="#ffffff"
   bordercolor="#666666"
   borderopacity="1"
   objecttolerance="1"
   gridtolerance="1"
   guidetolerance="1"
   inkscape:pageopacity="0"
   inkscape:pageshadow="2"
   inkscape:window-width="1029"
   inkscape:window-height="705"
   id="namedview79"
   showgrid="false"
   inkscape:zoom="1.6301383"
   inkscape:cx="44.835668"
   inkscape:cy="72.386498"
   inkscape:window-x="325"
   inkscape:window-y="0"
   inkscape:window-maximized="0"
   inkscape:current-layer="Capa_1" />
<circle
   id="circle2"
   r="67.478439"
   cy="79.268349"
   cx="73.160118"
   style="fill:#a6d9ea;stroke-width:0.93220294" />
<g
   id="g48">
</g>
<g
   id="g50">
</g>
<g
   id="g52">
</g>
<g
   id="g54">
</g>
<g
   id="g56">
</g>
<g
   id="g58">
</g>
<g
   id="g60">
</g>
<g
   id="g62">
</g>
<g
   id="g64">
</g>
<g
   id="g66">
</g>
<g
   id="g68">
</g>
<g
   id="g70">
</g>
<g
   id="g72">
</g>
<g
   id="g74">
</g>
<g
   id="g76">
</g>
<path
   inkscape:connector-curvature="0"
   id="XMLID_943_"
   style="fill:#dbb437;fill-opacity:1;stroke-width:0.34407768"
   d="m 111.04787,55.964792 c 0,-28.033041 -14.707945,-48.6075102 -38.068755,-48.6075102 -23.230748,0 -37.90222,20.3470332 -38.064969,48.1412842 -0.851592,-0.192684 -1.736216,-0.297627 -2.645614,-0.297627 -6.599065,0 -11.948785,5.34972 -11.948785,11.948785 0,5.421977 3.612472,9.997521 8.560652,11.458476 0.115269,6.499626 5.416471,11.733735 11.94328,11.733735 1.994963,0 3.873971,-0.491343 5.526921,-1.356008 1.717979,4.491939 6.06609,7.68291 11.161535,7.68291 6.599066,0 11.948786,-5.349722 11.948786,-11.948786 0,-0.96445 -0.117328,-1.900685 -0.333068,-2.799072 15.168321,0.580115 31.174817,-2.277795 38.081487,-8.574415 9.0809,-8.277822 3.83853,-9.833397 3.83853,-17.381772 z" /><path
   inkscape:connector-curvature="0"
   id="XMLID_946_"
   style="fill:#b2922d;fill-opacity:1;stroke-width:0.34407768"
   d="m 125.63849,67.149724 c 0,-6.599065 -5.34972,-11.948785 -11.94879,-11.948785 -0.90975,0 -1.79437,0.104941 -2.64562,0.297627 C 110.88134,27.704315 96.209863,7.3572818 72.979115,7.3572818 c -0.01098,0 -0.02168,3.434e-4 -0.03235,3.434e-4 V 81.994955 c 1.296485,3.45e-4 2.592968,-0.02443 3.88326,-0.07363 -0.215736,0.898388 -0.333067,1.834623 -0.333067,2.799072 0,6.599055 5.34972,11.948776 11.948785,11.948776 5.095791,0 9.443901,-3.19097 11.161537,-7.682909 1.65329,0.864324 3.5323,1.356008 5.52692,1.356008 6.52715,0 11.82801,-5.234099 11.94328,-11.733727 4.94886,-1.461297 8.56099,-6.036842 8.56099,-11.458818 z" /><g
   id="g30"
   transform="matrix(1.2626707,0,0,1.2626707,-18.454172,-38.21985)">
				<path
   inkscape:connector-curvature="0"
   id="path12"
   d="m 107.053,116.94 c -4.666,-8.833 -34.666,-14.376 -34.666,-14.376 0,0 -30,5.543 -34.666,14.376 -3.449,12.258 -6.334,27.833 -6.334,27.833 h 41 41 c 0,0 -1.949,-16.7 -6.334,-27.833 z"
   style="fill:#f1c9a5" />
				<path
   inkscape:connector-curvature="0"
   id="path14"
   d="m 72.387,102.564 c 0,0 30,5.543 34.666,14.376 4.385,11.133 6.334,27.833 6.334,27.833 h -41 z"
   style="fill:#e4b692" />
				<rect
   id="rect16"
   height="27.336"
   width="16.334"
   style="fill:#f1c9a5"
   y="84.606003"
   x="64.219002" />
				<rect
   id="rect18"
   height="27.336"
   width="8.1660004"
   style="fill:#e4b692"
   y="84.606003"
   x="72.387001" />
				<path
   inkscape:connector-curvature="0"
   id="path20"
   d="m 64.219,97.273 c 1.469,4.217 7.398,6.634 11.752,6.634 1.574,0 3.108,-0.264 4.582,-0.747 V 84.606 H 64.219 Z"
   style="opacity:0.1;fill:#ddac8c" />
				<path
   inkscape:connector-curvature="0"
   id="path22"
   d="m 93.387,67.357 c 0,-17.074 -9.402,-26.783 -21,-26.783 -11.598,0 -21,9.709 -21,26.783 0,17.074 9.402,30.917 21,30.917 11.598,0 21,-13.842 21,-30.917 z"
   style="fill:#f1c9a5" />
				<path
   inkscape:connector-curvature="0"
   id="path24"
   d="m 90.19,79.195 c -3.807,-0.424 -6.377,-4.783 -5.732,-9.732 0.637,-4.953 4.242,-8.63 8.051,-8.209 3.805,0.422 6.371,4.779 5.729,9.732 -0.64,4.953 -4.241,8.627 -8.048,8.209 z"
   style="fill:#e4b692" />
				<path
   inkscape:connector-curvature="0"
   id="path26"
   d="m 46.684,70.986 c -0.643,-4.953 1.924,-9.311 5.727,-9.732 3.81,-0.421 7.416,3.256 8.055,8.209 0.643,4.949 -1.93,9.309 -5.734,9.732 -3.808,0.418 -7.409,-3.256 -8.048,-8.209 z"
   style="fill:#f1c9a5" />
				<path
   inkscape:connector-curvature="0"
   id="path28"
   d="m 93.387,67.357 c 0,-17.074 -9.402,-26.783 -21,-26.783 v 57.7 c 11.598,0 21,-13.842 21,-30.917 z"
   style="fill:#e4b692" />
			</g><polygon
   id="polygon32"
   points="46.895,144.773 72.387,144.773 97.774,144.773 97.774,117.205 46.895,117.205 "
   style="fill:#ffffff"
   transform="matrix(1.2626707,0,0,1.2626707,-18.454172,-38.21985)" /><path
   inkscape:connector-curvature="0"
   id="path34"
   d="m 66.724331,144.58078 -5.99011,-50.515671 c -13.40325,2.103609 -28.590653,9.746551 -31.559192,15.371751 -4.354951,15.47782 -7.997756,35.14392 -7.997756,35.14392 z"
   style="fill:#fe393e;stroke-width:1.26267076" /><path
   inkscape:connector-curvature="0"
   id="path36"
   d="m 81.721071,144.58078 h 42.995199 c 0,0 -2.46094,-21.08661 -7.99776,-35.14392 -4.8335,-8.61141 -23.938969,-13.275718 -30.597032,-15.236646 z"
   style="fill:#fe393e;stroke-width:1.26267076" /><path
   inkscape:connector-curvature="0"
   id="path40"
   d="m 75.55905,21.734206 c 0,0 0.638911,9.679633 10.37789,10.521835 9.741504,0.842201 11.004175,7.977553 9.110169,14.40581 -1.894006,6.428256 -2.73747,10.006665 2.525341,15.057348 5.26029,5.050683 -0.631335,24.553893 -0.631335,24.553893 l 19.361815,-9.213707 c 0,0 -4.13019,-15.660905 -1.894,-24.389747 2.23619,-8.728843 -7.78818,-14.941183 -10.31352,-21.254536 C 101.57007,25.101748 88.891589,2.323169 78.63239,4.0530279 68.370665,5.7828867 69.40353,16.683523 69.40353,16.683523 Z"
   style="fill:#b2922d;fill-opacity:1;stroke-width:1.26267076" /><path
   style="fill:#dbb437;fill-opacity:1;stroke-width:1.26267076"
   d="m 69.840307,22.508785 c 0,0 -0.638912,9.679633 -10.377891,10.521835 -9.741504,0.842201 -11.004175,7.977553 -9.110169,14.40581 1.894006,6.428256 2.73747,10.006665 -2.525341,15.057348 -5.260287,5.050683 0.631335,24.553893 0.631335,24.553893 L 29.096424,77.833964 c 0,0 4.130196,-15.660905 1.894006,-24.389747 C 28.754241,44.715374 38.778607,38.503034 41.303949,32.189681 43.82929,25.876327 56.507767,3.097748 66.766966,4.8276069 c 10.261725,1.7298589 9.22886,12.6304951 9.22886,12.6304951 z"
   id="path1089"
   inkscape:connector-curvature="0" /><g
   id="g1105"
   transform="matrix(1.2626707,0,0,1.2626707,-19.228751,-38.21985)"
   style="fill:#302864;fill-opacity:1"><path
     sodipodi:open="true"
     d="m 61.194714,69.710928 a 3.3022084,3.6691203 0 0 1 0.531039,-5.072808 3.3022084,3.6691203 0 0 1 4.579921,0.43086 3.3022084,3.6691203 0 0 1 -0.24413,5.0998 3.3022084,3.6691203 0 0 1 -4.595215,-0.111385"
     sodipodi:end="2.3623426"
     sodipodi:start="2.4876527"
     sodipodi:ry="3.6691203"
     sodipodi:rx="3.3022084"
     sodipodi:cy="67.478935"
     sodipodi:cx="63.815655"
     sodipodi:type="arc"
     id="path1105"
     style="fill:#302864;fill-opacity:1;stroke:none;stroke-width:1.08888888;stroke-opacity:1" /><path
     style="fill:#302864;fill-opacity:1;stroke:none;stroke-width:1.08888888;stroke-opacity:1"
     id="path1107"
     sodipodi:type="arc"
     sodipodi:cx="82.772461"
     sodipodi:cy="67.478935"
     sodipodi:rx="3.3022084"
     sodipodi:ry="3.6691203"
     sodipodi:start="2.4876527"
     sodipodi:end="2.3623426"
     d="m 80.151521,69.710928 a 3.3022084,3.6691203 0 0 1 0.531038,-5.072808 3.3022084,3.6691203 0 0 1 4.579921,0.43086 3.3022084,3.6691203 0 0 1 -0.24413,5.0998 3.3022084,3.6691203 0 0 1 -4.595215,-0.111385"
     sodipodi:open="true" /></g><path
   style="fill:#ffffff;fill-opacity:1;fill-rule:evenodd;stroke:none;stroke-width:1.26267076px;stroke-linecap:butt;stroke-linejoin:miter;stroke-opacity:1"
   d="m 18.725615,123.54004 c 38.375053,25.79642 73.544267,28.65968 104.568155,2.32373 l 16.26615,18.90922 H 17.176457 Z"
   id="path1112"
   inkscape:connector-curvature="0"
   sodipodi:nodetypes="ccccc" /></svg>