<?xml version="1.0" encoding="utf-8"?>
<!-- Generator: Adobe Illustrator 24.0.2, SVG Export Plug-In . SVG Version: 6.00 Build 0)  -->
<svg version="1.1" id="Capa_1" xmlns="http://www.w3.org/2000/svg" xmlns:xlink="http://www.w3.org/1999/xlink" x="0px" y="0px"
	 viewBox="0 0 512 512" style="enable-background:new 0 0 512 512;" xml:space="preserve">
<style type="text/css">
	.st0{fill:#D1E8E3;}
	.st1{fill:#875325;}
	.st2{fill:#DD9F83;}
	.st3{fill:#EAA0B8;}
	.st4{fill:#A06E50;}
	.st5{fill:#CE9172;}
	.st6{fill:#D3536E;}
	.st7{fill:#9B6327;}
	.st8{fill:#7F3318;}
</style>
<circle class="st0" cx="257.2" cy="332" r="258.3"/>
<path class="st1" d="M470,342c0.7-47.5-15.1-55.7-23.1-83.6c-8-28.1,0.1-47.2-9.3-78.3c-8.8-28.9-24.7-33.8-29.6-74.8
	C399.8,35.8,324.8,0,287.7,0c-10.5,0-17.7,2.7-22.5,5.9c-5.6,3.7-12.7,3.7-18.3,0C242,2.7,234.9,0,224.3,0
	c-37.2,0-112.2,35.8-120.4,105.3c-4.9,41.1-20.8,45.9-29.6,74.8c-9.4,31.1-1.3,50.2-9.3,78.3C57.1,286.3,41.3,294.5,42,342
	c0.8,55.1-31,67.4-18.6,103.9c9.2,27.2,59.2,49.5,59.2,49.5h346.8c0,0,49.9-22.3,59.2-49.5C501,409.5,469.2,397.1,470,342z"/>
<path class="st1" d="M256,8.6c-3.2,0-6.4-0.9-9.1-2.8C242,2.7,234.9,0,224.3,0c-37.2,0-112.2,35.8-120.4,105.3
	c-4.9,41.1-20.8,45.9-29.6,74.8c-9.4,31.1-1.3,50.2-9.3,78.3C57.1,286.3,41.3,294.5,42,342c0.8,55.1-31,67.4-18.6,103.9
	c9.2,27.2,59.2,49.5,59.2,49.5H256V8.6z"/>
<path class="st2" d="M412.9,401.2l-85.3-30.1c-13.2-4.7-22-17.1-22-31.1v-42.7h-99.1V340c0,14-8.8,26.5-22,31.1l-85.3,30.1
	c-19.8,7-33.1,25.7-33.1,46.7v39.3c0,13.7,11.1,24.8,24.8,24.8h330.3c13.7,0,24.8-11.1,24.8-24.8V448
	C445.9,427,432.7,408.2,412.9,401.2z"/>
<path class="st3" d="M412.9,401.2L356,381.1c-22.4,31-52.9,65.1-88.4,84c-7.2,3.9-16,3.9-23.2,0c-35.5-18.9-66-53.1-88.4-84
	l-56.9,20.1c-19.8,7-33.1,25.7-33.1,46.7v39.3c0,13.7,11.1,24.8,24.8,24.8h330.3c13.7,0,24.8-11.1,24.8-24.8V448
	C445.9,427,432.7,408.2,412.9,401.2z"/>
<path class="st4" d="M206.5,319.8c15.2,6.7,32,10.6,49.5,10.6s34.3-3.8,49.5-10.6v-22.5h-99.1L206.5,319.8L206.5,319.8z"/>
<path class="st2" d="M256,313.8L256,313.8c-59.3,0-107.4-48.1-107.4-107.4V66.1h214.7v140.4C363.4,265.7,315.3,313.8,256,313.8z"/>
<path class="st5" d="M256,66.1v247.7l0,0c-59.3,0-107.4-48.1-107.4-107.4V66.1H256z"/>
<g>
	<path class="st6" d="M126.5,446.2l-42.2-36.6c-4.3,3.5-7.9,7.7-10.8,12.4l42.2,36.6c5.4,4.7,8.5,11.5,8.5,18.7V512h16.5v-34.6
		C140.8,465.4,135.6,454.1,126.5,446.2z"/>
	<path class="st6" d="M385.8,446.2l42.2-36.6c4.3,3.5,7.9,7.7,10.8,12.4l-42.2,36.6c-5.4,4.7-8.5,11.5-8.5,18.7V512h-16.5v-34.6
		C371.6,465.4,376.8,454.1,385.8,446.2z"/>
</g>
<path class="st1" d="M447,258.4c-8-28.1,0.1-47.2-9.3-78.3c-8.8-28.9-24.7-33.8-29.6-74.8C399.8,35.8,324.8,0,287.7,0
	c-10.5,0-17.7,2.7-22.5,5.9c-2.8,1.8-6,2.8-9.1,2.8v74c21.3,26.8,53,5.5,82.6,53c25.2,40.4,56.7,39.3,67.8,71.2
	c3.2,9.1,1.5,18.9,2.2,28.5c4.3,53.8,45.5,78.6,64.1,134.7c-1.8-8-2.9-17.1-2.7-27.9C470.7,294.5,454.9,286.3,447,258.4z"/>
<path class="st7" d="M65,258.4c8-28.1-0.1-47.2,9.3-78.3c8.8-28.9,24.7-33.8,29.6-74.8C112.2,35.8,187.2,0,224.3,0
	c10.5,0,17.7,2.7,22.5,5.9c2.8,1.8,6,2.8,9.1,2.8v74c-21.3,26.8-53,5.5-82.6,53c-25.2,40.4-56.7,39.3-67.8,71.2
	c-3.2,9.1-1.5,18.9-2.2,28.5C99.1,289,57.8,313.8,39.2,370c1.8-8,2.9-17.1,2.7-27.9C41.3,294.5,57.1,286.3,65,258.4z"/>
<circle cx="213.7" cy="176.5" r="12"/>
<circle cx="299.3" cy="176.5" r="12"/>
<path class="st8" d="M232.8,254.4l18.5,2.9c3.1,0.5,6.3,0.5,9.4,0l17.4-2.9c0.4-0.1,0.6,0.5,0.3,0.7L264,266
	c-4.6,3.5-10.9,3.6-15.6,0.3l-15.9-11.2C232.2,254.8,232.4,254.3,232.8,254.4z"/>
</svg>
