<?xml version="1.0" encoding="UTF-8" standalone="no"?>
<!-- Generator: Adobe Illustrator 18.0.0, SVG Export Plug-In . SVG Version: 6.00 Build 0)  -->

<svg
   xmlns:dc="http://purl.org/dc/elements/1.1/"
   xmlns:cc="http://creativecommons.org/ns#"
   xmlns:rdf="http://www.w3.org/1999/02/22-rdf-syntax-ns#"
   xmlns:svg="http://www.w3.org/2000/svg"
   xmlns="http://www.w3.org/2000/svg"
   xmlns:xlink="http://www.w3.org/1999/xlink"
   xmlns:sodipodi="http://sodipodi.sourceforge.net/DTD/sodipodi-0.dtd"
   xmlns:inkscape="http://www.inkscape.org/namespaces/inkscape"
   version="1.1"
   id="Capa_1"
   x="0px"
   y="0px"
   viewBox="0 0 144.773 144.773"
   style="enable-background:new 0 0 144.773 144.773;"
   xml:space="preserve"
   sodipodi:docname="avatar19.svg"
   inkscape:version="0.92.3 (2405546, 2018-03-11)"
   inkscape:export-filename="/home/benny/git/MaakBib/assets/images/avatars/avatar17.png"
   inkscape:export-xdpi="198.92999"
   inkscape:export-ydpi="198.92999"><metadata
   id="metadata85"><rdf:RDF><cc:Work
       rdf:about=""><dc:format>image/svg+xml</dc:format><dc:type
         rdf:resource="http://purl.org/dc/dcmitype/StillImage" /><dc:title></dc:title></cc:Work></rdf:RDF></metadata><defs
   id="defs83">
	
	

		<defs
   id="defs5">
			<circle
   id="SVGID_1_"
   cx="72.387001"
   cy="72.386002"
   r="72.386002" />
		</defs>
		<clipPath
   id="SVGID_2_">
			<use
   xlink:href="#SVGID_1_"
   style="overflow:visible"
   id="use7"
   x="0"
   y="0"
   width="100%"
   height="100%" />
		</clipPath>
		
	
			
			
			
			
			
			
			
			
		</defs><sodipodi:namedview
   pagecolor="#ffffff"
   bordercolor="#666666"
   borderopacity="1"
   objecttolerance="10"
   gridtolerance="10"
   guidetolerance="10"
   inkscape:pageopacity="0"
   inkscape:pageshadow="2"
   inkscape:window-width="1087"
   inkscape:window-height="751"
   id="namedview81"
   showgrid="false"
   inkscape:zoom="2.8284271"
   inkscape:cx="82.322499"
   inkscape:cy="75.304717"
   inkscape:window-x="2243"
   inkscape:window-y="269"
   inkscape:window-maximized="0"
   inkscape:current-layer="Capa_1"
   showguides="true"
   inkscape:guide-bbox="true"><sodipodi:guide
     position="-108.83092,308.68408"
     orientation="0,1"
     id="guide1009"
     inkscape:locked="false" /></sodipodi:namedview>

<g
   id="g50">
</g>
<g
   id="g52">
</g>
<g
   id="g54">
</g>
<g
   id="g56">
</g>
<g
   id="g58">
</g>
<g
   id="g60">
</g>
<g
   id="g62">
</g>
<g
   id="g64">
</g>
<g
   id="g66">
</g>
<g
   id="g68">
</g>
<g
   id="g70">
</g>
<g
   id="g72">
</g>
<g
   id="g74">
</g>
<g
   id="g76">
</g>
<g
   id="g78">
</g>
<g
   id="g970"
   transform="matrix(1.0303742,0,0,1.0303742,-4.0254078,-1.8438513)"><path
     d="m 27.836696,120.13811 a 58.365974,58.365974 0 0 1 7.29235,-78.900012 58.365974,58.365974 0 0 1 79.228974,1.076777 58.365974,58.365974 0 0 1 5.14544,79.069045 L 74.161087,84.632645 Z"
     sodipodi:end="0.68112779"
     sodipodi:start="2.4876446"
     sodipodi:ry="58.365974"
     sodipodi:rx="58.365974"
     sodipodi:cy="84.632645"
     sodipodi:cx="74.161087"
     sodipodi:type="arc"
     style="fill:#bc9300;fill-opacity:1;stroke-width:0.80631584"
     id="circle2" /><g
     transform="matrix(1.131726,0,0,1.131726,-8.6172073,-26.680266)"
     id="g28">
				<path
   sodipodi:nodetypes="ccccccc"
   style="fill:#f1c9a5"
   d="m 107.053,116.94 c -4.666,-8.833 -34.666,-14.376 -34.666,-14.376 0,0 -30,5.543 -34.666,14.376 -3.449,12.258 -2.565938,9.49024 -2.565938,9.49024 H 72.387 l 35.44707,1.38823 c 0,0 3.60393,0.25453 -0.78107,-10.87847 z"
   id="path10"
   inkscape:connector-curvature="0" />
				<path
   sodipodi:nodetypes="ccccc"
   style="fill:#e4b692"
   d="m 72.387,102.564 c 0,0 30,5.543 34.666,14.376 4.386,11.133 4.16489,11.0188 4.16489,11.0188 H 72.387 Z"
   id="path12"
   inkscape:connector-curvature="0" />
				<rect
   x="64.220001"
   y="84.606003"
   style="fill:#f1c9a5"
   width="16.334"
   height="27.336"
   id="rect14" />
				<rect
   x="72.387001"
   y="84.606003"
   style="fill:#e4b692"
   width="8.1669998"
   height="27.336"
   id="rect16" />
				<path
   style="opacity:0.1;fill:#ddac8c"
   d="m 64.22,97.273 c 1.469,4.217 7.397,6.634 11.751,6.634 1.575,0 3.107,-0.264 4.583,-0.747 V 84.606 H 64.22 Z"
   id="path18"
   inkscape:connector-curvature="0" />
				<path
   style="fill:#f1c9a5"
   d="m 93.387,67.357 c 0,-17.074 -9.402,-26.783 -21,-26.783 -11.598,0 -21,9.709 -21,26.783 0,22.966 9.402,30.917 21,30.917 11.597,0 21,-8.908 21,-30.917 z"
   id="path20"
   inkscape:connector-curvature="0" />
				<path
   style="fill:#e4b692"
   d="m 90.19,79.197 c -3.807,-0.398 -6.377,-4.5 -5.732,-9.156 0.637,-4.66 4.242,-8.12 8.051,-7.724 3.805,0.396 6.371,4.496 5.729,9.156 -0.639,4.661 -4.241,8.118 -8.048,7.724 z"
   id="path22"
   inkscape:connector-curvature="0" />
				<path
   style="fill:#f1c9a5"
   d="m 46.685,71.474 c -0.643,-4.66 1.924,-8.76 5.727,-9.156 3.81,-0.396 7.416,3.063 8.055,7.724 0.643,4.656 -1.93,8.758 -5.734,9.156 -3.808,0.393 -7.41,-3.064 -8.048,-7.724 z"
   id="path24"
   inkscape:connector-curvature="0" />
				<path
   style="fill:#e4b692"
   d="m 93.387,67.357 c 0,-17.074 -9.402,-26.783 -21,-26.783 v 57.7 c 11.597,0 21,-8.908 21,-30.917 z"
   id="path26"
   inkscape:connector-curvature="0" />
			</g><path
     sodipodi:nodetypes="ccsccc"
     style="fill:#f9ce2f;fill-opacity:1;stroke-width:1.13172603"
     d="m 58.585532,22.324117 c 0,0 -24.867445,9.609726 -0.272775,18.64769 -2.313248,-3.993861 33.646311,-6.300484 36.792647,-1.336281 2.276125,3.591207 -3.768936,16.1485 0.682496,19.186109 C 94.25713,51.414134 106.2923,30.709517 96.900399,24.827983 87.441434,18.941873 61.73852,7.8187849 58.585532,22.324117 Z"
     id="path32"
     inkscape:connector-curvature="0" /><path
     sodipodi:nodetypes="cccc"
     style="fill:#f9ce2f;fill-opacity:1;stroke-width:1.13172603"
     d="m 50.821049,58.821635 c 0,0 4.603856,-30.84972 12.203396,-35.361911 -6.482527,-2.828184 -16.361364,5.780856 -15.311122,11.03546 1.051374,5.255736 3.107726,24.326451 3.107726,24.326451 z"
     id="path34"
     inkscape:connector-curvature="0" /><path
     sodipodi:nodetypes="ccscccccc"
     style="fill:#008c00;fill-opacity:1;stroke-width:1.13172603"
     d="M 112.53746,105.66378 C 109.45237,99.826335 96.600492,95.262081 86.434198,92.472376 86.03583,99.387222 80.320614,104.87609 73.305044,104.87609 c -7.014438,0 -12.730786,-5.488868 -13.128022,-12.403714 -10.166295,2.789705 -23.019307,7.353959 -26.104392,13.191404 -3.903323,13.87269 -6.664556,13.88531 -6.664556,13.88531 12.929512,16.59876 28.492838,18.59842 46.121412,18.96067 17.512532,-0.99329 30.011824,-2.6395 45.973974,-17.12583 0,0 -2.00338,-3.12065 -6.966,-15.72015 z"
     id="path36"
     inkscape:connector-curvature="0" /><path
     style="opacity:0.2;fill:#e53d0c;stroke-width:1.13172603"
     d="m 59.415371,95.867554 c 0.421001,6.914846 6.467814,12.403716 13.888541,12.403716 7.421859,0 13.467539,-5.48887 13.888542,-12.403716 9.3175,2.416235 20.755856,6.166776 25.771666,10.921156 -0.14034,-0.38026 -0.28293,-0.75599 -0.42893,-1.12493 C 109.45011,99.826335 96.598229,95.262081 86.431934,92.472376 86.033567,99.387222 80.31835,104.87609 73.30278,104.87609 c -7.014438,0 -12.730786,-5.488868 -13.128022,-12.403714 -10.166294,2.789705 -23.019307,7.353959 -26.104392,13.191404 -0.09167,0.32706 -0.18334,0.65866 -0.275009,0.98912 5.092767,-4.68874 16.39192,-8.392877 25.620014,-10.785346 z"
     id="path38"
     inkscape:connector-curvature="0" /><path
     style="fill:#004d00;fill-opacity:1;stroke-width:1.13172603"
     d="m 56.309914,93.587127 c 1.287905,8.238963 8.395144,14.549473 16.99513,14.549473 8.599986,0 15.707225,-6.31051 16.995129,-14.549473 -1.313933,-0.398369 -2.610891,-0.769575 -3.865975,-1.113619 -0.398368,6.914846 -6.113584,12.403722 -13.129154,12.403722 -7.014438,0 -12.730786,-5.488876 -13.128022,-12.403722 -1.256216,0.344044 -2.553173,0.71525 -3.867108,1.113619 z"
     id="path40"
     inkscape:connector-curvature="0" /><path
     sodipodi:nodetypes="cssssscccccscccc"
     style="fill:#f18c00;fill-opacity:1;stroke-width:1.13172603"
     d="m 94.683348,65.745535 c -1.27885,3.594362 -3.441579,7.915291 -7.349429,7.915291 -4.884529,0 -8.378167,-3.970095 -13.981342,-3.970095 -0.01585,0 -0.03056,0.0022 -0.0464,0.0022 -0.01698,0 -0.03169,-0.0022 -0.04866,-0.0022 -5.602044,0 -9.094551,3.970095 -13.981344,3.970095 -3.90785,0 -6.069447,-4.320929 -7.348297,-7.915291 l -1.106828,-6.9239 v 8.285366 c 0,0 -0.305231,11.109237 4.231651,20.87282 4.362671,7.887733 4.706295,9.243442 9.757292,14.673959 9.860844,5.30383 12.225065,1.8856 16.547938,-0.60479 4.016686,-2.313986 4.436067,-5.491096 10.360498,-15.474724 C 96.526273,74.182165 95.7879,67.107001 95.7879,67.107001 v -8.285366 z"
     id="path30"
     inkscape:connector-curvature="0" /><path
     style="fill:#ffffff;stroke-width:1.13172603"
     d="m 69.437936,73.399398 c 0,0 0.565863,2.519222 3.867108,2.519222 3.018313,0 3.867108,-2.519222 3.867108,-2.519222 z"
     id="path42"
     inkscape:connector-curvature="0" /><g
     transform="matrix(0.86495741,0,0,0.86495741,-132.21712,4.31408)"
     id="g1111"><path
       style="fill:#252525;fill-opacity:1;stroke:none;stroke-width:1.08888888;stroke-opacity:1"
       id="path1105"
       sodipodi:type="arc"
       sodipodi:cx="224.88712"
       sodipodi:cy="54.767223"
       sodipodi:rx="3.3022084"
       sodipodi:ry="3.6691203"
       sodipodi:start="2.4876527"
       sodipodi:end="2.3623426"
       d="m 222.26618,56.999216 a 3.3022084,3.6691203 0 0 1 0.53103,-5.072808 3.3022084,3.6691203 0 0 1 4.57992,0.43086 3.3022084,3.6691203 0 0 1 -0.24413,5.0998 3.3022084,3.6691203 0 0 1 -4.59521,-0.111385"
       sodipodi:open="true" /><path
       sodipodi:open="true"
       d="m 249.22298,56.999216 a 3.3022084,3.6691203 0 0 1 0.53104,-5.072808 3.3022084,3.6691203 0 0 1 4.57992,0.43086 3.3022084,3.6691203 0 0 1 -0.24413,5.0998 3.3022084,3.6691203 0 0 1 -4.59522,-0.111385"
       sodipodi:end="2.3623426"
       sodipodi:start="2.4876527"
       sodipodi:ry="3.6691203"
       sodipodi:rx="3.3022084"
       sodipodi:cy="54.767223"
       sodipodi:cx="251.84392"
       sodipodi:type="arc"
       id="path1107"
       style="fill:#252525;fill-opacity:1;stroke:none;stroke-width:1.08888888;stroke-opacity:1" /></g><path
     sodipodi:nodetypes="ccsssc"
     inkscape:connector-curvature="0"
     id="path852"
     d="m 62.691351,21.405153 h 14.831718 c 0,0 6.757209,-7.182136 5.810364,-11.314919 C 82.406919,6.046196 77.512197,3.1063599 73.394652,2.5979232 69.110519,2.0689161 63.690988,3.9434293 61.468116,7.6437654 59.096658,11.591448 62.691351,21.405153 62.691351,21.405153 Z"
     style="fill:#f9ce2f;fill-opacity:1;stroke:none;stroke-width:0.86495739px;stroke-linecap:butt;stroke-linejoin:miter;stroke-opacity:1" /><rect
     y="95.305305"
     x="93.066429"
     height="23.704443"
     width="2.8015642"
     id="rect871"
     style="opacity:1;fill:#24003b;fill-opacity:1;stroke:#a35500;stroke-width:3.68561625;stroke-linejoin:round;stroke-miterlimit:4;stroke-dasharray:none;stroke-dashoffset:0;stroke-opacity:1;paint-order:markers fill stroke" /><rect
     y="95.485153"
     x="48.293701"
     height="23.704443"
     width="2.8015642"
     id="rect871-2"
     style="opacity:1;fill:#24003b;fill-opacity:1;stroke:#a35500;stroke-width:3.68561625;stroke-linejoin:round;stroke-miterlimit:4;stroke-dasharray:none;stroke-dashoffset:0;stroke-opacity:1;paint-order:markers fill stroke" /><path
     inkscape:connector-curvature="0"
     id="rect888"
     d="m 43.55802,115.37024 v 16.35479 a 56.536758,60.206465 0 0 0 29.22441,8.75432 56.536758,60.206465 0 0 0 28.25302,-8.14277 v -16.96634 z"
     style="opacity:1;fill:#a35500;fill-opacity:1;stroke:#a35500;stroke-width:3.0480454;stroke-linejoin:round;stroke-miterlimit:4;stroke-dasharray:none;stroke-dashoffset:0;stroke-opacity:1;paint-order:markers fill stroke" /></g></svg>