<?xml version="1.0" encoding="UTF-8" standalone="no"?>
<!-- Generator: Adobe Illustrator 19.0.0, SVG Export Plug-In . SVG Version: 6.00 Build 0)  -->

<svg
   xmlns:dc="http://purl.org/dc/elements/1.1/"
   xmlns:cc="http://creativecommons.org/ns#"
   xmlns:rdf="http://www.w3.org/1999/02/22-rdf-syntax-ns#"
   xmlns:svg="http://www.w3.org/2000/svg"
   xmlns="http://www.w3.org/2000/svg"
   xmlns:sodipodi="http://sodipodi.sourceforge.net/DTD/sodipodi-0.dtd"
   xmlns:inkscape="http://www.inkscape.org/namespaces/inkscape"
   version="1.1"
   id="Layer_1"
   x="0px"
   y="0px"
   viewBox="0 0 358.702 358.702"
   style="enable-background:new 0 0 358.702 358.702;"
   xml:space="preserve"
   sodipodi:docname="avatar12.svg"
   inkscape:version="0.92.3 (2405546, 2018-03-11)"><metadata
   id="metadata66"><rdf:RDF><cc:Work
       rdf:about=""><dc:format>image/svg+xml</dc:format><dc:type
         rdf:resource="http://purl.org/dc/dcmitype/StillImage" /><dc:title></dc:title></cc:Work></rdf:RDF></metadata><defs
   id="defs64" /><sodipodi:namedview
   pagecolor="#ffffff"
   bordercolor="#666666"
   borderopacity="1"
   objecttolerance="10"
   gridtolerance="10"
   guidetolerance="10"
   inkscape:pageopacity="0"
   inkscape:pageshadow="2"
   inkscape:window-width="767"
   inkscape:window-height="480"
   id="namedview62"
   showgrid="false"
   inkscape:zoom="0.65792776"
   inkscape:cx="179.351"
   inkscape:cy="179.351"
   inkscape:window-x="0"
   inkscape:window-y="0"
   inkscape:window-maximized="0"
   inkscape:current-layer="Layer_1" />
<g
   id="XMLID_941_">
	<g
   id="XMLID_942_">
		<path
   id="XMLID_943_"
   style="fill:#C64832;"
   d="M289.991,141.269C289.991,59.796,247.245,0,179.351,0    C111.835,0,69.195,59.135,68.722,139.914c-2.475-0.56-5.046-0.865-7.689-0.865c-19.179,0-34.727,15.548-34.727,34.727    c0,15.758,10.499,29.056,24.88,33.302c0.335,18.89,15.742,34.102,34.711,34.102c5.798,0,11.259-1.428,16.063-3.941    c4.993,13.055,17.63,22.329,32.439,22.329c19.179,0,34.727-15.548,34.727-34.727c0-2.803-0.341-5.524-0.968-8.135    c44.084,1.686,90.604-6.62,110.677-24.92C305.227,167.728,289.991,163.207,289.991,141.269z" />
		<path
   id="XMLID_946_"
   style="fill:#B2332D;"
   d="M332.396,173.776c0-19.179-15.548-34.727-34.727-34.727    c-2.644,0-5.215,0.305-7.689,0.865C289.507,59.135,246.867,0,179.351,0c-0.032,0-0.063,0.001-0.094,0.001v216.92    c3.768,0.001,7.536-0.071,11.286-0.214c-0.627,2.611-0.968,5.332-0.968,8.135c0,19.179,15.548,34.727,34.727,34.727    c14.81,0,27.447-9.274,32.439-22.329c4.805,2.512,10.266,3.941,16.063,3.941c18.97,0,34.376-15.212,34.711-34.102    C321.898,202.832,332.396,189.534,332.396,173.776z" />
	</g>
	<g
   id="XMLID_947_">
		<path
   id="XMLID_948_"
   style="fill:#F3D8B6;"
   d="M207.68,180.756h-26.884h-1.256h-0.379h-1.256h-26.884    c0,74.552-36.43,67.808-36.43,67.808c0,47.368,51.162,62.392,63.313,66.806v1.537c0,0,0.533-0.11,1.446-0.359    c0.912,0.249,1.446,0.359,1.446,0.359v-1.537c12.151-4.414,63.313-19.439,63.313-66.806    C244.11,248.564,207.68,255.308,207.68,180.756z" />
		<path
   id="XMLID_949_"
   style="fill:#EEC8A2;"
   d="M207.68,180.756h-26.884h-1.256h-0.189v135.792    c0.912,0.249,1.446,0.359,1.446,0.359v-1.537c12.151-4.414,63.313-19.439,63.313-66.806    C244.11,248.564,207.68,255.308,207.68,180.756z" />
	</g>
	<g
   id="XMLID_950_">
		<path
   id="XMLID_951_"
   style="fill:#F3D8B6;"
   d="M296.333,318.004v40.681H62.369v-40.681c0-30.431,14.377-56.963,37.605-70.913    c6.043-3.641,12.69-6.43,19.844-8.196c5.953-1.488,12.254-2.272,18.842-2.272l40.691,24.002l40.691-24.002    c6.588,0,12.889,0.784,18.842,2.272c7.154,1.766,13.802,4.554,19.844,8.196C281.956,261.041,296.333,287.573,296.333,318.004z" />
		<path
   id="XMLID_952_"
   style="fill:#EEC8A2;"
   d="M296.331,318.005v40.68h-116.98v-98.06l36-21.23l4.69-2.77    c6.59,0,12.89,0.78,18.84,2.27c7.16,1.77,13.8,4.55,19.85,8.2C281.951,261.045,296.331,287.575,296.331,318.005z" />
	</g>
	<g
   id="XMLID_953_">
		<g
   id="XMLID_954_">
			<path
   id="XMLID_955_"
   style="fill:#682234;"
   d="M224.825,267.702h-90.949c0,0-30.042,40.436-34.526,56.333     c-2.353,8.341,0,34.667,0,34.667h160c0,0,2.353-26.325,0-34.667C254.867,308.138,224.825,267.702,224.825,267.702z" />
			<path
   id="XMLID_956_"
   style="fill:#581A2B;"
   d="M224.825,267.702h-45.474v91h80c0,0,2.353-26.325,0-34.667     C254.867,308.138,224.825,267.702,224.825,267.702z" />
		</g>
		<g
   id="XMLID_957_">
			<path
   id="XMLID_958_"
   style="fill:#581A2B;"
   d="M246.226,240.765v78.806l-37.96-49.996l20.16-32.92     c3.52,0.36,6.93,0.97,10.24,1.8C241.256,239.095,243.776,239.865,246.226,240.765z" />
			<path
   id="XMLID_959_"
   style="fill:#682234;"
   d="M150.486,269.575l-38.01,53.663v-82.623c2.32-0.84,4.69-1.56,7.13-2.16     c3.45-0.86,7.02-1.49,10.69-1.85L150.486,269.575z" />
		</g>
	</g>
	<g
   id="XMLID_960_">
		<path
   id="XMLID_961_"
   style="fill:#F3DBC4;"
   d="M180.256,120.925h-64.988c0.84,22.166,4.35,42.211,8.428,49.74    c9.042,16.694,29.221,38.957,55.657,38.957c26.431,0,46.607-22.262,55.652-38.957c4.077-7.528,7.588-27.573,8.429-49.74H180.256z" />
		<path
   id="XMLID_962_"
   style="fill:#EDCEAE;"
   d="M180.256,120.925h-1v88.694c0.032,0,0.064,0.002,0.096,0.002    c26.431,0,46.607-22.262,55.652-38.957c4.077-7.528,7.588-27.573,8.429-49.74h-63.177V120.925z" />
	</g>
	<g
   id="XMLID_963_">
		<g
   id="XMLID_964_">
			<g
   id="XMLID_965_">
				<circle
   id="XMLID_966_"
   style="fill:#FFFFFF;"
   cx="179.351"
   cy="302.095"
   r="8.5" />
			</g>
			<path
   id="XMLID_967_"
   style="fill:#DEDDE0;"
   d="M179.351,293.595c-0.01,0-0.021,0.001-0.031,0.001v16.997     c0.01,0,0.021,0.002,0.031,0.002c4.694,0,8.5-3.806,8.5-8.5C187.851,297.4,184.045,293.595,179.351,293.595z" />
		</g>
		<g
   id="XMLID_968_">
			<g
   id="XMLID_969_">
				<circle
   id="XMLID_970_"
   style="fill:#FFFFFF;"
   cx="179.351"
   cy="335.071"
   r="8.5" />
			</g>
			<path
   id="XMLID_971_"
   style="fill:#DEDDE0;"
   d="M179.351,326.571c-0.01,0-0.021,0.001-0.031,0.001v16.997     c0.01,0,0.021,0.001,0.031,0.001c4.694,0,8.5-3.806,8.5-8.5S184.045,326.571,179.351,326.571z" />
		</g>
	</g>
</g>
<g
   id="g31">
</g>
<g
   id="g33">
</g>
<g
   id="g35">
</g>
<g
   id="g37">
</g>
<g
   id="g39">
</g>
<g
   id="g41">
</g>
<g
   id="g43">
</g>
<g
   id="g45">
</g>
<g
   id="g47">
</g>
<g
   id="g49">
</g>
<g
   id="g51">
</g>
<g
   id="g53">
</g>
<g
   id="g55">
</g>
<g
   id="g57">
</g>
<g
   id="g59">
</g>
</svg>