<?xml version="1.0" encoding="UTF-8" standalone="no"?>
<!-- Created with Inkscape (http://www.inkscape.org/) -->
<svg
   xmlns:dc="http://purl.org/dc/elements/1.1/"
   xmlns:cc="http://web.resource.org/cc/"
   xmlns:rdf="http://www.w3.org/1999/02/22-rdf-syntax-ns#"
   xmlns:svg="http://www.w3.org/2000/svg"
   xmlns="http://www.w3.org/2000/svg"
   xmlns:sodipodi="http://sodipodi.sourceforge.net/DTD/sodipodi-0.dtd"
   xmlns:inkscape="http://www.inkscape.org/namespaces/inkscape"
   width="700"
   height="180"
   id="svg19787"
   sodipodi:version="0.32"
   inkscape:version="0.45.1"
   version="1.0"
   sodipodi:docbase="C:\Documents\My Pictures\dissections"
   sodipodi:docname="hinged haberdasher.svg"
   inkscape:output_extension="org.inkscape.output.svg.inkscape">
  <defs
     id="defs19789" />
  <sodipodi:namedview
     id="base"
     pagecolor="#ffffff"
     bordercolor="#666666"
     borderopacity="1.0"
     gridtolerance="10000"
     guidetolerance="10"
     objecttolerance="10"
     inkscape:pageopacity="0.0"
     inkscape:pageshadow="2"
     inkscape:zoom="0.81636796"
     inkscape:cx="475.47734"
     inkscape:cy="206.5262"
     inkscape:document-units="px"
     inkscape:current-layer="layer1"
     height="180px"
     width="700px"
     inkscape:window-width="1280"
     inkscape:window-height="774"
     inkscape:window-x="-4"
     inkscape:window-y="-4" />
  <metadata
     id="metadata19792">
    <rdf:RDF>
      <cc:Work
         rdf:about="">
        <dc:format>image/svg+xml</dc:format>
        <dc:type
           rdf:resource="http://purl.org/dc/dcmitype/StillImage" />
      </cc:Work>
    </rdf:RDF>
  </metadata>
  <g
     inkscape:label="Layer 1"
     inkscape:groupmode="layer"
     id="layer1">
    <g
       id="g20959"
       transform="translate(-34.298259,18.374068)">
      <path
         id="path18556"
         d="M 77.458751,104.28446 L 102.75709,60.30792 L 124.03606,84.42409 L 101.57492,103.57516 L 77.458751,104.28446 z "
         style="fill:#de8787;fill-rule:evenodd;stroke:#000000;stroke-width:1px;stroke-linecap:butt;stroke-linejoin:miter;stroke-opacity:1" />
      <path
         id="path18558"
         d="M 102.04779,103.8116 L 130.18332,78.7497 L 151.93515,103.57516 L 102.04779,103.8116 z "
         style="fill:#008080;fill-rule:evenodd;stroke:#000000;stroke-width:1px;stroke-linecap:butt;stroke-linejoin:miter;stroke-opacity:1" />
      <path
         sodipodi:nodetypes="ccccc"
         id="path18560"
         d="M 153.11732,59.12575 L 130.89262,78.51326 L 152.40802,103.33873 L 178.41565,103.1023 L 153.11732,59.12575 z "
         style="fill:#ff7f2a;fill-rule:evenodd;stroke:#000000;stroke-width:1px;stroke-linecap:butt;stroke-linejoin:miter;stroke-opacity:1" />
      <path
         id="path18562"
         d="M 102.75709,59.83505 L 128.05542,16.33138 L 153.11732,58.65289 L 124.03606,84.18766 L 102.75709,59.83505 z "
         style="fill:#008000;fill-rule:evenodd;stroke:#000000;stroke-width:1px;stroke-linecap:butt;stroke-linejoin:miter;stroke-opacity:1" />
      <path
         sodipodi:type="arc"
         style="fill:#2b0000;fill-opacity:1;stroke:none;stroke-width:2;stroke-miterlimit:4;stroke-dasharray:none;stroke-opacity:1"
         id="path19805"
         sodipodi:cx="26.917585"
         sodipodi:cy="58.450726"
         sodipodi:rx="4.0784221"
         sodipodi:ry="3.6705799"
         d="M 30.996007 58.450726 A 4.0784221 3.6705799 0 1 1  22.839163,58.450726 A 4.0784221 3.6705799 0 1 1  30.996007 58.450726 z"
         transform="matrix(0.9249135,0,0,1,128.18974,0.3062288)" />
      <path
         sodipodi:type="arc"
         style="fill:#2b0000;fill-opacity:1;stroke:none;stroke-width:2;stroke-miterlimit:4;stroke-dasharray:none;stroke-opacity:1"
         id="path20786"
         sodipodi:cx="26.917585"
         sodipodi:cy="58.450726"
         sodipodi:rx="4.0784221"
         sodipodi:ry="3.6705799"
         d="M 30.996007 58.450726 A 4.0784221 3.6705799 0 1 1  22.839163,58.450726 A 4.0784221 3.6705799 0 1 1  30.996007 58.450726 z"
         transform="matrix(0.9249135,0,0,1,77.692101,45.1971)" />
      <path
         sodipodi:type="arc"
         style="fill:#2b0000;fill-opacity:1;stroke:none;stroke-width:2;stroke-miterlimit:4;stroke-dasharray:none;stroke-opacity:1"
         id="path20788"
         sodipodi:cx="26.917585"
         sodipodi:cy="58.450726"
         sodipodi:rx="4.0784221"
         sodipodi:ry="3.6705799"
         d="M 30.996007 58.450726 A 4.0784221 3.6705799 0 1 1  22.839163,58.450726 A 4.0784221 3.6705799 0 1 1  30.996007 58.450726 z"
         transform="matrix(0.9249135,0,0,1,126.07715,45.1971)" />
    </g>
    <g
       id="g20882"
       transform="translate(-33.685791,8.5745647)">
      <path
         id="path20796"
         d="M 252.57455,58.72892 L 277.87288,15.22525 L 302.93478,57.54676 L 273.85352,83.08153 L 252.57455,58.72892 z "
         style="fill:#008000;fill-rule:evenodd;stroke:#000000;stroke-width:1px;stroke-linecap:butt;stroke-linejoin:miter;stroke-opacity:1" />
      <path
         sodipodi:nodetypes="ccccc"
         id="path20794"
         d="M 303.0598,58.501494 L 288.80633,84.321088 L 317.51501,100.2907 L 341.87332,91.173395 L 303.0598,58.501494 z "
         style="fill:#ff7f2a;fill-rule:evenodd;stroke:#000000;stroke-width:0.99999994px;stroke-linecap:butt;stroke-linejoin:miter;stroke-opacity:1" />
      <path
         id="path20790"
         d="M 267.636,152.51872 L 242.20038,108.62145 L 273.72509,102.2514 L 279.07982,131.27886 L 267.636,152.51872 z "
         style="fill:#de8787;fill-rule:evenodd;stroke:#000000;stroke-width:0.99999988px;stroke-linecap:butt;stroke-linejoin:miter;stroke-opacity:1" />
      <path
         id="path20792"
         d="M 279.34719,133.31483 L 284.79078,96.031132 L 317.41115,101.06673 L 279.34719,133.31483 z "
         style="fill:#008080;fill-rule:evenodd;stroke:#000000;stroke-width:0.99999988px;stroke-linecap:butt;stroke-linejoin:miter;stroke-opacity:1" />
      <path
         sodipodi:type="arc"
         style="fill:#2b0000;fill-opacity:1;stroke:none;stroke-width:2;stroke-miterlimit:4;stroke-dasharray:none;stroke-opacity:1"
         id="path20800"
         sodipodi:cx="26.917585"
         sodipodi:cy="58.450726"
         sodipodi:rx="4.0784221"
         sodipodi:ry="3.6705799"
         d="M 30.996007 58.450726 A 4.0784221 3.6705799 0 1 1  22.839163,58.450726 A 4.0784221 3.6705799 0 1 1  30.996007 58.450726 z"
         transform="matrix(0.7085249,-0.5945229,0.6427875,0.7660444,223.01298,104.06905)" />
      <path
         sodipodi:type="arc"
         style="fill:#2b0000;fill-opacity:1;stroke:none;stroke-width:2;stroke-miterlimit:4;stroke-dasharray:none;stroke-opacity:1"
         id="path20802"
         sodipodi:cx="26.917585"
         sodipodi:cy="58.450726"
         sodipodi:rx="4.0784221"
         sodipodi:ry="3.6705799"
         d="M 30.996007 58.450726 A 4.0784221 3.6705799 0 1 1  22.839163,58.450726 A 4.0784221 3.6705799 0 1 1  30.996007 58.450726 z"
         transform="matrix(0.8691344,-0.316339,0.3420201,0.9396926,272.88648,54.661126)" />
      <path
         sodipodi:type="arc"
         style="fill:#2b0000;fill-opacity:1;stroke:none;stroke-width:2;stroke-miterlimit:4;stroke-dasharray:none;stroke-opacity:1"
         id="path20798"
         sodipodi:cx="26.917585"
         sodipodi:cy="58.450726"
         sodipodi:rx="4.0784221"
         sodipodi:ry="3.6705799"
         d="M 30.996007 58.450726 A 4.0784221 3.6705799 0 1 1  22.839163,58.450726 A 4.0784221 3.6705799 0 1 1  30.996007 58.450726 z"
         transform="matrix(0.9249135,0,0,1,278.0072,0.1188022)" />
    </g>
    <g
       id="g20940"
       transform="translate(20.823943,35.523197)">
      <path
         id="path20893"
         d="M 325.87541,62.274335 L 351.17374,18.770666 L 376.23564,61.092175 L 347.15438,86.626946 L 325.87541,62.274335 z "
         style="fill:#008000;fill-rule:evenodd;stroke:#000000;stroke-width:1px;stroke-linecap:butt;stroke-linejoin:miter;stroke-opacity:1" />
      <path
         sodipodi:nodetypes="ccccc"
         id="path20895"
         d="M 377.60487,60.693343 L 392.83856,85.947008 L 421.02299,69.06937 L 425.30633,43.4158 L 377.60487,60.693343 z "
         style="fill:#ff7f2a;fill-rule:evenodd;stroke:#000000;stroke-width:0.99999994px;stroke-linecap:butt;stroke-linejoin:miter;stroke-opacity:1" />
      <path
         id="path20897"
         d="M 457.25944,40.454331 L 507.99341,40.375071 L 497.74768,70.861301 L 469.9318,60.984901 L 457.25944,40.454331 z "
         style="fill:#de8787;fill-rule:evenodd;stroke:#000000;stroke-width:0.99999988px;stroke-linecap:butt;stroke-linejoin:miter;stroke-opacity:1" />
      <path
         id="path20899"
         d="M 471.00276,61.23814 L 447.64662,90.80498 L 421.91435,70.13384 L 471.00276,61.23814 z "
         style="fill:#008080;fill-rule:evenodd;stroke:#000000;stroke-width:0.99999988px;stroke-linecap:butt;stroke-linejoin:miter;stroke-opacity:1" />
      <path
         sodipodi:type="arc"
         style="fill:#2b0000;fill-opacity:1;stroke:none;stroke-width:2;stroke-miterlimit:4;stroke-dasharray:none;stroke-opacity:1"
         id="path20901"
         sodipodi:cx="26.917585"
         sodipodi:cy="58.450726"
         sodipodi:rx="4.0784221"
         sodipodi:ry="3.6705799"
         d="M 30.996007 58.450726 A 4.0784221 3.6705799 0 1 1  22.839163,58.450726 A 4.0784221 3.6705799 0 1 1  30.996007 58.450726 z"
         transform="matrix(-0.910862,0.1606095,-0.1736481,-0.9848077,505.16672,114.73284)" />
      <path
         sodipodi:type="arc"
         style="fill:#2b0000;fill-opacity:1;stroke:none;stroke-width:2;stroke-miterlimit:4;stroke-dasharray:none;stroke-opacity:1"
         id="path20903"
         sodipodi:cx="26.917585"
         sodipodi:cy="58.450726"
         sodipodi:rx="4.0784221"
         sodipodi:ry="3.6705799"
         d="M 30.996007 58.450726 A 4.0784221 3.6705799 0 1 1  22.839163,58.450726 A 4.0784221 3.6705799 0 1 1  30.996007 58.450726 z"
         transform="matrix(0.1606096,-0.910862,0.9848077,0.1736482,359.19235,84.904021)" />
      <path
         sodipodi:type="arc"
         style="fill:#2b0000;fill-opacity:1;stroke:none;stroke-width:2;stroke-miterlimit:4;stroke-dasharray:none;stroke-opacity:1"
         id="path20905"
         sodipodi:cx="26.917585"
         sodipodi:cy="58.450726"
         sodipodi:rx="4.0784221"
         sodipodi:ry="3.6705799"
         d="M 30.996007 58.450726 A 4.0784221 3.6705799 0 1 1  22.839163,58.450726 A 4.0784221 3.6705799 0 1 1  30.996007 58.450726 z"
         transform="matrix(0.9249135,0,0,1,351.30806,3.6642177)" />
    </g>
    <g
       id="g20949"
       transform="translate(57.572078,25.723695)">
      <g
         transform="matrix(-1,0,0,-1,936.7305,371.28714)"
         id="g19748">
        <path
           style="fill:#de8787;fill-rule:evenodd;stroke:#000000;stroke-width:1px;stroke-linecap:butt;stroke-linejoin:miter;stroke-opacity:1"
           d="M 369.90574,326.47999 L 395.20409,282.50345 L 416.48306,306.61962 L 394.02192,325.77069 L 369.90574,326.47999 z "
           id="path18564" />
        <path
           style="fill:#008080;fill-rule:evenodd;stroke:#000000;stroke-width:1px;stroke-linecap:butt;stroke-linejoin:miter;stroke-opacity:1"
           d="M 393.57236,325.87868 L 365.43683,350.94058 L 343.685,326.11512 L 393.57236,325.87868 z "
           id="path18566" />
        <path
           style="fill:#ff7f2a;fill-rule:evenodd;stroke:#000000;stroke-width:1px;stroke-linecap:butt;stroke-linejoin:miter;stroke-opacity:1"
           d="M 344.45851,283.55716 L 322.23381,302.94467 L 343.577,326.22024 L 370.10126,325.98381 L 344.45851,283.55716 z "
           id="path18568"
           sodipodi:nodetypes="ccccc" />
        <path
           style="fill:#008000;fill-rule:evenodd;stroke:#000000;stroke-width:1px;stroke-linecap:butt;stroke-linejoin:miter;stroke-opacity:1"
           d="M 395.18361,282.13857 L 369.88528,325.64225 L 344.82338,283.32073 L 373.90464,257.78596 L 395.18361,282.13857 z "
           id="path18570" />
      </g>
      <path
         sodipodi:type="arc"
         style="fill:#2b0000;fill-opacity:1;stroke:none;stroke-width:2;stroke-miterlimit:4;stroke-dasharray:none;stroke-opacity:1"
         id="path20934"
         sodipodi:cx="26.917585"
         sodipodi:cy="58.450726"
         sodipodi:rx="4.0784221"
         sodipodi:ry="3.6705799"
         d="M 30.996007 58.450726 A 4.0784221 3.6705799 0 1 1  22.839163,58.450726 A 4.0784221 3.6705799 0 1 1  30.996007 58.450726 z"
         transform="matrix(-0.910862,0.1606095,-0.1736481,-0.9848077,627.52619,98.727402)" />
      <path
         sodipodi:type="arc"
         style="fill:#2b0000;fill-opacity:1;stroke:none;stroke-width:2;stroke-miterlimit:4;stroke-dasharray:none;stroke-opacity:1"
         id="path20936"
         sodipodi:cx="26.917585"
         sodipodi:cy="58.450726"
         sodipodi:rx="4.0784221"
         sodipodi:ry="3.6705799"
         d="M 30.996007 58.450726 A 4.0784221 3.6705799 0 1 1  22.839163,58.450726 A 4.0784221 3.6705799 0 1 1  30.996007 58.450726 z"
         transform="matrix(0.1606096,-0.910862,0.9848077,0.1736482,480.63312,60.017783)" />
      <path
         sodipodi:type="arc"
         style="fill:#2b0000;fill-opacity:1;stroke:none;stroke-width:2;stroke-miterlimit:4;stroke-dasharray:none;stroke-opacity:1"
         id="path20938"
         sodipodi:cx="26.917585"
         sodipodi:cy="58.450726"
         sodipodi:rx="4.0784221"
         sodipodi:ry="3.6705799"
         d="M 30.996007 58.450726 A 4.0784221 3.6705799 0 1 1  22.839163,58.450726 A 4.0784221 3.6705799 0 1 1  30.996007 58.450726 z"
         transform="matrix(0.9249135,0,0,1,566.76281,29.00043)" />
    </g>
  </g>
</svg>
