<?xml version="1.0" encoding="utf-8"?>
<!-- Generator: Fusion 360, Shaper Origin Export Add-In, Version 1.5.0  -->
<svg enable-background="new 0 0 15 13.5903811" height="13.5903811cm" shaper:fusionaddin="version:1.5.0" version="1.1" viewBox="0 0 15 13.5903811" width="15cm" x="0cm" xml:space="preserve" xmlns="http://www.w3.org/2000/svg" xmlns:shaper="http://www.shapertools.com/namespaces/shaper" xmlns:xlink="http://www.w3.org/1999/xlink" y="0cm"><path d="M6.929981,3.7161929 L4.077208,0.4517914 A0.6,0.6 48.849665 1,0 3.0823857,0 L0,0 3.45,5.9755753 A0.6,0.6 240 1,0 4.2017914,6.1003683 L11.1823857,0" fill="none" shaper:cutDepth="0" shaper:pathType="guide" stroke="rgb(100,100,100)" transform="matrix(1,0,0,-1,-0,12.9903811)" vector-effect="non-scaling-stroke" /><path d="M4.2823857,0 L15,0 11.55,5.9755753 A0.6,0.6 300 1,1 10.8551778,6.0433992 L8.0024047,2.7789977" fill="none" shaper:cutDepth="0" shaper:pathType="guide" stroke="rgb(100,100,100)" transform="matrix(1,0,0,-1,-0,12.9903811)" vector-effect="non-scaling-stroke" /><path d="M3.55,6.4951905 a0.2,0.2 0 1,1 0.4,0 a0.2,0.2 0 1,1 -0.4,0z" fill="none" shaper:cutDepth="0" shaper:pathType="guide" stroke="rgb(100,100,100)" transform="matrix(1,0,0,-1,-0,12.9903811)" vector-effect="non-scaling-stroke" /><path d="M11.05,6.4951905 a0.2,0.2 0 1,1 0.4,0 a0.2,0.2 0 1,1 -0.4,0z" fill="none" shaper:cutDepth="0" shaper:pathType="guide" stroke="rgb(100,100,100)" transform="matrix(1,0,0,-1,-0,12.9903811)" vector-effect="non-scaling-stroke" /><path d="M3.4823857,0 a0.2,0.2 0 1,1 0.4,0 a0.2,0.2 0 1,1 -0.4,0z" fill="none" shaper:cutDepth="0" shaper:pathType="guide" stroke="rgb(100,100,100)" transform="matrix(1,0,0,-1,-0,12.9903811)" vector-effect="non-scaling-stroke" /><path d="M10.945,7.023466 A0.61,0.61 120 0,1 10.8485974,6.0358693" fill="none" shaper:cutDepth="0" shaper:pathType="guide" stroke="rgb(100,100,100)" transform="matrix(1,0,0,-1,-0,12.9903811)" vector-effect="non-scaling-stroke" /><path d="M10.95,7.0148058 L7.5,12.9903811 4.05,7.0148058" fill="none" shaper:cutDepth="0" shaper:pathType="guide" stroke="rgb(100,100,100)" transform="matrix(1,0,0,-1,-0,12.9903811)" vector-effect="non-scaling-stroke" /><path d="M4.2093212,6.093788 A0.61,0.61 318.849665 0,1 4.055,7.023466" fill="none" shaper:cutDepth="0" shaper:pathType="guide" stroke="rgb(100,100,100)" transform="matrix(1,0,0,-1,-0,12.9903811)" vector-effect="non-scaling-stroke" /><path d="M4.2923857,0 A0.61,0.61 0 0,1 4.0837883,0.4593212" fill="none" shaper:cutDepth="0" shaper:pathType="guide" stroke="rgb(100,100,100)" transform="matrix(1,0,0,-1,-0,12.9903811)" vector-effect="non-scaling-stroke" /></svg>